G04*
G04 #@! TF.GenerationSoftware,Altium Limited,Altium Designer,24.3.1 (35)*
G04*
G04 Layer_Color=128*
%FSLAX44Y44*%
%MOMM*%
G71*
G04*
G04 #@! TF.SameCoordinates,35E8F126-3BB9-435E-BEC0-E910B6038B45*
G04*
G04*
G04 #@! TF.FilePolarity,Positive*
G04*
G01*
G75*
%ADD15C,0.1270*%
D15*
X651102Y713959D02*
X652118D01*
X651610Y713451D02*
Y714467D01*
X654899Y716115D02*
X655915D01*
X655407Y715607D02*
Y716623D01*
X510620Y599654D02*
X511636D01*
X511128Y599146D02*
Y600162D01*
X516137Y614441D02*
X517153D01*
X516645Y613933D02*
Y614949D01*
X508572Y616393D02*
X509588D01*
X509080Y615885D02*
Y616901D01*
X686385Y716468D02*
X687401D01*
X686893Y715959D02*
Y716975D01*
X697433Y719516D02*
X698449D01*
X697941Y719007D02*
Y720023D01*
X688072Y558489D02*
X689088D01*
X688580Y557981D02*
Y558997D01*
X657848Y585103D02*
X658864D01*
X658356Y584595D02*
Y585611D01*
X647197Y547067D02*
X648213D01*
X647705Y546559D02*
Y547575D01*
X701796Y549958D02*
X702812D01*
X702304Y549450D02*
Y550466D01*
X701282Y603919D02*
X702298D01*
X701790Y603411D02*
Y604427D01*
X714796Y558308D02*
X715812D01*
X715304Y557800D02*
Y558816D01*
X712978Y545758D02*
X713994D01*
X713486Y545250D02*
Y546266D01*
X746796Y546356D02*
X747812D01*
X747304Y545848D02*
Y546864D01*
X719303Y582767D02*
X720319D01*
X719811Y582259D02*
Y583275D01*
X683337Y695296D02*
X684353D01*
X683845Y694788D02*
Y695804D01*
X628731Y551258D02*
X629747D01*
X629239Y550750D02*
Y551766D01*
X663226Y508739D02*
X664242D01*
X663734Y508231D02*
Y509247D01*
X691601Y505917D02*
X692617D01*
X692110Y505409D02*
Y506425D01*
X757936Y509824D02*
X758952D01*
X758444Y509316D02*
Y510332D01*
X691580Y483806D02*
X692596D01*
X692088Y483298D02*
Y484314D01*
X656201Y511454D02*
X657217D01*
X656709Y510946D02*
Y511962D01*
X627524Y629826D02*
X628540D01*
X628032Y629318D02*
Y630334D01*
X633553Y609423D02*
X634569D01*
X634061Y608915D02*
Y609931D01*
X880238Y600456D02*
X881254D01*
X880746Y599948D02*
Y600964D01*
X877978Y578464D02*
X878994D01*
X878486Y577956D02*
Y578972D01*
X880238Y615709D02*
X881254D01*
X880746Y615201D02*
Y616217D01*
X659892Y415036D02*
X660908D01*
X660400Y414528D02*
Y415544D01*
X761495Y419865D02*
X762511D01*
X762002Y419356D02*
Y420373D01*
X901940Y596329D02*
X902956D01*
X902448Y595821D02*
Y596837D01*
X897382Y619760D02*
X898398D01*
X897890Y619252D02*
Y620268D01*
X912622Y619760D02*
X913638D01*
X913130Y619252D02*
Y620268D01*
X1056216Y596795D02*
X1057232D01*
X1056724Y596287D02*
Y597303D01*
X455930Y622300D02*
X456946D01*
X456438Y621792D02*
Y622808D01*
X455930Y647700D02*
X456946D01*
X456438Y647192D02*
Y648208D01*
X545592Y419862D02*
X546608D01*
X546100Y419354D02*
Y420370D01*
X693248Y537958D02*
X694264D01*
X693756Y537450D02*
Y538466D01*
X777663Y592294D02*
X778679D01*
X778171Y591786D02*
Y592802D01*
X769721Y549402D02*
X770737D01*
X770229Y548894D02*
Y549910D01*
X703072Y493268D02*
X704088D01*
X703580Y492760D02*
Y493776D01*
X699262Y512317D02*
X700278D01*
X699770Y511809D02*
Y512825D01*
X812294Y456440D02*
X813310D01*
X812802Y455932D02*
Y456948D01*
X786894Y456440D02*
X787910D01*
X787402Y455932D02*
Y456948D01*
X761494Y456440D02*
X762510D01*
X762002Y455932D02*
Y456948D01*
X774194Y456440D02*
X775210D01*
X774702Y455932D02*
Y456948D01*
X812294Y419865D02*
X813310D01*
X812803Y419356D02*
Y420373D01*
X786895Y419865D02*
X787911D01*
X787402Y419356D02*
Y420373D01*
X774194Y419865D02*
X775210D01*
X774703Y419356D02*
Y420373D01*
X697992Y443738D02*
X699008D01*
X698500Y443230D02*
Y444246D01*
X647192Y443738D02*
X648208D01*
X647700Y443230D02*
Y444246D01*
X621792Y443738D02*
X622808D01*
X622300Y443230D02*
Y444246D01*
X882159Y708389D02*
X883175D01*
X882667Y707881D02*
Y708897D01*
X881823Y717313D02*
X882839D01*
X882331Y716805D02*
Y717821D01*
X929008Y596299D02*
X930024D01*
X929517Y595791D02*
Y596807D01*
X985715Y596325D02*
X986731D01*
X986223Y595816D02*
Y596833D01*
X885595Y543272D02*
X886611D01*
X886103Y542764D02*
Y543780D01*
X1000125Y555626D02*
X1001141D01*
X1000633Y555118D02*
Y556134D01*
X1000125Y564770D02*
X1001141D01*
X1000633Y564262D02*
Y565278D01*
X1000125Y573914D02*
X1001141D01*
X1000633Y573406D02*
Y574422D01*
X1000125Y583058D02*
X1001141D01*
X1000633Y582550D02*
Y583566D01*
X1000125Y715392D02*
X1001141D01*
X1000633Y714884D02*
Y715900D01*
X969901Y710820D02*
X970917D01*
X970409Y710312D02*
Y711328D01*
X777066Y568004D02*
X778082D01*
X777574Y567496D02*
Y568512D01*
X576326Y715895D02*
X577342D01*
X576834Y715387D02*
Y716403D01*
X654995Y530678D02*
X656011D01*
X655503Y530170D02*
Y531186D01*
X671546Y534115D02*
X672562D01*
X672054Y533607D02*
Y534623D01*
X671546Y525025D02*
X672562D01*
X672054Y524517D02*
Y525533D01*
X723392Y535134D02*
X724408D01*
X723900Y534626D02*
Y535642D01*
X723970Y593276D02*
X724986D01*
X724479Y592769D02*
Y593784D01*
X623247Y540226D02*
X624263D01*
X623755Y539718D02*
Y540734D01*
X623114Y558277D02*
X624130D01*
X623622Y557769D02*
Y558785D01*
X717299Y596201D02*
X718315D01*
X717807Y595693D02*
Y596709D01*
X747844Y536046D02*
X748860D01*
X748352Y535538D02*
Y536554D01*
X727272Y590808D02*
X728288D01*
X727780Y590300D02*
Y591316D01*
X552050Y549337D02*
X553066D01*
X552558Y548829D02*
Y549845D01*
X744640Y586152D02*
X745656D01*
X745148Y585644D02*
Y586660D01*
X772842Y570815D02*
X773858D01*
X773350Y570307D02*
Y571323D01*
X664209Y522232D02*
X665225D01*
X664717Y521724D02*
Y522740D01*
X559891Y603485D02*
X560907D01*
X560399Y602977D02*
Y603993D01*
X733209Y567767D02*
X734225D01*
X733717Y567259D02*
Y568275D01*
X623247Y527630D02*
X624263D01*
X623755Y527122D02*
Y528138D01*
X623255Y519379D02*
X624271D01*
X623763Y518871D02*
Y519887D01*
X619264Y516964D02*
X620280D01*
X619772Y516456D02*
Y517472D01*
X583161Y524178D02*
X584177D01*
X583669Y523670D02*
Y524686D01*
X583161Y607933D02*
X584177D01*
X583669Y607425D02*
Y608441D01*
X587911Y562177D02*
X588927D01*
X588419Y561669D02*
Y562685D01*
X587911Y608312D02*
X588927D01*
X588419Y607804D02*
Y608820D01*
X549230Y559658D02*
X550246D01*
X549738Y559150D02*
Y560166D01*
X675527Y511454D02*
X676543D01*
X676035Y510946D02*
Y511962D01*
X675527Y525025D02*
X676543D01*
X676035Y524517D02*
Y525533D01*
X693749Y529229D02*
X694765D01*
X694257Y528721D02*
Y529737D01*
X616175Y509298D02*
X617191D01*
X616683Y508790D02*
Y509806D01*
X583459Y514327D02*
X584475D01*
X583967Y513819D02*
Y514835D01*
X915508Y613329D02*
X916525D01*
X916016Y612821D02*
Y613837D01*
X970120Y631286D02*
X971136D01*
X970628Y630778D02*
Y631794D01*
X926919Y549125D02*
X927935D01*
X927427Y548617D02*
Y549633D01*
X927250Y558125D02*
X928266D01*
X927758Y557617D02*
Y558633D01*
X927250Y567269D02*
X928266D01*
X927758Y566761D02*
Y567777D01*
X927250Y576413D02*
X928266D01*
X927758Y575905D02*
Y576921D01*
X927250Y585557D02*
X928266D01*
X927758Y585049D02*
Y586065D01*
X952860Y553553D02*
X953876D01*
X953368Y553045D02*
Y554061D01*
X952860Y562697D02*
X953876D01*
X953368Y562189D02*
Y563205D01*
X952860Y571841D02*
X953876D01*
X953368Y571333D02*
Y572349D01*
X955359Y582021D02*
X956375D01*
X955867Y581513D02*
Y582529D01*
X885388Y530782D02*
X886404D01*
X885896Y530274D02*
Y531290D01*
X894337Y533253D02*
X895353D01*
X894845Y532745D02*
Y533761D01*
X903839Y534510D02*
X904855D01*
X904347Y534002D02*
Y535018D01*
X975667Y618787D02*
X976683D01*
X976175Y618279D02*
Y619295D01*
X975667Y623788D02*
X976683D01*
X976175Y623280D02*
Y624296D01*
X971012Y624132D02*
X972029D01*
X971520Y623624D02*
Y624640D01*
X975667Y628786D02*
X976683D01*
X976175Y628278D02*
Y629294D01*
X975667Y633788D02*
X976683D01*
X976175Y633280D02*
Y634296D01*
X970120Y636287D02*
X971136D01*
X970628Y635779D02*
Y636795D01*
X975667Y638789D02*
X976683D01*
X976175Y638281D02*
Y639297D01*
X970120Y641288D02*
X971136D01*
X970628Y640780D02*
Y641796D01*
X975667Y643788D02*
X976683D01*
X976175Y643280D02*
Y644296D01*
X970120Y646287D02*
X971136D01*
X970628Y645779D02*
Y646795D01*
X880238Y659714D02*
X881254D01*
X880746Y659206D02*
Y660222D01*
X986011Y608442D02*
X987027D01*
X986519Y607934D02*
Y608950D01*
X996011Y604132D02*
X997027D01*
X996519Y603624D02*
Y604640D01*
X1006011Y604132D02*
X1007027D01*
X1006519Y603624D02*
Y604640D01*
X773211Y601634D02*
X774227D01*
X773719Y601126D02*
Y602142D01*
X765766Y608397D02*
X766782D01*
X766274Y607889D02*
Y608905D01*
X783712Y673750D02*
X784728D01*
X784220Y673242D02*
Y674258D01*
X783712Y659750D02*
X784728D01*
X784220Y659242D02*
Y660258D01*
X878827Y673750D02*
X879843D01*
X879335Y673242D02*
Y674258D01*
X765766Y584076D02*
X766782D01*
X766274Y583568D02*
Y584584D01*
X970120Y651288D02*
X971136D01*
X970628Y650780D02*
Y651796D01*
X975667Y648789D02*
X976683D01*
X976175Y648281D02*
Y649297D01*
X975667Y653788D02*
X976683D01*
X976175Y653280D02*
Y654296D01*
X975667Y658789D02*
X976683D01*
X976175Y658281D02*
Y659297D01*
X970120Y656287D02*
X971136D01*
X970628Y655779D02*
Y656795D01*
X924420Y675912D02*
X925436D01*
X924928Y675404D02*
Y676420D01*
X924751Y684912D02*
X925767D01*
X925259Y684404D02*
Y685420D01*
X924751Y694056D02*
X925767D01*
X925259Y693548D02*
Y694564D01*
X924751Y703200D02*
X925767D01*
X925259Y702692D02*
Y703708D01*
X924751Y712344D02*
X925767D01*
X925259Y711836D02*
Y712852D01*
X864173Y709168D02*
X865189D01*
X864681Y708660D02*
Y709676D01*
X866328Y724275D02*
X867344D01*
X866836Y723767D02*
Y724783D01*
X884490Y734552D02*
X885506D01*
X884998Y734044D02*
Y735060D01*
X980668Y663788D02*
X981684D01*
X981176Y663280D02*
Y664296D01*
X985667Y663788D02*
X986683D01*
X986175Y663280D02*
Y664296D01*
X953204Y708665D02*
X954220D01*
X953712Y708157D02*
Y709173D01*
X953204Y699521D02*
X954220D01*
X953712Y699013D02*
Y700029D01*
X953204Y690377D02*
X954220D01*
X953712Y689869D02*
Y690885D01*
X955359Y680340D02*
X956375D01*
X955867Y679832D02*
Y680848D01*
X993168Y669335D02*
X994184D01*
X993676Y668827D02*
Y669843D01*
X970120Y661288D02*
X971136D01*
X970628Y660780D02*
Y661796D01*
X970120Y666287D02*
X971136D01*
X970628Y665779D02*
Y666795D01*
X976011Y664132D02*
X977027D01*
X976519Y663624D02*
Y664640D01*
X983168Y669335D02*
X984184D01*
X983676Y668827D02*
Y669843D01*
X988167Y669335D02*
X989183D01*
X988674Y668827D02*
Y669843D01*
X998667Y676340D02*
X999683D01*
X999175Y675832D02*
Y676848D01*
X998166Y669335D02*
X999182D01*
X998674Y668827D02*
Y669843D01*
X1003168Y669335D02*
X1004184D01*
X1003676Y668827D02*
Y669843D01*
X1036822Y728432D02*
X1037838D01*
X1037330Y727924D02*
Y728940D01*
X1028822Y728432D02*
X1029838D01*
X1029330Y727924D02*
Y728940D01*
X1020822Y728432D02*
X1021838D01*
X1021330Y727924D02*
Y728940D01*
X1010667Y729514D02*
X1011683D01*
X1011175Y729006D02*
Y730022D01*
X1002667Y729324D02*
X1003683D01*
X1003175Y728816D02*
Y729832D01*
X992512Y728432D02*
X993528D01*
X993020Y727924D02*
Y728940D01*
X983619Y726276D02*
X984635D01*
X984127Y725768D02*
Y726784D01*
X1018169Y669335D02*
X1019185D01*
X1018677Y668827D02*
Y669843D01*
X1023168Y669335D02*
X1024184D01*
X1023676Y668827D02*
Y669843D01*
X1028169Y669335D02*
X1029185D01*
X1028677Y668827D02*
Y669843D01*
X1033168Y669335D02*
X1034184D01*
X1033676Y668827D02*
Y669843D01*
X1154621Y578486D02*
X1155637D01*
X1155129Y577978D02*
Y578994D01*
X1048169Y669822D02*
X1049185D01*
X1048677Y669314D02*
Y670330D01*
X1035667Y663788D02*
X1036683D01*
X1036175Y663280D02*
Y664296D01*
X1038169Y669822D02*
X1039185D01*
X1038677Y669314D02*
Y670330D01*
X1040668Y663788D02*
X1041684D01*
X1041176Y663280D02*
Y664296D01*
X1043168Y669822D02*
X1044184D01*
X1043676Y669314D02*
Y670330D01*
X1155891Y567818D02*
X1156907D01*
X1156399Y567310D02*
Y568326D01*
X1045667Y663788D02*
X1046683D01*
X1046175Y663280D02*
Y664296D01*
X1056216Y666287D02*
X1057232D01*
X1056724Y665779D02*
Y666795D01*
X1065975Y712344D02*
X1066991D01*
X1066483Y711836D02*
Y712852D01*
X1065975Y703200D02*
X1066991D01*
X1066483Y702692D02*
Y703708D01*
X1065975Y694056D02*
X1066991D01*
X1066483Y693548D02*
Y694564D01*
X1065975Y684912D02*
X1066991D01*
X1066483Y684404D02*
Y685420D01*
X1094428Y708665D02*
X1095444D01*
X1094936Y708157D02*
Y709173D01*
X1094572Y699521D02*
X1095588D01*
X1095080Y699013D02*
Y700029D01*
X1094428Y690377D02*
X1095444D01*
X1094936Y689869D02*
Y690885D01*
X1094428Y681233D02*
X1095444D01*
X1094936Y680725D02*
Y681741D01*
X1146643Y676412D02*
X1147659D01*
X1147151Y675904D02*
Y676920D01*
X1148799Y721579D02*
X1149815D01*
X1149307Y721071D02*
Y722087D01*
X1155891Y703056D02*
X1156907D01*
X1156399Y702548D02*
Y703564D01*
X1155891Y693912D02*
X1156907D01*
X1156399Y693404D02*
Y694420D01*
X1050668Y633788D02*
X1051684D01*
X1051176Y633280D02*
Y634296D01*
X1056216Y661288D02*
X1057232D01*
X1056724Y660780D02*
Y661796D01*
X1056216Y656287D02*
X1057232D01*
X1056724Y655779D02*
Y656795D01*
X1056216Y651288D02*
X1057232D01*
X1056724Y650780D02*
Y651796D01*
X1056216Y646287D02*
X1057232D01*
X1056724Y645779D02*
Y646795D01*
X1056216Y641288D02*
X1057232D01*
X1056724Y640780D02*
Y641796D01*
X1056216Y636287D02*
X1057232D01*
X1056724Y635779D02*
Y636795D01*
X1050668Y628786D02*
X1051684D01*
X1051176Y628278D02*
Y629294D01*
X1056216Y631286D02*
X1057232D01*
X1056724Y630778D02*
Y631794D01*
X1093684Y596178D02*
X1094700D01*
X1094192Y595670D02*
Y596686D01*
X1035323Y604132D02*
X1036339D01*
X1035831Y603624D02*
Y604640D01*
X1045323Y604132D02*
X1046339D01*
X1045831Y603624D02*
Y604640D01*
X1129244Y596178D02*
X1130260D01*
X1129752Y595670D02*
Y596686D01*
X1111464Y596178D02*
X1112480D01*
X1111972Y595670D02*
Y596686D01*
X1040324Y604132D02*
X1041340D01*
X1040832Y603624D02*
Y604640D01*
X1050668Y658789D02*
X1051684D01*
X1051176Y658281D02*
Y659297D01*
X1050668Y653788D02*
X1051684D01*
X1051176Y653280D02*
Y654296D01*
X1050668Y648789D02*
X1051684D01*
X1051176Y648281D02*
Y649297D01*
X1050668Y643788D02*
X1051684D01*
X1051176Y643280D02*
Y644296D01*
X1050668Y638789D02*
X1051684D01*
X1051176Y638281D02*
Y639297D01*
X1050668Y623788D02*
X1051684D01*
X1051176Y623280D02*
Y624296D01*
X1050668Y618787D02*
X1051684D01*
X1051176Y618279D02*
Y619295D01*
X1056216Y626287D02*
X1057232D01*
X1056724Y625779D02*
Y626795D01*
X1028169Y658240D02*
X1029185D01*
X1028677Y657732D02*
Y658748D01*
X1023168Y658240D02*
X1024184D01*
X1023676Y657732D02*
Y658748D01*
X1018169Y658240D02*
X1019185D01*
X1018677Y657732D02*
Y658748D01*
X1013168Y658240D02*
X1014184D01*
X1013676Y657732D02*
Y658748D01*
X1008166Y658240D02*
X1009182D01*
X1008674Y657732D02*
Y658748D01*
X1003168Y658240D02*
X1004184D01*
X1003676Y657732D02*
Y658748D01*
X998166Y658240D02*
X999182D01*
X998674Y657732D02*
Y658748D01*
X993168Y658240D02*
X994184D01*
X993676Y657732D02*
Y658748D01*
X1001713Y600344D02*
X1002729D01*
X1002221Y599836D02*
Y600852D01*
X1013168Y669335D02*
X1014184D01*
X1013676Y668827D02*
Y669843D01*
X1008166Y669335D02*
X1009182D01*
X1008674Y668827D02*
Y669843D01*
X998667Y595876D02*
X999683D01*
X999175Y595368D02*
Y596384D01*
X918557Y602281D02*
X919573D01*
X919064Y601773D02*
Y602789D01*
X925604Y613329D02*
X926620D01*
X926113Y612821D02*
Y613837D01*
X1051217Y596329D02*
X1052233D01*
X1051725Y595821D02*
Y596837D01*
X1145373Y550174D02*
X1146389D01*
X1145881Y549666D02*
Y550682D01*
X1144488Y593713D02*
X1145504D01*
X1144996Y593205D02*
Y594221D01*
X1000379Y544930D02*
X1001395D01*
X1000887Y544422D02*
Y545438D01*
X992822Y542325D02*
X993838D01*
X993330Y541817D02*
Y542833D01*
X1014031Y543854D02*
X1015047D01*
X1014539Y543346D02*
Y544362D01*
X1006667Y543218D02*
X1007683D01*
X1007175Y542710D02*
Y543726D01*
X1020512Y542325D02*
X1021528D01*
X1021020Y541817D02*
Y542833D01*
X1028512Y542325D02*
X1029528D01*
X1029020Y541817D02*
Y542833D01*
X1024827Y590411D02*
X1025843D01*
X1025335Y589903D02*
Y590919D01*
X1094428Y553209D02*
X1095444D01*
X1094936Y552701D02*
Y553717D01*
X1094428Y562353D02*
X1095444D01*
X1094936Y561845D02*
Y562861D01*
X1094428Y571497D02*
X1095444D01*
X1094936Y570989D02*
Y572005D01*
X1096583Y581534D02*
X1097599D01*
X1097091Y581026D02*
Y582042D01*
X1068130Y576069D02*
X1069146D01*
X1068638Y575561D02*
Y576577D01*
X1068130Y566925D02*
X1069146D01*
X1068638Y566417D02*
Y567433D01*
X1068130Y557781D02*
X1069146D01*
X1068638Y557273D02*
Y558289D01*
X1065975Y586106D02*
X1066991D01*
X1066483Y585598D02*
Y586614D01*
X1141349Y687960D02*
X1142365D01*
X1141857Y687452D02*
Y688468D01*
X1141349Y697104D02*
X1142365D01*
X1141857Y696596D02*
Y697612D01*
X1141349Y706248D02*
X1142365D01*
X1141857Y705740D02*
Y706756D01*
X1141349Y715392D02*
X1142365D01*
X1141857Y714884D02*
Y715900D01*
X1111125Y683388D02*
X1112141D01*
X1111633Y682880D02*
Y683896D01*
X1111125Y692532D02*
X1112141D01*
X1111633Y692024D02*
Y693040D01*
X1111125Y701676D02*
X1112141D01*
X1111633Y701168D02*
Y702184D01*
X1111125Y710820D02*
X1112141D01*
X1111633Y710312D02*
Y711328D01*
X1051433Y687960D02*
X1052449D01*
X1051941Y687452D02*
Y688468D01*
X1051433Y697104D02*
X1052449D01*
X1051941Y696596D02*
Y697612D01*
X1051433Y706248D02*
X1052449D01*
X1051941Y705740D02*
Y706756D01*
X1051433Y715392D02*
X1052449D01*
X1051941Y714884D02*
Y715900D01*
X1021209Y710820D02*
X1022225D01*
X1021717Y710312D02*
Y711328D01*
X1021209Y701676D02*
X1022225D01*
X1021717Y701168D02*
Y702184D01*
X1021209Y692532D02*
X1022225D01*
X1021717Y692024D02*
Y693040D01*
X1021209Y683388D02*
X1022225D01*
X1021717Y682880D02*
Y683896D01*
X1000125Y687960D02*
X1001141D01*
X1000633Y687452D02*
Y688468D01*
X1000125Y697104D02*
X1001141D01*
X1000633Y696596D02*
Y697612D01*
X1000125Y706248D02*
X1001141D01*
X1000633Y705740D02*
Y706756D01*
X969901Y683388D02*
X970917D01*
X970409Y682880D02*
Y683896D01*
X969901Y692532D02*
X970917D01*
X970409Y692024D02*
Y693040D01*
X969901Y701676D02*
X970917D01*
X970409Y701168D02*
Y702184D01*
X879985Y683388D02*
X881001D01*
X880493Y682880D02*
Y683896D01*
X880878Y694687D02*
X881894D01*
X881386Y694179D02*
Y695195D01*
X910209Y687960D02*
X911225D01*
X910717Y687452D02*
Y688468D01*
X910209Y697104D02*
X911225D01*
X910717Y696596D02*
Y697612D01*
X910209Y706248D02*
X911225D01*
X910717Y705740D02*
Y706756D01*
X910209Y715392D02*
X911225D01*
X910717Y714884D02*
Y715900D01*
X883033Y557150D02*
X884049D01*
X883541Y556642D02*
Y557658D01*
X883033Y566294D02*
X884049D01*
X883541Y565786D02*
Y566802D01*
X880878Y576331D02*
X881894D01*
X881386Y575823D02*
Y576839D01*
X910209Y555626D02*
X911225D01*
X910717Y555118D02*
Y556134D01*
X910209Y564770D02*
X911225D01*
X910717Y564262D02*
Y565278D01*
X910209Y573914D02*
X911225D01*
X910717Y573406D02*
Y574422D01*
X910209Y583058D02*
X911225D01*
X910717Y582550D02*
Y583566D01*
X969901Y551054D02*
X970917D01*
X970409Y550546D02*
Y551562D01*
X969901Y560198D02*
X970917D01*
X970409Y559690D02*
Y560706D01*
X969901Y569342D02*
X970917D01*
X970409Y568834D02*
Y569850D01*
X969901Y578486D02*
X970917D01*
X970409Y577978D02*
Y578994D01*
X1141349Y555626D02*
X1142365D01*
X1141857Y555118D02*
Y556134D01*
X1141349Y564770D02*
X1142365D01*
X1141857Y564262D02*
Y565278D01*
X1141349Y573914D02*
X1142365D01*
X1141857Y573406D02*
Y574422D01*
X1141349Y583058D02*
X1142365D01*
X1141857Y582550D02*
Y583566D01*
X1111125Y551054D02*
X1112141D01*
X1111633Y550546D02*
Y551562D01*
X1111125Y560198D02*
X1112141D01*
X1111633Y559690D02*
Y560706D01*
X1111125Y569342D02*
X1112141D01*
X1111633Y568834D02*
Y569850D01*
X1111125Y578486D02*
X1112141D01*
X1111633Y577978D02*
Y578994D01*
X1051433Y555626D02*
X1052449D01*
X1051941Y555118D02*
Y556134D01*
X1051433Y564770D02*
X1052449D01*
X1051941Y564262D02*
Y565278D01*
X1051433Y573914D02*
X1052449D01*
X1051941Y573406D02*
Y574422D01*
X1051433Y583058D02*
X1052449D01*
X1051941Y582550D02*
Y583566D01*
X1021209Y551054D02*
X1022225D01*
X1021717Y550546D02*
Y551562D01*
X1021209Y560198D02*
X1022225D01*
X1021717Y559690D02*
Y560706D01*
X1021209Y569342D02*
X1022225D01*
X1021717Y568834D02*
Y569850D01*
X1021209Y578486D02*
X1022225D01*
X1021717Y577978D02*
Y578994D01*
X759551Y613397D02*
X760567D01*
X760060Y612889D02*
Y613905D01*
X756412Y553308D02*
X757428D01*
X756920Y552800D02*
Y553816D01*
X752337Y565815D02*
X753353D01*
X752845Y565307D02*
Y566323D01*
X770163Y605974D02*
X771179D01*
X770671Y605466D02*
Y606482D01*
X744800Y613397D02*
X745816D01*
X745308Y612889D02*
Y613905D01*
X773213Y586399D02*
X774229D01*
X773721Y585891D02*
Y586907D01*
X769126Y563511D02*
X770142D01*
X769633Y563003D02*
Y564019D01*
X765149Y575815D02*
X766165D01*
X765657Y575307D02*
Y576323D01*
X791819Y553308D02*
X792835D01*
X792327Y552800D02*
Y553816D01*
X754770Y577767D02*
X755786D01*
X755278Y577259D02*
Y578275D01*
X765194Y537958D02*
X766210D01*
X765702Y537450D02*
Y538466D01*
X507576Y580706D02*
X508592D01*
X508084Y580198D02*
Y581214D01*
X707654Y619808D02*
X708670D01*
X708162Y619300D02*
Y620316D01*
X768800Y526303D02*
X769816D01*
X769308Y525795D02*
Y526811D01*
X541410Y633441D02*
X542426D01*
X541918Y632933D02*
Y633949D01*
X756412Y616760D02*
X757428D01*
X756920Y616252D02*
Y617268D01*
X736796Y539094D02*
X737812D01*
X737304Y538586D02*
Y539602D01*
X754844Y606308D02*
X755860D01*
X755352Y605800D02*
Y606816D01*
X727464Y619808D02*
X728480D01*
X727972Y619300D02*
Y620316D01*
X577479Y591266D02*
X578495D01*
X577987Y590758D02*
Y591774D01*
X601609Y509298D02*
X602625D01*
X602117Y508790D02*
Y509806D01*
X635413Y509298D02*
X636429D01*
X635921Y508790D02*
Y509806D01*
X780711Y584246D02*
X781727D01*
X781219Y583738D02*
Y584754D01*
X780713Y564207D02*
X781729D01*
X781221Y563699D02*
Y564715D01*
X711796Y596356D02*
X712812D01*
X712304Y595848D02*
Y596864D01*
X727464Y610808D02*
X728480D01*
X727972Y610300D02*
Y611316D01*
X623114Y589807D02*
X624130D01*
X623622Y589299D02*
Y590315D01*
X556202Y552610D02*
X557218D01*
X556710Y552102D02*
Y553118D01*
X564702Y552610D02*
X565718D01*
X565210Y552102D02*
Y553118D01*
X628317Y596962D02*
X629333D01*
X628825Y596454D02*
Y597470D01*
X511035Y656407D02*
X512051D01*
X511543Y655899D02*
Y656915D01*
X538035Y656407D02*
X539051D01*
X538543Y655899D02*
Y656915D01*
X565632Y624281D02*
X566648D01*
X566140Y623773D02*
Y624789D01*
X645729Y597807D02*
X646745D01*
X646237Y597299D02*
Y598315D01*
X760877Y583308D02*
X761893D01*
X761385Y582800D02*
Y583816D01*
X672998Y551258D02*
X674014D01*
X673506Y550750D02*
Y551766D01*
X680998Y536528D02*
X682014D01*
X681506Y536020D02*
Y537036D01*
X645729Y589807D02*
X646745D01*
X646237Y589299D02*
Y590315D01*
X644413Y509298D02*
X645429D01*
X644921Y508790D02*
Y509806D01*
X610609Y509298D02*
X611625D01*
X611117Y508790D02*
Y509806D01*
X628613Y555706D02*
X629629D01*
X629121Y555198D02*
Y556214D01*
X731939Y545825D02*
X732955D01*
X732447Y545317D02*
Y546333D01*
X723392Y522732D02*
X724408D01*
X723900Y522224D02*
Y523240D01*
X694640Y555463D02*
X695656D01*
X695148Y554955D02*
Y555971D01*
X564702Y588266D02*
X565718D01*
X565210Y587758D02*
Y588774D01*
X556202Y588266D02*
X557218D01*
X556710Y587758D02*
Y588774D01*
X546182Y587110D02*
X547198D01*
X546690Y586602D02*
Y587618D01*
X577709Y582721D02*
X578725D01*
X578217Y582213D02*
Y583229D01*
X575661Y538711D02*
X576677D01*
X576169Y538203D02*
Y539219D01*
X620161Y571356D02*
X621177D01*
X620669Y570848D02*
Y571864D01*
X578229Y545913D02*
X579245D01*
X578737Y545405D02*
Y546421D01*
X556688Y614633D02*
X557704D01*
X557196Y614125D02*
Y615141D01*
X585450Y622993D02*
X586466D01*
X585958Y622485D02*
Y623501D01*
X612459Y591266D02*
X613475D01*
X612967Y590758D02*
Y591774D01*
X600161Y539941D02*
X601177D01*
X600669Y539433D02*
Y540449D01*
X600161Y576544D02*
X601177D01*
X600669Y576036D02*
Y577052D01*
X575181Y557711D02*
X576197D01*
X575689Y557203D02*
Y558219D01*
X609411Y557711D02*
X610427D01*
X609919Y557203D02*
Y558219D01*
X553477Y643436D02*
X554493D01*
X553985Y642928D02*
Y643944D01*
X563680Y641281D02*
X564696D01*
X564188Y640773D02*
Y641789D01*
X555632Y627329D02*
X556648D01*
X556140Y626821D02*
Y627837D01*
X557640Y594355D02*
X558656D01*
X558148Y593847D02*
Y594863D01*
X564688Y614633D02*
X565704D01*
X565196Y614125D02*
Y615141D01*
X637447Y632903D02*
X638463D01*
X637955Y632395D02*
Y633411D01*
X620161Y614356D02*
X621177D01*
X620669Y613848D02*
Y614864D01*
X607447Y618807D02*
X608463D01*
X607955Y618299D02*
Y619315D01*
X679911Y573902D02*
X680927D01*
X680418Y573394D02*
Y574410D01*
X671518Y565538D02*
X672534D01*
X672026Y565030D02*
Y566046D01*
X656998Y604808D02*
X658014D01*
X657506Y604300D02*
Y605316D01*
X656998Y588808D02*
X658014D01*
X657506Y588300D02*
Y589316D01*
X654808Y565538D02*
X655824D01*
X655316Y565030D02*
Y566046D01*
X654808Y576058D02*
X655824D01*
X655316Y575550D02*
Y576566D01*
X560452Y540961D02*
X561468D01*
X560960Y540453D02*
Y541469D01*
X546452Y540961D02*
X547468D01*
X546960Y540453D02*
Y541469D01*
X509731Y550852D02*
X510747D01*
X510239Y550344D02*
Y551360D01*
X515460Y582730D02*
X516476D01*
X515968Y582222D02*
Y583238D01*
X538182Y587110D02*
X539198D01*
X538690Y586602D02*
Y587618D01*
X541926Y625553D02*
X542942D01*
X542434Y625045D02*
Y626061D01*
X541506Y605383D02*
X542522D01*
X542014Y604875D02*
Y605891D01*
X534980Y561658D02*
X535996D01*
X535488Y561150D02*
Y562166D01*
X534980Y577658D02*
X535996D01*
X535488Y577150D02*
Y578166D01*
X704296Y563760D02*
X705312D01*
X704804Y563252D02*
Y564268D01*
X703796Y573760D02*
X704812D01*
X704304Y573252D02*
Y574268D01*
X712296Y569856D02*
X713312D01*
X712804Y569348D02*
Y570364D01*
X609411Y580218D02*
X610427D01*
X609919Y579710D02*
Y580726D01*
X609411Y543615D02*
X610427D01*
X609919Y543107D02*
Y544123D01*
X603209Y564496D02*
X604225D01*
X603717Y563988D02*
Y565004D01*
X603209Y527893D02*
X604225D01*
X603717Y527385D02*
Y528401D01*
X511619Y628441D02*
X512635D01*
X512127Y627933D02*
Y628949D01*
X526680Y649330D02*
X527696D01*
X527188Y648822D02*
Y649838D01*
X512680Y649330D02*
X513696D01*
X513188Y648822D02*
Y649838D01*
X720239Y717601D02*
X721255D01*
X720747Y717093D02*
Y718109D01*
X704405Y711527D02*
X705421D01*
X704913Y711020D02*
Y712036D01*
X712905Y711527D02*
X713921D01*
X713413Y711020D02*
Y712036D01*
X724203Y706575D02*
X725219D01*
X724711Y706068D02*
Y707084D01*
X704405Y681967D02*
X705421D01*
X704913Y681460D02*
Y682476D01*
X712905Y681967D02*
X713921D01*
X713413Y681460D02*
Y682476D01*
X612771Y710443D02*
X613787D01*
X613279Y709935D02*
Y710951D01*
X624447Y682303D02*
X625463D01*
X624955Y681795D02*
Y682811D01*
X634149Y689575D02*
X635165D01*
X634657Y689067D02*
Y690083D01*
X677087Y707265D02*
X678103D01*
X677595Y706758D02*
Y707774D01*
X630947Y682303D02*
X631963D01*
X631455Y681795D02*
Y682811D01*
X756412Y706384D02*
X757428D01*
X756920Y705876D02*
Y706892D01*
X571624Y714693D02*
X572640D01*
X572132Y714185D02*
Y715201D01*
X576326Y704991D02*
X577342D01*
X576834Y704483D02*
Y705499D01*
X716230Y681494D02*
X717246D01*
X716738Y680986D02*
Y682002D01*
X702837Y677974D02*
X703853D01*
X703345Y677466D02*
Y678482D01*
X739385Y708968D02*
X740401D01*
X739893Y708459D02*
Y709475D01*
X675385Y674926D02*
X676401D01*
X675893Y674418D02*
Y675434D01*
X615649Y716115D02*
X616665D01*
X616157Y715607D02*
Y716623D01*
X651653Y705640D02*
X652669D01*
X652161Y705133D02*
Y706149D01*
X693682Y667974D02*
X694698D01*
X694190Y667466D02*
Y668482D01*
X615149Y698425D02*
X616165D01*
X615657Y697917D02*
Y698933D01*
X640245Y697575D02*
X641261D01*
X640753Y697067D02*
Y698083D01*
X645557Y697515D02*
X646573D01*
X646065Y697008D02*
Y698024D01*
X657055Y684063D02*
X658071D01*
X657563Y683556D02*
Y684572D01*
X667385Y681022D02*
X668401D01*
X667893Y680514D02*
Y681530D01*
X662837Y713815D02*
X663853D01*
X663345Y713307D02*
Y714323D01*
X739385Y681625D02*
X740401D01*
X739893Y681117D02*
Y682133D01*
X726385Y695296D02*
X727401D01*
X726893Y694788D02*
Y695804D01*
X618197Y692623D02*
X619213D01*
X618705Y692115D02*
Y693131D01*
X754844Y598308D02*
X755860D01*
X755352Y597800D02*
Y598816D01*
X540554Y648983D02*
X541570D01*
X541062Y648475D02*
Y649491D01*
X595728Y700327D02*
X596744D01*
X596236Y699819D02*
Y700835D01*
X542290Y520700D02*
X543306D01*
X542798Y520192D02*
Y521208D01*
X531535Y674008D02*
X532551D01*
X532043Y673500D02*
Y674516D01*
X517535Y674008D02*
X518551D01*
X518043Y673500D02*
Y674516D01*
X733748Y558308D02*
X734764D01*
X734256Y557800D02*
Y558816D01*
X733748Y563308D02*
X734764D01*
X734256Y562800D02*
Y563816D01*
X694640Y561152D02*
X695656D01*
X695148Y560644D02*
Y561660D01*
X711796Y575260D02*
X712812D01*
X712304Y574752D02*
Y575768D01*
X711796Y586356D02*
X712812D01*
X712304Y585848D02*
Y586864D01*
X728748Y583308D02*
X729764D01*
X729256Y582800D02*
Y583816D01*
X736796Y586356D02*
X737812D01*
X737304Y585848D02*
Y586864D01*
X736796Y575260D02*
X737812D01*
X737304Y574752D02*
Y575768D01*
X728951Y575463D02*
X729967D01*
X729459Y574955D02*
Y575971D01*
X719640Y575463D02*
X720656D01*
X720148Y574955D02*
Y575971D01*
X728951Y566152D02*
X729967D01*
X729459Y565644D02*
Y566660D01*
X719640Y566152D02*
X720656D01*
X720148Y565644D02*
Y566660D01*
X598776Y694875D02*
X599792D01*
X599284Y694367D02*
Y695383D01*
M02*
