G04*
G04 #@! TF.GenerationSoftware,Altium Limited,Altium Designer,24.3.1 (35)*
G04*
G04 Layer_Color=16711833*
%FSLAX44Y44*%
%MOMM*%
G71*
G04*
G04 #@! TF.SameCoordinates,35E8F126-3BB9-435E-BEC0-E910B6038B45*
G04*
G04*
G04 #@! TF.FilePolarity,Positive*
G04*
G01*
G75*
%ADD15C,0.1270*%
%ADD17C,0.1778*%
D15*
X1100456Y500000D02*
G03*
X1163956Y563500I0J63500D01*
G01*
X857886D02*
G03*
X921386Y500000I63500J0D01*
G01*
X742570D02*
G03*
X806070Y563500I0J63500D01*
G01*
X500000D02*
G03*
X563500Y500000I63500J0D01*
G01*
X500000Y563500D02*
Y726060D01*
X806070Y699390D02*
Y726060D01*
X873126Y571120D02*
Y695580D01*
X790830Y571120D02*
Y695580D01*
X1163956Y563500D02*
Y741300D01*
X857886D02*
X1163956D01*
X921386Y500000D02*
X1100456D01*
X873126Y567310D02*
Y571120D01*
Y695580D02*
Y699390D01*
X857886D02*
X873126D01*
X857886Y567310D02*
X873126D01*
X857886Y699390D02*
Y741300D01*
Y563500D02*
Y567310D01*
X806070Y563500D02*
Y567310D01*
X790830Y699390D02*
X806070D01*
X790830Y567310D02*
X806070D01*
X790830Y695580D02*
Y699390D01*
Y567310D02*
Y571120D01*
X563500Y500000D02*
X742570D01*
D17*
X500000Y726060D02*
X806070Y726060D01*
M02*
