G04*
G04 #@! TF.GenerationSoftware,Altium Limited,Altium Designer,24.3.1 (35)*
G04*
G04 Layer_Color=16711935*
%FSLAX44Y44*%
%MOMM*%
G71*
G04*
G04 #@! TF.SameCoordinates,35E8F126-3BB9-435E-BEC0-E910B6038B45*
G04*
G04*
G04 #@! TF.FilePolarity,Negative*
G04*
G01*
G75*
%ADD42R,0.5516X0.6516*%
%ADD43R,0.5016X1.4516*%
%ADD44R,0.6216X0.6216*%
%ADD45R,0.7516X0.8516*%
%ADD46C,3.0000*%
%ADD47R,1.4016X0.8016*%
%ADD48R,0.6016X0.4016*%
%ADD49R,0.7216X1.3216*%
%ADD50R,0.5016X1.5016*%
%ADD51R,0.5516X1.2516*%
%ADD52R,0.9516X0.6516*%
%ADD53C,0.3716*%
%ADD54C,0.3116*%
%ADD55C,1.1016*%
%ADD56R,0.6516X0.5516*%
%ADD57R,0.8016X1.0016*%
%ADD58R,0.5916X0.5916*%
%ADD59R,0.6016X0.5016*%
%ADD60R,0.5016X0.4266*%
%ADD61R,0.8016X0.6016*%
%ADD62R,0.6216X0.6216*%
%ADD63R,1.0016X0.8016*%
%ADD64R,1.0516X1.8016*%
%ADD65C,0.2032*%
G04:AMPARAMS|DCode=66|XSize=1.7018mm|YSize=2.1336mm|CornerRadius=0mm|HoleSize=0mm|Usage=FLASHONLY|Rotation=90.000|XOffset=0mm|YOffset=0mm|HoleType=Round|Shape=Octagon|*
%AMOCTAGOND66*
4,1,8,-1.0668,-0.4255,-1.0668,0.4255,-0.6414,0.8509,0.6414,0.8509,1.0668,0.4255,1.0668,-0.4255,0.6414,-0.8509,-0.6414,-0.8509,-1.0668,-0.4255,0.0*
%
%ADD66OCTAGOND66*%

%ADD67R,1.8016X2.2016*%
%ADD68O,1.8016X2.2016*%
%ADD69O,1.1024X1.6256*%
G36*
X1134007Y719204D02*
X1134107Y719195D01*
X1134107Y719195D01*
X1134745Y719068D01*
X1134745D01*
X1134767Y719061D01*
X1134841Y719039D01*
X1134841Y719039D01*
X1135442Y718790D01*
X1135530Y718743D01*
X1136071Y718381D01*
X1136148Y718318D01*
X1136608Y717858D01*
X1136671Y717781D01*
X1137033Y717240D01*
X1137033Y717240D01*
X1137049Y717209D01*
X1137080Y717151D01*
X1137080Y717151D01*
X1137329Y716551D01*
X1137358Y716455D01*
X1137485Y715817D01*
X1137495Y715717D01*
Y715067D01*
X1137485Y714967D01*
X1137358Y714329D01*
X1137329Y714233D01*
X1137080Y713633D01*
X1137033Y713544D01*
X1136671Y713003D01*
X1136608Y712926D01*
X1136148Y712466D01*
X1136070Y712403D01*
X1135530Y712041D01*
X1135530Y712041D01*
X1135499Y712025D01*
X1135442Y711994D01*
X1135441Y711994D01*
X1134841Y711745D01*
X1134745Y711716D01*
X1134107Y711589D01*
X1134007Y711580D01*
X1130682D01*
X1130582Y711589D01*
X1130487Y711618D01*
X1130398Y711666D01*
X1130321Y711729D01*
X1130258Y711806D01*
X1130210Y711895D01*
X1130181Y711990D01*
X1130172Y712090D01*
Y718694D01*
X1130181Y718794D01*
X1130210Y718889D01*
X1130258Y718978D01*
X1130321Y719055D01*
X1130398Y719118D01*
X1130487Y719166D01*
X1130582Y719195D01*
X1130682Y719204D01*
X1133682D01*
X1133682D01*
X1133682D01*
X1134007Y719204D01*
D02*
G37*
G36*
X1044091D02*
X1044191Y719195D01*
X1044191Y719195D01*
X1044829Y719068D01*
X1044829D01*
X1044851Y719061D01*
X1044925Y719039D01*
X1044925Y719039D01*
X1045526Y718790D01*
X1045614Y718743D01*
X1046155Y718381D01*
X1046232Y718318D01*
X1046692Y717858D01*
X1046755Y717781D01*
X1047117Y717240D01*
X1047117Y717240D01*
X1047133Y717209D01*
X1047164Y717151D01*
X1047164Y717151D01*
X1047413Y716551D01*
X1047442Y716455D01*
X1047569Y715817D01*
X1047579Y715717D01*
Y715067D01*
X1047569Y714967D01*
X1047442Y714329D01*
X1047413Y714233D01*
X1047164Y713633D01*
X1047117Y713544D01*
X1046755Y713003D01*
X1046692Y712926D01*
X1046232Y712466D01*
X1046154Y712403D01*
X1045614Y712041D01*
X1045614Y712041D01*
X1045583Y712025D01*
X1045526Y711994D01*
X1045525Y711994D01*
X1044925Y711745D01*
X1044829Y711716D01*
X1044191Y711589D01*
X1044091Y711580D01*
X1040766D01*
X1040666Y711589D01*
X1040571Y711618D01*
X1040482Y711666D01*
X1040405Y711729D01*
X1040342Y711806D01*
X1040294Y711895D01*
X1040265Y711990D01*
X1040256Y712090D01*
Y718694D01*
X1040265Y718794D01*
X1040294Y718889D01*
X1040342Y718978D01*
X1040405Y719055D01*
X1040482Y719118D01*
X1040571Y719166D01*
X1040666Y719195D01*
X1040766Y719204D01*
X1043766D01*
X1043766D01*
X1043766D01*
X1044091Y719204D01*
D02*
G37*
G36*
X992783D02*
X992883Y719195D01*
X992883Y719195D01*
X993521Y719068D01*
X993521D01*
X993543Y719061D01*
X993617Y719039D01*
X993617Y719039D01*
X994218Y718790D01*
X994306Y718743D01*
X994847Y718381D01*
X994924Y718318D01*
X995384Y717858D01*
X995447Y717781D01*
X995809Y717240D01*
X995809Y717240D01*
X995825Y717209D01*
X995856Y717151D01*
X995856Y717151D01*
X996105Y716551D01*
X996134Y716455D01*
X996261Y715817D01*
X996271Y715717D01*
Y715067D01*
X996261Y714967D01*
X996134Y714329D01*
X996105Y714233D01*
X995856Y713633D01*
X995809Y713544D01*
X995447Y713003D01*
X995384Y712926D01*
X994924Y712466D01*
X994846Y712403D01*
X994306Y712041D01*
X994306Y712041D01*
X994275Y712025D01*
X994218Y711994D01*
X994217Y711994D01*
X993617Y711745D01*
X993521Y711716D01*
X992883Y711589D01*
X992783Y711580D01*
X989458D01*
X989358Y711589D01*
X989263Y711618D01*
X989174Y711666D01*
X989097Y711729D01*
X989034Y711806D01*
X988986Y711895D01*
X988957Y711990D01*
X988948Y712090D01*
Y718694D01*
X988957Y718794D01*
X988986Y718889D01*
X989034Y718978D01*
X989097Y719055D01*
X989174Y719118D01*
X989263Y719166D01*
X989358Y719195D01*
X989458Y719204D01*
X992458D01*
X992458D01*
X992458D01*
X992783Y719204D01*
D02*
G37*
G36*
X902867D02*
X902967Y719195D01*
X902967Y719195D01*
X903605Y719068D01*
X903605D01*
X903627Y719061D01*
X903701Y719039D01*
X903701Y719039D01*
X904302Y718790D01*
X904390Y718743D01*
X904931Y718381D01*
X905008Y718318D01*
X905468Y717858D01*
X905531Y717781D01*
X905893Y717240D01*
X905893Y717240D01*
X905909Y717209D01*
X905940Y717151D01*
X905940Y717151D01*
X906189Y716551D01*
X906218Y716455D01*
X906345Y715817D01*
X906355Y715717D01*
Y715067D01*
X906345Y714967D01*
X906218Y714329D01*
X906189Y714233D01*
X905940Y713633D01*
X905893Y713544D01*
X905531Y713003D01*
X905468Y712926D01*
X905008Y712466D01*
X904930Y712403D01*
X904390Y712041D01*
X904390Y712041D01*
X904359Y712025D01*
X904302Y711994D01*
X904301Y711994D01*
X903701Y711745D01*
X903605Y711716D01*
X902967Y711589D01*
X902867Y711580D01*
X899542D01*
X899442Y711589D01*
X899347Y711618D01*
X899258Y711666D01*
X899181Y711729D01*
X899118Y711806D01*
X899070Y711895D01*
X899041Y711990D01*
X899032Y712090D01*
Y718694D01*
X899041Y718794D01*
X899070Y718889D01*
X899118Y718978D01*
X899181Y719055D01*
X899258Y719118D01*
X899347Y719166D01*
X899442Y719195D01*
X899542Y719204D01*
X902542D01*
X902542D01*
X902542D01*
X902867Y719204D01*
D02*
G37*
G36*
X697045Y718976D02*
X697091Y718971D01*
X697138Y718967D01*
X697141Y718967D01*
X697144Y718966D01*
X697190Y718952D01*
X697234Y718939D01*
X697237Y718938D01*
X697240Y718937D01*
X697281Y718914D01*
X697322Y718893D01*
X697325Y718891D01*
X697328Y718889D01*
X697364Y718859D01*
X697400Y718830D01*
X703001Y713330D01*
X703003Y713328D01*
X703005Y713326D01*
X703035Y713289D01*
X703065Y713253D01*
X703066Y713251D01*
X703068Y713249D01*
X703090Y713207D01*
X703113Y713165D01*
X703114Y713163D01*
X703115Y713161D01*
X703129Y713115D01*
X703143Y713070D01*
X703143Y713067D01*
X703144Y713065D01*
X703149Y713016D01*
X703154Y712970D01*
X703154Y712968D01*
X703154Y712966D01*
Y685066D01*
X703154Y685063D01*
X703154Y685061D01*
X703149Y685012D01*
X703144Y684966D01*
X703144Y684964D01*
X703143Y684961D01*
X703129Y684916D01*
X703115Y684870D01*
X703114Y684868D01*
X703113Y684866D01*
X703091Y684824D01*
X703068Y684782D01*
X703066Y684780D01*
X703065Y684778D01*
X703035Y684741D01*
X703005Y684705D01*
X703003Y684703D01*
X703001Y684701D01*
X697403Y679203D01*
X697403Y679203D01*
X697403Y679203D01*
X697401Y679201D01*
X697365Y679172D01*
X697326Y679140D01*
X697325Y679139D01*
X697323Y679138D01*
X697280Y679116D01*
X697237Y679093D01*
X697236Y679093D01*
X697235Y679092D01*
X697189Y679079D01*
X697142Y679064D01*
X697140Y679064D01*
X697139Y679064D01*
X697091Y679059D01*
X697042Y679055D01*
X697039D01*
X697039D01*
X697039D01*
X688142Y679084D01*
X688093Y679089D01*
X688044Y679094D01*
X688043Y679094D01*
X688042Y679094D01*
X687996Y679108D01*
X687948Y679123D01*
X687948Y679123D01*
X687947Y679123D01*
X687903Y679147D01*
X687860Y679170D01*
X687859Y679170D01*
X687859Y679171D01*
X687820Y679203D01*
X687783Y679233D01*
X687782Y679234D01*
X687782Y679234D01*
X687750Y679273D01*
X687719Y679311D01*
X687719Y679311D01*
X687718Y679312D01*
X687695Y679356D01*
X687672Y679399D01*
X687672Y679400D01*
X687671Y679400D01*
X687657Y679450D01*
X687643Y679495D01*
X687643Y679495D01*
X687643Y679496D01*
X687638Y679547D01*
X687633Y679594D01*
Y687344D01*
X687638Y687391D01*
X687642Y687437D01*
X687643Y687440D01*
X687643Y687444D01*
X687657Y687489D01*
X687670Y687533D01*
X687671Y687536D01*
X687672Y687540D01*
X687694Y687580D01*
X687716Y687622D01*
X687718Y687625D01*
X687719Y687628D01*
X687749Y687664D01*
X687778Y687701D01*
X693453Y693523D01*
X693410Y704608D01*
X687777Y710389D01*
X687748Y710426D01*
X687718Y710462D01*
X687717Y710465D01*
X687715Y710468D01*
X687693Y710509D01*
X687671Y710550D01*
X687670Y710553D01*
X687669Y710556D01*
X687656Y710601D01*
X687642Y710646D01*
X687642Y710649D01*
X687641Y710652D01*
X687637Y710699D01*
X687632Y710745D01*
Y718495D01*
X687633Y718496D01*
X687632Y718497D01*
X687637Y718547D01*
X687642Y718595D01*
X687642Y718596D01*
X687643Y718597D01*
X687657Y718644D01*
X687671Y718691D01*
X687672Y718692D01*
X687672Y718692D01*
X687696Y718737D01*
X687718Y718779D01*
X687719Y718780D01*
X687719Y718781D01*
X687750Y718818D01*
X687782Y718857D01*
X687783Y718857D01*
X687783Y718858D01*
X687819Y718887D01*
X687859Y718920D01*
X687860Y718920D01*
X687861Y718921D01*
X687905Y718944D01*
X687947Y718967D01*
X687948Y718967D01*
X687949Y718968D01*
X687998Y718982D01*
X688043Y718996D01*
X688044Y718996D01*
X688045Y718997D01*
X688094Y719001D01*
X688143Y719006D01*
X688144Y719006D01*
X688145Y719006D01*
X697045Y718976D01*
D02*
G37*
G36*
X673192Y719001D02*
X673242Y718997D01*
X673242Y718996D01*
X673243Y718996D01*
X673289Y718982D01*
X673338Y718968D01*
X673338Y718967D01*
X673339Y718967D01*
X673382Y718944D01*
X673426Y718921D01*
X673427Y718920D01*
X673427Y718920D01*
X673468Y718887D01*
X673503Y718858D01*
X673504Y718857D01*
X673505Y718857D01*
X673536Y718818D01*
X673567Y718781D01*
X673568Y718780D01*
X673568Y718779D01*
X673591Y718737D01*
X673615Y718692D01*
X673615Y718692D01*
X673615Y718691D01*
X673630Y718644D01*
X673644Y718597D01*
X673644Y718596D01*
X673644Y718595D01*
X673649Y718547D01*
X673654Y718497D01*
X673654Y718496D01*
X673654Y718495D01*
Y710745D01*
X673650Y710699D01*
X673646Y710652D01*
X673645Y710649D01*
X673644Y710646D01*
X673631Y710601D01*
X673618Y710556D01*
X673616Y710553D01*
X673615Y710550D01*
X673594Y710509D01*
X673572Y710468D01*
X673570Y710465D01*
X673568Y710462D01*
X673539Y710426D01*
X673509Y710389D01*
X667877Y704608D01*
X667833Y693523D01*
X673509Y687701D01*
X673538Y687664D01*
X673567Y687628D01*
X673569Y687625D01*
X673571Y687622D01*
X673593Y687580D01*
X673615Y687540D01*
X673615Y687536D01*
X673617Y687533D01*
X673630Y687489D01*
X673644Y687444D01*
X673644Y687440D01*
X673645Y687437D01*
X673649Y687391D01*
X673653Y687344D01*
Y679594D01*
X673649Y679547D01*
X673644Y679496D01*
X673644Y679495D01*
X673644Y679495D01*
X673630Y679450D01*
X673615Y679400D01*
X673615Y679400D01*
X673615Y679399D01*
X673592Y679356D01*
X673568Y679312D01*
X673568Y679311D01*
X673567Y679311D01*
X673537Y679273D01*
X673505Y679234D01*
X673504Y679234D01*
X673504Y679233D01*
X673467Y679203D01*
X673428Y679171D01*
X673427Y679170D01*
X673427Y679170D01*
X673384Y679147D01*
X673340Y679123D01*
X673339Y679123D01*
X673338Y679123D01*
X673291Y679108D01*
X673244Y679094D01*
X673243Y679094D01*
X673243Y679094D01*
X673193Y679089D01*
X673145Y679084D01*
X664248Y679055D01*
X664248D01*
X664248D01*
X664245D01*
X664196Y679059D01*
X664148Y679064D01*
X664147Y679064D01*
X664145Y679064D01*
X664097Y679079D01*
X664052Y679092D01*
X664051Y679093D01*
X664049Y679093D01*
X664006Y679116D01*
X663963Y679138D01*
X663962Y679139D01*
X663961Y679140D01*
X663922Y679172D01*
X663885Y679201D01*
X663883Y679203D01*
X663883Y679203D01*
X663883Y679203D01*
X658285Y684701D01*
X658284Y684703D01*
X658282Y684705D01*
X658252Y684741D01*
X658221Y684778D01*
X658220Y684780D01*
X658219Y684782D01*
X658196Y684824D01*
X658173Y684866D01*
X658173Y684868D01*
X658171Y684870D01*
X658158Y684916D01*
X658143Y684961D01*
X658143Y684964D01*
X658142Y684966D01*
X658138Y685012D01*
X658133Y685061D01*
X658133Y685063D01*
X658133Y685066D01*
Y712966D01*
X658133Y712968D01*
X658133Y712970D01*
X658138Y713016D01*
X658142Y713065D01*
X658143Y713067D01*
X658143Y713070D01*
X658158Y713115D01*
X658171Y713161D01*
X658173Y713163D01*
X658173Y713165D01*
X658196Y713207D01*
X658219Y713249D01*
X658220Y713251D01*
X658221Y713253D01*
X658251Y713289D01*
X658282Y713326D01*
X658284Y713328D01*
X658285Y713330D01*
X663886Y718830D01*
X663923Y718859D01*
X663959Y718889D01*
X663962Y718891D01*
X663964Y718893D01*
X664006Y718914D01*
X664047Y718937D01*
X664050Y718938D01*
X664053Y718939D01*
X664097Y718952D01*
X664143Y718966D01*
X664146Y718967D01*
X664149Y718967D01*
X664195Y718971D01*
X664242Y718976D01*
X673142Y719006D01*
X673143Y719006D01*
X673144Y719006D01*
X673192Y719001D01*
D02*
G37*
G36*
X1134007Y710061D02*
X1134107Y710051D01*
X1134107Y710051D01*
X1134745Y709924D01*
X1134745D01*
X1134767Y709917D01*
X1134841Y709895D01*
X1134841Y709895D01*
X1135442Y709646D01*
X1135530Y709599D01*
X1136071Y709237D01*
X1136148Y709174D01*
X1136608Y708714D01*
X1136671Y708636D01*
X1137033Y708096D01*
X1137033Y708096D01*
X1137049Y708065D01*
X1137080Y708007D01*
X1137080Y708007D01*
X1137329Y707406D01*
X1137358Y707311D01*
X1137485Y706673D01*
X1137495Y706573D01*
Y705923D01*
X1137485Y705823D01*
X1137358Y705185D01*
X1137329Y705089D01*
X1137080Y704489D01*
X1137033Y704400D01*
X1136671Y703859D01*
X1136608Y703782D01*
X1136148Y703322D01*
X1136070Y703259D01*
X1135530Y702897D01*
X1135530Y702897D01*
X1135499Y702881D01*
X1135442Y702850D01*
X1135441Y702850D01*
X1134841Y702601D01*
X1134745Y702572D01*
X1134107Y702445D01*
X1134007Y702436D01*
X1130682D01*
X1130582Y702445D01*
X1130487Y702474D01*
X1130398Y702522D01*
X1130321Y702585D01*
X1130258Y702662D01*
X1130210Y702751D01*
X1130181Y702846D01*
X1130172Y702946D01*
Y709550D01*
X1130181Y709650D01*
X1130210Y709745D01*
X1130258Y709834D01*
X1130321Y709911D01*
X1130398Y709974D01*
X1130487Y710022D01*
X1130582Y710051D01*
X1130682Y710061D01*
X1133682D01*
X1133682D01*
X1133682D01*
X1134007Y710061D01*
D02*
G37*
G36*
X1044091D02*
X1044191Y710051D01*
X1044191Y710051D01*
X1044829Y709924D01*
X1044829D01*
X1044851Y709917D01*
X1044925Y709895D01*
X1044925Y709895D01*
X1045526Y709646D01*
X1045614Y709599D01*
X1046155Y709237D01*
X1046232Y709174D01*
X1046692Y708714D01*
X1046755Y708636D01*
X1047117Y708096D01*
X1047117Y708096D01*
X1047133Y708065D01*
X1047164Y708007D01*
X1047164Y708007D01*
X1047413Y707406D01*
X1047442Y707311D01*
X1047569Y706673D01*
X1047579Y706573D01*
Y705923D01*
X1047569Y705823D01*
X1047442Y705185D01*
X1047413Y705089D01*
X1047164Y704489D01*
X1047117Y704400D01*
X1046755Y703859D01*
X1046692Y703782D01*
X1046232Y703322D01*
X1046154Y703259D01*
X1045614Y702897D01*
X1045614Y702897D01*
X1045583Y702881D01*
X1045526Y702850D01*
X1045525Y702850D01*
X1044925Y702601D01*
X1044829Y702572D01*
X1044191Y702445D01*
X1044091Y702436D01*
X1040766D01*
X1040666Y702445D01*
X1040571Y702474D01*
X1040482Y702522D01*
X1040405Y702585D01*
X1040342Y702662D01*
X1040294Y702751D01*
X1040265Y702846D01*
X1040256Y702946D01*
Y709550D01*
X1040265Y709650D01*
X1040294Y709745D01*
X1040342Y709834D01*
X1040405Y709911D01*
X1040482Y709974D01*
X1040571Y710022D01*
X1040666Y710051D01*
X1040766Y710061D01*
X1043766D01*
X1043766D01*
X1043766D01*
X1044091Y710061D01*
D02*
G37*
G36*
X992783D02*
X992883Y710051D01*
X992883Y710051D01*
X993521Y709924D01*
X993521D01*
X993543Y709917D01*
X993617Y709895D01*
X993617Y709895D01*
X994218Y709646D01*
X994306Y709599D01*
X994847Y709237D01*
X994924Y709174D01*
X995384Y708714D01*
X995447Y708636D01*
X995809Y708096D01*
X995809Y708096D01*
X995825Y708065D01*
X995856Y708007D01*
X995856Y708007D01*
X996105Y707406D01*
X996134Y707311D01*
X996261Y706673D01*
X996271Y706573D01*
Y705923D01*
X996261Y705823D01*
X996134Y705185D01*
X996105Y705089D01*
X995856Y704489D01*
X995809Y704400D01*
X995447Y703859D01*
X995384Y703782D01*
X994924Y703322D01*
X994846Y703259D01*
X994306Y702897D01*
X994306Y702897D01*
X994275Y702881D01*
X994218Y702850D01*
X994217Y702850D01*
X993617Y702601D01*
X993521Y702572D01*
X992883Y702445D01*
X992783Y702436D01*
X989458D01*
X989358Y702445D01*
X989263Y702474D01*
X989174Y702522D01*
X989097Y702585D01*
X989034Y702662D01*
X988986Y702751D01*
X988957Y702846D01*
X988948Y702946D01*
Y709550D01*
X988957Y709650D01*
X988986Y709745D01*
X989034Y709834D01*
X989097Y709911D01*
X989174Y709974D01*
X989263Y710022D01*
X989358Y710051D01*
X989458Y710061D01*
X992458D01*
X992458D01*
X992458D01*
X992783Y710061D01*
D02*
G37*
G36*
X902867D02*
X902967Y710051D01*
X902967Y710051D01*
X903605Y709924D01*
X903605D01*
X903627Y709917D01*
X903701Y709895D01*
X903701Y709895D01*
X904302Y709646D01*
X904390Y709599D01*
X904931Y709237D01*
X905008Y709174D01*
X905468Y708714D01*
X905531Y708636D01*
X905893Y708096D01*
X905893Y708096D01*
X905909Y708065D01*
X905940Y708007D01*
X905940Y708007D01*
X906189Y707406D01*
X906218Y707311D01*
X906345Y706673D01*
X906355Y706573D01*
Y705923D01*
X906345Y705823D01*
X906218Y705185D01*
X906189Y705089D01*
X905940Y704489D01*
X905893Y704400D01*
X905531Y703859D01*
X905468Y703782D01*
X905008Y703322D01*
X904930Y703259D01*
X904390Y702897D01*
X904390Y702897D01*
X904359Y702881D01*
X904302Y702850D01*
X904301Y702850D01*
X903701Y702601D01*
X903605Y702572D01*
X902967Y702445D01*
X902867Y702436D01*
X899542D01*
X899442Y702445D01*
X899347Y702474D01*
X899258Y702522D01*
X899181Y702585D01*
X899118Y702662D01*
X899070Y702751D01*
X899041Y702846D01*
X899032Y702946D01*
Y709550D01*
X899041Y709650D01*
X899070Y709745D01*
X899118Y709834D01*
X899181Y709911D01*
X899258Y709974D01*
X899347Y710022D01*
X899442Y710051D01*
X899542Y710061D01*
X902542D01*
X902542D01*
X902542D01*
X902867Y710061D01*
D02*
G37*
G36*
X1122908Y714623D02*
X1123003Y714594D01*
X1123092Y714546D01*
X1123169Y714483D01*
X1123232Y714406D01*
X1123280Y714317D01*
X1123309Y714222D01*
X1123318Y714122D01*
Y707518D01*
X1123309Y707418D01*
X1123280Y707323D01*
X1123232Y707234D01*
X1123169Y707157D01*
X1123092Y707094D01*
X1123003Y707046D01*
X1122908Y707017D01*
X1122808Y707008D01*
X1119483D01*
X1119383Y707017D01*
X1118745Y707144D01*
X1118650Y707173D01*
X1118049Y707422D01*
X1117960Y707469D01*
X1117420Y707831D01*
X1117342Y707894D01*
X1116882Y708354D01*
X1116819Y708431D01*
X1116458Y708972D01*
X1116457Y708972D01*
X1116441Y709003D01*
X1116410Y709061D01*
X1116410Y709061D01*
X1116161Y709661D01*
X1116132Y709757D01*
X1116005Y710395D01*
X1115996Y710495D01*
Y710495D01*
D01*
X1115996Y711145D01*
X1116005Y711245D01*
X1116005Y711245D01*
X1116132Y711883D01*
Y711883D01*
X1116139Y711905D01*
X1116161Y711979D01*
X1116161Y711979D01*
X1116410Y712579D01*
X1116457Y712668D01*
X1116819Y713208D01*
X1116882Y713286D01*
X1117342Y713746D01*
X1117420Y713809D01*
X1117960Y714171D01*
X1117960Y714171D01*
X1117991Y714187D01*
X1118049Y714218D01*
X1118049Y714218D01*
X1118650Y714467D01*
X1118745Y714496D01*
X1119383Y714623D01*
X1119483Y714632D01*
X1122808D01*
X1122908Y714623D01*
D02*
G37*
G36*
X1032992D02*
X1033087Y714594D01*
X1033176Y714546D01*
X1033253Y714483D01*
X1033316Y714406D01*
X1033364Y714317D01*
X1033393Y714222D01*
X1033402Y714122D01*
Y707518D01*
X1033393Y707418D01*
X1033364Y707323D01*
X1033316Y707234D01*
X1033253Y707157D01*
X1033176Y707094D01*
X1033087Y707046D01*
X1032992Y707017D01*
X1032892Y707008D01*
X1029567D01*
X1029467Y707017D01*
X1028829Y707144D01*
X1028734Y707173D01*
X1028133Y707422D01*
X1028044Y707469D01*
X1027504Y707831D01*
X1027426Y707894D01*
X1026966Y708354D01*
X1026903Y708431D01*
X1026542Y708972D01*
X1026541Y708972D01*
X1026525Y709003D01*
X1026494Y709061D01*
X1026494Y709061D01*
X1026245Y709661D01*
X1026216Y709757D01*
X1026089Y710395D01*
X1026080Y710495D01*
Y710495D01*
D01*
X1026080Y711145D01*
X1026089Y711245D01*
X1026089Y711245D01*
X1026216Y711883D01*
Y711883D01*
X1026223Y711905D01*
X1026245Y711979D01*
X1026245Y711979D01*
X1026494Y712579D01*
X1026541Y712668D01*
X1026903Y713208D01*
X1026966Y713286D01*
X1027426Y713746D01*
X1027504Y713809D01*
X1028044Y714171D01*
X1028044Y714171D01*
X1028075Y714187D01*
X1028133Y714218D01*
X1028133Y714218D01*
X1028734Y714467D01*
X1028829Y714496D01*
X1029467Y714623D01*
X1029567Y714632D01*
X1032892D01*
X1032992Y714623D01*
D02*
G37*
G36*
X981684D02*
X981779Y714594D01*
X981868Y714546D01*
X981945Y714483D01*
X982009Y714406D01*
X982056Y714317D01*
X982085Y714222D01*
X982094Y714122D01*
Y707518D01*
X982085Y707418D01*
X982056Y707323D01*
X982009Y707234D01*
X981945Y707157D01*
X981868Y707094D01*
X981779Y707046D01*
X981684Y707017D01*
X981584Y707008D01*
X978259D01*
X978159Y707017D01*
X977521Y707144D01*
X977426Y707173D01*
X976825Y707422D01*
X976736Y707469D01*
X976196Y707831D01*
X976118Y707894D01*
X975658Y708354D01*
X975595Y708431D01*
X975234Y708972D01*
X975233Y708972D01*
X975217Y709003D01*
X975186Y709061D01*
X975186Y709061D01*
X974937Y709661D01*
X974908Y709757D01*
X974781Y710395D01*
X974772Y710495D01*
Y710495D01*
D01*
X974772Y711145D01*
X974781Y711245D01*
X974781Y711245D01*
X974908Y711883D01*
Y711883D01*
X974915Y711905D01*
X974937Y711979D01*
X974937Y711979D01*
X975186Y712579D01*
X975233Y712668D01*
X975595Y713208D01*
X975658Y713286D01*
X976118Y713746D01*
X976196Y713809D01*
X976736Y714171D01*
X976736Y714171D01*
X976767Y714187D01*
X976825Y714218D01*
X976825Y714218D01*
X977426Y714467D01*
X977521Y714496D01*
X978159Y714623D01*
X978259Y714632D01*
X981584D01*
X981684Y714623D01*
D02*
G37*
G36*
X891768D02*
X891863Y714594D01*
X891952Y714546D01*
X892029Y714483D01*
X892093Y714406D01*
X892140Y714317D01*
X892169Y714222D01*
X892178Y714122D01*
Y707518D01*
X892169Y707418D01*
X892140Y707323D01*
X892093Y707234D01*
X892029Y707157D01*
X891952Y707094D01*
X891863Y707046D01*
X891768Y707017D01*
X891668Y707008D01*
X888343D01*
X888243Y707017D01*
X887605Y707144D01*
X887510Y707173D01*
X886909Y707422D01*
X886820Y707469D01*
X886280Y707831D01*
X886202Y707894D01*
X885742Y708354D01*
X885679Y708431D01*
X885318Y708972D01*
X885317Y708972D01*
X885301Y709003D01*
X885270Y709061D01*
X885270Y709061D01*
X885021Y709661D01*
X884992Y709757D01*
X884865Y710395D01*
X884856Y710495D01*
Y710495D01*
D01*
X884856Y711145D01*
X884865Y711245D01*
X884865Y711245D01*
X884992Y711883D01*
Y711883D01*
X884999Y711905D01*
X885021Y711979D01*
X885021Y711979D01*
X885270Y712579D01*
X885317Y712668D01*
X885679Y713208D01*
X885742Y713286D01*
X886202Y713746D01*
X886280Y713809D01*
X886820Y714171D01*
X886820Y714171D01*
X886851Y714187D01*
X886909Y714218D01*
X886909Y714218D01*
X887510Y714467D01*
X887605Y714496D01*
X888243Y714623D01*
X888343Y714632D01*
X891668D01*
X891768Y714623D01*
D02*
G37*
G36*
X1134007Y700917D02*
X1134107Y700907D01*
X1134107Y700907D01*
X1134745Y700780D01*
X1134745D01*
X1134767Y700773D01*
X1134841Y700751D01*
X1134841Y700751D01*
X1135442Y700502D01*
X1135530Y700455D01*
X1136071Y700093D01*
X1136148Y700030D01*
X1136608Y699570D01*
X1136671Y699492D01*
X1137033Y698952D01*
X1137033Y698952D01*
X1137049Y698921D01*
X1137080Y698863D01*
X1137080Y698863D01*
X1137329Y698262D01*
X1137358Y698167D01*
X1137485Y697529D01*
X1137495Y697429D01*
Y696779D01*
X1137485Y696679D01*
X1137358Y696041D01*
X1137329Y695946D01*
X1137080Y695345D01*
X1137033Y695256D01*
X1136671Y694715D01*
X1136608Y694638D01*
X1136148Y694178D01*
X1136070Y694115D01*
X1135530Y693754D01*
X1135530Y693753D01*
X1135499Y693737D01*
X1135442Y693706D01*
X1135441Y693706D01*
X1134841Y693457D01*
X1134745Y693428D01*
X1134107Y693301D01*
X1134007Y693292D01*
X1130682D01*
X1130582Y693301D01*
X1130487Y693330D01*
X1130398Y693378D01*
X1130321Y693441D01*
X1130258Y693518D01*
X1130210Y693607D01*
X1130181Y693702D01*
X1130172Y693802D01*
Y700406D01*
X1130181Y700506D01*
X1130210Y700601D01*
X1130258Y700690D01*
X1130321Y700767D01*
X1130398Y700830D01*
X1130487Y700878D01*
X1130582Y700907D01*
X1130682Y700917D01*
X1133682D01*
X1133682D01*
X1133682D01*
X1134007Y700917D01*
D02*
G37*
G36*
X1044091D02*
X1044191Y700907D01*
X1044191Y700907D01*
X1044829Y700780D01*
X1044829D01*
X1044851Y700773D01*
X1044925Y700751D01*
X1044925Y700751D01*
X1045526Y700502D01*
X1045614Y700455D01*
X1046155Y700093D01*
X1046232Y700030D01*
X1046692Y699570D01*
X1046755Y699492D01*
X1047117Y698952D01*
X1047117Y698952D01*
X1047133Y698921D01*
X1047164Y698863D01*
X1047164Y698863D01*
X1047413Y698262D01*
X1047442Y698167D01*
X1047569Y697529D01*
X1047579Y697429D01*
Y696779D01*
X1047569Y696679D01*
X1047442Y696041D01*
X1047413Y695946D01*
X1047164Y695345D01*
X1047117Y695256D01*
X1046755Y694715D01*
X1046692Y694638D01*
X1046232Y694178D01*
X1046154Y694115D01*
X1045614Y693754D01*
X1045614Y693753D01*
X1045583Y693737D01*
X1045526Y693706D01*
X1045525Y693706D01*
X1044925Y693457D01*
X1044829Y693428D01*
X1044191Y693301D01*
X1044091Y693292D01*
X1040766D01*
X1040666Y693301D01*
X1040571Y693330D01*
X1040482Y693378D01*
X1040405Y693441D01*
X1040342Y693518D01*
X1040294Y693607D01*
X1040265Y693702D01*
X1040256Y693802D01*
Y700406D01*
X1040265Y700506D01*
X1040294Y700601D01*
X1040342Y700690D01*
X1040405Y700767D01*
X1040482Y700830D01*
X1040571Y700878D01*
X1040666Y700907D01*
X1040766Y700917D01*
X1043766D01*
X1043766D01*
X1043766D01*
X1044091Y700917D01*
D02*
G37*
G36*
X992783D02*
X992883Y700907D01*
X992883Y700907D01*
X993521Y700780D01*
X993521D01*
X993543Y700773D01*
X993617Y700751D01*
X993617Y700751D01*
X994218Y700502D01*
X994306Y700455D01*
X994847Y700093D01*
X994924Y700030D01*
X995384Y699570D01*
X995447Y699492D01*
X995809Y698952D01*
X995809Y698952D01*
X995825Y698921D01*
X995856Y698863D01*
X995856Y698863D01*
X996105Y698262D01*
X996134Y698167D01*
X996261Y697529D01*
X996271Y697429D01*
Y696779D01*
X996261Y696679D01*
X996134Y696041D01*
X996105Y695946D01*
X995856Y695345D01*
X995809Y695256D01*
X995447Y694715D01*
X995384Y694638D01*
X994924Y694178D01*
X994846Y694115D01*
X994306Y693754D01*
X994306Y693753D01*
X994275Y693737D01*
X994218Y693706D01*
X994217Y693706D01*
X993617Y693457D01*
X993521Y693428D01*
X992883Y693301D01*
X992783Y693292D01*
X989458D01*
X989358Y693301D01*
X989263Y693330D01*
X989174Y693378D01*
X989097Y693441D01*
X989034Y693518D01*
X988986Y693607D01*
X988957Y693702D01*
X988948Y693802D01*
Y700406D01*
X988957Y700506D01*
X988986Y700601D01*
X989034Y700690D01*
X989097Y700767D01*
X989174Y700830D01*
X989263Y700878D01*
X989358Y700907D01*
X989458Y700917D01*
X992458D01*
X992458D01*
X992458D01*
X992783Y700917D01*
D02*
G37*
G36*
X902867D02*
X902967Y700907D01*
X902967Y700907D01*
X903605Y700780D01*
X903605D01*
X903627Y700773D01*
X903701Y700751D01*
X903701Y700751D01*
X904302Y700502D01*
X904390Y700455D01*
X904931Y700093D01*
X905008Y700030D01*
X905468Y699570D01*
X905531Y699492D01*
X905893Y698952D01*
X905893Y698952D01*
X905909Y698921D01*
X905940Y698863D01*
X905940Y698863D01*
X906189Y698262D01*
X906218Y698167D01*
X906345Y697529D01*
X906355Y697429D01*
Y696779D01*
X906345Y696679D01*
X906218Y696041D01*
X906189Y695946D01*
X905940Y695345D01*
X905893Y695256D01*
X905531Y694715D01*
X905468Y694638D01*
X905008Y694178D01*
X904930Y694115D01*
X904390Y693754D01*
X904390Y693753D01*
X904359Y693737D01*
X904302Y693706D01*
X904301Y693706D01*
X903701Y693457D01*
X903605Y693428D01*
X902967Y693301D01*
X902867Y693292D01*
X899542D01*
X899442Y693301D01*
X899347Y693330D01*
X899258Y693378D01*
X899181Y693441D01*
X899118Y693518D01*
X899070Y693607D01*
X899041Y693702D01*
X899032Y693802D01*
Y700406D01*
X899041Y700506D01*
X899070Y700601D01*
X899118Y700690D01*
X899181Y700767D01*
X899258Y700830D01*
X899347Y700878D01*
X899442Y700907D01*
X899542Y700917D01*
X902542D01*
X902542D01*
X902542D01*
X902867Y700917D01*
D02*
G37*
G36*
X1122908Y705479D02*
X1123003Y705450D01*
X1123092Y705402D01*
X1123169Y705339D01*
X1123232Y705262D01*
X1123280Y705173D01*
X1123309Y705078D01*
X1123318Y704978D01*
Y698374D01*
X1123309Y698274D01*
X1123280Y698179D01*
X1123232Y698090D01*
X1123169Y698013D01*
X1123092Y697950D01*
X1123003Y697902D01*
X1122908Y697873D01*
X1122808Y697864D01*
X1119483D01*
X1119383Y697873D01*
X1118745Y698000D01*
X1118650Y698029D01*
X1118049Y698278D01*
X1117960Y698325D01*
X1117420Y698687D01*
X1117342Y698750D01*
X1116882Y699210D01*
X1116819Y699287D01*
X1116458Y699828D01*
X1116457Y699828D01*
X1116441Y699859D01*
X1116410Y699917D01*
X1116410Y699917D01*
X1116161Y700518D01*
X1116132Y700613D01*
X1116005Y701251D01*
X1115996Y701351D01*
Y701351D01*
D01*
X1115996Y702001D01*
X1116005Y702101D01*
X1116005Y702101D01*
X1116132Y702739D01*
Y702739D01*
X1116139Y702761D01*
X1116161Y702834D01*
X1116161Y702835D01*
X1116410Y703435D01*
X1116457Y703524D01*
X1116819Y704064D01*
X1116882Y704142D01*
X1117342Y704602D01*
X1117420Y704665D01*
X1117960Y705026D01*
X1117960Y705027D01*
X1117991Y705043D01*
X1118049Y705074D01*
X1118049Y705074D01*
X1118650Y705323D01*
X1118745Y705352D01*
X1119383Y705479D01*
X1119483Y705489D01*
X1122808D01*
X1122908Y705479D01*
D02*
G37*
G36*
X1032992D02*
X1033087Y705450D01*
X1033176Y705402D01*
X1033253Y705339D01*
X1033316Y705262D01*
X1033364Y705173D01*
X1033393Y705078D01*
X1033402Y704978D01*
Y698374D01*
X1033393Y698274D01*
X1033364Y698179D01*
X1033316Y698090D01*
X1033253Y698013D01*
X1033176Y697950D01*
X1033087Y697902D01*
X1032992Y697873D01*
X1032892Y697864D01*
X1029567D01*
X1029467Y697873D01*
X1028829Y698000D01*
X1028734Y698029D01*
X1028133Y698278D01*
X1028044Y698325D01*
X1027504Y698687D01*
X1027426Y698750D01*
X1026966Y699210D01*
X1026903Y699287D01*
X1026542Y699828D01*
X1026541Y699828D01*
X1026525Y699859D01*
X1026494Y699917D01*
X1026494Y699917D01*
X1026245Y700518D01*
X1026216Y700613D01*
X1026089Y701251D01*
X1026080Y701351D01*
Y701351D01*
D01*
X1026080Y702001D01*
X1026089Y702101D01*
X1026089Y702101D01*
X1026216Y702739D01*
Y702739D01*
X1026223Y702761D01*
X1026245Y702834D01*
X1026245Y702835D01*
X1026494Y703435D01*
X1026541Y703524D01*
X1026903Y704064D01*
X1026966Y704142D01*
X1027426Y704602D01*
X1027504Y704665D01*
X1028044Y705026D01*
X1028044Y705027D01*
X1028075Y705043D01*
X1028133Y705074D01*
X1028133Y705074D01*
X1028734Y705323D01*
X1028829Y705352D01*
X1029467Y705479D01*
X1029567Y705489D01*
X1032892D01*
X1032992Y705479D01*
D02*
G37*
G36*
X981684D02*
X981779Y705450D01*
X981868Y705402D01*
X981945Y705339D01*
X982009Y705262D01*
X982056Y705173D01*
X982085Y705078D01*
X982094Y704978D01*
Y698374D01*
X982085Y698274D01*
X982056Y698179D01*
X982009Y698090D01*
X981945Y698013D01*
X981868Y697950D01*
X981779Y697902D01*
X981684Y697873D01*
X981584Y697864D01*
X978259D01*
X978159Y697873D01*
X977521Y698000D01*
X977426Y698029D01*
X976825Y698278D01*
X976736Y698325D01*
X976196Y698687D01*
X976118Y698750D01*
X975658Y699210D01*
X975595Y699287D01*
X975234Y699828D01*
X975233Y699828D01*
X975217Y699859D01*
X975186Y699917D01*
X975186Y699917D01*
X974937Y700518D01*
X974908Y700613D01*
X974781Y701251D01*
X974772Y701351D01*
Y701351D01*
D01*
X974772Y702001D01*
X974781Y702101D01*
X974781Y702101D01*
X974908Y702739D01*
Y702739D01*
X974915Y702761D01*
X974937Y702834D01*
X974937Y702835D01*
X975186Y703435D01*
X975233Y703524D01*
X975595Y704064D01*
X975658Y704142D01*
X976118Y704602D01*
X976196Y704665D01*
X976736Y705026D01*
X976736Y705027D01*
X976767Y705043D01*
X976825Y705074D01*
X976825Y705074D01*
X977426Y705323D01*
X977521Y705352D01*
X978159Y705479D01*
X978259Y705489D01*
X981584D01*
X981684Y705479D01*
D02*
G37*
G36*
X891768D02*
X891863Y705450D01*
X891952Y705402D01*
X892029Y705339D01*
X892093Y705262D01*
X892140Y705173D01*
X892169Y705078D01*
X892178Y704978D01*
Y698374D01*
X892169Y698274D01*
X892140Y698179D01*
X892093Y698090D01*
X892029Y698013D01*
X891952Y697950D01*
X891863Y697902D01*
X891768Y697873D01*
X891668Y697864D01*
X888343D01*
X888243Y697873D01*
X887605Y698000D01*
X887510Y698029D01*
X886909Y698278D01*
X886820Y698325D01*
X886280Y698687D01*
X886202Y698750D01*
X885742Y699210D01*
X885679Y699287D01*
X885318Y699828D01*
X885317Y699828D01*
X885301Y699859D01*
X885270Y699917D01*
X885270Y699917D01*
X885021Y700518D01*
X884992Y700613D01*
X884865Y701251D01*
X884856Y701351D01*
Y701351D01*
D01*
X884856Y702001D01*
X884865Y702101D01*
X884865Y702101D01*
X884992Y702739D01*
Y702739D01*
X884999Y702761D01*
X885021Y702834D01*
X885021Y702835D01*
X885270Y703435D01*
X885317Y703524D01*
X885679Y704064D01*
X885742Y704142D01*
X886202Y704602D01*
X886280Y704665D01*
X886820Y705026D01*
X886820Y705027D01*
X886851Y705043D01*
X886909Y705074D01*
X886909Y705074D01*
X887510Y705323D01*
X887605Y705352D01*
X888243Y705479D01*
X888343Y705489D01*
X891668D01*
X891768Y705479D01*
D02*
G37*
G36*
X1134007Y691773D02*
X1134107Y691763D01*
X1134107Y691763D01*
X1134745Y691636D01*
X1134745D01*
X1134767Y691629D01*
X1134841Y691607D01*
X1134841Y691607D01*
X1135442Y691358D01*
X1135530Y691311D01*
X1136071Y690949D01*
X1136148Y690886D01*
X1136608Y690426D01*
X1136671Y690349D01*
X1137033Y689808D01*
X1137033Y689808D01*
X1137049Y689777D01*
X1137080Y689719D01*
X1137080Y689719D01*
X1137329Y689118D01*
X1137358Y689023D01*
X1137485Y688385D01*
X1137495Y688285D01*
Y687635D01*
X1137485Y687535D01*
X1137358Y686897D01*
X1137329Y686802D01*
X1137080Y686201D01*
X1137033Y686112D01*
X1136671Y685572D01*
X1136608Y685494D01*
X1136148Y685034D01*
X1136070Y684971D01*
X1135530Y684610D01*
X1135530Y684609D01*
X1135499Y684593D01*
X1135442Y684562D01*
X1135441Y684562D01*
X1134841Y684313D01*
X1134745Y684284D01*
X1134107Y684157D01*
X1134007Y684148D01*
X1130682D01*
X1130582Y684157D01*
X1130487Y684186D01*
X1130398Y684234D01*
X1130321Y684297D01*
X1130258Y684374D01*
X1130210Y684463D01*
X1130181Y684558D01*
X1130172Y684658D01*
Y691262D01*
X1130181Y691362D01*
X1130210Y691457D01*
X1130258Y691546D01*
X1130321Y691623D01*
X1130398Y691686D01*
X1130487Y691734D01*
X1130582Y691763D01*
X1130682Y691773D01*
X1133682D01*
X1133682D01*
X1133682D01*
X1134007Y691773D01*
D02*
G37*
G36*
X1044091D02*
X1044191Y691763D01*
X1044191Y691763D01*
X1044829Y691636D01*
X1044829D01*
X1044851Y691629D01*
X1044925Y691607D01*
X1044925Y691607D01*
X1045526Y691358D01*
X1045614Y691311D01*
X1046155Y690949D01*
X1046232Y690886D01*
X1046692Y690426D01*
X1046755Y690349D01*
X1047117Y689808D01*
X1047117Y689808D01*
X1047133Y689777D01*
X1047164Y689719D01*
X1047164Y689719D01*
X1047413Y689118D01*
X1047442Y689023D01*
X1047569Y688385D01*
X1047579Y688285D01*
Y687635D01*
X1047569Y687535D01*
X1047442Y686897D01*
X1047413Y686802D01*
X1047164Y686201D01*
X1047117Y686112D01*
X1046755Y685572D01*
X1046692Y685494D01*
X1046232Y685034D01*
X1046154Y684971D01*
X1045614Y684610D01*
X1045614Y684609D01*
X1045583Y684593D01*
X1045526Y684562D01*
X1045525Y684562D01*
X1044925Y684313D01*
X1044829Y684284D01*
X1044191Y684157D01*
X1044091Y684148D01*
X1040766D01*
X1040666Y684157D01*
X1040571Y684186D01*
X1040482Y684234D01*
X1040405Y684297D01*
X1040342Y684374D01*
X1040294Y684463D01*
X1040265Y684558D01*
X1040256Y684658D01*
Y691262D01*
X1040265Y691362D01*
X1040294Y691457D01*
X1040342Y691546D01*
X1040405Y691623D01*
X1040482Y691686D01*
X1040571Y691734D01*
X1040666Y691763D01*
X1040766Y691773D01*
X1043766D01*
X1043766D01*
X1043766D01*
X1044091Y691773D01*
D02*
G37*
G36*
X992783D02*
X992883Y691763D01*
X992883Y691763D01*
X993521Y691636D01*
X993521D01*
X993543Y691629D01*
X993617Y691607D01*
X993617Y691607D01*
X994218Y691358D01*
X994306Y691311D01*
X994847Y690949D01*
X994924Y690886D01*
X995384Y690426D01*
X995447Y690349D01*
X995809Y689808D01*
X995809Y689808D01*
X995825Y689777D01*
X995856Y689719D01*
X995856Y689719D01*
X996105Y689118D01*
X996134Y689023D01*
X996261Y688385D01*
X996271Y688285D01*
Y687635D01*
X996261Y687535D01*
X996134Y686897D01*
X996105Y686802D01*
X995856Y686201D01*
X995809Y686112D01*
X995447Y685572D01*
X995384Y685494D01*
X994924Y685034D01*
X994846Y684971D01*
X994306Y684610D01*
X994306Y684609D01*
X994275Y684593D01*
X994218Y684562D01*
X994217Y684562D01*
X993617Y684313D01*
X993521Y684284D01*
X992883Y684157D01*
X992783Y684148D01*
X989458D01*
X989358Y684157D01*
X989263Y684186D01*
X989174Y684234D01*
X989097Y684297D01*
X989034Y684374D01*
X988986Y684463D01*
X988957Y684558D01*
X988948Y684658D01*
Y691262D01*
X988957Y691362D01*
X988986Y691457D01*
X989034Y691546D01*
X989097Y691623D01*
X989174Y691686D01*
X989263Y691734D01*
X989358Y691763D01*
X989458Y691773D01*
X992458D01*
X992458D01*
X992458D01*
X992783Y691773D01*
D02*
G37*
G36*
X902867D02*
X902967Y691763D01*
X902967Y691763D01*
X903605Y691636D01*
X903605D01*
X903627Y691629D01*
X903701Y691607D01*
X903701Y691607D01*
X904302Y691358D01*
X904390Y691311D01*
X904931Y690949D01*
X905008Y690886D01*
X905468Y690426D01*
X905531Y690349D01*
X905893Y689808D01*
X905893Y689808D01*
X905909Y689777D01*
X905940Y689719D01*
X905940Y689719D01*
X906189Y689118D01*
X906218Y689023D01*
X906345Y688385D01*
X906355Y688285D01*
Y687635D01*
X906345Y687535D01*
X906218Y686897D01*
X906189Y686802D01*
X905940Y686201D01*
X905893Y686112D01*
X905531Y685572D01*
X905468Y685494D01*
X905008Y685034D01*
X904930Y684971D01*
X904390Y684610D01*
X904390Y684609D01*
X904359Y684593D01*
X904302Y684562D01*
X904301Y684562D01*
X903701Y684313D01*
X903605Y684284D01*
X902967Y684157D01*
X902867Y684148D01*
X899542D01*
X899442Y684157D01*
X899347Y684186D01*
X899258Y684234D01*
X899181Y684297D01*
X899118Y684374D01*
X899070Y684463D01*
X899041Y684558D01*
X899032Y684658D01*
Y691262D01*
X899041Y691362D01*
X899070Y691457D01*
X899118Y691546D01*
X899181Y691623D01*
X899258Y691686D01*
X899347Y691734D01*
X899442Y691763D01*
X899542Y691773D01*
X902542D01*
X902542D01*
X902542D01*
X902867Y691773D01*
D02*
G37*
G36*
X1122908Y696335D02*
X1123003Y696306D01*
X1123092Y696258D01*
X1123169Y696195D01*
X1123232Y696118D01*
X1123280Y696029D01*
X1123309Y695934D01*
X1123318Y695834D01*
Y689230D01*
X1123309Y689130D01*
X1123280Y689035D01*
X1123232Y688946D01*
X1123169Y688869D01*
X1123092Y688806D01*
X1123003Y688758D01*
X1122908Y688729D01*
X1122808Y688720D01*
X1119483D01*
X1119383Y688729D01*
X1118745Y688856D01*
X1118650Y688885D01*
X1118049Y689134D01*
X1117960Y689181D01*
X1117420Y689543D01*
X1117342Y689606D01*
X1116882Y690066D01*
X1116819Y690144D01*
X1116458Y690684D01*
X1116457Y690684D01*
X1116441Y690715D01*
X1116410Y690773D01*
X1116410Y690773D01*
X1116161Y691374D01*
X1116132Y691469D01*
X1116005Y692107D01*
X1115996Y692207D01*
Y692207D01*
D01*
X1115996Y692857D01*
X1116005Y692957D01*
X1116005Y692957D01*
X1116132Y693595D01*
Y693595D01*
X1116139Y693617D01*
X1116161Y693690D01*
X1116161Y693691D01*
X1116410Y694291D01*
X1116457Y694380D01*
X1116819Y694921D01*
X1116882Y694998D01*
X1117342Y695458D01*
X1117420Y695521D01*
X1117960Y695882D01*
X1117960Y695883D01*
X1117991Y695899D01*
X1118049Y695930D01*
X1118049Y695930D01*
X1118650Y696179D01*
X1118745Y696208D01*
X1119383Y696335D01*
X1119483Y696345D01*
X1122808D01*
X1122908Y696335D01*
D02*
G37*
G36*
X1032992D02*
X1033087Y696306D01*
X1033176Y696258D01*
X1033253Y696195D01*
X1033316Y696118D01*
X1033364Y696029D01*
X1033393Y695934D01*
X1033402Y695834D01*
Y689230D01*
X1033393Y689130D01*
X1033364Y689035D01*
X1033316Y688946D01*
X1033253Y688869D01*
X1033176Y688806D01*
X1033087Y688758D01*
X1032992Y688729D01*
X1032892Y688720D01*
X1029567D01*
X1029467Y688729D01*
X1028829Y688856D01*
X1028734Y688885D01*
X1028133Y689134D01*
X1028044Y689181D01*
X1027504Y689543D01*
X1027426Y689606D01*
X1026966Y690066D01*
X1026903Y690144D01*
X1026542Y690684D01*
X1026541Y690684D01*
X1026525Y690715D01*
X1026494Y690773D01*
X1026494Y690773D01*
X1026245Y691374D01*
X1026216Y691469D01*
X1026089Y692107D01*
X1026080Y692207D01*
Y692207D01*
D01*
X1026080Y692857D01*
X1026089Y692957D01*
X1026089Y692957D01*
X1026216Y693595D01*
Y693595D01*
X1026223Y693617D01*
X1026245Y693690D01*
X1026245Y693691D01*
X1026494Y694291D01*
X1026541Y694380D01*
X1026903Y694921D01*
X1026966Y694998D01*
X1027426Y695458D01*
X1027504Y695521D01*
X1028044Y695882D01*
X1028044Y695883D01*
X1028075Y695899D01*
X1028133Y695930D01*
X1028133Y695930D01*
X1028734Y696179D01*
X1028829Y696208D01*
X1029467Y696335D01*
X1029567Y696345D01*
X1032892D01*
X1032992Y696335D01*
D02*
G37*
G36*
X981684D02*
X981779Y696306D01*
X981868Y696258D01*
X981945Y696195D01*
X982009Y696118D01*
X982056Y696029D01*
X982085Y695934D01*
X982094Y695834D01*
Y689230D01*
X982085Y689130D01*
X982056Y689035D01*
X982009Y688946D01*
X981945Y688869D01*
X981868Y688806D01*
X981779Y688758D01*
X981684Y688729D01*
X981584Y688720D01*
X978259D01*
X978159Y688729D01*
X977521Y688856D01*
X977426Y688885D01*
X976825Y689134D01*
X976736Y689181D01*
X976196Y689543D01*
X976118Y689606D01*
X975658Y690066D01*
X975595Y690144D01*
X975234Y690684D01*
X975233Y690684D01*
X975217Y690715D01*
X975186Y690773D01*
X975186Y690773D01*
X974937Y691374D01*
X974908Y691469D01*
X974781Y692107D01*
X974772Y692207D01*
Y692207D01*
D01*
X974772Y692857D01*
X974781Y692957D01*
X974781Y692957D01*
X974908Y693595D01*
Y693595D01*
X974915Y693617D01*
X974937Y693690D01*
X974937Y693691D01*
X975186Y694291D01*
X975233Y694380D01*
X975595Y694921D01*
X975658Y694998D01*
X976118Y695458D01*
X976196Y695521D01*
X976736Y695882D01*
X976736Y695883D01*
X976767Y695899D01*
X976825Y695930D01*
X976825Y695930D01*
X977426Y696179D01*
X977521Y696208D01*
X978159Y696335D01*
X978259Y696345D01*
X981584D01*
X981684Y696335D01*
D02*
G37*
G36*
X891768D02*
X891863Y696306D01*
X891952Y696258D01*
X892029Y696195D01*
X892093Y696118D01*
X892140Y696029D01*
X892169Y695934D01*
X892178Y695834D01*
Y689230D01*
X892169Y689130D01*
X892140Y689035D01*
X892093Y688946D01*
X892029Y688869D01*
X891952Y688806D01*
X891863Y688758D01*
X891768Y688729D01*
X891668Y688720D01*
X888343D01*
X888243Y688729D01*
X887605Y688856D01*
X887510Y688885D01*
X886909Y689134D01*
X886820Y689181D01*
X886280Y689543D01*
X886202Y689606D01*
X885742Y690066D01*
X885679Y690144D01*
X885318Y690684D01*
X885317Y690684D01*
X885301Y690715D01*
X885270Y690773D01*
X885270Y690773D01*
X885021Y691374D01*
X884992Y691469D01*
X884865Y692107D01*
X884856Y692207D01*
Y692207D01*
D01*
X884856Y692857D01*
X884865Y692957D01*
X884865Y692957D01*
X884992Y693595D01*
Y693595D01*
X884999Y693617D01*
X885021Y693690D01*
X885021Y693691D01*
X885270Y694291D01*
X885317Y694380D01*
X885679Y694921D01*
X885742Y694998D01*
X886202Y695458D01*
X886280Y695521D01*
X886820Y695882D01*
X886820Y695883D01*
X886851Y695899D01*
X886909Y695930D01*
X886909Y695930D01*
X887510Y696179D01*
X887605Y696208D01*
X888243Y696335D01*
X888343Y696345D01*
X891668D01*
X891768Y696335D01*
D02*
G37*
G36*
X1122908Y687191D02*
X1123003Y687162D01*
X1123092Y687114D01*
X1123169Y687051D01*
X1123232Y686974D01*
X1123280Y686885D01*
X1123309Y686790D01*
X1123318Y686690D01*
Y680086D01*
X1123309Y679986D01*
X1123280Y679891D01*
X1123232Y679802D01*
X1123169Y679725D01*
X1123092Y679662D01*
X1123003Y679614D01*
X1122908Y679585D01*
X1122808Y679576D01*
X1119483D01*
X1119383Y679585D01*
X1118745Y679712D01*
X1118650Y679741D01*
X1118049Y679990D01*
X1117960Y680037D01*
X1117420Y680399D01*
X1117342Y680462D01*
X1116882Y680922D01*
X1116819Y681000D01*
X1116458Y681540D01*
X1116457Y681540D01*
X1116441Y681571D01*
X1116410Y681629D01*
X1116410Y681629D01*
X1116161Y682230D01*
X1116132Y682325D01*
X1116005Y682963D01*
X1115996Y683063D01*
Y683063D01*
D01*
X1115996Y683713D01*
X1116005Y683813D01*
X1116005Y683813D01*
X1116132Y684451D01*
Y684451D01*
X1116139Y684473D01*
X1116161Y684547D01*
X1116161Y684547D01*
X1116410Y685147D01*
X1116457Y685236D01*
X1116819Y685777D01*
X1116882Y685854D01*
X1117342Y686314D01*
X1117420Y686377D01*
X1117960Y686739D01*
X1117960Y686739D01*
X1117991Y686755D01*
X1118049Y686786D01*
X1118049Y686786D01*
X1118650Y687035D01*
X1118745Y687064D01*
X1119383Y687191D01*
X1119483Y687200D01*
X1122808D01*
X1122908Y687191D01*
D02*
G37*
G36*
X1032992D02*
X1033087Y687162D01*
X1033176Y687114D01*
X1033253Y687051D01*
X1033316Y686974D01*
X1033364Y686885D01*
X1033393Y686790D01*
X1033402Y686690D01*
Y680086D01*
X1033393Y679986D01*
X1033364Y679891D01*
X1033316Y679802D01*
X1033253Y679725D01*
X1033176Y679662D01*
X1033087Y679614D01*
X1032992Y679585D01*
X1032892Y679576D01*
X1029567D01*
X1029467Y679585D01*
X1028829Y679712D01*
X1028734Y679741D01*
X1028133Y679990D01*
X1028044Y680037D01*
X1027504Y680399D01*
X1027426Y680462D01*
X1026966Y680922D01*
X1026903Y681000D01*
X1026542Y681540D01*
X1026541Y681540D01*
X1026525Y681571D01*
X1026494Y681629D01*
X1026494Y681629D01*
X1026245Y682230D01*
X1026216Y682325D01*
X1026089Y682963D01*
X1026080Y683063D01*
Y683063D01*
D01*
X1026080Y683713D01*
X1026089Y683813D01*
X1026089Y683813D01*
X1026216Y684451D01*
Y684451D01*
X1026223Y684473D01*
X1026245Y684547D01*
X1026245Y684547D01*
X1026494Y685147D01*
X1026541Y685236D01*
X1026903Y685777D01*
X1026966Y685854D01*
X1027426Y686314D01*
X1027504Y686377D01*
X1028044Y686739D01*
X1028044Y686739D01*
X1028075Y686755D01*
X1028133Y686786D01*
X1028133Y686786D01*
X1028734Y687035D01*
X1028829Y687064D01*
X1029467Y687191D01*
X1029567Y687200D01*
X1032892D01*
X1032992Y687191D01*
D02*
G37*
G36*
X981684D02*
X981779Y687162D01*
X981868Y687114D01*
X981945Y687051D01*
X982009Y686974D01*
X982056Y686885D01*
X982085Y686790D01*
X982094Y686690D01*
Y680086D01*
X982085Y679986D01*
X982056Y679891D01*
X982009Y679802D01*
X981945Y679725D01*
X981868Y679662D01*
X981779Y679614D01*
X981684Y679585D01*
X981584Y679576D01*
X978259D01*
X978159Y679585D01*
X977521Y679712D01*
X977426Y679741D01*
X976825Y679990D01*
X976736Y680037D01*
X976196Y680399D01*
X976118Y680462D01*
X975658Y680922D01*
X975595Y681000D01*
X975234Y681540D01*
X975233Y681540D01*
X975217Y681571D01*
X975186Y681629D01*
X975186Y681629D01*
X974937Y682230D01*
X974908Y682325D01*
X974781Y682963D01*
X974772Y683063D01*
Y683063D01*
D01*
X974772Y683713D01*
X974781Y683813D01*
X974781Y683813D01*
X974908Y684451D01*
Y684451D01*
X974915Y684473D01*
X974937Y684547D01*
X974937Y684547D01*
X975186Y685147D01*
X975233Y685236D01*
X975595Y685777D01*
X975658Y685854D01*
X976118Y686314D01*
X976196Y686377D01*
X976736Y686739D01*
X976736Y686739D01*
X976767Y686755D01*
X976825Y686786D01*
X976825Y686786D01*
X977426Y687035D01*
X977521Y687064D01*
X978159Y687191D01*
X978259Y687200D01*
X981584D01*
X981684Y687191D01*
D02*
G37*
G36*
X891768D02*
X891863Y687162D01*
X891952Y687114D01*
X892029Y687051D01*
X892093Y686974D01*
X892140Y686885D01*
X892169Y686790D01*
X892178Y686690D01*
Y680086D01*
X892169Y679986D01*
X892140Y679891D01*
X892093Y679802D01*
X892029Y679725D01*
X891952Y679662D01*
X891863Y679614D01*
X891768Y679585D01*
X891668Y679576D01*
X888343D01*
X888243Y679585D01*
X887605Y679712D01*
X887510Y679741D01*
X886909Y679990D01*
X886820Y680037D01*
X886280Y680399D01*
X886202Y680462D01*
X885742Y680922D01*
X885679Y681000D01*
X885318Y681540D01*
X885317Y681540D01*
X885301Y681571D01*
X885270Y681629D01*
X885270Y681629D01*
X885021Y682230D01*
X884992Y682325D01*
X884865Y682963D01*
X884856Y683063D01*
Y683063D01*
D01*
X884856Y683713D01*
X884865Y683813D01*
X884865Y683813D01*
X884992Y684451D01*
Y684451D01*
X884999Y684473D01*
X885021Y684547D01*
X885021Y684547D01*
X885270Y685147D01*
X885317Y685236D01*
X885679Y685777D01*
X885742Y685854D01*
X886202Y686314D01*
X886280Y686377D01*
X886820Y686739D01*
X886820Y686739D01*
X886851Y686755D01*
X886909Y686786D01*
X886909Y686786D01*
X887510Y687035D01*
X887605Y687064D01*
X888243Y687191D01*
X888343Y687200D01*
X891668D01*
X891768Y687191D01*
D02*
G37*
G36*
X548842Y589618D02*
X548889Y589614D01*
X548935Y589609D01*
X548938Y589609D01*
X548941Y589608D01*
X548987Y589594D01*
X549031Y589581D01*
X549034Y589580D01*
X549037Y589579D01*
X549078Y589557D01*
X549120Y589535D01*
X549122Y589533D01*
X549125Y589531D01*
X549161Y589501D01*
X549198Y589472D01*
X554798Y583972D01*
X554800Y583970D01*
X554802Y583969D01*
X554832Y583931D01*
X554863Y583895D01*
X554864Y583893D01*
X554865Y583891D01*
X554887Y583850D01*
X554911Y583807D01*
X554911Y583805D01*
X554912Y583803D01*
X554926Y583757D01*
X554940Y583712D01*
X554941Y583710D01*
X554941Y583707D01*
X554946Y583659D01*
X554951Y583612D01*
X554951Y583610D01*
X554951Y583608D01*
Y555708D01*
X554951Y555705D01*
X554951Y555703D01*
X554946Y555654D01*
X554941Y555608D01*
X554941Y555606D01*
X554940Y555604D01*
X554926Y555558D01*
X554912Y555512D01*
X554911Y555510D01*
X554911Y555508D01*
X554888Y555466D01*
X554865Y555424D01*
X554864Y555422D01*
X554863Y555420D01*
X554832Y555383D01*
X554802Y555347D01*
X554800Y555345D01*
X554798Y555344D01*
X549201Y549845D01*
X549201Y549845D01*
X549200Y549845D01*
X549198Y549843D01*
X549162Y549814D01*
X549123Y549782D01*
X549122Y549781D01*
X549120Y549781D01*
X549077Y549758D01*
X549035Y549735D01*
X549033Y549735D01*
X549032Y549734D01*
X548986Y549721D01*
X548939Y549706D01*
X548937Y549706D01*
X548936Y549706D01*
X548888Y549702D01*
X548839Y549697D01*
X548836D01*
X548836D01*
X548836D01*
X539939Y549726D01*
X539891Y549731D01*
X539841Y549736D01*
X539840Y549736D01*
X539840Y549736D01*
X539793Y549750D01*
X539745Y549765D01*
X539745Y549765D01*
X539744Y549765D01*
X539700Y549789D01*
X539657Y549812D01*
X539656Y549812D01*
X539656Y549813D01*
X539617Y549845D01*
X539580Y549875D01*
X539579Y549876D01*
X539579Y549877D01*
X539547Y549915D01*
X539516Y549953D01*
X539516Y549953D01*
X539515Y549954D01*
X539492Y549999D01*
X539469Y550041D01*
X539469Y550042D01*
X539468Y550042D01*
X539454Y550092D01*
X539440Y550137D01*
X539440Y550138D01*
X539440Y550138D01*
X539435Y550189D01*
X539430Y550236D01*
Y557986D01*
X539435Y558033D01*
X539439Y558079D01*
X539440Y558083D01*
X539440Y558086D01*
X539454Y558131D01*
X539467Y558176D01*
X539468Y558179D01*
X539469Y558182D01*
X539491Y558222D01*
X539513Y558265D01*
X539515Y558267D01*
X539516Y558270D01*
X539546Y558306D01*
X539575Y558343D01*
X545250Y564166D01*
X545207Y575250D01*
X539574Y581031D01*
X539545Y581068D01*
X539515Y581104D01*
X539514Y581107D01*
X539512Y581110D01*
X539490Y581151D01*
X539468Y581192D01*
X539467Y581195D01*
X539466Y581199D01*
X539453Y581243D01*
X539439Y581288D01*
X539439Y581291D01*
X539438Y581295D01*
X539434Y581341D01*
X539430Y581388D01*
Y589138D01*
X539430Y589138D01*
X539430Y589139D01*
X539435Y589189D01*
X539439Y589237D01*
X539440Y589238D01*
X539440Y589239D01*
X539454Y589286D01*
X539468Y589333D01*
X539469Y589334D01*
X539469Y589335D01*
X539493Y589379D01*
X539515Y589421D01*
X539516Y589422D01*
X539516Y589423D01*
X539548Y589460D01*
X539579Y589499D01*
X539580Y589499D01*
X539580Y589500D01*
X539616Y589529D01*
X539656Y589562D01*
X539657Y589562D01*
X539658Y589563D01*
X539702Y589586D01*
X539745Y589609D01*
X539745Y589609D01*
X539746Y589610D01*
X539795Y589624D01*
X539840Y589638D01*
X539841Y589638D01*
X539842Y589639D01*
X539892Y589643D01*
X539940Y589648D01*
X539941Y589648D01*
X539942Y589648D01*
X548842Y589618D01*
D02*
G37*
G36*
X524989Y589643D02*
X525039Y589639D01*
X525040Y589638D01*
X525041Y589638D01*
X525086Y589624D01*
X525135Y589610D01*
X525135Y589609D01*
X525136Y589609D01*
X525179Y589586D01*
X525223Y589563D01*
X525224Y589562D01*
X525224Y589562D01*
X525265Y589529D01*
X525301Y589500D01*
X525301Y589499D01*
X525302Y589499D01*
X525333Y589460D01*
X525364Y589423D01*
X525365Y589422D01*
X525365Y589421D01*
X525388Y589379D01*
X525412Y589335D01*
X525412Y589334D01*
X525412Y589333D01*
X525427Y589286D01*
X525441Y589239D01*
X525441Y589238D01*
X525442Y589237D01*
X525446Y589189D01*
X525451Y589139D01*
X525451Y589138D01*
X525451Y589138D01*
Y581388D01*
X525447Y581341D01*
X525443Y581295D01*
X525442Y581291D01*
X525442Y581288D01*
X525428Y581243D01*
X525415Y581199D01*
X525414Y581195D01*
X525412Y581192D01*
X525391Y581151D01*
X525369Y581110D01*
X525367Y581107D01*
X525365Y581104D01*
X525336Y581068D01*
X525307Y581031D01*
X519674Y575250D01*
X519631Y564166D01*
X525306Y558343D01*
X525335Y558306D01*
X525364Y558270D01*
X525366Y558267D01*
X525368Y558265D01*
X525390Y558222D01*
X525412Y558182D01*
X525413Y558179D01*
X525414Y558176D01*
X525427Y558131D01*
X525441Y558086D01*
X525441Y558083D01*
X525442Y558079D01*
X525446Y558033D01*
X525451Y557986D01*
Y550236D01*
X525446Y550189D01*
X525441Y550138D01*
X525441Y550138D01*
X525441Y550137D01*
X525427Y550092D01*
X525412Y550042D01*
X525412Y550042D01*
X525412Y550041D01*
X525389Y549999D01*
X525365Y549954D01*
X525365Y549953D01*
X525364Y549953D01*
X525334Y549915D01*
X525302Y549877D01*
X525302Y549876D01*
X525301Y549875D01*
X525264Y549845D01*
X525225Y549813D01*
X525224Y549812D01*
X525224Y549812D01*
X525181Y549789D01*
X525137Y549765D01*
X525136Y549765D01*
X525135Y549765D01*
X525088Y549750D01*
X525041Y549736D01*
X525041Y549736D01*
X525040Y549736D01*
X524990Y549731D01*
X524942Y549726D01*
X516045Y549697D01*
X516045D01*
X516045D01*
X516042D01*
X515993Y549702D01*
X515945Y549706D01*
X515944Y549706D01*
X515942Y549706D01*
X515895Y549721D01*
X515849Y549734D01*
X515848Y549735D01*
X515846Y549735D01*
X515803Y549758D01*
X515760Y549781D01*
X515759Y549781D01*
X515758Y549782D01*
X515719Y549814D01*
X515682Y549843D01*
X515680Y549845D01*
X515680Y549845D01*
X515680Y549845D01*
X510083Y555344D01*
X510081Y555345D01*
X510079Y555347D01*
X510049Y555383D01*
X510018Y555420D01*
X510017Y555422D01*
X510016Y555424D01*
X509993Y555466D01*
X509970Y555508D01*
X509970Y555510D01*
X509969Y555512D01*
X509955Y555558D01*
X509940Y555604D01*
X509940Y555606D01*
X509939Y555608D01*
X509935Y555654D01*
X509930Y555703D01*
X509930Y555705D01*
X509930Y555708D01*
Y583608D01*
X509930Y583610D01*
X509930Y583612D01*
X509935Y583659D01*
X509939Y583707D01*
X509940Y583710D01*
X509940Y583712D01*
X509955Y583757D01*
X509969Y583803D01*
X509970Y583805D01*
X509970Y583807D01*
X509994Y583850D01*
X510016Y583891D01*
X510017Y583893D01*
X510018Y583895D01*
X510048Y583931D01*
X510079Y583969D01*
X510081Y583970D01*
X510083Y583972D01*
X515683Y589472D01*
X515720Y589501D01*
X515756Y589531D01*
X515759Y589533D01*
X515761Y589535D01*
X515803Y589557D01*
X515844Y589579D01*
X515847Y589580D01*
X515850Y589581D01*
X515894Y589594D01*
X515940Y589608D01*
X515943Y589609D01*
X515946Y589609D01*
X515992Y589614D01*
X516039Y589618D01*
X524939Y589648D01*
X524940Y589648D01*
X524941Y589648D01*
X524989Y589643D01*
D02*
G37*
G36*
X1134007Y586870D02*
X1134107Y586861D01*
X1134107Y586861D01*
X1134745Y586734D01*
X1134745D01*
X1134767Y586727D01*
X1134841Y586705D01*
X1134841Y586705D01*
X1135442Y586456D01*
X1135530Y586409D01*
X1136071Y586047D01*
X1136148Y585984D01*
X1136608Y585524D01*
X1136671Y585447D01*
X1137033Y584906D01*
X1137033Y584906D01*
X1137049Y584875D01*
X1137080Y584817D01*
X1137080Y584817D01*
X1137329Y584216D01*
X1137358Y584121D01*
X1137485Y583483D01*
X1137495Y583383D01*
Y582733D01*
X1137485Y582633D01*
X1137358Y581995D01*
X1137329Y581899D01*
X1137080Y581299D01*
X1137033Y581210D01*
X1136671Y580670D01*
X1136608Y580592D01*
X1136148Y580132D01*
X1136070Y580069D01*
X1135530Y579707D01*
X1135530Y579707D01*
X1135499Y579691D01*
X1135442Y579660D01*
X1135441Y579660D01*
X1134841Y579411D01*
X1134745Y579382D01*
X1134107Y579255D01*
X1134007Y579246D01*
X1130682D01*
X1130582Y579255D01*
X1130487Y579284D01*
X1130398Y579332D01*
X1130321Y579395D01*
X1130258Y579472D01*
X1130210Y579561D01*
X1130181Y579656D01*
X1130172Y579756D01*
Y586360D01*
X1130181Y586460D01*
X1130210Y586555D01*
X1130258Y586644D01*
X1130321Y586721D01*
X1130398Y586784D01*
X1130487Y586832D01*
X1130582Y586861D01*
X1130682Y586870D01*
X1133682D01*
X1133682D01*
X1133682D01*
X1134007Y586870D01*
D02*
G37*
G36*
X1044091D02*
X1044191Y586861D01*
X1044191Y586861D01*
X1044829Y586734D01*
X1044829D01*
X1044851Y586727D01*
X1044925Y586705D01*
X1044925Y586705D01*
X1045526Y586456D01*
X1045614Y586409D01*
X1046155Y586047D01*
X1046232Y585984D01*
X1046692Y585524D01*
X1046755Y585447D01*
X1047117Y584906D01*
X1047117Y584906D01*
X1047133Y584875D01*
X1047164Y584817D01*
X1047164Y584817D01*
X1047413Y584216D01*
X1047442Y584121D01*
X1047569Y583483D01*
X1047579Y583383D01*
Y582733D01*
X1047569Y582633D01*
X1047442Y581995D01*
X1047413Y581899D01*
X1047164Y581299D01*
X1047117Y581210D01*
X1046755Y580670D01*
X1046692Y580592D01*
X1046232Y580132D01*
X1046154Y580069D01*
X1045614Y579707D01*
X1045614Y579707D01*
X1045583Y579691D01*
X1045526Y579660D01*
X1045525Y579660D01*
X1044925Y579411D01*
X1044829Y579382D01*
X1044191Y579255D01*
X1044091Y579246D01*
X1040766D01*
X1040666Y579255D01*
X1040571Y579284D01*
X1040482Y579332D01*
X1040405Y579395D01*
X1040342Y579472D01*
X1040294Y579561D01*
X1040265Y579656D01*
X1040256Y579756D01*
Y586360D01*
X1040265Y586460D01*
X1040294Y586555D01*
X1040342Y586644D01*
X1040405Y586721D01*
X1040482Y586784D01*
X1040571Y586832D01*
X1040666Y586861D01*
X1040766Y586870D01*
X1043766D01*
X1043766D01*
X1043766D01*
X1044091Y586870D01*
D02*
G37*
G36*
X992783D02*
X992883Y586861D01*
X992883Y586861D01*
X993521Y586734D01*
X993521D01*
X993543Y586727D01*
X993617Y586705D01*
X993617Y586705D01*
X994218Y586456D01*
X994306Y586409D01*
X994847Y586047D01*
X994924Y585984D01*
X995384Y585524D01*
X995447Y585447D01*
X995809Y584906D01*
X995809Y584906D01*
X995825Y584875D01*
X995856Y584817D01*
X995856Y584817D01*
X996105Y584216D01*
X996134Y584121D01*
X996261Y583483D01*
X996271Y583383D01*
Y582733D01*
X996261Y582633D01*
X996134Y581995D01*
X996105Y581899D01*
X995856Y581299D01*
X995809Y581210D01*
X995447Y580670D01*
X995384Y580592D01*
X994924Y580132D01*
X994846Y580069D01*
X994306Y579707D01*
X994306Y579707D01*
X994275Y579691D01*
X994218Y579660D01*
X994217Y579660D01*
X993617Y579411D01*
X993521Y579382D01*
X992883Y579255D01*
X992783Y579246D01*
X989458D01*
X989358Y579255D01*
X989263Y579284D01*
X989174Y579332D01*
X989097Y579395D01*
X989034Y579472D01*
X988986Y579561D01*
X988957Y579656D01*
X988948Y579756D01*
Y586360D01*
X988957Y586460D01*
X988986Y586555D01*
X989034Y586644D01*
X989097Y586721D01*
X989174Y586784D01*
X989263Y586832D01*
X989358Y586861D01*
X989458Y586870D01*
X992458D01*
X992458D01*
X992458D01*
X992783Y586870D01*
D02*
G37*
G36*
X902867D02*
X902967Y586861D01*
X902967Y586861D01*
X903605Y586734D01*
X903605D01*
X903627Y586727D01*
X903701Y586705D01*
X903701Y586705D01*
X904302Y586456D01*
X904390Y586409D01*
X904931Y586047D01*
X905008Y585984D01*
X905468Y585524D01*
X905531Y585447D01*
X905893Y584906D01*
X905893Y584906D01*
X905909Y584875D01*
X905940Y584817D01*
X905940Y584817D01*
X906189Y584216D01*
X906218Y584121D01*
X906345Y583483D01*
X906355Y583383D01*
Y582733D01*
X906345Y582633D01*
X906218Y581995D01*
X906189Y581899D01*
X905940Y581299D01*
X905893Y581210D01*
X905531Y580670D01*
X905468Y580592D01*
X905008Y580132D01*
X904930Y580069D01*
X904390Y579707D01*
X904390Y579707D01*
X904359Y579691D01*
X904302Y579660D01*
X904301Y579660D01*
X903701Y579411D01*
X903605Y579382D01*
X902967Y579255D01*
X902867Y579246D01*
X899542D01*
X899442Y579255D01*
X899347Y579284D01*
X899258Y579332D01*
X899181Y579395D01*
X899118Y579472D01*
X899070Y579561D01*
X899041Y579656D01*
X899032Y579756D01*
Y586360D01*
X899041Y586460D01*
X899070Y586555D01*
X899118Y586644D01*
X899181Y586721D01*
X899258Y586784D01*
X899347Y586832D01*
X899442Y586861D01*
X899542Y586870D01*
X902542D01*
X902542D01*
X902542D01*
X902867Y586870D01*
D02*
G37*
G36*
X1134007Y577727D02*
X1134107Y577717D01*
X1134107Y577717D01*
X1134745Y577590D01*
X1134745D01*
X1134767Y577583D01*
X1134841Y577561D01*
X1134841Y577561D01*
X1135442Y577312D01*
X1135530Y577265D01*
X1136071Y576903D01*
X1136148Y576840D01*
X1136608Y576380D01*
X1136671Y576302D01*
X1137033Y575762D01*
X1137033Y575762D01*
X1137049Y575731D01*
X1137080Y575673D01*
X1137080Y575673D01*
X1137329Y575073D01*
X1137358Y574977D01*
X1137485Y574339D01*
X1137495Y574239D01*
Y573589D01*
X1137485Y573489D01*
X1137358Y572851D01*
X1137329Y572756D01*
X1137080Y572155D01*
X1137033Y572066D01*
X1136671Y571525D01*
X1136608Y571448D01*
X1136148Y570988D01*
X1136070Y570925D01*
X1135530Y570564D01*
X1135530Y570563D01*
X1135499Y570547D01*
X1135442Y570516D01*
X1135441Y570516D01*
X1134841Y570267D01*
X1134745Y570238D01*
X1134107Y570111D01*
X1134007Y570102D01*
X1130682D01*
X1130582Y570111D01*
X1130487Y570140D01*
X1130398Y570188D01*
X1130321Y570251D01*
X1130258Y570328D01*
X1130210Y570417D01*
X1130181Y570512D01*
X1130172Y570612D01*
Y577216D01*
X1130181Y577316D01*
X1130210Y577411D01*
X1130258Y577500D01*
X1130321Y577577D01*
X1130398Y577640D01*
X1130487Y577688D01*
X1130582Y577717D01*
X1130682Y577727D01*
X1133682D01*
X1133682D01*
X1133682D01*
X1134007Y577727D01*
D02*
G37*
G36*
X1044091D02*
X1044191Y577717D01*
X1044191Y577717D01*
X1044829Y577590D01*
X1044829D01*
X1044851Y577583D01*
X1044925Y577561D01*
X1044925Y577561D01*
X1045526Y577312D01*
X1045614Y577265D01*
X1046155Y576903D01*
X1046232Y576840D01*
X1046692Y576380D01*
X1046755Y576302D01*
X1047117Y575762D01*
X1047117Y575762D01*
X1047133Y575731D01*
X1047164Y575673D01*
X1047164Y575673D01*
X1047413Y575073D01*
X1047442Y574977D01*
X1047569Y574339D01*
X1047579Y574239D01*
Y573589D01*
X1047569Y573489D01*
X1047442Y572851D01*
X1047413Y572756D01*
X1047164Y572155D01*
X1047117Y572066D01*
X1046755Y571525D01*
X1046692Y571448D01*
X1046232Y570988D01*
X1046154Y570925D01*
X1045614Y570564D01*
X1045614Y570563D01*
X1045583Y570547D01*
X1045526Y570516D01*
X1045525Y570516D01*
X1044925Y570267D01*
X1044829Y570238D01*
X1044191Y570111D01*
X1044091Y570102D01*
X1040766D01*
X1040666Y570111D01*
X1040571Y570140D01*
X1040482Y570188D01*
X1040405Y570251D01*
X1040342Y570328D01*
X1040294Y570417D01*
X1040265Y570512D01*
X1040256Y570612D01*
Y577216D01*
X1040265Y577316D01*
X1040294Y577411D01*
X1040342Y577500D01*
X1040405Y577577D01*
X1040482Y577640D01*
X1040571Y577688D01*
X1040666Y577717D01*
X1040766Y577727D01*
X1043766D01*
X1043766D01*
X1043766D01*
X1044091Y577727D01*
D02*
G37*
G36*
X992783D02*
X992883Y577717D01*
X992883Y577717D01*
X993521Y577590D01*
X993521D01*
X993543Y577583D01*
X993617Y577561D01*
X993617Y577561D01*
X994218Y577312D01*
X994306Y577265D01*
X994847Y576903D01*
X994924Y576840D01*
X995384Y576380D01*
X995447Y576302D01*
X995809Y575762D01*
X995809Y575762D01*
X995825Y575731D01*
X995856Y575673D01*
X995856Y575673D01*
X996105Y575073D01*
X996134Y574977D01*
X996261Y574339D01*
X996271Y574239D01*
Y573589D01*
X996261Y573489D01*
X996134Y572851D01*
X996105Y572756D01*
X995856Y572155D01*
X995809Y572066D01*
X995447Y571525D01*
X995384Y571448D01*
X994924Y570988D01*
X994846Y570925D01*
X994306Y570564D01*
X994306Y570563D01*
X994275Y570547D01*
X994218Y570516D01*
X994217Y570516D01*
X993617Y570267D01*
X993521Y570238D01*
X992883Y570111D01*
X992783Y570102D01*
X989458D01*
X989358Y570111D01*
X989263Y570140D01*
X989174Y570188D01*
X989097Y570251D01*
X989034Y570328D01*
X988986Y570417D01*
X988957Y570512D01*
X988948Y570612D01*
Y577216D01*
X988957Y577316D01*
X988986Y577411D01*
X989034Y577500D01*
X989097Y577577D01*
X989174Y577640D01*
X989263Y577688D01*
X989358Y577717D01*
X989458Y577727D01*
X992458D01*
X992458D01*
X992458D01*
X992783Y577727D01*
D02*
G37*
G36*
X902867D02*
X902967Y577717D01*
X902967Y577717D01*
X903605Y577590D01*
X903605D01*
X903627Y577583D01*
X903701Y577561D01*
X903701Y577561D01*
X904302Y577312D01*
X904390Y577265D01*
X904931Y576903D01*
X905008Y576840D01*
X905468Y576380D01*
X905531Y576302D01*
X905893Y575762D01*
X905893Y575762D01*
X905909Y575731D01*
X905940Y575673D01*
X905940Y575673D01*
X906189Y575073D01*
X906218Y574977D01*
X906345Y574339D01*
X906355Y574239D01*
Y573589D01*
X906345Y573489D01*
X906218Y572851D01*
X906189Y572756D01*
X905940Y572155D01*
X905893Y572066D01*
X905531Y571525D01*
X905468Y571448D01*
X905008Y570988D01*
X904930Y570925D01*
X904390Y570564D01*
X904390Y570563D01*
X904359Y570547D01*
X904302Y570516D01*
X904301Y570516D01*
X903701Y570267D01*
X903605Y570238D01*
X902967Y570111D01*
X902867Y570102D01*
X899542D01*
X899442Y570111D01*
X899347Y570140D01*
X899258Y570188D01*
X899181Y570251D01*
X899118Y570328D01*
X899070Y570417D01*
X899041Y570512D01*
X899032Y570612D01*
Y577216D01*
X899041Y577316D01*
X899070Y577411D01*
X899118Y577500D01*
X899181Y577577D01*
X899258Y577640D01*
X899347Y577688D01*
X899442Y577717D01*
X899542Y577727D01*
X902542D01*
X902542D01*
X902542D01*
X902867Y577727D01*
D02*
G37*
G36*
X1122908Y582289D02*
X1123003Y582260D01*
X1123092Y582212D01*
X1123169Y582149D01*
X1123232Y582072D01*
X1123280Y581983D01*
X1123309Y581888D01*
X1123318Y581788D01*
Y575184D01*
X1123309Y575084D01*
X1123280Y574989D01*
X1123232Y574900D01*
X1123169Y574823D01*
X1123092Y574760D01*
X1123003Y574712D01*
X1122908Y574683D01*
X1122808Y574674D01*
X1119483D01*
X1119383Y574683D01*
X1118745Y574810D01*
X1118650Y574839D01*
X1118049Y575088D01*
X1117960Y575135D01*
X1117420Y575497D01*
X1117342Y575560D01*
X1116882Y576020D01*
X1116819Y576097D01*
X1116458Y576638D01*
X1116457Y576638D01*
X1116441Y576669D01*
X1116410Y576727D01*
X1116410Y576727D01*
X1116161Y577327D01*
X1116132Y577423D01*
X1116005Y578061D01*
X1115996Y578161D01*
Y578161D01*
D01*
X1115996Y578811D01*
X1116005Y578911D01*
X1116005Y578911D01*
X1116132Y579549D01*
Y579549D01*
X1116139Y579571D01*
X1116161Y579645D01*
X1116161Y579645D01*
X1116410Y580245D01*
X1116457Y580334D01*
X1116819Y580874D01*
X1116882Y580952D01*
X1117342Y581412D01*
X1117420Y581475D01*
X1117960Y581837D01*
X1117960Y581837D01*
X1117991Y581853D01*
X1118049Y581884D01*
X1118049Y581884D01*
X1118650Y582133D01*
X1118745Y582162D01*
X1119383Y582289D01*
X1119483Y582299D01*
X1122808D01*
X1122908Y582289D01*
D02*
G37*
G36*
X1032992D02*
X1033087Y582260D01*
X1033176Y582212D01*
X1033253Y582149D01*
X1033316Y582072D01*
X1033364Y581983D01*
X1033393Y581888D01*
X1033402Y581788D01*
Y575184D01*
X1033393Y575084D01*
X1033364Y574989D01*
X1033316Y574900D01*
X1033253Y574823D01*
X1033176Y574760D01*
X1033087Y574712D01*
X1032992Y574683D01*
X1032892Y574674D01*
X1029567D01*
X1029467Y574683D01*
X1028829Y574810D01*
X1028734Y574839D01*
X1028133Y575088D01*
X1028044Y575135D01*
X1027504Y575497D01*
X1027426Y575560D01*
X1026966Y576020D01*
X1026903Y576097D01*
X1026542Y576638D01*
X1026541Y576638D01*
X1026525Y576669D01*
X1026494Y576727D01*
X1026494Y576727D01*
X1026245Y577327D01*
X1026216Y577423D01*
X1026089Y578061D01*
X1026080Y578161D01*
Y578161D01*
D01*
X1026080Y578811D01*
X1026089Y578911D01*
X1026089Y578911D01*
X1026216Y579549D01*
Y579549D01*
X1026223Y579571D01*
X1026245Y579645D01*
X1026245Y579645D01*
X1026494Y580245D01*
X1026541Y580334D01*
X1026903Y580874D01*
X1026966Y580952D01*
X1027426Y581412D01*
X1027504Y581475D01*
X1028044Y581837D01*
X1028044Y581837D01*
X1028075Y581853D01*
X1028133Y581884D01*
X1028133Y581884D01*
X1028734Y582133D01*
X1028829Y582162D01*
X1029467Y582289D01*
X1029567Y582299D01*
X1032892D01*
X1032992Y582289D01*
D02*
G37*
G36*
X981684D02*
X981779Y582260D01*
X981868Y582212D01*
X981945Y582149D01*
X982009Y582072D01*
X982056Y581983D01*
X982085Y581888D01*
X982094Y581788D01*
Y575184D01*
X982085Y575084D01*
X982056Y574989D01*
X982009Y574900D01*
X981945Y574823D01*
X981868Y574760D01*
X981779Y574712D01*
X981684Y574683D01*
X981584Y574674D01*
X978259D01*
X978159Y574683D01*
X977521Y574810D01*
X977426Y574839D01*
X976825Y575088D01*
X976736Y575135D01*
X976196Y575497D01*
X976118Y575560D01*
X975658Y576020D01*
X975595Y576097D01*
X975234Y576638D01*
X975233Y576638D01*
X975217Y576669D01*
X975186Y576727D01*
X975186Y576727D01*
X974937Y577327D01*
X974908Y577423D01*
X974781Y578061D01*
X974772Y578161D01*
Y578161D01*
D01*
X974772Y578811D01*
X974781Y578911D01*
X974781Y578911D01*
X974908Y579549D01*
Y579549D01*
X974915Y579571D01*
X974937Y579645D01*
X974937Y579645D01*
X975186Y580245D01*
X975233Y580334D01*
X975595Y580874D01*
X975658Y580952D01*
X976118Y581412D01*
X976196Y581475D01*
X976736Y581837D01*
X976736Y581837D01*
X976767Y581853D01*
X976825Y581884D01*
X976825Y581884D01*
X977426Y582133D01*
X977521Y582162D01*
X978159Y582289D01*
X978259Y582299D01*
X981584D01*
X981684Y582289D01*
D02*
G37*
G36*
X891768D02*
X891863Y582260D01*
X891952Y582212D01*
X892029Y582149D01*
X892093Y582072D01*
X892140Y581983D01*
X892169Y581888D01*
X892178Y581788D01*
Y575184D01*
X892169Y575084D01*
X892140Y574989D01*
X892093Y574900D01*
X892029Y574823D01*
X891952Y574760D01*
X891863Y574712D01*
X891768Y574683D01*
X891668Y574674D01*
X888343D01*
X888243Y574683D01*
X887605Y574810D01*
X887510Y574839D01*
X886909Y575088D01*
X886820Y575135D01*
X886280Y575497D01*
X886202Y575560D01*
X885742Y576020D01*
X885679Y576097D01*
X885318Y576638D01*
X885317Y576638D01*
X885301Y576669D01*
X885270Y576727D01*
X885270Y576727D01*
X885021Y577327D01*
X884992Y577423D01*
X884865Y578061D01*
X884856Y578161D01*
Y578161D01*
D01*
X884856Y578811D01*
X884865Y578911D01*
X884865Y578911D01*
X884992Y579549D01*
Y579549D01*
X884999Y579571D01*
X885021Y579645D01*
X885021Y579645D01*
X885270Y580245D01*
X885317Y580334D01*
X885679Y580874D01*
X885742Y580952D01*
X886202Y581412D01*
X886280Y581475D01*
X886820Y581837D01*
X886820Y581837D01*
X886851Y581853D01*
X886909Y581884D01*
X886909Y581884D01*
X887510Y582133D01*
X887605Y582162D01*
X888243Y582289D01*
X888343Y582299D01*
X891668D01*
X891768Y582289D01*
D02*
G37*
G36*
X1134007Y568582D02*
X1134107Y568573D01*
X1134107Y568573D01*
X1134745Y568446D01*
X1134745D01*
X1134767Y568439D01*
X1134841Y568417D01*
X1134841Y568417D01*
X1135442Y568168D01*
X1135530Y568121D01*
X1136071Y567759D01*
X1136148Y567696D01*
X1136608Y567236D01*
X1136671Y567159D01*
X1137033Y566618D01*
X1137033Y566618D01*
X1137049Y566587D01*
X1137080Y566529D01*
X1137080Y566529D01*
X1137329Y565928D01*
X1137358Y565833D01*
X1137485Y565195D01*
X1137495Y565095D01*
Y564445D01*
X1137485Y564345D01*
X1137358Y563707D01*
X1137329Y563611D01*
X1137080Y563011D01*
X1137033Y562922D01*
X1136671Y562382D01*
X1136608Y562304D01*
X1136148Y561844D01*
X1136070Y561781D01*
X1135530Y561419D01*
X1135530Y561419D01*
X1135499Y561403D01*
X1135442Y561372D01*
X1135441Y561372D01*
X1134841Y561123D01*
X1134745Y561094D01*
X1134107Y560967D01*
X1134007Y560958D01*
X1130682D01*
X1130582Y560967D01*
X1130487Y560996D01*
X1130398Y561044D01*
X1130321Y561107D01*
X1130258Y561184D01*
X1130210Y561273D01*
X1130181Y561368D01*
X1130172Y561468D01*
Y568072D01*
X1130181Y568172D01*
X1130210Y568267D01*
X1130258Y568356D01*
X1130321Y568433D01*
X1130398Y568496D01*
X1130487Y568544D01*
X1130582Y568573D01*
X1130682Y568582D01*
X1133682D01*
X1133682D01*
X1133682D01*
X1134007Y568582D01*
D02*
G37*
G36*
X1044091D02*
X1044191Y568573D01*
X1044191Y568573D01*
X1044829Y568446D01*
X1044829D01*
X1044851Y568439D01*
X1044925Y568417D01*
X1044925Y568417D01*
X1045526Y568168D01*
X1045614Y568121D01*
X1046155Y567759D01*
X1046232Y567696D01*
X1046692Y567236D01*
X1046755Y567159D01*
X1047117Y566618D01*
X1047117Y566618D01*
X1047133Y566587D01*
X1047164Y566529D01*
X1047164Y566529D01*
X1047413Y565928D01*
X1047442Y565833D01*
X1047569Y565195D01*
X1047579Y565095D01*
Y564445D01*
X1047569Y564345D01*
X1047442Y563707D01*
X1047413Y563611D01*
X1047164Y563011D01*
X1047117Y562922D01*
X1046755Y562382D01*
X1046692Y562304D01*
X1046232Y561844D01*
X1046154Y561781D01*
X1045614Y561419D01*
X1045614Y561419D01*
X1045583Y561403D01*
X1045526Y561372D01*
X1045525Y561372D01*
X1044925Y561123D01*
X1044829Y561094D01*
X1044191Y560967D01*
X1044091Y560958D01*
X1040766D01*
X1040666Y560967D01*
X1040571Y560996D01*
X1040482Y561044D01*
X1040405Y561107D01*
X1040342Y561184D01*
X1040294Y561273D01*
X1040265Y561368D01*
X1040256Y561468D01*
Y568072D01*
X1040265Y568172D01*
X1040294Y568267D01*
X1040342Y568356D01*
X1040405Y568433D01*
X1040482Y568496D01*
X1040571Y568544D01*
X1040666Y568573D01*
X1040766Y568582D01*
X1043766D01*
X1043766D01*
X1043766D01*
X1044091Y568582D01*
D02*
G37*
G36*
X992783D02*
X992883Y568573D01*
X992883Y568573D01*
X993521Y568446D01*
X993521D01*
X993543Y568439D01*
X993617Y568417D01*
X993617Y568417D01*
X994218Y568168D01*
X994306Y568121D01*
X994847Y567759D01*
X994924Y567696D01*
X995384Y567236D01*
X995447Y567159D01*
X995809Y566618D01*
X995809Y566618D01*
X995825Y566587D01*
X995856Y566529D01*
X995856Y566529D01*
X996105Y565928D01*
X996134Y565833D01*
X996261Y565195D01*
X996271Y565095D01*
Y564445D01*
X996261Y564345D01*
X996134Y563707D01*
X996105Y563611D01*
X995856Y563011D01*
X995809Y562922D01*
X995447Y562382D01*
X995384Y562304D01*
X994924Y561844D01*
X994846Y561781D01*
X994306Y561419D01*
X994306Y561419D01*
X994275Y561403D01*
X994218Y561372D01*
X994217Y561372D01*
X993617Y561123D01*
X993521Y561094D01*
X992883Y560967D01*
X992783Y560958D01*
X989458D01*
X989358Y560967D01*
X989263Y560996D01*
X989174Y561044D01*
X989097Y561107D01*
X989034Y561184D01*
X988986Y561273D01*
X988957Y561368D01*
X988948Y561468D01*
Y568072D01*
X988957Y568172D01*
X988986Y568267D01*
X989034Y568356D01*
X989097Y568433D01*
X989174Y568496D01*
X989263Y568544D01*
X989358Y568573D01*
X989458Y568582D01*
X992458D01*
X992458D01*
X992458D01*
X992783Y568582D01*
D02*
G37*
G36*
X902867D02*
X902967Y568573D01*
X902967Y568573D01*
X903605Y568446D01*
X903605D01*
X903627Y568439D01*
X903701Y568417D01*
X903701Y568417D01*
X904302Y568168D01*
X904390Y568121D01*
X904931Y567759D01*
X905008Y567696D01*
X905468Y567236D01*
X905531Y567159D01*
X905893Y566618D01*
X905893Y566618D01*
X905909Y566587D01*
X905940Y566529D01*
X905940Y566529D01*
X906189Y565928D01*
X906218Y565833D01*
X906345Y565195D01*
X906355Y565095D01*
Y564445D01*
X906345Y564345D01*
X906218Y563707D01*
X906189Y563611D01*
X905940Y563011D01*
X905893Y562922D01*
X905531Y562382D01*
X905468Y562304D01*
X905008Y561844D01*
X904930Y561781D01*
X904390Y561419D01*
X904390Y561419D01*
X904359Y561403D01*
X904302Y561372D01*
X904301Y561372D01*
X903701Y561123D01*
X903605Y561094D01*
X902967Y560967D01*
X902867Y560958D01*
X899542D01*
X899442Y560967D01*
X899347Y560996D01*
X899258Y561044D01*
X899181Y561107D01*
X899118Y561184D01*
X899070Y561273D01*
X899041Y561368D01*
X899032Y561468D01*
Y568072D01*
X899041Y568172D01*
X899070Y568267D01*
X899118Y568356D01*
X899181Y568433D01*
X899258Y568496D01*
X899347Y568544D01*
X899442Y568573D01*
X899542Y568582D01*
X902542D01*
X902542D01*
X902542D01*
X902867Y568582D01*
D02*
G37*
G36*
X1122908Y573145D02*
X1123003Y573116D01*
X1123092Y573068D01*
X1123169Y573005D01*
X1123232Y572928D01*
X1123280Y572839D01*
X1123309Y572744D01*
X1123318Y572644D01*
Y566040D01*
X1123309Y565940D01*
X1123280Y565845D01*
X1123232Y565756D01*
X1123169Y565679D01*
X1123092Y565616D01*
X1123003Y565568D01*
X1122908Y565539D01*
X1122808Y565530D01*
X1119483D01*
X1119383Y565539D01*
X1118745Y565666D01*
X1118650Y565695D01*
X1118049Y565944D01*
X1117960Y565991D01*
X1117420Y566353D01*
X1117342Y566416D01*
X1116882Y566876D01*
X1116819Y566954D01*
X1116458Y567494D01*
X1116457Y567494D01*
X1116441Y567525D01*
X1116410Y567583D01*
X1116410Y567583D01*
X1116161Y568184D01*
X1116132Y568279D01*
X1116005Y568917D01*
X1115996Y569017D01*
Y569017D01*
D01*
X1115996Y569667D01*
X1116005Y569767D01*
X1116005Y569767D01*
X1116132Y570405D01*
Y570405D01*
X1116139Y570427D01*
X1116161Y570500D01*
X1116161Y570501D01*
X1116410Y571101D01*
X1116457Y571190D01*
X1116819Y571730D01*
X1116882Y571808D01*
X1117342Y572268D01*
X1117420Y572331D01*
X1117960Y572692D01*
X1117960Y572693D01*
X1117991Y572709D01*
X1118049Y572740D01*
X1118049Y572740D01*
X1118650Y572989D01*
X1118745Y573018D01*
X1119383Y573145D01*
X1119483Y573154D01*
X1122808D01*
X1122908Y573145D01*
D02*
G37*
G36*
X1032992D02*
X1033087Y573116D01*
X1033176Y573068D01*
X1033253Y573005D01*
X1033316Y572928D01*
X1033364Y572839D01*
X1033393Y572744D01*
X1033402Y572644D01*
Y566040D01*
X1033393Y565940D01*
X1033364Y565845D01*
X1033316Y565756D01*
X1033253Y565679D01*
X1033176Y565616D01*
X1033087Y565568D01*
X1032992Y565539D01*
X1032892Y565530D01*
X1029567D01*
X1029467Y565539D01*
X1028829Y565666D01*
X1028734Y565695D01*
X1028133Y565944D01*
X1028044Y565991D01*
X1027504Y566353D01*
X1027426Y566416D01*
X1026966Y566876D01*
X1026903Y566954D01*
X1026542Y567494D01*
X1026541Y567494D01*
X1026525Y567525D01*
X1026494Y567583D01*
X1026494Y567583D01*
X1026245Y568184D01*
X1026216Y568279D01*
X1026089Y568917D01*
X1026080Y569017D01*
Y569017D01*
D01*
X1026080Y569667D01*
X1026089Y569767D01*
X1026089Y569767D01*
X1026216Y570405D01*
Y570405D01*
X1026223Y570427D01*
X1026245Y570500D01*
X1026245Y570501D01*
X1026494Y571101D01*
X1026541Y571190D01*
X1026903Y571730D01*
X1026966Y571808D01*
X1027426Y572268D01*
X1027504Y572331D01*
X1028044Y572692D01*
X1028044Y572693D01*
X1028075Y572709D01*
X1028133Y572740D01*
X1028133Y572740D01*
X1028734Y572989D01*
X1028829Y573018D01*
X1029467Y573145D01*
X1029567Y573154D01*
X1032892D01*
X1032992Y573145D01*
D02*
G37*
G36*
X981684D02*
X981779Y573116D01*
X981868Y573068D01*
X981945Y573005D01*
X982009Y572928D01*
X982056Y572839D01*
X982085Y572744D01*
X982094Y572644D01*
Y566040D01*
X982085Y565940D01*
X982056Y565845D01*
X982009Y565756D01*
X981945Y565679D01*
X981868Y565616D01*
X981779Y565568D01*
X981684Y565539D01*
X981584Y565530D01*
X978259D01*
X978159Y565539D01*
X977521Y565666D01*
X977426Y565695D01*
X976825Y565944D01*
X976736Y565991D01*
X976196Y566353D01*
X976118Y566416D01*
X975658Y566876D01*
X975595Y566954D01*
X975234Y567494D01*
X975233Y567494D01*
X975217Y567525D01*
X975186Y567583D01*
X975186Y567583D01*
X974937Y568184D01*
X974908Y568279D01*
X974781Y568917D01*
X974772Y569017D01*
Y569017D01*
D01*
X974772Y569667D01*
X974781Y569767D01*
X974781Y569767D01*
X974908Y570405D01*
Y570405D01*
X974915Y570427D01*
X974937Y570500D01*
X974937Y570501D01*
X975186Y571101D01*
X975233Y571190D01*
X975595Y571730D01*
X975658Y571808D01*
X976118Y572268D01*
X976196Y572331D01*
X976736Y572692D01*
X976736Y572693D01*
X976767Y572709D01*
X976825Y572740D01*
X976825Y572740D01*
X977426Y572989D01*
X977521Y573018D01*
X978159Y573145D01*
X978259Y573154D01*
X981584D01*
X981684Y573145D01*
D02*
G37*
G36*
X891768D02*
X891863Y573116D01*
X891952Y573068D01*
X892029Y573005D01*
X892093Y572928D01*
X892140Y572839D01*
X892169Y572744D01*
X892178Y572644D01*
Y566040D01*
X892169Y565940D01*
X892140Y565845D01*
X892093Y565756D01*
X892029Y565679D01*
X891952Y565616D01*
X891863Y565568D01*
X891768Y565539D01*
X891668Y565530D01*
X888343D01*
X888243Y565539D01*
X887605Y565666D01*
X887510Y565695D01*
X886909Y565944D01*
X886820Y565991D01*
X886280Y566353D01*
X886202Y566416D01*
X885742Y566876D01*
X885679Y566954D01*
X885318Y567494D01*
X885317Y567494D01*
X885301Y567525D01*
X885270Y567583D01*
X885270Y567583D01*
X885021Y568184D01*
X884992Y568279D01*
X884865Y568917D01*
X884856Y569017D01*
Y569017D01*
D01*
X884856Y569667D01*
X884865Y569767D01*
X884865Y569767D01*
X884992Y570405D01*
Y570405D01*
X884999Y570427D01*
X885021Y570500D01*
X885021Y570501D01*
X885270Y571101D01*
X885317Y571190D01*
X885679Y571730D01*
X885742Y571808D01*
X886202Y572268D01*
X886280Y572331D01*
X886820Y572692D01*
X886820Y572693D01*
X886851Y572709D01*
X886909Y572740D01*
X886909Y572740D01*
X887510Y572989D01*
X887605Y573018D01*
X888243Y573145D01*
X888343Y573154D01*
X891668D01*
X891768Y573145D01*
D02*
G37*
G36*
X1134007Y559439D02*
X1134107Y559429D01*
X1134107Y559429D01*
X1134745Y559302D01*
X1134745D01*
X1134767Y559295D01*
X1134841Y559273D01*
X1134841Y559273D01*
X1135442Y559024D01*
X1135530Y558977D01*
X1136071Y558615D01*
X1136148Y558552D01*
X1136608Y558092D01*
X1136671Y558014D01*
X1137033Y557474D01*
X1137033Y557474D01*
X1137049Y557443D01*
X1137080Y557385D01*
X1137080Y557385D01*
X1137329Y556785D01*
X1137358Y556689D01*
X1137485Y556051D01*
X1137495Y555951D01*
Y555301D01*
X1137485Y555201D01*
X1137358Y554563D01*
X1137329Y554468D01*
X1137080Y553867D01*
X1137033Y553778D01*
X1136671Y553237D01*
X1136608Y553160D01*
X1136148Y552700D01*
X1136070Y552637D01*
X1135530Y552276D01*
X1135530Y552275D01*
X1135499Y552259D01*
X1135442Y552228D01*
X1135441Y552228D01*
X1134841Y551979D01*
X1134745Y551950D01*
X1134107Y551823D01*
X1134007Y551814D01*
X1130682D01*
X1130582Y551823D01*
X1130487Y551852D01*
X1130398Y551900D01*
X1130321Y551963D01*
X1130258Y552040D01*
X1130210Y552129D01*
X1130181Y552224D01*
X1130172Y552324D01*
Y558928D01*
X1130181Y559028D01*
X1130210Y559123D01*
X1130258Y559212D01*
X1130321Y559289D01*
X1130398Y559352D01*
X1130487Y559400D01*
X1130582Y559429D01*
X1130682Y559439D01*
X1133682D01*
X1133682D01*
X1133682D01*
X1134007Y559439D01*
D02*
G37*
G36*
X1044091D02*
X1044191Y559429D01*
X1044191Y559429D01*
X1044829Y559302D01*
X1044829D01*
X1044851Y559295D01*
X1044925Y559273D01*
X1044925Y559273D01*
X1045526Y559024D01*
X1045614Y558977D01*
X1046155Y558615D01*
X1046232Y558552D01*
X1046692Y558092D01*
X1046755Y558014D01*
X1047117Y557474D01*
X1047117Y557474D01*
X1047133Y557443D01*
X1047164Y557385D01*
X1047164Y557385D01*
X1047413Y556785D01*
X1047442Y556689D01*
X1047569Y556051D01*
X1047579Y555951D01*
Y555301D01*
X1047569Y555201D01*
X1047442Y554563D01*
X1047413Y554468D01*
X1047164Y553867D01*
X1047117Y553778D01*
X1046755Y553237D01*
X1046692Y553160D01*
X1046232Y552700D01*
X1046154Y552637D01*
X1045614Y552276D01*
X1045614Y552275D01*
X1045583Y552259D01*
X1045526Y552228D01*
X1045525Y552228D01*
X1044925Y551979D01*
X1044829Y551950D01*
X1044191Y551823D01*
X1044091Y551814D01*
X1040766D01*
X1040666Y551823D01*
X1040571Y551852D01*
X1040482Y551900D01*
X1040405Y551963D01*
X1040342Y552040D01*
X1040294Y552129D01*
X1040265Y552224D01*
X1040256Y552324D01*
Y558928D01*
X1040265Y559028D01*
X1040294Y559123D01*
X1040342Y559212D01*
X1040405Y559289D01*
X1040482Y559352D01*
X1040571Y559400D01*
X1040666Y559429D01*
X1040766Y559439D01*
X1043766D01*
X1043766D01*
X1043766D01*
X1044091Y559439D01*
D02*
G37*
G36*
X992783D02*
X992883Y559429D01*
X992883Y559429D01*
X993521Y559302D01*
X993521D01*
X993543Y559295D01*
X993617Y559273D01*
X993617Y559273D01*
X994218Y559024D01*
X994306Y558977D01*
X994847Y558615D01*
X994924Y558552D01*
X995384Y558092D01*
X995447Y558014D01*
X995809Y557474D01*
X995809Y557474D01*
X995825Y557443D01*
X995856Y557385D01*
X995856Y557385D01*
X996105Y556785D01*
X996134Y556689D01*
X996261Y556051D01*
X996271Y555951D01*
Y555301D01*
X996261Y555201D01*
X996134Y554563D01*
X996105Y554468D01*
X995856Y553867D01*
X995809Y553778D01*
X995447Y553237D01*
X995384Y553160D01*
X994924Y552700D01*
X994846Y552637D01*
X994306Y552276D01*
X994306Y552275D01*
X994275Y552259D01*
X994218Y552228D01*
X994217Y552228D01*
X993617Y551979D01*
X993521Y551950D01*
X992883Y551823D01*
X992783Y551814D01*
X989458D01*
X989358Y551823D01*
X989263Y551852D01*
X989174Y551900D01*
X989097Y551963D01*
X989034Y552040D01*
X988986Y552129D01*
X988957Y552224D01*
X988948Y552324D01*
Y558928D01*
X988957Y559028D01*
X988986Y559123D01*
X989034Y559212D01*
X989097Y559289D01*
X989174Y559352D01*
X989263Y559400D01*
X989358Y559429D01*
X989458Y559439D01*
X992458D01*
X992458D01*
X992458D01*
X992783Y559439D01*
D02*
G37*
G36*
X902867D02*
X902967Y559429D01*
X902967Y559429D01*
X903605Y559302D01*
X903605D01*
X903627Y559295D01*
X903701Y559273D01*
X903701Y559273D01*
X904302Y559024D01*
X904390Y558977D01*
X904931Y558615D01*
X905008Y558552D01*
X905468Y558092D01*
X905531Y558014D01*
X905893Y557474D01*
X905893Y557474D01*
X905909Y557443D01*
X905940Y557385D01*
X905940Y557385D01*
X906189Y556785D01*
X906218Y556689D01*
X906345Y556051D01*
X906355Y555951D01*
Y555301D01*
X906345Y555201D01*
X906218Y554563D01*
X906189Y554468D01*
X905940Y553867D01*
X905893Y553778D01*
X905531Y553237D01*
X905468Y553160D01*
X905008Y552700D01*
X904930Y552637D01*
X904390Y552276D01*
X904390Y552275D01*
X904359Y552259D01*
X904302Y552228D01*
X904301Y552228D01*
X903701Y551979D01*
X903605Y551950D01*
X902967Y551823D01*
X902867Y551814D01*
X899542D01*
X899442Y551823D01*
X899347Y551852D01*
X899258Y551900D01*
X899181Y551963D01*
X899118Y552040D01*
X899070Y552129D01*
X899041Y552224D01*
X899032Y552324D01*
Y558928D01*
X899041Y559028D01*
X899070Y559123D01*
X899118Y559212D01*
X899181Y559289D01*
X899258Y559352D01*
X899347Y559400D01*
X899442Y559429D01*
X899542Y559439D01*
X902542D01*
X902542D01*
X902542D01*
X902867Y559439D01*
D02*
G37*
G36*
X1122908Y564001D02*
X1123003Y563972D01*
X1123092Y563924D01*
X1123169Y563861D01*
X1123232Y563784D01*
X1123280Y563695D01*
X1123309Y563600D01*
X1123318Y563500D01*
Y556896D01*
X1123309Y556796D01*
X1123280Y556701D01*
X1123232Y556612D01*
X1123169Y556535D01*
X1123092Y556472D01*
X1123003Y556424D01*
X1122908Y556395D01*
X1122808Y556386D01*
X1119483D01*
X1119383Y556395D01*
X1118745Y556522D01*
X1118650Y556551D01*
X1118049Y556800D01*
X1117960Y556847D01*
X1117420Y557209D01*
X1117342Y557272D01*
X1116882Y557732D01*
X1116819Y557809D01*
X1116458Y558350D01*
X1116457Y558350D01*
X1116441Y558381D01*
X1116410Y558439D01*
X1116410Y558439D01*
X1116161Y559039D01*
X1116132Y559135D01*
X1116005Y559773D01*
X1115996Y559873D01*
Y559873D01*
D01*
X1115996Y560523D01*
X1116005Y560623D01*
X1116005Y560623D01*
X1116132Y561261D01*
Y561261D01*
X1116139Y561283D01*
X1116161Y561357D01*
X1116161Y561357D01*
X1116410Y561957D01*
X1116457Y562046D01*
X1116819Y562587D01*
X1116882Y562664D01*
X1117342Y563124D01*
X1117420Y563187D01*
X1117960Y563549D01*
X1117960Y563549D01*
X1117991Y563565D01*
X1118049Y563596D01*
X1118049Y563596D01*
X1118650Y563845D01*
X1118745Y563874D01*
X1119383Y564001D01*
X1119483Y564011D01*
X1122808D01*
X1122908Y564001D01*
D02*
G37*
G36*
X1032992D02*
X1033087Y563972D01*
X1033176Y563924D01*
X1033253Y563861D01*
X1033316Y563784D01*
X1033364Y563695D01*
X1033393Y563600D01*
X1033402Y563500D01*
Y556896D01*
X1033393Y556796D01*
X1033364Y556701D01*
X1033316Y556612D01*
X1033253Y556535D01*
X1033176Y556472D01*
X1033087Y556424D01*
X1032992Y556395D01*
X1032892Y556386D01*
X1029567D01*
X1029467Y556395D01*
X1028829Y556522D01*
X1028734Y556551D01*
X1028133Y556800D01*
X1028044Y556847D01*
X1027504Y557209D01*
X1027426Y557272D01*
X1026966Y557732D01*
X1026903Y557809D01*
X1026542Y558350D01*
X1026541Y558350D01*
X1026525Y558381D01*
X1026494Y558439D01*
X1026494Y558439D01*
X1026245Y559039D01*
X1026216Y559135D01*
X1026089Y559773D01*
X1026080Y559873D01*
Y559873D01*
D01*
X1026080Y560523D01*
X1026089Y560623D01*
X1026089Y560623D01*
X1026216Y561261D01*
Y561261D01*
X1026223Y561283D01*
X1026245Y561357D01*
X1026245Y561357D01*
X1026494Y561957D01*
X1026541Y562046D01*
X1026903Y562587D01*
X1026966Y562664D01*
X1027426Y563124D01*
X1027504Y563187D01*
X1028044Y563549D01*
X1028044Y563549D01*
X1028075Y563565D01*
X1028133Y563596D01*
X1028133Y563596D01*
X1028734Y563845D01*
X1028829Y563874D01*
X1029467Y564001D01*
X1029567Y564011D01*
X1032892D01*
X1032992Y564001D01*
D02*
G37*
G36*
X981684D02*
X981779Y563972D01*
X981868Y563924D01*
X981945Y563861D01*
X982009Y563784D01*
X982056Y563695D01*
X982085Y563600D01*
X982094Y563500D01*
Y556896D01*
X982085Y556796D01*
X982056Y556701D01*
X982009Y556612D01*
X981945Y556535D01*
X981868Y556472D01*
X981779Y556424D01*
X981684Y556395D01*
X981584Y556386D01*
X978259D01*
X978159Y556395D01*
X977521Y556522D01*
X977426Y556551D01*
X976825Y556800D01*
X976736Y556847D01*
X976196Y557209D01*
X976118Y557272D01*
X975658Y557732D01*
X975595Y557809D01*
X975234Y558350D01*
X975233Y558350D01*
X975217Y558381D01*
X975186Y558439D01*
X975186Y558439D01*
X974937Y559039D01*
X974908Y559135D01*
X974781Y559773D01*
X974772Y559873D01*
Y559873D01*
D01*
X974772Y560523D01*
X974781Y560623D01*
X974781Y560623D01*
X974908Y561261D01*
Y561261D01*
X974915Y561283D01*
X974937Y561357D01*
X974937Y561357D01*
X975186Y561957D01*
X975233Y562046D01*
X975595Y562587D01*
X975658Y562664D01*
X976118Y563124D01*
X976196Y563187D01*
X976736Y563549D01*
X976736Y563549D01*
X976767Y563565D01*
X976825Y563596D01*
X976825Y563596D01*
X977426Y563845D01*
X977521Y563874D01*
X978159Y564001D01*
X978259Y564011D01*
X981584D01*
X981684Y564001D01*
D02*
G37*
G36*
X891768D02*
X891863Y563972D01*
X891952Y563924D01*
X892029Y563861D01*
X892093Y563784D01*
X892140Y563695D01*
X892169Y563600D01*
X892178Y563500D01*
Y556896D01*
X892169Y556796D01*
X892140Y556701D01*
X892093Y556612D01*
X892029Y556535D01*
X891952Y556472D01*
X891863Y556424D01*
X891768Y556395D01*
X891668Y556386D01*
X888343D01*
X888243Y556395D01*
X887605Y556522D01*
X887510Y556551D01*
X886909Y556800D01*
X886820Y556847D01*
X886280Y557209D01*
X886202Y557272D01*
X885742Y557732D01*
X885679Y557809D01*
X885318Y558350D01*
X885317Y558350D01*
X885301Y558381D01*
X885270Y558439D01*
X885270Y558439D01*
X885021Y559039D01*
X884992Y559135D01*
X884865Y559773D01*
X884856Y559873D01*
Y559873D01*
D01*
X884856Y560523D01*
X884865Y560623D01*
X884865Y560623D01*
X884992Y561261D01*
Y561261D01*
X884999Y561283D01*
X885021Y561357D01*
X885021Y561357D01*
X885270Y561957D01*
X885317Y562046D01*
X885679Y562587D01*
X885742Y562664D01*
X886202Y563124D01*
X886280Y563187D01*
X886820Y563549D01*
X886820Y563549D01*
X886851Y563565D01*
X886909Y563596D01*
X886909Y563596D01*
X887510Y563845D01*
X887605Y563874D01*
X888243Y564001D01*
X888343Y564011D01*
X891668D01*
X891768Y564001D01*
D02*
G37*
G36*
X1122908Y554857D02*
X1123003Y554828D01*
X1123092Y554780D01*
X1123169Y554717D01*
X1123232Y554640D01*
X1123280Y554551D01*
X1123309Y554456D01*
X1123318Y554356D01*
Y547752D01*
X1123309Y547652D01*
X1123280Y547557D01*
X1123232Y547468D01*
X1123169Y547391D01*
X1123092Y547328D01*
X1123003Y547280D01*
X1122908Y547251D01*
X1122808Y547242D01*
X1119483D01*
X1119383Y547251D01*
X1118745Y547378D01*
X1118650Y547407D01*
X1118049Y547656D01*
X1117960Y547703D01*
X1117420Y548065D01*
X1117342Y548128D01*
X1116882Y548588D01*
X1116819Y548666D01*
X1116458Y549206D01*
X1116457Y549206D01*
X1116441Y549237D01*
X1116410Y549295D01*
X1116410Y549295D01*
X1116161Y549896D01*
X1116132Y549991D01*
X1116005Y550629D01*
X1115996Y550729D01*
Y550729D01*
D01*
X1115996Y551379D01*
X1116005Y551479D01*
X1116005Y551479D01*
X1116132Y552117D01*
Y552117D01*
X1116139Y552139D01*
X1116161Y552212D01*
X1116161Y552213D01*
X1116410Y552813D01*
X1116457Y552902D01*
X1116819Y553442D01*
X1116882Y553520D01*
X1117342Y553980D01*
X1117420Y554043D01*
X1117960Y554404D01*
X1117960Y554405D01*
X1117991Y554421D01*
X1118049Y554452D01*
X1118049Y554452D01*
X1118650Y554701D01*
X1118745Y554730D01*
X1119383Y554857D01*
X1119483Y554866D01*
X1122808D01*
X1122908Y554857D01*
D02*
G37*
G36*
X1032992D02*
X1033087Y554828D01*
X1033176Y554780D01*
X1033253Y554717D01*
X1033316Y554640D01*
X1033364Y554551D01*
X1033393Y554456D01*
X1033402Y554356D01*
Y547752D01*
X1033393Y547652D01*
X1033364Y547557D01*
X1033316Y547468D01*
X1033253Y547391D01*
X1033176Y547328D01*
X1033087Y547280D01*
X1032992Y547251D01*
X1032892Y547242D01*
X1029567D01*
X1029467Y547251D01*
X1028829Y547378D01*
X1028734Y547407D01*
X1028133Y547656D01*
X1028044Y547703D01*
X1027504Y548065D01*
X1027426Y548128D01*
X1026966Y548588D01*
X1026903Y548666D01*
X1026542Y549206D01*
X1026541Y549206D01*
X1026525Y549237D01*
X1026494Y549295D01*
X1026494Y549295D01*
X1026245Y549896D01*
X1026216Y549991D01*
X1026089Y550629D01*
X1026080Y550729D01*
Y550729D01*
D01*
X1026080Y551379D01*
X1026089Y551479D01*
X1026089Y551479D01*
X1026216Y552117D01*
Y552117D01*
X1026223Y552139D01*
X1026245Y552212D01*
X1026245Y552213D01*
X1026494Y552813D01*
X1026541Y552902D01*
X1026903Y553442D01*
X1026966Y553520D01*
X1027426Y553980D01*
X1027504Y554043D01*
X1028044Y554404D01*
X1028044Y554405D01*
X1028075Y554421D01*
X1028133Y554452D01*
X1028133Y554452D01*
X1028734Y554701D01*
X1028829Y554730D01*
X1029467Y554857D01*
X1029567Y554866D01*
X1032892D01*
X1032992Y554857D01*
D02*
G37*
G36*
X981684D02*
X981779Y554828D01*
X981868Y554780D01*
X981945Y554717D01*
X982009Y554640D01*
X982056Y554551D01*
X982085Y554456D01*
X982094Y554356D01*
Y547752D01*
X982085Y547652D01*
X982056Y547557D01*
X982009Y547468D01*
X981945Y547391D01*
X981868Y547328D01*
X981779Y547280D01*
X981684Y547251D01*
X981584Y547242D01*
X978259D01*
X978159Y547251D01*
X977521Y547378D01*
X977426Y547407D01*
X976825Y547656D01*
X976736Y547703D01*
X976196Y548065D01*
X976118Y548128D01*
X975658Y548588D01*
X975595Y548666D01*
X975234Y549206D01*
X975233Y549206D01*
X975217Y549237D01*
X975186Y549295D01*
X975186Y549295D01*
X974937Y549896D01*
X974908Y549991D01*
X974781Y550629D01*
X974772Y550729D01*
Y550729D01*
D01*
X974772Y551379D01*
X974781Y551479D01*
X974781Y551479D01*
X974908Y552117D01*
Y552117D01*
X974915Y552139D01*
X974937Y552212D01*
X974937Y552213D01*
X975186Y552813D01*
X975233Y552902D01*
X975595Y553442D01*
X975658Y553520D01*
X976118Y553980D01*
X976196Y554043D01*
X976736Y554404D01*
X976736Y554405D01*
X976767Y554421D01*
X976825Y554452D01*
X976825Y554452D01*
X977426Y554701D01*
X977521Y554730D01*
X978159Y554857D01*
X978259Y554866D01*
X981584D01*
X981684Y554857D01*
D02*
G37*
G36*
X891768D02*
X891863Y554828D01*
X891952Y554780D01*
X892029Y554717D01*
X892093Y554640D01*
X892140Y554551D01*
X892169Y554456D01*
X892178Y554356D01*
Y547752D01*
X892169Y547652D01*
X892140Y547557D01*
X892093Y547468D01*
X892029Y547391D01*
X891952Y547328D01*
X891863Y547280D01*
X891768Y547251D01*
X891668Y547242D01*
X888343D01*
X888243Y547251D01*
X887605Y547378D01*
X887510Y547407D01*
X886909Y547656D01*
X886820Y547703D01*
X886280Y548065D01*
X886202Y548128D01*
X885742Y548588D01*
X885679Y548666D01*
X885318Y549206D01*
X885317Y549206D01*
X885301Y549237D01*
X885270Y549295D01*
X885270Y549295D01*
X885021Y549896D01*
X884992Y549991D01*
X884865Y550629D01*
X884856Y550729D01*
Y550729D01*
D01*
X884856Y551379D01*
X884865Y551479D01*
X884865Y551479D01*
X884992Y552117D01*
Y552117D01*
X884999Y552139D01*
X885021Y552212D01*
X885021Y552213D01*
X885270Y552813D01*
X885317Y552902D01*
X885679Y553442D01*
X885742Y553520D01*
X886202Y553980D01*
X886280Y554043D01*
X886820Y554404D01*
X886820Y554405D01*
X886851Y554421D01*
X886909Y554452D01*
X886909Y554452D01*
X887510Y554701D01*
X887605Y554730D01*
X888243Y554857D01*
X888343Y554866D01*
X891668D01*
X891768Y554857D01*
D02*
G37*
D42*
X596900Y451361D02*
D03*
X605900D02*
D03*
X573910Y622993D02*
D03*
X582910D02*
D03*
X657205Y625355D02*
D03*
X648205D02*
D03*
X576834Y710443D02*
D03*
X585834D02*
D03*
X585834Y718943D02*
D03*
X576834D02*
D03*
X585834Y701943D02*
D03*
X576834D02*
D03*
X556140Y622993D02*
D03*
X565140D02*
D03*
X552140Y641281D02*
D03*
X561140D02*
D03*
D43*
X640169Y611308D02*
D03*
X633669D02*
D03*
Y568308D02*
D03*
X627169D02*
D03*
X640169D02*
D03*
X627169Y611308D02*
D03*
X620669D02*
D03*
Y568308D02*
D03*
D44*
X668554Y588808D02*
D03*
X660554D02*
D03*
X668554Y604808D02*
D03*
X660554D02*
D03*
X640169Y555706D02*
D03*
X632169D02*
D03*
X676554Y551258D02*
D03*
X684554D02*
D03*
X562148Y614633D02*
D03*
X554148D02*
D03*
X658364Y576058D02*
D03*
X666364D02*
D03*
X658364Y565538D02*
D03*
X666364D02*
D03*
D45*
X682574Y565558D02*
D03*
Y576058D02*
D03*
X675074D02*
D03*
Y565558D02*
D03*
D46*
X1210255Y474920D02*
D03*
X453701D02*
D03*
X1210255Y802100D02*
D03*
D47*
X680554Y588808D02*
D03*
Y604808D02*
D03*
D48*
X781221Y577255D02*
D03*
Y572255D02*
D03*
Y567255D02*
D03*
X773721D02*
D03*
Y572255D02*
D03*
Y577255D02*
D03*
X773719Y587294D02*
D03*
Y592294D02*
D03*
Y597294D02*
D03*
X781219D02*
D03*
Y592294D02*
D03*
Y587294D02*
D03*
X652455Y524178D02*
D03*
Y530678D02*
D03*
Y537178D02*
D03*
Y543678D02*
D03*
X623755Y524178D02*
D03*
Y530678D02*
D03*
Y537178D02*
D03*
Y543678D02*
D03*
D49*
X637705Y689575D02*
D03*
X618705D02*
D03*
Y715775D02*
D03*
X628205D02*
D03*
X637705D02*
D03*
D50*
X618455Y629855D02*
D03*
X624955D02*
D03*
X631455D02*
D03*
X637955D02*
D03*
Y673855D02*
D03*
X631455D02*
D03*
X624955D02*
D03*
X618455D02*
D03*
D51*
X739893Y715427D02*
D03*
X733393D02*
D03*
X726893D02*
D03*
X720393D02*
D03*
X739893Y673427D02*
D03*
X733393D02*
D03*
X726893D02*
D03*
X720393D02*
D03*
D52*
X576169Y591266D02*
D03*
Y581766D02*
D03*
Y572266D02*
D03*
X600669D02*
D03*
Y591266D02*
D03*
X576169Y554663D02*
D03*
Y545163D02*
D03*
Y535663D02*
D03*
X600669D02*
D03*
Y554663D02*
D03*
D53*
X697304Y598308D02*
D03*
X702304D02*
D03*
X707304D02*
D03*
X712304D02*
D03*
X717304D02*
D03*
X722304D02*
D03*
X727304D02*
D03*
X732304D02*
D03*
X737304D02*
D03*
X742304D02*
D03*
X747304D02*
D03*
X752304D02*
D03*
X697304Y593308D02*
D03*
X702304D02*
D03*
X707304D02*
D03*
X712304D02*
D03*
X717304D02*
D03*
X722304D02*
D03*
X727304D02*
D03*
X732304D02*
D03*
X737304D02*
D03*
X742304D02*
D03*
X747304D02*
D03*
X752304D02*
D03*
X697304Y588308D02*
D03*
X702304D02*
D03*
X707304D02*
D03*
X712304D02*
D03*
X717304D02*
D03*
X722304D02*
D03*
X727304D02*
D03*
X732304D02*
D03*
X737304D02*
D03*
X742304D02*
D03*
X747304D02*
D03*
X752304D02*
D03*
X697304Y583308D02*
D03*
X702304D02*
D03*
X707304D02*
D03*
X712304D02*
D03*
X717304D02*
D03*
X722304D02*
D03*
X727304D02*
D03*
X732304D02*
D03*
X737304D02*
D03*
X742304D02*
D03*
X747304D02*
D03*
X752304D02*
D03*
X697304Y578308D02*
D03*
X702304D02*
D03*
X707304D02*
D03*
X712304D02*
D03*
X737304D02*
D03*
X742304D02*
D03*
X747304D02*
D03*
X752304D02*
D03*
X697304Y573308D02*
D03*
X702304D02*
D03*
X707304D02*
D03*
X712304D02*
D03*
X722304D02*
D03*
X727304D02*
D03*
X737304D02*
D03*
X742304D02*
D03*
X747304D02*
D03*
X752304D02*
D03*
X697304Y568308D02*
D03*
X702304D02*
D03*
X707304D02*
D03*
X712304D02*
D03*
X722304D02*
D03*
X727304D02*
D03*
X737304D02*
D03*
X742304D02*
D03*
X747304D02*
D03*
X752304D02*
D03*
X697304Y563308D02*
D03*
X702304D02*
D03*
X707304D02*
D03*
X712304D02*
D03*
X737304D02*
D03*
X742304D02*
D03*
X747304D02*
D03*
X752304D02*
D03*
X697304Y558308D02*
D03*
X702304D02*
D03*
X707304D02*
D03*
X712304D02*
D03*
X717304D02*
D03*
X722304D02*
D03*
X727304D02*
D03*
X732304D02*
D03*
X737304D02*
D03*
X742304D02*
D03*
X747304D02*
D03*
X752304D02*
D03*
X697304Y553308D02*
D03*
X702304D02*
D03*
X707304D02*
D03*
X712304D02*
D03*
X717304D02*
D03*
X722304D02*
D03*
X727304D02*
D03*
X732304D02*
D03*
X737304D02*
D03*
X742304D02*
D03*
X747304D02*
D03*
X752304D02*
D03*
X697304Y548308D02*
D03*
X702304D02*
D03*
X707304D02*
D03*
X712304D02*
D03*
X717304D02*
D03*
X722304D02*
D03*
X727304D02*
D03*
X732304D02*
D03*
X737304D02*
D03*
X742304D02*
D03*
X747304D02*
D03*
X752304D02*
D03*
X697304Y543308D02*
D03*
X702304D02*
D03*
X707304D02*
D03*
X712304D02*
D03*
X717304D02*
D03*
X722304D02*
D03*
X727304D02*
D03*
X732304D02*
D03*
X737304D02*
D03*
X742304D02*
D03*
X747304D02*
D03*
X752304D02*
D03*
D54*
X562148Y605383D02*
D03*
Y601383D02*
D03*
X558148Y605383D02*
D03*
Y601383D02*
D03*
X554148Y605383D02*
D03*
Y601383D02*
D03*
D55*
X699770Y509269D02*
D03*
X684530Y509268D02*
D03*
X539750Y520700D02*
D03*
X538014Y648983D02*
D03*
D56*
X596236Y703875D02*
D03*
Y694875D02*
D03*
Y719867D02*
D03*
Y710867D02*
D03*
X696614Y610808D02*
D03*
Y619808D02*
D03*
X705114Y610808D02*
D03*
Y619808D02*
D03*
X724924Y610808D02*
D03*
Y619808D02*
D03*
D57*
X518043Y702248D02*
D03*
X532043D02*
D03*
X782639Y699710D02*
D03*
X768639D02*
D03*
X546960Y537913D02*
D03*
X560960D02*
D03*
X525190Y649330D02*
D03*
X511190D02*
D03*
D58*
X677104Y543258D02*
D03*
X669004D02*
D03*
D59*
X756920Y709432D02*
D03*
Y717432D02*
D03*
X773415Y709210D02*
D03*
Y717210D02*
D03*
X787639Y709210D02*
D03*
Y717210D02*
D03*
X532155Y711748D02*
D03*
Y719748D02*
D03*
X517931Y711748D02*
D03*
Y719748D02*
D03*
D60*
X606486Y711500D02*
D03*
Y720250D02*
D03*
X649113Y714390D02*
D03*
Y705640D02*
D03*
X568584Y714616D02*
D03*
Y705866D02*
D03*
X538543Y659455D02*
D03*
Y668205D02*
D03*
X511543Y659455D02*
D03*
Y668205D02*
D03*
X529543Y668205D02*
D03*
Y659455D02*
D03*
X520543Y668205D02*
D03*
Y659455D02*
D03*
D61*
X609069Y509298D02*
D03*
X598069D02*
D03*
X643373D02*
D03*
X632373D02*
D03*
D62*
X765970Y568004D02*
D03*
Y576004D02*
D03*
X765970Y588178D02*
D03*
Y596178D02*
D03*
X684554Y535258D02*
D03*
Y543258D02*
D03*
X606486Y694875D02*
D03*
Y702875D02*
D03*
X607955Y629855D02*
D03*
Y621855D02*
D03*
Y673855D02*
D03*
Y681855D02*
D03*
X609919Y583266D02*
D03*
Y591266D02*
D03*
X609919Y546663D02*
D03*
Y554663D02*
D03*
D63*
X532043Y691056D02*
D03*
Y677056D02*
D03*
X518043Y691056D02*
D03*
Y677056D02*
D03*
D64*
X511210Y609733D02*
D03*
X539210D02*
D03*
X511210Y632543D02*
D03*
X539210D02*
D03*
D65*
X1228035Y435921D02*
D03*
X435921D02*
D03*
Y841099D02*
D03*
X1228035D02*
D03*
D66*
X444500Y622300D02*
D03*
Y647700D02*
D03*
D67*
X546100Y431800D02*
D03*
D68*
X571500D02*
D03*
X596900D02*
D03*
X622300D02*
D03*
X647700D02*
D03*
X673100D02*
D03*
X698500D02*
D03*
D69*
X762002Y429262D02*
D03*
Y447042D02*
D03*
X774702Y429262D02*
D03*
Y447042D02*
D03*
X787402Y429262D02*
D03*
Y447042D02*
D03*
X800102Y429262D02*
D03*
Y447042D02*
D03*
X812802Y429262D02*
D03*
Y447042D02*
D03*
M02*
