G04*
G04 #@! TF.GenerationSoftware,Altium Limited,Altium Designer,24.3.1 (35)*
G04*
G04 Layer_Physical_Order=1*
G04 Layer_Color=255*
%FSLAX44Y44*%
%MOMM*%
G71*
G04*
G04 #@! TF.SameCoordinates,35E8F126-3BB9-435E-BEC0-E910B6038B45*
G04*
G04*
G04 #@! TF.FilePolarity,Positive*
G04*
G01*
G75*
%ADD14C,0.2540*%
%ADD15C,0.1270*%
%ADD16C,0.2032*%
%ADD17C,0.1778*%
%ADD20R,0.4500X0.5500*%
%ADD21R,0.4000X1.3500*%
%ADD22R,0.5200X0.5200*%
%ADD23R,0.6500X0.7500*%
%ADD24R,1.3000X0.7000*%
%ADD25R,0.5000X0.3000*%
%ADD26R,0.6200X1.2200*%
%ADD27R,0.4000X1.4000*%
%ADD28R,0.4500X1.1500*%
%ADD29R,0.8500X0.5500*%
%ADD30C,0.2700*%
%ADD31C,0.2100*%
%ADD32R,0.5500X0.4500*%
%ADD33R,0.7000X0.9000*%
%ADD34R,0.4900X0.4900*%
%ADD35R,0.5000X0.4000*%
%ADD36R,0.4000X0.3250*%
%ADD37R,0.7000X0.5000*%
%ADD38R,0.5200X0.5200*%
%ADD39R,0.9000X0.7000*%
%ADD40R,0.9500X1.7000*%
%AMCUSTOMSHAPE70*
4,1,10,-0.7250,1.9465,0.1650,1.9435,0.7250,1.3935,0.7250,-1.3965,0.1650,-1.9465,-0.7250,-1.9436,-0.7250,-1.1686,-0.1429,-0.5714,-0.1474,0.5786,-0.7250,1.1715,-0.7250,1.9465,0.0*%
%ADD70CUSTOMSHAPE70*%

%AMCUSTOMSHAPE71*
4,1,10,0.7250,1.9465,-0.1650,1.9435,-0.7250,1.3935,-0.7250,-1.3965,-0.1650,-1.9465,0.7250,-1.9436,0.7250,-1.1686,0.1429,-0.5714,0.1474,0.5786,0.7250,1.1715,0.7250,1.9465,0.0*%
%ADD71CUSTOMSHAPE71*%

%ADD72C,1.0000*%
%ADD73C,0.0762*%
G04:AMPARAMS|DCode=74|XSize=1.6002mm|YSize=2.032mm|CornerRadius=0mm|HoleSize=0mm|Usage=FLASHONLY|Rotation=90.000|XOffset=0mm|YOffset=0mm|HoleType=Round|Shape=Octagon|*
%AMOCTAGOND74*
4,1,8,-1.0160,-0.4001,-1.0160,0.4001,-0.6160,0.8001,0.6160,0.8001,1.0160,0.4001,1.0160,-0.4001,0.6160,-0.8001,-0.6160,-0.8001,-1.0160,-0.4001,0.0*
%
%ADD74OCTAGOND74*%

%ADD75R,1.7000X2.1000*%
%ADD76O,1.7000X2.1000*%
%ADD77O,0.9500X1.4732*%
%ADD78C,0.2540*%
G36*
X515817Y655862D02*
X515513Y655100D01*
X511825D01*
Y649330D01*
Y643560D01*
X515410D01*
X515764Y642798D01*
X515411Y642313D01*
X511845D01*
Y632543D01*
Y622773D01*
X515968D01*
Y621691D01*
X503885D01*
Y656407D01*
X515444D01*
X515817Y655862D01*
D02*
G37*
%LPC*%
G36*
X510555Y655100D02*
X506420D01*
Y649965D01*
X510555D01*
Y655100D01*
D02*
G37*
G36*
Y648695D02*
X506420D01*
Y643560D01*
X510555D01*
Y648695D01*
D02*
G37*
G36*
X510575Y642313D02*
X505190D01*
Y633178D01*
X510575D01*
Y642313D01*
D02*
G37*
G36*
Y631908D02*
X505190D01*
Y622773D01*
X510575D01*
Y631908D01*
D02*
G37*
%LPD*%
G36*
G01X888668Y575184D02*
G02Y581788I0J3302D01*
G01X891668D01*
G01Y575184D01*
G01X888668D01*
D02*
G37*
G36*
G01Y566040D02*
G02Y572644I0J3302D01*
G01X891668D01*
G01Y566040D01*
G01X888668D01*
D02*
G37*
G36*
G01Y556896D02*
G02Y563500I0J3302D01*
G01X891668D01*
G01Y556896D01*
G01X888668D01*
D02*
G37*
G36*
G01Y547752D02*
G02Y554356I0J3302D01*
G01X891668D01*
G01Y547752D01*
G01X888668D01*
D02*
G37*
G36*
G01X902542Y586360D02*
G02Y579756I0J-3302D01*
G01X899542D01*
G01Y586360D01*
G01X902542D01*
D02*
G37*
G36*
G01Y577216D02*
G02Y570612I0J-3302D01*
G01X899542D01*
G01Y577216D01*
G01X902542D01*
D02*
G37*
G36*
G01Y568072D02*
G02Y561468I0J-3302D01*
G01X899542D01*
G01Y568072D01*
G01X902542D01*
D02*
G37*
G36*
G01Y558928D02*
G02Y552324I0J-3302D01*
G01X899542D01*
G01Y558928D01*
G01X902542D01*
D02*
G37*
G36*
G01X978584Y575184D02*
G02Y581788I0J3302D01*
G01X981584D01*
G01Y575184D01*
G01X978584D01*
D02*
G37*
G36*
G01Y566040D02*
G02Y572644I0J3302D01*
G01X981584D01*
G01Y566040D01*
G01X978584D01*
D02*
G37*
G36*
G01Y556896D02*
G02Y563500I0J3302D01*
G01X981584D01*
G01Y556896D01*
G01X978584D01*
D02*
G37*
G36*
G01Y547752D02*
G02Y554356I0J3302D01*
G01X981584D01*
G01Y547752D01*
G01X978584D01*
D02*
G37*
G36*
G01X992458Y586360D02*
G02Y579756I0J-3302D01*
G01X989458D01*
G01Y586360D01*
G01X992458D01*
D02*
G37*
G36*
G01Y577216D02*
G02Y570612I0J-3302D01*
G01X989458D01*
G01Y577216D01*
G01X992458D01*
D02*
G37*
G36*
G01Y568072D02*
G02Y561468I0J-3302D01*
G01X989458D01*
G01Y568072D01*
G01X992458D01*
D02*
G37*
G36*
G01Y558928D02*
G02Y552324I0J-3302D01*
G01X989458D01*
G01Y558928D01*
G01X992458D01*
D02*
G37*
G36*
G01X1029892Y575184D02*
G02Y581788I0J3302D01*
G01X1032892D01*
G01Y575184D01*
G01X1029892D01*
D02*
G37*
G36*
G01Y566040D02*
G02Y572644I0J3302D01*
G01X1032892D01*
G01Y566040D01*
G01X1029892D01*
D02*
G37*
G36*
G01Y556896D02*
G02Y563500I0J3302D01*
G01X1032892D01*
G01Y556896D01*
G01X1029892D01*
D02*
G37*
G36*
G01Y547752D02*
G02Y554356I0J3302D01*
G01X1032892D01*
G01Y547752D01*
G01X1029892D01*
D02*
G37*
G36*
G01X1043766Y586360D02*
G02Y579756I0J-3302D01*
G01X1040766D01*
G01Y586360D01*
G01X1043766D01*
D02*
G37*
G36*
G01Y577216D02*
G02Y570612I0J-3302D01*
G01X1040766D01*
G01Y577216D01*
G01X1043766D01*
D02*
G37*
G36*
G01Y568072D02*
G02Y561468I0J-3302D01*
G01X1040766D01*
G01Y568072D01*
G01X1043766D01*
D02*
G37*
G36*
G01Y558928D02*
G02Y552324I0J-3302D01*
G01X1040766D01*
G01Y558928D01*
G01X1043766D01*
D02*
G37*
G36*
G01X1119808Y575184D02*
G02Y581788I0J3302D01*
G01X1122808D01*
G01Y575184D01*
G01X1119808D01*
D02*
G37*
G36*
G01Y566040D02*
G02Y572644I0J3302D01*
G01X1122808D01*
G01Y566040D01*
G01X1119808D01*
D02*
G37*
G36*
G01Y556896D02*
G02Y563500I0J3302D01*
G01X1122808D01*
G01Y556896D01*
G01X1119808D01*
D02*
G37*
G36*
G01Y547752D02*
G02Y554356I0J3302D01*
G01X1122808D01*
G01Y547752D01*
G01X1119808D01*
D02*
G37*
G36*
G01X1133682Y586360D02*
G02Y579756I0J-3302D01*
G01X1130682D01*
G01Y586360D01*
G01X1133682D01*
D02*
G37*
G36*
G01Y577216D02*
G02Y570612I0J-3302D01*
G01X1130682D01*
G01Y577216D01*
G01X1133682D01*
D02*
G37*
G36*
G01Y568072D02*
G02Y561468I0J-3302D01*
G01X1130682D01*
G01Y568072D01*
G01X1133682D01*
D02*
G37*
G36*
G01Y558928D02*
G02Y552324I0J-3302D01*
G01X1130682D01*
G01Y558928D01*
G01X1133682D01*
D02*
G37*
G36*
G01X888668Y707518D02*
G02Y714122I0J3302D01*
G01X891668D01*
G01Y707518D01*
G01X888668D01*
D02*
G37*
G36*
G01Y698374D02*
G02Y704978I0J3302D01*
G01X891668D01*
G01Y698374D01*
G01X888668D01*
D02*
G37*
G36*
G01Y689230D02*
G02Y695834I0J3302D01*
G01X891668D01*
G01Y689230D01*
G01X888668D01*
D02*
G37*
G36*
G01Y680086D02*
G02Y686690I0J3302D01*
G01X891668D01*
G01Y680086D01*
G01X888668D01*
D02*
G37*
G36*
G01X902542Y718694D02*
G02Y712090I0J-3302D01*
G01X899542D01*
G01Y718694D01*
G01X902542D01*
D02*
G37*
G36*
G01Y709550D02*
G02Y702946I0J-3302D01*
G01X899542D01*
G01Y709550D01*
G01X902542D01*
D02*
G37*
G36*
G01Y700406D02*
G02Y693802I0J-3302D01*
G01X899542D01*
G01Y700406D01*
G01X902542D01*
D02*
G37*
G36*
G01Y691262D02*
G02Y684658I0J-3302D01*
G01X899542D01*
G01Y691262D01*
G01X902542D01*
D02*
G37*
G36*
G01X978584Y707518D02*
G02Y714122I0J3302D01*
G01X981584D01*
G01Y707518D01*
G01X978584D01*
D02*
G37*
G36*
G01Y698374D02*
G02Y704978I0J3302D01*
G01X981584D01*
G01Y698374D01*
G01X978584D01*
D02*
G37*
G36*
G01Y689230D02*
G02Y695834I0J3302D01*
G01X981584D01*
G01Y689230D01*
G01X978584D01*
D02*
G37*
G36*
G01Y680086D02*
G02Y686690I0J3302D01*
G01X981584D01*
G01Y680086D01*
G01X978584D01*
D02*
G37*
G36*
G01X992458Y718694D02*
G02Y712090I0J-3302D01*
G01X989458D01*
G01Y718694D01*
G01X992458D01*
D02*
G37*
G36*
G01Y709550D02*
G02Y702946I0J-3302D01*
G01X989458D01*
G01Y709550D01*
G01X992458D01*
D02*
G37*
G36*
G01Y700406D02*
G02Y693802I0J-3302D01*
G01X989458D01*
G01Y700406D01*
G01X992458D01*
D02*
G37*
G36*
G01Y691262D02*
G02Y684658I0J-3302D01*
G01X989458D01*
G01Y691262D01*
G01X992458D01*
D02*
G37*
G36*
G01X1029892Y707518D02*
G02Y714122I0J3302D01*
G01X1032892D01*
G01Y707518D01*
G01X1029892D01*
D02*
G37*
G36*
G01Y698374D02*
G02Y704978I0J3302D01*
G01X1032892D01*
G01Y698374D01*
G01X1029892D01*
D02*
G37*
G36*
G01Y689230D02*
G02Y695834I0J3302D01*
G01X1032892D01*
G01Y689230D01*
G01X1029892D01*
D02*
G37*
G36*
G01Y680086D02*
G02Y686690I0J3302D01*
G01X1032892D01*
G01Y680086D01*
G01X1029892D01*
D02*
G37*
G36*
G01X1043766Y718694D02*
G02Y712090I0J-3302D01*
G01X1040766D01*
G01Y718694D01*
G01X1043766D01*
D02*
G37*
G36*
G01Y709550D02*
G02Y702946I0J-3302D01*
G01X1040766D01*
G01Y709550D01*
G01X1043766D01*
D02*
G37*
G36*
G01Y700406D02*
G02Y693802I0J-3302D01*
G01X1040766D01*
G01Y700406D01*
G01X1043766D01*
D02*
G37*
G36*
G01Y691262D02*
G02Y684658I0J-3302D01*
G01X1040766D01*
G01Y691262D01*
G01X1043766D01*
D02*
G37*
G36*
G01X1119808Y707518D02*
G02Y714122I0J3302D01*
G01X1122808D01*
G01Y707518D01*
G01X1119808D01*
D02*
G37*
G36*
G01Y698374D02*
G02Y704978I0J3302D01*
G01X1122808D01*
G01Y698374D01*
G01X1119808D01*
D02*
G37*
G36*
G01Y689230D02*
G02Y695834I0J3302D01*
G01X1122808D01*
G01Y689230D01*
G01X1119808D01*
D02*
G37*
G36*
G01Y680086D02*
G02Y686690I0J3302D01*
G01X1122808D01*
G01Y680086D01*
G01X1119808D01*
D02*
G37*
G36*
G01X1133682Y718694D02*
G02Y712090I0J-3302D01*
G01X1130682D01*
G01Y718694D01*
G01X1133682D01*
D02*
G37*
G36*
G01Y709550D02*
G02Y702946I0J-3302D01*
G01X1130682D01*
G01Y709550D01*
G01X1133682D01*
D02*
G37*
G36*
G01Y700406D02*
G02Y693802I0J-3302D01*
G01X1130682D01*
G01Y700406D01*
G01X1133682D01*
D02*
G37*
G36*
G01Y691262D02*
G02Y684658I0J-3302D01*
G01X1130682D01*
G01Y691262D01*
G01X1133682D01*
D02*
G37*
D14*
X605900Y451361D02*
X613045D01*
X596900Y440690D02*
Y451361D01*
X692349Y554940D02*
X695686Y558277D01*
X697273D01*
X688236Y554940D02*
X692349D01*
X684554Y551258D02*
X688236Y554940D01*
X737304Y536046D02*
Y543308D01*
X887847Y596329D02*
X1048677D01*
X884822Y706234D02*
X886460Y704596D01*
X884486Y715158D02*
X886124Y713520D01*
X887812Y596294D02*
X887847Y596329D01*
X886103Y550765D02*
X886392Y551054D01*
X886103Y550765D02*
X886103Y546320D01*
X995269Y555626D02*
X997585Y555626D01*
X995269Y564770D02*
X997585Y564770D01*
X995269Y573914D02*
X997585Y573914D01*
X995269Y583058D02*
X997585Y583058D01*
X995269Y715392D02*
X997585Y715392D01*
X973457Y710820D02*
X975773Y710820D01*
X1136493Y687960D02*
X1138809Y687960D01*
X1136493Y697104D02*
X1138809Y697104D01*
X1136493Y706248D02*
X1138809Y706248D01*
X1136493Y715392D02*
X1138809Y715392D01*
X1114681Y683388D02*
X1116997Y683388D01*
X1114681Y692532D02*
X1116997Y692532D01*
X1114681Y701676D02*
X1116997Y701676D01*
X1114681Y710820D02*
X1116997Y710820D01*
X1046577Y687960D02*
X1048893Y687960D01*
X1046577Y697104D02*
X1048893Y697104D01*
X1046577Y706248D02*
X1048893Y706248D01*
X1046577Y715392D02*
X1048893Y715392D01*
X1024765Y710820D02*
X1027081Y710820D01*
X1024765Y701676D02*
X1027081Y701676D01*
X1024765Y692532D02*
X1027081Y692532D01*
X1024765Y683388D02*
X1027081Y683388D01*
X995269Y687960D02*
X997585Y687960D01*
X995269Y697104D02*
X997585Y697104D01*
X995269Y706248D02*
X997585Y706248D01*
X973457Y683388D02*
X975773Y683388D01*
X973457Y692532D02*
X975773Y692532D01*
X973457Y701676D02*
X975773Y701676D01*
X883541Y683388D02*
X885857Y683388D01*
X883541Y692532D02*
X885857Y692532D01*
X905353Y687960D02*
X907669Y687960D01*
X905353Y697104D02*
X907669Y697104D01*
X905353Y706248D02*
X907669Y706248D01*
X905353Y715392D02*
X907669Y715392D01*
X883541Y560198D02*
X885857Y560198D01*
X883541Y569342D02*
X885857Y569342D01*
X883541Y578486D02*
X885857Y578486D01*
X905353Y555626D02*
X907669Y555626D01*
X905353Y564770D02*
X907669Y564770D01*
X905353Y573914D02*
X907669Y573914D01*
X905353Y583058D02*
X907669Y583058D01*
X973457Y551054D02*
X975773Y551054D01*
X973457Y560198D02*
X975773Y560198D01*
X973457Y569342D02*
X975773Y569342D01*
X973457Y578486D02*
X975773Y578486D01*
X1136493Y555626D02*
X1138809Y555626D01*
X1136493Y564770D02*
X1138809Y564770D01*
X1136493Y573914D02*
X1138809Y573914D01*
X1136493Y583058D02*
X1138809Y583058D01*
X1114681Y551054D02*
X1116997Y551054D01*
X1114681Y560198D02*
X1116997Y560198D01*
X1114681Y569342D02*
X1116997Y569342D01*
X1114681Y578486D02*
X1116997Y578486D01*
X1046577Y555626D02*
X1048893Y555626D01*
X1046577Y564770D02*
X1048893Y564770D01*
X1046577Y573914D02*
X1048893Y573914D01*
X1046577Y583058D02*
X1048893Y583058D01*
X1024765Y551054D02*
X1027081Y551054D01*
X1024765Y560198D02*
X1027081Y560198D01*
X1024765Y569342D02*
X1027081Y569342D01*
X1024765Y578486D02*
X1027081Y578486D01*
X607955Y629855D02*
X618455D01*
X607955Y673855D02*
X618455D01*
X772185Y704256D02*
Y708480D01*
X768639Y699710D02*
Y700710D01*
X772185Y708480D02*
X772915Y709210D01*
X768639Y700710D02*
X772185Y704256D01*
X772915Y709210D02*
X773415D01*
X784869Y706940D02*
X787139Y709210D01*
X784869Y702940D02*
Y706940D01*
X787139Y709210D02*
X787639D01*
X782639Y700710D02*
X784869Y702940D01*
X684554Y543258D02*
X685884Y544588D01*
X677104Y543258D02*
X684554D01*
X688584Y544588D02*
X697304Y553308D01*
X685884Y544588D02*
X688584D01*
X600669Y554663D02*
X609919D01*
X600669Y591266D02*
X609919D01*
X518043Y691056D02*
Y702248D01*
X782639Y699710D02*
Y700710D01*
X517931Y702360D02*
Y711748D01*
X532155Y702360D02*
Y711748D01*
X532043Y691056D02*
Y702248D01*
D15*
X658160Y543678D02*
X664762Y550279D01*
X652455Y543678D02*
X658160D01*
X739893Y673427D02*
Y684673D01*
X726893Y673427D02*
Y698344D01*
X733393Y673427D02*
Y703121D01*
Y715427D01*
X710940Y673427D02*
X720393D01*
X726893Y703726D02*
Y715427D01*
X718894Y695726D02*
X726893Y703726D01*
X718894Y683649D02*
Y695726D01*
X706393Y677974D02*
X710940Y673427D01*
X524140Y649427D02*
X527908Y653195D01*
X524140Y649330D02*
Y649427D01*
X596744Y720375D02*
X601437D01*
X596236Y719867D02*
X596744Y720375D01*
X606424Y720312D02*
X606486Y720250D01*
X601499Y720312D02*
X606424D01*
X601437Y720375D02*
X601499Y720312D01*
X569525Y622993D02*
X573910D01*
X565140D02*
X569525D01*
X527908Y653195D02*
X527924D01*
X529543Y654815D01*
Y659455D01*
X524140Y649427D02*
Y651233D01*
X520543Y654824D02*
Y659455D01*
X522178Y653195D02*
X524140Y651233D01*
X520543Y654824D02*
X522172Y653195D01*
X522178D01*
X590806Y685787D02*
Y701943D01*
X602738Y673855D02*
X607955D01*
X590806Y685787D02*
X602738Y673855D01*
X590806Y701943D02*
Y717720D01*
X585834Y701943D02*
X590806D01*
X589584Y718943D02*
X590806Y717720D01*
X585834Y718943D02*
X589584D01*
X606486Y707187D02*
Y711500D01*
Y702875D02*
Y707187D01*
X622618D02*
X628205Y712775D01*
Y715775D01*
X606486Y707187D02*
X622618D01*
X534043Y668205D02*
Y675056D01*
Y668205D02*
X538543D01*
X529543D02*
X534043D01*
X516043D02*
X520543D01*
X511543D02*
X516043D01*
Y675056D02*
X518043Y677056D01*
X516043Y668205D02*
Y675056D01*
X511543Y668205D02*
X511543Y668205D01*
D16*
X1227255Y474920D02*
G03*
X1227255Y474920I-17000J0D01*
G01*
X470701D02*
G03*
X470701Y474920I-17000J0D01*
G01*
X1227255Y802100D02*
G03*
X1227255Y802100I-17000J0D01*
G01*
D17*
X765972Y568139D02*
X766414Y567697D01*
X640169Y555706D02*
Y568308D01*
X766414Y567697D02*
X773279D01*
X773721Y567255D01*
X773277Y587736D02*
X773719Y587294D01*
X766412Y587736D02*
X773277D01*
X765970Y588178D02*
X766412Y587736D01*
X532043Y702248D02*
X532155Y702360D01*
X517931Y702360D02*
X518043Y702248D01*
D20*
X596900Y451361D02*
D03*
X605900D02*
D03*
X573910Y622993D02*
D03*
X582910D02*
D03*
X657205Y625355D02*
D03*
X648205D02*
D03*
X576834Y710443D02*
D03*
X585834D02*
D03*
X585834Y718943D02*
D03*
X576834D02*
D03*
X585834Y701943D02*
D03*
X576834D02*
D03*
X556140Y622993D02*
D03*
X565140D02*
D03*
X552140Y641281D02*
D03*
X561140D02*
D03*
D21*
X640169Y611308D02*
D03*
X633669D02*
D03*
Y568308D02*
D03*
X627169D02*
D03*
X640169D02*
D03*
X627169Y611308D02*
D03*
X620669D02*
D03*
Y568308D02*
D03*
D22*
X668554Y588808D02*
D03*
X660554D02*
D03*
X668554Y604808D02*
D03*
X660554D02*
D03*
X640169Y555706D02*
D03*
X632169D02*
D03*
X676554Y551258D02*
D03*
X684554D02*
D03*
X562148Y614633D02*
D03*
X554148D02*
D03*
X658364Y576058D02*
D03*
X666364D02*
D03*
X658364Y565538D02*
D03*
X666364D02*
D03*
D23*
X682574Y565558D02*
D03*
Y576058D02*
D03*
X675074D02*
D03*
Y565558D02*
D03*
D24*
X680554Y588808D02*
D03*
Y604808D02*
D03*
D25*
X781221Y577255D02*
D03*
Y572255D02*
D03*
Y567255D02*
D03*
X773721D02*
D03*
Y572255D02*
D03*
Y577255D02*
D03*
X773719Y587294D02*
D03*
Y592294D02*
D03*
Y597294D02*
D03*
X781219D02*
D03*
Y592294D02*
D03*
Y587294D02*
D03*
X652455Y524178D02*
D03*
Y530678D02*
D03*
Y537178D02*
D03*
Y543678D02*
D03*
X623755Y524178D02*
D03*
Y530678D02*
D03*
Y537178D02*
D03*
Y543678D02*
D03*
D26*
X637705Y689575D02*
D03*
X618705D02*
D03*
Y715775D02*
D03*
X628205D02*
D03*
X637705D02*
D03*
D27*
X618455Y629855D02*
D03*
X624955D02*
D03*
X631455D02*
D03*
X637955D02*
D03*
Y673855D02*
D03*
X631455D02*
D03*
X624955D02*
D03*
X618455D02*
D03*
D28*
X739893Y715427D02*
D03*
X733393D02*
D03*
X726893D02*
D03*
X720393D02*
D03*
X739893Y673427D02*
D03*
X733393D02*
D03*
X726893D02*
D03*
X720393D02*
D03*
D29*
X576169Y591266D02*
D03*
Y581766D02*
D03*
Y572266D02*
D03*
X600669D02*
D03*
Y591266D02*
D03*
X576169Y554663D02*
D03*
Y545163D02*
D03*
Y535663D02*
D03*
X600669D02*
D03*
Y554663D02*
D03*
D30*
X697304Y598308D02*
D03*
X702304D02*
D03*
X707304D02*
D03*
X712304D02*
D03*
X717304D02*
D03*
X722304D02*
D03*
X727304D02*
D03*
X732304D02*
D03*
X737304D02*
D03*
X742304D02*
D03*
X747304D02*
D03*
X752304D02*
D03*
X697304Y593308D02*
D03*
X702304D02*
D03*
X707304D02*
D03*
X712304D02*
D03*
X717304D02*
D03*
X722304D02*
D03*
X727304D02*
D03*
X732304D02*
D03*
X737304D02*
D03*
X742304D02*
D03*
X747304D02*
D03*
X752304D02*
D03*
X697304Y588308D02*
D03*
X702304D02*
D03*
X707304D02*
D03*
X712304D02*
D03*
X717304D02*
D03*
X722304D02*
D03*
X727304D02*
D03*
X732304D02*
D03*
X737304D02*
D03*
X742304D02*
D03*
X747304D02*
D03*
X752304D02*
D03*
X697304Y583308D02*
D03*
X702304D02*
D03*
X707304D02*
D03*
X712304D02*
D03*
X717304D02*
D03*
X722304D02*
D03*
X727304D02*
D03*
X732304D02*
D03*
X737304D02*
D03*
X742304D02*
D03*
X747304D02*
D03*
X752304D02*
D03*
X697304Y578308D02*
D03*
X702304D02*
D03*
X707304D02*
D03*
X712304D02*
D03*
X737304D02*
D03*
X742304D02*
D03*
X747304D02*
D03*
X752304D02*
D03*
X697304Y573308D02*
D03*
X702304D02*
D03*
X707304D02*
D03*
X712304D02*
D03*
X722304D02*
D03*
X727304D02*
D03*
X737304D02*
D03*
X742304D02*
D03*
X747304D02*
D03*
X752304D02*
D03*
X697304Y568308D02*
D03*
X702304D02*
D03*
X707304D02*
D03*
X712304D02*
D03*
X722304D02*
D03*
X727304D02*
D03*
X737304D02*
D03*
X742304D02*
D03*
X747304D02*
D03*
X752304D02*
D03*
X697304Y563308D02*
D03*
X702304D02*
D03*
X707304D02*
D03*
X712304D02*
D03*
X737304D02*
D03*
X742304D02*
D03*
X747304D02*
D03*
X752304D02*
D03*
X697304Y558308D02*
D03*
X702304D02*
D03*
X707304D02*
D03*
X712304D02*
D03*
X717304D02*
D03*
X722304D02*
D03*
X727304D02*
D03*
X732304D02*
D03*
X737304D02*
D03*
X742304D02*
D03*
X747304D02*
D03*
X752304D02*
D03*
X697304Y553308D02*
D03*
X702304D02*
D03*
X707304D02*
D03*
X712304D02*
D03*
X717304D02*
D03*
X722304D02*
D03*
X727304D02*
D03*
X732304D02*
D03*
X737304D02*
D03*
X742304D02*
D03*
X747304D02*
D03*
X752304D02*
D03*
X697304Y548308D02*
D03*
X702304D02*
D03*
X707304D02*
D03*
X712304D02*
D03*
X717304D02*
D03*
X722304D02*
D03*
X727304D02*
D03*
X732304D02*
D03*
X737304D02*
D03*
X742304D02*
D03*
X747304D02*
D03*
X752304D02*
D03*
X697304Y543308D02*
D03*
X702304D02*
D03*
X707304D02*
D03*
X712304D02*
D03*
X717304D02*
D03*
X722304D02*
D03*
X727304D02*
D03*
X732304D02*
D03*
X737304D02*
D03*
X742304D02*
D03*
X747304D02*
D03*
X752304D02*
D03*
D31*
X562148Y605383D02*
D03*
Y601383D02*
D03*
X558148Y605383D02*
D03*
Y601383D02*
D03*
X554148Y605383D02*
D03*
Y601383D02*
D03*
D32*
X596236Y703875D02*
D03*
Y694875D02*
D03*
Y719867D02*
D03*
Y710867D02*
D03*
X696614Y610808D02*
D03*
Y619808D02*
D03*
X705114Y610808D02*
D03*
Y619808D02*
D03*
X724924Y610808D02*
D03*
Y619808D02*
D03*
D33*
X518043Y702248D02*
D03*
X532043D02*
D03*
X782639Y699710D02*
D03*
X768639D02*
D03*
X546960Y537913D02*
D03*
X560960D02*
D03*
X525190Y649330D02*
D03*
X511190D02*
D03*
D34*
X677104Y543258D02*
D03*
X669004D02*
D03*
D35*
X756920Y709432D02*
D03*
Y717432D02*
D03*
X773415Y709210D02*
D03*
Y717210D02*
D03*
X787639Y709210D02*
D03*
Y717210D02*
D03*
X532155Y711748D02*
D03*
Y719748D02*
D03*
X517931Y711748D02*
D03*
Y719748D02*
D03*
D36*
X606486Y711500D02*
D03*
Y720250D02*
D03*
X649113Y714390D02*
D03*
Y705640D02*
D03*
X568584Y714616D02*
D03*
Y705866D02*
D03*
X538543Y659455D02*
D03*
Y668205D02*
D03*
X511543Y659455D02*
D03*
Y668205D02*
D03*
X529543Y668205D02*
D03*
Y659455D02*
D03*
X520543Y668205D02*
D03*
Y659455D02*
D03*
D37*
X609069Y509298D02*
D03*
X598069D02*
D03*
X643373D02*
D03*
X632373D02*
D03*
D38*
X765970Y568004D02*
D03*
Y576004D02*
D03*
X765970Y588178D02*
D03*
Y596178D02*
D03*
X684554Y535258D02*
D03*
Y543258D02*
D03*
X606486Y694875D02*
D03*
Y702875D02*
D03*
X607955Y629855D02*
D03*
Y621855D02*
D03*
Y673855D02*
D03*
Y681855D02*
D03*
X609919Y583266D02*
D03*
Y591266D02*
D03*
X609919Y546663D02*
D03*
Y554663D02*
D03*
D39*
X532043Y691056D02*
D03*
Y677056D02*
D03*
X518043Y691056D02*
D03*
Y677056D02*
D03*
D40*
X511210Y609733D02*
D03*
X539210D02*
D03*
X511210Y632543D02*
D03*
X539210D02*
D03*
D70*
X695393Y699030D02*
D03*
X547190Y569673D02*
D03*
D71*
X665893Y699030D02*
D03*
X517691Y569673D02*
D03*
D72*
X1210255Y474920D02*
D03*
X453701D02*
D03*
X1210255Y802100D02*
D03*
X699770Y509269D02*
D03*
X684530Y509268D02*
D03*
X539750Y520700D02*
D03*
X538014Y648983D02*
D03*
D73*
X668552Y562118D02*
Y563349D01*
X670412Y560258D02*
X678875D01*
X666364Y565538D02*
X668552Y563349D01*
Y562118D02*
X670412Y560258D01*
X693169Y568308D02*
X697304D01*
X690419Y565558D02*
X693169Y568308D01*
X682574Y565558D02*
X690419D01*
X687796Y578681D02*
X693169Y573308D01*
X686589Y581158D02*
X687796Y579951D01*
Y578681D02*
Y579951D01*
X693169Y573308D02*
X697304D01*
X666364Y576058D02*
X675074D01*
X682574Y565058D02*
Y565558D01*
X679705Y562189D02*
X682574Y565058D01*
X679705Y561088D02*
Y562189D01*
X678875Y560258D02*
X679705Y561088D01*
X678674Y581158D02*
X686589D01*
X698322Y560801D02*
X699811Y562289D01*
X694640Y560644D02*
X694797Y560801D01*
X690735Y560644D02*
X694640D01*
X694797Y560801D02*
X698322D01*
X699811Y565815D02*
X702304Y568308D01*
X699811Y562289D02*
Y565815D01*
X677943Y578927D02*
Y580427D01*
X678674Y581158D01*
X675074Y576058D02*
X677943Y578927D01*
X638880Y612596D02*
X640169Y611308D01*
X631455Y629855D02*
X632820Y628490D01*
Y621681D02*
Y628490D01*
X638880Y612596D02*
Y619449D01*
X632820Y621681D02*
X633936Y620565D01*
X637764D01*
X638880Y619449D01*
X626670Y594807D02*
X630802Y598939D01*
X636646D01*
X640169Y602461D01*
Y611308D01*
X668554Y588808D02*
X691804D01*
X722555Y608939D02*
X724424Y610808D01*
X722555Y608439D02*
Y608939D01*
X719811Y605695D02*
X722555Y608439D01*
X719811Y595815D02*
Y605695D01*
X724424Y610808D02*
X724924D01*
X722304Y598308D02*
Y602052D01*
X724171Y603919D01*
X717304Y593308D02*
X719811Y595815D01*
X709084Y606902D02*
X714797Y601189D01*
Y585815D02*
Y601189D01*
X719811Y585815D02*
X722304Y588308D01*
X624955Y629855D02*
X624984Y629826D01*
X889815Y599030D02*
X999260D01*
X887373Y601472D02*
X889815Y599030D01*
X880746Y619759D02*
X888976D01*
X902448Y606287D02*
X988674D01*
X888976Y619759D02*
X902448Y606287D01*
X693888Y603718D02*
X696614Y606444D01*
X693888Y596723D02*
Y603718D01*
Y596723D02*
X697304Y593308D01*
X696614Y606444D02*
Y610808D01*
X782219Y592294D02*
X783338Y591175D01*
Y591169D02*
Y591175D01*
Y591169D02*
X785015Y589492D01*
X781219Y592294D02*
X782219D01*
X785015Y579044D02*
Y589492D01*
X782340Y578374D02*
X784345D01*
X785015Y579044D01*
X679083Y525025D02*
X696547D01*
X643373Y509298D02*
Y514327D01*
X893329Y600554D02*
X995097D01*
X999260Y599030D02*
X1000574Y600344D01*
X995097Y600554D02*
X996388Y601846D01*
X781221Y577255D02*
X782340Y578374D01*
X661750Y525025D02*
X669006D01*
X652455Y524178D02*
X660902D01*
X661750Y525025D01*
X739811Y577289D02*
Y585815D01*
X738322Y575801D02*
X739811Y577289D01*
Y585815D02*
X742304Y588308D01*
X735329Y575801D02*
X738322D01*
X734804Y595808D02*
X739804D01*
X742304Y598308D01*
X694059Y516937D02*
X707304Y530183D01*
X670375Y516937D02*
X694059D01*
X707304Y530183D02*
Y543308D01*
X717304Y598308D02*
X717417Y598421D01*
Y613284D02*
X717531Y613397D01*
X717417Y598421D02*
Y613284D01*
X714797Y585815D02*
X717304Y583308D01*
X709811Y537178D02*
Y545815D01*
X712304Y548308D01*
X733717Y570815D02*
Y574189D01*
X735329Y575801D01*
X703393Y538151D02*
Y538182D01*
X704811Y539600D01*
Y545815D02*
X707304Y548308D01*
X704811Y539600D02*
Y545815D01*
X714797Y523974D02*
Y545801D01*
X710262Y519439D02*
X714797Y523974D01*
Y545801D02*
X717304Y548308D01*
X719811Y545815D02*
X722304Y548308D01*
X719811Y522232D02*
Y545815D01*
X712304Y525813D02*
Y543308D01*
X699797Y528275D02*
Y550801D01*
X696547Y525025D02*
X699797Y528275D01*
X697304Y529229D02*
Y543307D01*
X697304Y543308D02*
X697304Y543307D01*
Y529229D02*
X697305Y529229D01*
X667765Y514327D02*
X670375Y516937D01*
X619731Y509298D02*
X619760Y509270D01*
X609069Y509298D02*
X619731D01*
X699797Y550801D02*
X702304Y553308D01*
X891601Y602281D02*
X893329Y600554D01*
X891120Y602281D02*
X891601D01*
X895410Y602967D02*
X995354D01*
X998674Y606287D01*
X996388Y601846D02*
X998971D01*
X1001258Y604132D01*
X1006519D02*
X1008674Y606287D01*
X1001258Y604132D02*
X1006519D01*
X1000574Y600344D02*
X1005269D01*
X773719Y597294D02*
Y605974D01*
X765933Y580688D02*
X766274Y581028D01*
X763122Y580688D02*
X765933D01*
X760836Y578402D02*
X763122Y580688D01*
X1122691Y606287D02*
X1129752Y599226D01*
X1043676Y606287D02*
X1122691D01*
X1038881Y601082D02*
X1092337D01*
X1094192Y599226D01*
X1033676Y606287D02*
X1038881Y601082D01*
X1041652Y603312D02*
X1107886D01*
X1038677Y606287D02*
X1041652Y603312D01*
X1107886D02*
X1111972Y599226D01*
X722304Y527376D02*
Y543308D01*
X744811Y570815D02*
X756249D01*
X758997Y568067D01*
X737304Y568308D02*
X739811Y570815D01*
X736765Y616760D02*
X746101D01*
X749797Y595815D02*
Y613064D01*
X746101Y616760D02*
X749797Y613064D01*
Y595815D02*
X752304Y593308D01*
X737084Y613397D02*
X742260D01*
X724811Y601124D02*
X737084Y613397D01*
X747304Y598308D02*
Y601833D01*
X732171Y603648D02*
X734136D01*
X734256Y603768D01*
X729811Y595815D02*
Y601288D01*
X732171Y603648D01*
X727304Y593308D02*
X729811Y595815D01*
X724811Y595815D02*
Y601124D01*
X744797Y550815D02*
X759985D01*
X769633Y560463D01*
X752398Y578402D02*
X760836D01*
X742304Y583308D02*
X744797Y580815D01*
Y577289D02*
Y580815D01*
Y577289D02*
X746271Y575815D01*
X752304Y578308D02*
X752398Y578402D01*
X746271Y575815D02*
X759324D01*
X749797Y580815D02*
X755278D01*
X747304Y583308D02*
X749797Y580815D01*
X742304Y553308D02*
X744797Y550815D01*
X749797Y555801D02*
Y565815D01*
X747304Y553308D02*
X749797Y555801D01*
X752304Y548308D02*
X762654Y537958D01*
X752304Y588308D02*
X759907Y595911D01*
Y609192D01*
X752304Y543308D02*
X771464Y524148D01*
X747304Y568308D02*
X749797Y565815D01*
X648738Y714390D02*
X649113D01*
X644033Y709685D02*
X648738Y714390D01*
X644033Y689067D02*
Y709685D01*
X596236Y710867D02*
X596236Y710867D01*
Y703375D02*
Y710867D01*
X717304Y516964D02*
Y543308D01*
X722304Y593308D02*
X724811Y595815D01*
X722304Y527376D02*
X723900Y525780D01*
X742304Y568308D02*
X744811Y570815D01*
X583967Y572266D02*
X591919Y580218D01*
X576169Y572266D02*
X583967D01*
X752304Y583308D02*
X758337D01*
X691804Y588808D02*
X697304Y583308D01*
X683554Y604808D02*
X686673Y601689D01*
Y598939D02*
Y601689D01*
Y598939D02*
X697304Y588308D01*
X680554Y604808D02*
X683554D01*
X569525Y608760D02*
Y622993D01*
X562148Y601383D02*
X569525Y608760D01*
X554148Y605383D02*
Y614633D01*
X562148Y605383D02*
X564698Y607933D01*
X551598Y598833D02*
X554148Y601383D01*
X558148Y597403D02*
Y601383D01*
Y597403D02*
Y597403D01*
X558148Y597403D01*
X696614Y610808D02*
X705114D01*
X668554Y604808D02*
X680554D01*
X576834Y710443D02*
Y718943D01*
Y710443D02*
X576834D01*
D74*
X444500Y622300D02*
D03*
Y647700D02*
D03*
D75*
X546100Y431800D02*
D03*
D76*
X571500D02*
D03*
X596900D02*
D03*
X622300D02*
D03*
X647700D02*
D03*
X673100D02*
D03*
X698500D02*
D03*
D77*
X762002Y429262D02*
D03*
Y447042D02*
D03*
X774702Y429262D02*
D03*
Y447042D02*
D03*
X787402Y429262D02*
D03*
Y447042D02*
D03*
X800102Y429262D02*
D03*
Y447042D02*
D03*
X812802Y429262D02*
D03*
Y447042D02*
D03*
D78*
X613045Y451361D02*
D03*
X739893Y717601D02*
D03*
X697941Y715775D02*
D03*
X511128Y602701D02*
D03*
X513597Y614441D02*
D03*
X509080Y613345D02*
D03*
X690735Y560644D02*
D03*
X660554Y588808D02*
D03*
X664762Y550279D02*
D03*
X724171Y603919D02*
D03*
X747304Y543308D02*
D03*
X719811Y585815D02*
D03*
X648205Y625355D02*
D03*
X657205D02*
D03*
X624984Y629826D02*
D03*
X887373Y601472D02*
D03*
X762002Y422912D02*
D03*
X453390Y622300D02*
D03*
Y647700D02*
D03*
X546100Y422910D02*
D03*
X781219Y592294D02*
D03*
X699770Y509269D02*
D03*
X643373Y514327D02*
D03*
X632873Y509298D02*
D03*
X812802Y453392D02*
D03*
X787402D02*
D03*
X762002D02*
D03*
X774702D02*
D03*
X812803Y422912D02*
D03*
X787402D02*
D03*
X774703D02*
D03*
X698500Y440690D02*
D03*
X647700D02*
D03*
X622300D02*
D03*
X884822Y706234D02*
D03*
X884486Y715158D02*
D03*
X932564Y596299D02*
D03*
X983175Y596325D02*
D03*
X886103Y546320D02*
D03*
X997585Y555626D02*
D03*
Y564770D02*
D03*
Y573914D02*
D03*
Y583058D02*
D03*
Y715392D02*
D03*
X973457Y710820D02*
D03*
X576834Y718943D02*
D03*
X652455Y530678D02*
D03*
X669006Y525025D02*
D03*
X623755Y524178D02*
D03*
Y537178D02*
D03*
X734804Y595808D02*
D03*
X747304Y593308D02*
D03*
X742304D02*
D03*
X747304Y588308D02*
D03*
X709084Y606902D02*
D03*
X717531Y613397D02*
D03*
X709811Y537178D02*
D03*
X733717Y570815D02*
D03*
X623755Y543678D02*
D03*
X703393Y538182D02*
D03*
X623755Y530678D02*
D03*
X710262Y519439D02*
D03*
X712304Y525813D02*
D03*
X719811Y522232D02*
D03*
X679083Y525025D02*
D03*
X697305Y529229D02*
D03*
X667765Y514327D02*
D03*
X619731Y509298D02*
D03*
X891120Y602281D02*
D03*
X895410Y602967D02*
D03*
X1005269Y600344D02*
D03*
X887812Y596294D02*
D03*
X880746Y619759D02*
D03*
X988674Y606287D02*
D03*
X998674D02*
D03*
X1008674D02*
D03*
X773719Y605974D02*
D03*
X766274Y581028D02*
D03*
X1094192Y599226D02*
D03*
X1033676Y606287D02*
D03*
X1043676D02*
D03*
X1129752Y599226D02*
D03*
X1111972Y599226D02*
D03*
X1038677Y606287D02*
D03*
X1048677Y596329D02*
D03*
X1138809Y687960D02*
D03*
Y697104D02*
D03*
Y706248D02*
D03*
Y715392D02*
D03*
X1114681Y683388D02*
D03*
Y692532D02*
D03*
Y701676D02*
D03*
Y710820D02*
D03*
X1048893Y687960D02*
D03*
Y697104D02*
D03*
Y706248D02*
D03*
Y715392D02*
D03*
X1024765Y710820D02*
D03*
Y701676D02*
D03*
Y692532D02*
D03*
Y683388D02*
D03*
X997585Y687960D02*
D03*
Y697104D02*
D03*
Y706248D02*
D03*
X973457Y683388D02*
D03*
Y692532D02*
D03*
Y701676D02*
D03*
X883541Y683388D02*
D03*
Y692532D02*
D03*
X907669Y687960D02*
D03*
Y697104D02*
D03*
Y706248D02*
D03*
Y715392D02*
D03*
X883541Y560198D02*
D03*
Y569342D02*
D03*
Y578486D02*
D03*
X907669Y555626D02*
D03*
Y564770D02*
D03*
Y573914D02*
D03*
Y583058D02*
D03*
X973457Y551054D02*
D03*
Y560198D02*
D03*
Y569342D02*
D03*
Y578486D02*
D03*
X1138809Y555626D02*
D03*
Y564770D02*
D03*
Y573914D02*
D03*
Y583058D02*
D03*
X1114681Y551054D02*
D03*
Y560198D02*
D03*
Y569342D02*
D03*
Y578486D02*
D03*
X1048893Y555626D02*
D03*
Y564770D02*
D03*
Y573914D02*
D03*
Y583058D02*
D03*
X1024765Y551054D02*
D03*
Y560198D02*
D03*
Y569342D02*
D03*
Y578486D02*
D03*
X749797Y565815D02*
D03*
X758997Y568067D02*
D03*
X739811Y570815D02*
D03*
X736765Y616760D02*
D03*
X742260Y613397D02*
D03*
X773721Y577255D02*
D03*
X747304Y601833D02*
D03*
X734256Y603768D02*
D03*
X769633Y560463D02*
D03*
X759324Y575815D02*
D03*
X755278Y580815D02*
D03*
X762654Y537958D02*
D03*
X760022Y609307D02*
D03*
X705114Y619808D02*
D03*
X771464Y524148D02*
D03*
X666393Y713815D02*
D03*
X649113Y705640D02*
D03*
X706393Y677974D02*
D03*
X718894Y683649D02*
D03*
X739893Y684673D02*
D03*
X720747Y714553D02*
D03*
X726893Y698344D02*
D03*
X733393Y703121D02*
D03*
X644033Y689067D02*
D03*
X538870Y633441D02*
D03*
X601437Y720375D02*
D03*
X532155Y719748D02*
D03*
X517931D02*
D03*
X684554Y536528D02*
D03*
X717304Y516964D02*
D03*
X756920Y619808D02*
D03*
X737304Y536046D02*
D03*
X724924Y619808D02*
D03*
X574939Y591266D02*
D03*
X591919Y580218D02*
D03*
X697304Y578308D02*
D03*
X599069Y509298D02*
D03*
X781219Y587294D02*
D03*
X781221Y567255D02*
D03*
X712304Y593308D02*
D03*
X724924Y610808D02*
D03*
X626670Y594807D02*
D03*
X511543Y659455D02*
D03*
X538543D02*
D03*
X758337Y583308D02*
D03*
X676554Y551258D02*
D03*
X696614Y619808D02*
D03*
X669004Y543258D02*
D03*
X640169Y555706D02*
D03*
X632169D02*
D03*
X742304Y543308D02*
D03*
X765970Y588178D02*
D03*
X765970Y568004D02*
D03*
X781221Y572255D02*
D03*
X781219Y597294D02*
D03*
X765970Y596178D02*
D03*
X773721Y572255D02*
D03*
X765970Y576004D02*
D03*
X723900Y525780D02*
D03*
X697304Y553308D02*
D03*
X543642Y587110D02*
D03*
X575169Y582721D02*
D03*
X576169Y535663D02*
D03*
X620669Y568308D02*
D03*
X575689Y545913D02*
D03*
X554148Y614633D02*
D03*
X582910Y622993D02*
D03*
X609919Y591266D02*
D03*
X600669Y536893D02*
D03*
X600669Y573496D02*
D03*
X575689Y554663D02*
D03*
X609919Y554663D02*
D03*
X551830Y641281D02*
D03*
X561140D02*
D03*
X556140Y624281D02*
D03*
X564698Y607933D02*
D03*
X551598Y598833D02*
D03*
X558148Y597403D02*
D03*
X562148Y614633D02*
D03*
X637955Y629855D02*
D03*
X620669Y611308D02*
D03*
X607955Y629855D02*
D03*
Y621855D02*
D03*
X682574Y576058D02*
D03*
X675074Y565538D02*
D03*
X660554Y604808D02*
D03*
X658364Y565538D02*
D03*
Y576058D02*
D03*
X560960Y537913D02*
D03*
X546960Y537913D02*
D03*
X512920Y582730D02*
D03*
X540279Y627709D02*
D03*
X538966Y605383D02*
D03*
X712304Y558308D02*
D03*
X609919Y583266D02*
D03*
X609919Y546663D02*
D03*
X600669Y564496D02*
D03*
X600669Y527893D02*
D03*
X509080Y628441D02*
D03*
X524140Y649330D02*
D03*
X510140D02*
D03*
X585834Y710443D02*
D03*
X624955Y679255D02*
D03*
X568584Y705866D02*
D03*
X637705Y689575D02*
D03*
X518043Y691056D02*
D03*
X532043D02*
D03*
X631455Y679255D02*
D03*
X782639Y699710D02*
D03*
X756920Y709432D02*
D03*
X569084Y714693D02*
D03*
X576834Y701943D02*
D03*
X607955Y673855D02*
D03*
X619205Y716115D02*
D03*
X768639Y699710D02*
D03*
X618705Y689575D02*
D03*
X752304Y598308D02*
D03*
X538014Y648983D02*
D03*
X596236Y703375D02*
D03*
X606486Y694875D02*
D03*
X539750Y520700D02*
D03*
X683260Y509269D02*
D03*
X742304Y548308D02*
D03*
X712304Y563308D02*
D03*
X532043Y677056D02*
D03*
X518043D02*
D03*
X737304Y558308D02*
D03*
Y563308D02*
D03*
X697304D02*
D03*
X712304Y578308D02*
D03*
Y583308D02*
D03*
X732304D02*
D03*
X737304D02*
D03*
Y578308D02*
D03*
X727304Y573308D02*
D03*
X722304D02*
D03*
X727304Y568308D02*
D03*
X722304D02*
D03*
X787639Y717210D02*
D03*
X773415D02*
D03*
X638117Y677715D02*
D03*
X596236Y694875D02*
D03*
X607955Y681855D02*
D03*
X637705Y715775D02*
D03*
X756920Y717432D02*
D03*
M02*
