G04*
G04 #@! TF.GenerationSoftware,Altium Limited,Altium Designer,24.3.1 (35)*
G04*
G04 Layer_Color=2752767*
%FSLAX44Y44*%
%MOMM*%
G71*
G04*
G04 #@! TF.SameCoordinates,35E8F126-3BB9-435E-BEC0-E910B6038B45*
G04*
G04*
G04 #@! TF.FilePolarity,Positive*
G04*
G01*
G75*
%ADD15C,0.1270*%
D15*
X616093Y446281D02*
X611013Y456441D01*
X621173D01*
X616093Y446281D01*
X736845Y712521D02*
X731765Y722681D01*
X741925D01*
X736845Y712521D01*
X655407Y711035D02*
X650327Y721195D01*
X660487D01*
X655407Y711035D01*
X511128Y594574D02*
X506048Y604734D01*
X516208D01*
X511128Y594574D01*
X516645Y609361D02*
X511565Y619521D01*
X521725D01*
X516645Y609361D01*
X509080Y611313D02*
X503999Y621473D01*
X514160D01*
X509080Y611313D01*
X686893Y711387D02*
X681813Y721547D01*
X691973D01*
X686893Y711387D01*
X697941Y714436D02*
X692861Y724595D01*
X703021D01*
X697941Y714436D01*
X688580Y553409D02*
X683500Y563569D01*
X693660D01*
X688580Y553409D01*
X667810Y545199D02*
X662730Y555359D01*
X672890D01*
X667810Y545199D01*
X721123Y598839D02*
X716043Y608999D01*
X726203D01*
X721123Y598839D01*
X747304Y541276D02*
X742224Y551436D01*
X752384D01*
X747304Y541276D01*
X719811Y577687D02*
X714731Y587847D01*
X724891D01*
X719811Y577687D01*
X683845Y690216D02*
X678765Y700376D01*
X688925D01*
X683845Y690216D01*
X663734Y503659D02*
X658654Y513819D01*
X668814D01*
X663734Y503659D01*
X648205Y617227D02*
X643125Y627387D01*
X653285D01*
X648205Y617227D01*
X660253Y620275D02*
X655173Y630435D01*
X665333D01*
X660253Y620275D01*
X628032Y624746D02*
X622952Y634906D01*
X633112D01*
X628032Y624746D01*
X783336Y595376D02*
X778256Y605536D01*
X788416D01*
X783336Y595376D01*
X880746Y595389D02*
X875666Y605549D01*
X885826D01*
X880746Y595389D01*
X884585Y598913D02*
X879504Y609073D01*
X889665D01*
X884585Y598913D01*
X783336Y571005D02*
X778256Y581165D01*
X788416D01*
X783336Y571005D01*
X880746Y610642D02*
X875666Y620802D01*
X885826D01*
X880746Y610642D01*
X783336Y610629D02*
X778256Y620789D01*
X788416D01*
X783336Y610629D01*
X660400Y409956D02*
X655320Y420116D01*
X665480D01*
X660400Y409956D01*
X762002Y414785D02*
X756923Y424944D01*
X767083D01*
X762002Y414785D01*
X902448Y591249D02*
X897368Y601409D01*
X907528D01*
X902448Y591249D01*
X897890Y614680D02*
X892810Y624840D01*
X902970D01*
X897890Y614680D01*
X913130D02*
X908050Y624840D01*
X918210D01*
X913130Y614680D01*
X1056724Y591715D02*
X1051644Y601875D01*
X1061804D01*
X1056724Y591715D01*
X529107Y714668D02*
X524027Y724828D01*
X534187D01*
X529107Y714668D01*
X456438Y617220D02*
X451358Y627380D01*
X461518D01*
X456438Y617220D01*
Y642620D02*
X451358Y652780D01*
X461518D01*
X456438Y642620D01*
X546100Y414782D02*
X541020Y424942D01*
X551180D01*
X546100Y414782D01*
X693756Y532878D02*
X688676Y543038D01*
X698836D01*
X693756Y532878D01*
X778171Y587214D02*
X773091Y597374D01*
X783251D01*
X778171Y587214D01*
X699770Y507237D02*
X694690Y517397D01*
X704850D01*
X699770Y507237D01*
X812802Y451360D02*
X807722Y461520D01*
X817882D01*
X812802Y451360D01*
X787402D02*
X782322Y461520D01*
X792482D01*
X787402Y451360D01*
X762002D02*
X756922Y461520D01*
X767082D01*
X762002Y451360D01*
X774702D02*
X769622Y461520D01*
X779782D01*
X774702Y451360D01*
X812803Y414785D02*
X807722Y424944D01*
X817883D01*
X812803Y414785D01*
X787402D02*
X782322Y424944D01*
X792483D01*
X787402Y414785D01*
X774703D02*
X769622Y424944D01*
X779782D01*
X774703Y414785D01*
X698500Y438658D02*
X693420Y448818D01*
X703580D01*
X698500Y438658D01*
X647700D02*
X642620Y448818D01*
X652780D01*
X647700Y438658D01*
X622300D02*
X617220Y448818D01*
X627380D01*
X622300Y438658D01*
X882667Y703309D02*
X877587Y713469D01*
X887747D01*
X882667Y703309D01*
X882331Y712233D02*
X877251Y722393D01*
X887411D01*
X882331Y712233D01*
X929517Y591219D02*
X924436Y601379D01*
X934596D01*
X929517Y591219D01*
X986223Y591245D02*
X981143Y601404D01*
X991303D01*
X986223Y591245D01*
X886103Y538192D02*
X881023Y548352D01*
X891183D01*
X886103Y538192D01*
X1000633Y550546D02*
X995553Y560706D01*
X1005713D01*
X1000633Y550546D01*
Y559690D02*
X995553Y569850D01*
X1005713D01*
X1000633Y559690D01*
Y568834D02*
X995553Y578994D01*
X1005713D01*
X1000633Y568834D01*
Y577978D02*
X995553Y588138D01*
X1005713D01*
X1000633Y577978D01*
Y710312D02*
X995553Y720472D01*
X1005713D01*
X1000633Y710312D01*
X970409Y705740D02*
X965329Y715900D01*
X975489D01*
X970409Y705740D01*
X576834Y710815D02*
X571754Y720975D01*
X581914D01*
X576834Y710815D01*
X655503Y525598D02*
X650423Y535758D01*
X660583D01*
X655503Y525598D01*
X672054Y519945D02*
X666974Y530105D01*
X677134D01*
X672054Y519945D01*
X623755Y535146D02*
X618675Y545306D01*
X628835D01*
X623755Y535146D01*
X731756Y590728D02*
X726676Y600888D01*
X736836D01*
X731756Y590728D01*
X745148Y586072D02*
X740068Y596232D01*
X750228D01*
X745148Y586072D01*
X739256Y588228D02*
X734176Y598388D01*
X744336D01*
X739256Y588228D01*
X748352Y530966D02*
X743272Y541126D01*
X753432D01*
X748352Y530966D01*
X727780Y585728D02*
X722700Y595888D01*
X732860D01*
X727780Y585728D01*
X745148Y581072D02*
X740068Y591232D01*
X750228D01*
X745148Y581072D01*
X706036Y601822D02*
X700956Y611982D01*
X711116D01*
X706036Y601822D01*
X714483Y608317D02*
X709403Y618477D01*
X719563D01*
X714483Y608317D01*
X709811Y529050D02*
X704731Y539210D01*
X714891D01*
X709811Y529050D01*
X733717Y562687D02*
X728637Y572847D01*
X738797D01*
X733717Y562687D01*
X626803Y538598D02*
X621723Y548758D01*
X631883D01*
X626803Y538598D01*
X703393Y530054D02*
X698313Y540214D01*
X708473D01*
X703393Y530054D01*
X623755Y522550D02*
X618675Y532710D01*
X628835D01*
X623755Y522550D01*
X707214Y514359D02*
X702133Y524519D01*
X712293D01*
X707214Y514359D01*
X712304Y523781D02*
X707224Y533941D01*
X717384D01*
X712304Y523781D01*
X716763Y517152D02*
X711683Y527312D01*
X721843D01*
X716763Y517152D01*
X676035Y519945D02*
X670955Y530105D01*
X681115D01*
X676035Y519945D01*
X694257Y524149D02*
X689177Y534309D01*
X699337D01*
X694257Y524149D01*
X664717Y509247D02*
X659637Y519407D01*
X669797D01*
X664717Y509247D01*
X616683Y504218D02*
X611603Y514378D01*
X621763D01*
X616683Y504218D01*
X640325Y509247D02*
X635245Y519407D01*
X645405D01*
X640325Y509247D01*
X891120Y593398D02*
X886040Y603558D01*
X896200D01*
X891120Y593398D01*
X895410Y594117D02*
X890330Y604277D01*
X900490D01*
X895410Y594117D01*
X884764Y591214D02*
X879684Y601374D01*
X889844D01*
X884764Y591214D01*
X883794Y614679D02*
X878714Y624839D01*
X888874D01*
X883794Y614679D01*
X986519Y603362D02*
X981439Y613522D01*
X991599D01*
X986519Y603362D01*
X996519Y599052D02*
X991439Y609212D01*
X1001599D01*
X996519Y599052D01*
X1006519D02*
X1001439Y609212D01*
X1011599D01*
X1006519Y599052D01*
X766274Y578996D02*
X761194Y589156D01*
X771354D01*
X766274Y578996D01*
X1094192Y591098D02*
X1089112Y601258D01*
X1099272D01*
X1094192Y591098D01*
X1035831Y599052D02*
X1030751Y609212D01*
X1040911D01*
X1035831Y599052D01*
X1045831D02*
X1040751Y609212D01*
X1050911D01*
X1045831Y599052D01*
X1129752Y591098D02*
X1124672Y601258D01*
X1134832D01*
X1129752Y591098D01*
X1111972Y591098D02*
X1106892Y601258D01*
X1117052D01*
X1111972Y591098D01*
X1040832Y599052D02*
X1035752Y609212D01*
X1045912D01*
X1040832Y599052D01*
X1002221Y595264D02*
X997141Y605424D01*
X1007301D01*
X1002221Y595264D01*
X1051725Y591249D02*
X1046645Y601409D01*
X1056805D01*
X1051725Y591249D01*
X1141857Y682880D02*
X1136777Y693040D01*
X1146937D01*
X1141857Y682880D01*
Y692024D02*
X1136777Y702184D01*
X1146937D01*
X1141857Y692024D01*
Y701168D02*
X1136777Y711328D01*
X1146937D01*
X1141857Y701168D01*
Y710312D02*
X1136777Y720472D01*
X1146937D01*
X1141857Y710312D01*
X1111633Y678308D02*
X1106553Y688468D01*
X1116713D01*
X1111633Y678308D01*
Y687452D02*
X1106553Y697612D01*
X1116713D01*
X1111633Y687452D01*
Y696596D02*
X1106553Y706756D01*
X1116713D01*
X1111633Y696596D01*
Y705740D02*
X1106553Y715900D01*
X1116713D01*
X1111633Y705740D01*
X1051941Y682880D02*
X1046861Y693040D01*
X1057021D01*
X1051941Y682880D01*
Y692024D02*
X1046861Y702184D01*
X1057021D01*
X1051941Y692024D01*
Y701168D02*
X1046861Y711328D01*
X1057021D01*
X1051941Y701168D01*
Y710312D02*
X1046861Y720472D01*
X1057021D01*
X1051941Y710312D01*
X1021717Y705740D02*
X1016637Y715900D01*
X1026797D01*
X1021717Y705740D01*
Y696596D02*
X1016637Y706756D01*
X1026797D01*
X1021717Y696596D01*
Y687452D02*
X1016637Y697612D01*
X1026797D01*
X1021717Y687452D01*
Y678308D02*
X1016637Y688468D01*
X1026797D01*
X1021717Y678308D01*
X1000633Y682880D02*
X995553Y693040D01*
X1005713D01*
X1000633Y682880D01*
Y692024D02*
X995553Y702184D01*
X1005713D01*
X1000633Y692024D01*
Y701168D02*
X995553Y711328D01*
X1005713D01*
X1000633Y701168D01*
X970409Y678308D02*
X965329Y688468D01*
X975489D01*
X970409Y678308D01*
Y687452D02*
X965329Y697612D01*
X975489D01*
X970409Y687452D01*
Y696596D02*
X965329Y706756D01*
X975489D01*
X970409Y696596D01*
X880493Y678308D02*
X875413Y688468D01*
X885573D01*
X880493Y678308D01*
X881386Y689607D02*
X876306Y699767D01*
X886466D01*
X881386Y689607D01*
X910717Y682880D02*
X905637Y693040D01*
X915797D01*
X910717Y682880D01*
Y692024D02*
X905637Y702184D01*
X915797D01*
X910717Y692024D01*
Y701168D02*
X905637Y711328D01*
X915797D01*
X910717Y701168D01*
Y710312D02*
X905637Y720472D01*
X915797D01*
X910717Y710312D01*
X883541Y552070D02*
X878461Y562230D01*
X888621D01*
X883541Y552070D01*
Y561214D02*
X878461Y571374D01*
X888621D01*
X883541Y561214D01*
X881386Y571251D02*
X876306Y581411D01*
X886466D01*
X881386Y571251D01*
X910717Y550546D02*
X905637Y560706D01*
X915797D01*
X910717Y550546D01*
Y559690D02*
X905637Y569850D01*
X915797D01*
X910717Y559690D01*
Y568834D02*
X905637Y578994D01*
X915797D01*
X910717Y568834D01*
Y577978D02*
X905637Y588138D01*
X915797D01*
X910717Y577978D01*
X970409Y545974D02*
X965329Y556134D01*
X975489D01*
X970409Y545974D01*
Y555118D02*
X965329Y565278D01*
X975489D01*
X970409Y555118D01*
Y564262D02*
X965329Y574422D01*
X975489D01*
X970409Y564262D01*
Y573406D02*
X965329Y583566D01*
X975489D01*
X970409Y573406D01*
X1141857Y550546D02*
X1136777Y560706D01*
X1146937D01*
X1141857Y550546D01*
Y559690D02*
X1136777Y569850D01*
X1146937D01*
X1141857Y559690D01*
Y568834D02*
X1136777Y578994D01*
X1146937D01*
X1141857Y568834D01*
Y577978D02*
X1136777Y588138D01*
X1146937D01*
X1141857Y577978D01*
X1111633Y545974D02*
X1106553Y556134D01*
X1116713D01*
X1111633Y545974D01*
Y555118D02*
X1106553Y565278D01*
X1116713D01*
X1111633Y555118D01*
Y564262D02*
X1106553Y574422D01*
X1116713D01*
X1111633Y564262D01*
Y573406D02*
X1106553Y583566D01*
X1116713D01*
X1111633Y573406D01*
X1051941Y550546D02*
X1046861Y560706D01*
X1057021D01*
X1051941Y550546D01*
Y559690D02*
X1046861Y569850D01*
X1057021D01*
X1051941Y559690D01*
Y568834D02*
X1046861Y578994D01*
X1057021D01*
X1051941Y568834D01*
Y577978D02*
X1046861Y588138D01*
X1057021D01*
X1051941Y577978D01*
X1021717Y545974D02*
X1016637Y556134D01*
X1026797D01*
X1021717Y545974D01*
Y555118D02*
X1016637Y565278D01*
X1026797D01*
X1021717Y555118D01*
Y564262D02*
X1016637Y574422D01*
X1026797D01*
X1021717Y564262D01*
Y573406D02*
X1016637Y583566D01*
X1026797D01*
X1021717Y573406D01*
X752845Y560735D02*
X747765Y570895D01*
X757925D01*
X752845Y560735D01*
X762045Y562987D02*
X756964Y573147D01*
X767124D01*
X762045Y562987D01*
X742859Y565735D02*
X737779Y575895D01*
X747939D01*
X742859Y565735D01*
X770671Y600894D02*
X765591Y611054D01*
X775751D01*
X770671Y600894D01*
X733717Y611680D02*
X728637Y621840D01*
X738797D01*
X733717Y611680D01*
X745308Y608317D02*
X740228Y618477D01*
X750388D01*
X745308Y608317D01*
X773721Y575223D02*
X768641Y585383D01*
X778801D01*
X773721Y575223D01*
X750352Y596753D02*
X745272Y606913D01*
X755432D01*
X750352Y596753D01*
X737304Y598688D02*
X732224Y608848D01*
X742384D01*
X737304Y598688D01*
X769633Y558431D02*
X764554Y568591D01*
X774714D01*
X769633Y558431D01*
X762372Y570735D02*
X757292Y580895D01*
X767452D01*
X762372Y570735D01*
X755278Y572687D02*
X750198Y582847D01*
X760358D01*
X755278Y572687D01*
X765702Y532878D02*
X760622Y543038D01*
X770782D01*
X765702Y532878D01*
X763070Y604227D02*
X757990Y614387D01*
X768149D01*
X763070Y604227D01*
X708162Y614728D02*
X703082Y624888D01*
X713242D01*
X708162Y614728D01*
X769308Y521223D02*
X764228Y531383D01*
X774388D01*
X769308Y521223D01*
X541918Y628361D02*
X536838Y638521D01*
X546998D01*
X541918Y628361D01*
X601437Y712134D02*
X596357Y722294D01*
X606516D01*
X601437Y712134D01*
X514883Y714668D02*
X509803Y724828D01*
X519963D01*
X514883Y714668D01*
X778510Y694690D02*
X773430Y704850D01*
X783590D01*
X778510Y694690D01*
X714256Y511884D02*
X709176Y522044D01*
X719336D01*
X714256Y511884D01*
X756920Y611680D02*
X751840Y621840D01*
X762000D01*
X756920Y611680D01*
X755352Y601228D02*
X750272Y611388D01*
X760432D01*
X755352Y601228D01*
X727972Y614728D02*
X722892Y624888D01*
X733052D01*
X727972Y614728D01*
X577987Y586186D02*
X572907Y596346D01*
X583067D01*
X577987Y586186D01*
X594967Y575138D02*
X589887Y585298D01*
X600047D01*
X594967Y575138D01*
X695148Y575383D02*
X690068Y585543D01*
X700228D01*
X695148Y575383D01*
X602117Y504218D02*
X597037Y514378D01*
X607197D01*
X602117Y504218D01*
X635921D02*
X630841Y514378D01*
X641001D01*
X635921Y504218D01*
X781219Y579166D02*
X776139Y589326D01*
X786299D01*
X781219Y579166D01*
X781221Y559127D02*
X776141Y569287D01*
X786301D01*
X781221Y559127D01*
X712304Y591276D02*
X707224Y601436D01*
X717384D01*
X712304Y591276D01*
X727972Y605728D02*
X722892Y615888D01*
X733052D01*
X727972Y605728D01*
X623622Y584727D02*
X618542Y594887D01*
X628702D01*
X623622Y584727D01*
X556710Y547530D02*
X551630Y557690D01*
X561790D01*
X556710Y547530D01*
X565210D02*
X560130Y557690D01*
X570290D01*
X565210Y547530D01*
X628825Y591882D02*
X623745Y602042D01*
X633905D01*
X628825Y591882D01*
X511543Y651327D02*
X506463Y661487D01*
X516623D01*
X511543Y651327D01*
X538543D02*
X533463Y661487D01*
X543623D01*
X538543Y651327D01*
X566140Y619201D02*
X561060Y629361D01*
X571220D01*
X566140Y619201D01*
X646237Y592727D02*
X641157Y602887D01*
X651317D01*
X646237Y592727D01*
X761385Y578228D02*
X756305Y588388D01*
X766465D01*
X761385Y578228D01*
X673506Y546178D02*
X668426Y556338D01*
X678586D01*
X673506Y546178D01*
X681506Y531448D02*
X676426Y541608D01*
X686586D01*
X681506Y531448D01*
X693566Y614728D02*
X688486Y624888D01*
X698646D01*
X693566Y614728D01*
X672052Y538178D02*
X666972Y548338D01*
X677132D01*
X672052Y538178D01*
X640169Y553674D02*
X635089Y563834D01*
X645249D01*
X640169Y553674D01*
X629121Y550626D02*
X624041Y560786D01*
X634201D01*
X629121Y550626D01*
X739813Y540745D02*
X734733Y550905D01*
X744893D01*
X739813Y540745D01*
X737304Y534014D02*
X732224Y544174D01*
X742384D01*
X737304Y534014D01*
X762922Y583098D02*
X757842Y593258D01*
X768002D01*
X762922Y583098D01*
X765970Y559877D02*
X760890Y570037D01*
X771050D01*
X765970Y559877D01*
X778173Y567175D02*
X773093Y577335D01*
X783253D01*
X778173Y567175D01*
X723900Y517652D02*
X718820Y527812D01*
X728980D01*
X723900Y517652D01*
X695148Y550383D02*
X690068Y560543D01*
X700228D01*
X695148Y550383D01*
X546690Y582030D02*
X541610Y592190D01*
X551770D01*
X546690Y582030D01*
X578217Y577641D02*
X573137Y587801D01*
X583297D01*
X578217Y577641D01*
X576169Y533631D02*
X571089Y543791D01*
X581249D01*
X576169Y533631D01*
X620669Y566276D02*
X615589Y576436D01*
X625749D01*
X620669Y566276D01*
X578737Y540833D02*
X573657Y550993D01*
X583817D01*
X578737Y540833D01*
X557196Y609553D02*
X552116Y619713D01*
X562276D01*
X557196Y609553D01*
X585958Y617913D02*
X580878Y628073D01*
X591038D01*
X585958Y617913D01*
X612967Y586186D02*
X607887Y596346D01*
X618047D01*
X612967Y586186D01*
X600669Y534861D02*
X595589Y545021D01*
X605749D01*
X600669Y534861D01*
X600669Y571464D02*
X595589Y581624D01*
X605749D01*
X600669Y571464D01*
X575689Y552631D02*
X570609Y562791D01*
X580769D01*
X575689Y552631D01*
X609919Y552631D02*
X604839Y562791D01*
X614999D01*
X609919Y552631D01*
X553985Y638356D02*
X548905Y648516D01*
X559065D01*
X553985Y638356D01*
X564188Y636201D02*
X559108Y646361D01*
X569268D01*
X564188Y636201D01*
X556140Y622249D02*
X551060Y632409D01*
X561220D01*
X556140Y622249D01*
X562543Y600698D02*
X557463Y610858D01*
X567623D01*
X562543Y600698D01*
X553753Y595908D02*
X548673Y606068D01*
X558833D01*
X553753Y595908D01*
X558148Y589275D02*
X553068Y599435D01*
X563228D01*
X558148Y589275D01*
X565196Y609553D02*
X560116Y619713D01*
X570276D01*
X565196Y609553D01*
X637955Y627823D02*
X632875Y637983D01*
X643035D01*
X637955Y627823D01*
X620669Y609276D02*
X615589Y619436D01*
X625749D01*
X620669Y609276D01*
X611003Y624775D02*
X605923Y634935D01*
X616083D01*
X611003Y624775D01*
X607955Y613727D02*
X602875Y623887D01*
X613035D01*
X607955Y613727D01*
X680418Y568822D02*
X675339Y578982D01*
X685499D01*
X680418Y568822D01*
X672026Y560458D02*
X666946Y570618D01*
X677106D01*
X672026Y560458D01*
X657506Y599728D02*
X652426Y609888D01*
X662586D01*
X657506Y599728D01*
Y583728D02*
X652426Y593888D01*
X662586D01*
X657506Y583728D01*
X655316Y560458D02*
X650236Y570618D01*
X660396D01*
X655316Y560458D01*
Y570978D02*
X650236Y581138D01*
X660396D01*
X655316Y570978D01*
X560960Y535881D02*
X555880Y546041D01*
X566040D01*
X560960Y535881D01*
X546960Y535881D02*
X541880Y546041D01*
X552040D01*
X546960Y535881D01*
X510239Y545772D02*
X505159Y555932D01*
X515319D01*
X510239Y545772D01*
X515968Y577650D02*
X510888Y587810D01*
X521048D01*
X515968Y577650D01*
X538690Y582030D02*
X533610Y592190D01*
X543770D01*
X538690Y582030D01*
X542434Y620473D02*
X537354Y630633D01*
X547514D01*
X542434Y620473D01*
X542014Y600303D02*
X536934Y610463D01*
X547094D01*
X542014Y600303D01*
X535488Y556578D02*
X530408Y566738D01*
X540568D01*
X535488Y556578D01*
Y572578D02*
X530408Y582738D01*
X540568D01*
X535488Y572578D01*
X704804Y558680D02*
X699724Y568840D01*
X709884D01*
X704804Y558680D01*
X704304Y568680D02*
X699224Y578840D01*
X709384D01*
X704304Y568680D01*
X714459Y555383D02*
X709379Y565543D01*
X719539D01*
X714459Y555383D01*
X609919Y575138D02*
X604839Y585298D01*
X614999D01*
X609919Y575138D01*
X609919Y538535D02*
X604839Y548695D01*
X614999D01*
X609919Y538535D01*
X606871Y549583D02*
X601791Y559743D01*
X611951D01*
X606871Y549583D01*
X603717Y559416D02*
X598637Y569576D01*
X608797D01*
X603717Y559416D01*
X603717Y522813D02*
X598637Y532973D01*
X608797D01*
X603717Y522813D01*
X512127Y623361D02*
X507048Y633521D01*
X517207D01*
X512127Y623361D01*
X527188Y644250D02*
X522108Y654410D01*
X532268D01*
X527188Y644250D01*
X513188D02*
X508108Y654410D01*
X518268D01*
X513188Y644250D01*
X720747Y712521D02*
X715667Y722681D01*
X725827D01*
X720747Y712521D01*
X724711Y701496D02*
X719631Y711656D01*
X729791D01*
X724711Y701496D01*
X704913Y676888D02*
X699833Y687048D01*
X709993D01*
X704913Y676888D01*
X713413D02*
X708333Y687048D01*
X718493D01*
X713413Y676888D01*
X588882Y705363D02*
X583802Y715523D01*
X593962D01*
X588882Y705363D01*
X624955Y677223D02*
X619875Y687383D01*
X630035D01*
X624955Y677223D01*
X568584Y697738D02*
X563504Y707898D01*
X573664D01*
X568584Y697738D01*
X644033Y680939D02*
X638953Y691099D01*
X649113D01*
X644033Y680939D01*
X634657Y684495D02*
X629577Y694655D01*
X639737D01*
X634657Y684495D01*
X521091Y685976D02*
X516011Y696136D01*
X526171D01*
X521091Y685976D01*
X677595Y702186D02*
X672515Y712346D01*
X682675D01*
X677595Y702186D01*
X631455Y677223D02*
X626375Y687383D01*
X636535D01*
X631455Y677223D01*
X756920Y701304D02*
X751840Y711464D01*
X762000D01*
X756920Y701304D01*
X572132Y709613D02*
X567052Y719773D01*
X577212D01*
X572132Y709613D01*
X576834Y699911D02*
X571754Y710071D01*
X581914D01*
X576834Y699911D01*
X730345Y698041D02*
X725265Y708201D01*
X735425D01*
X730345Y698041D01*
X716738Y676414D02*
X711658Y686574D01*
X721818D01*
X716738Y676414D01*
X703345Y672894D02*
X698265Y683054D01*
X708425D01*
X703345Y672894D01*
X611003Y668775D02*
X605923Y678935D01*
X616083D01*
X611003Y668775D01*
X616157Y711035D02*
X611077Y721195D01*
X621237D01*
X616157Y711035D01*
X652161Y700561D02*
X647081Y710721D01*
X657241D01*
X652161Y700561D01*
X694190Y662894D02*
X689110Y673054D01*
X699270D01*
X694190Y662894D01*
X615657Y693345D02*
X610577Y703505D01*
X620737D01*
X615657Y693345D01*
X640753Y692495D02*
X635673Y702655D01*
X645833D01*
X640753Y692495D01*
X646065Y692436D02*
X640985Y702596D01*
X651145D01*
X646065Y692436D01*
X657563Y678984D02*
X652483Y689144D01*
X662643D01*
X657563Y678984D01*
X667893Y675942D02*
X662813Y686102D01*
X672973D01*
X667893Y675942D01*
X663345Y708735D02*
X658265Y718895D01*
X668425D01*
X663345Y708735D01*
X739893Y676545D02*
X734813Y686705D01*
X744973D01*
X739893Y676545D01*
X726893Y690216D02*
X721813Y700376D01*
X731973D01*
X726893Y690216D01*
X618705Y687543D02*
X613625Y697703D01*
X623785D01*
X618705Y687543D01*
X755352Y593228D02*
X750272Y603388D01*
X760432D01*
X755352Y593228D01*
X541062Y643903D02*
X535982Y654063D01*
X546142D01*
X541062Y643903D01*
X596236Y695247D02*
X591156Y705407D01*
X601316D01*
X596236Y695247D01*
X542798Y515620D02*
X537718Y525780D01*
X547878D01*
X542798Y515620D01*
X532043Y668928D02*
X526963Y679088D01*
X537123D01*
X532043Y668928D01*
X518043D02*
X512963Y679088D01*
X523123D01*
X518043Y668928D01*
X734256Y553228D02*
X729176Y563388D01*
X739336D01*
X734256Y553228D01*
Y558228D02*
X729176Y568388D01*
X739336D01*
X734256Y558228D01*
X695148Y556072D02*
X690068Y566232D01*
X700228D01*
X695148Y556072D01*
X712304Y570180D02*
X707224Y580340D01*
X717384D01*
X712304Y570180D01*
Y581276D02*
X707224Y591436D01*
X717384D01*
X712304Y581276D01*
X729256Y578228D02*
X724176Y588388D01*
X734336D01*
X729256Y578228D01*
X737304Y581276D02*
X732224Y591436D01*
X742384D01*
X737304Y581276D01*
Y570180D02*
X732224Y580340D01*
X742384D01*
X737304Y570180D01*
X729459Y570383D02*
X724379Y580543D01*
X734539D01*
X729459Y570383D01*
X720148D02*
X715068Y580543D01*
X725228D01*
X720148Y570383D01*
X729459Y561072D02*
X724379Y571232D01*
X734539D01*
X729459Y561072D01*
X720148D02*
X715068Y571232D01*
X725228D01*
X720148Y561072D01*
X787639Y715178D02*
X782559Y725338D01*
X792719D01*
X787639Y715178D01*
X773415D02*
X768335Y725338D01*
X778495D01*
X773415Y715178D01*
X599284Y689795D02*
X594204Y699955D01*
X604364D01*
X599284Y689795D01*
X756920Y715400D02*
X751840Y725560D01*
X762000D01*
X756920Y715400D01*
M02*
