G04*
G04 #@! TF.GenerationSoftware,Altium Limited,Altium Designer,24.3.1 (35)*
G04*
G04 Layer_Color=128*
%FSLAX44Y44*%
%MOMM*%
G71*
G04*
G04 #@! TF.SameCoordinates,35E8F126-3BB9-435E-BEC0-E910B6038B45*
G04*
G04*
G04 #@! TF.FilePolarity,Positive*
G04*
G01*
G75*
%ADD15C,0.1270*%
D15*
X648947Y716115D02*
X649963D01*
X649455Y715607D02*
Y716623D01*
X657947Y716115D02*
X658963D01*
X658455Y715607D02*
Y716623D01*
X883033Y533229D02*
X884049D01*
X883541Y532721D02*
Y533737D01*
X510620Y602701D02*
X511636D01*
X511128Y602193D02*
Y603209D01*
X519185Y614441D02*
X520201D01*
X519693Y613933D02*
Y614949D01*
X508572Y619441D02*
X509588D01*
X509080Y618933D02*
Y619949D01*
X508572Y628441D02*
X509588D01*
X509080Y627933D02*
Y628949D01*
X686385Y719516D02*
X687401D01*
X686893Y719007D02*
Y720023D01*
X694385Y719516D02*
X695401D01*
X694893Y719007D02*
Y720023D01*
X690227Y545958D02*
X691243D01*
X690735Y545450D02*
Y546466D01*
X746796Y543308D02*
X747812D01*
X747304Y542800D02*
Y543816D01*
X736796Y536046D02*
X737812D01*
X737304Y535538D02*
Y536554D01*
X709930Y545758D02*
X710946D01*
X710438Y545250D02*
Y546266D01*
X722373Y508965D02*
X723389D01*
X722881Y508457D02*
Y509473D01*
X1018667Y734276D02*
X1019683D01*
X1019175Y733768D02*
Y734784D01*
X1010667Y734276D02*
X1011683D01*
X1011175Y733768D02*
Y734784D01*
X686385Y695296D02*
X687401D01*
X686893Y694788D02*
Y695804D01*
X507576Y561008D02*
X508592D01*
X508084Y560500D02*
Y561516D01*
X647192Y515478D02*
X648208D01*
X647700Y514970D02*
Y515986D01*
X663226Y505691D02*
X664242D01*
X663734Y505183D02*
Y506199D01*
X691580Y486854D02*
X692596D01*
X692088Y486346D02*
Y487362D01*
X677786Y475437D02*
X678802D01*
X678294Y474929D02*
Y475945D01*
X677786Y505671D02*
X678802D01*
X678294Y505163D02*
Y506179D01*
X691601Y508965D02*
X692617D01*
X692110Y508457D02*
Y509473D01*
X632365Y509298D02*
X633381D01*
X632873Y508790D02*
Y509806D01*
X641365Y509298D02*
X642381D01*
X641873Y508790D02*
Y509806D01*
X772318Y608130D02*
X773334D01*
X772826Y607622D02*
Y608638D01*
X624476Y629826D02*
X625492D01*
X624984Y629318D02*
Y630334D01*
X633662Y594807D02*
X634678D01*
X634170Y594299D02*
Y595315D01*
X659892Y418084D02*
X660908D01*
X660400Y417576D02*
Y418592D01*
X761495Y422912D02*
X762511D01*
X762002Y422405D02*
Y423420D01*
X720645Y469082D02*
X721661D01*
X721153Y468574D02*
Y469590D01*
X712046Y456440D02*
X713062D01*
X712554Y455932D02*
Y456948D01*
X890612Y660136D02*
X891628D01*
X891120Y659628D02*
Y660644D01*
X890612Y669136D02*
X891628D01*
X891120Y668628D02*
Y669644D01*
X452882Y622300D02*
X453898D01*
X453390Y621792D02*
Y622808D01*
X452882Y647700D02*
X453898D01*
X453390Y647192D02*
Y648208D01*
X545592Y422910D02*
X546608D01*
X546100Y422402D02*
Y423418D01*
X696296Y537958D02*
X697312D01*
X696804Y537450D02*
Y538466D01*
X812294Y472713D02*
X813310D01*
X812802Y472205D02*
Y473220D01*
X786892Y469084D02*
X787908D01*
X787400Y468576D02*
Y469592D01*
X780711Y592294D02*
X781727D01*
X781219Y591786D02*
Y592802D01*
X772769Y549402D02*
X773785D01*
X773277Y548894D02*
Y549910D01*
X770143Y554589D02*
X771159D01*
X770650Y554081D02*
Y555097D01*
X626946Y506017D02*
X627962D01*
X627454Y505509D02*
Y506525D01*
X727601Y463621D02*
X728617D01*
X728109Y463113D02*
Y464129D01*
X703072Y490220D02*
X704088D01*
X703580Y489712D02*
Y490728D01*
X725923Y518285D02*
X726939D01*
X726431Y517777D02*
Y518793D01*
X699262Y509269D02*
X700278D01*
X699770Y508761D02*
Y509777D01*
X654046Y509298D02*
X655062D01*
X654554Y508790D02*
Y509806D01*
X812294Y453392D02*
X813310D01*
X812802Y452884D02*
Y453900D01*
X786894Y453392D02*
X787910D01*
X787402Y452884D02*
Y453900D01*
X761494Y453392D02*
X762510D01*
X762002Y452884D02*
Y453900D01*
X774194Y453392D02*
X775210D01*
X774702Y452884D02*
Y453900D01*
X812294Y422912D02*
X813310D01*
X812803Y422405D02*
Y423420D01*
X786895Y422912D02*
X787911D01*
X787402Y422405D02*
Y423420D01*
X774194Y422912D02*
X775210D01*
X774703Y422405D02*
Y423420D01*
X697992Y440690D02*
X699008D01*
X698500Y440182D02*
Y441198D01*
X647192Y440690D02*
X648208D01*
X647700Y440182D02*
Y441198D01*
X621792Y440690D02*
X622808D01*
X622300Y440182D02*
Y441198D01*
X884314Y706234D02*
X885330D01*
X884822Y705726D02*
Y706742D01*
X883978Y715158D02*
X884994D01*
X884486Y714650D02*
Y715666D01*
X932057Y596299D02*
X933073D01*
X932564Y595791D02*
Y596807D01*
X982667Y596325D02*
X983683D01*
X983175Y595816D02*
Y596833D01*
X885595Y546320D02*
X886611D01*
X886103Y545812D02*
Y546828D01*
X997077Y555626D02*
X998093D01*
X997585Y555118D02*
Y556134D01*
X997077Y564770D02*
X998093D01*
X997585Y564262D02*
Y565278D01*
X997077Y573914D02*
X998093D01*
X997585Y573406D02*
Y574422D01*
X997077Y583058D02*
X998093D01*
X997585Y582550D02*
Y583566D01*
X997077Y715392D02*
X998093D01*
X997585Y714884D02*
Y715900D01*
X972949Y710820D02*
X973965D01*
X973457Y710312D02*
Y711328D01*
X576326Y718943D02*
X577342D01*
X576834Y718435D02*
Y719451D01*
X696796Y553308D02*
X697812D01*
X697304Y552800D02*
Y553816D01*
X696796Y563308D02*
X697812D01*
X697304Y562800D02*
Y563816D01*
X744796Y536046D02*
X745812D01*
X745304Y535538D02*
Y536554D01*
X730320Y590808D02*
X731336D01*
X730828Y590300D02*
Y591316D01*
X729742Y509270D02*
X730758D01*
X730250Y508762D02*
Y509778D01*
X774997Y572970D02*
X776013D01*
X775505Y572462D02*
Y573478D01*
X661161Y522232D02*
X662177D01*
X661669Y521724D02*
Y522740D01*
X544458Y614441D02*
X545474D01*
X544966Y613933D02*
Y614949D01*
X723392Y525780D02*
X724408D01*
X723900Y525272D02*
Y526288D01*
X546182Y559658D02*
X547198D01*
X546690Y559150D02*
Y560166D01*
X696797Y529229D02*
X697813D01*
X697305Y528721D02*
Y529737D01*
X619223Y509298D02*
X620239D01*
X619731Y508790D02*
Y509806D01*
X583459Y509298D02*
X584475D01*
X583967Y508790D02*
Y509806D01*
X918557Y613329D02*
X919573D01*
X919064Y612821D02*
Y613837D01*
X978167Y621286D02*
X979183D01*
X978674Y620778D02*
Y621794D01*
X978167Y626287D02*
X979183D01*
X978674Y625779D02*
Y626795D01*
X973168Y626287D02*
X974184D01*
X973676Y625779D02*
Y626795D01*
X978167Y631286D02*
X979183D01*
X978674Y630778D02*
Y631794D01*
X973168Y631286D02*
X974184D01*
X973676Y630778D02*
Y631794D01*
X978167Y636287D02*
X979183D01*
X978674Y635779D02*
Y636795D01*
X973168Y636287D02*
X974184D01*
X973676Y635779D02*
Y636795D01*
X978167Y641288D02*
X979183D01*
X978674Y640780D02*
Y641796D01*
X973168Y641288D02*
X974184D01*
X973676Y640780D02*
Y641796D01*
X978167Y646287D02*
X979183D01*
X978674Y645779D02*
Y646795D01*
X973168Y646287D02*
X974184D01*
X973676Y645779D02*
Y646795D01*
X988167Y606287D02*
X989183D01*
X988674Y605779D02*
Y606795D01*
X998166Y606287D02*
X999182D01*
X998674Y605779D02*
Y606795D01*
X1008166Y606287D02*
X1009182D01*
X1008674Y605779D02*
Y606795D01*
X779394Y673750D02*
X780410D01*
X779902Y673242D02*
Y674258D01*
X779394Y659750D02*
X780410D01*
X779902Y659242D02*
Y660258D01*
X881521Y671056D02*
X882537D01*
X882029Y670548D02*
Y671564D01*
X973168Y651288D02*
X974184D01*
X973676Y650780D02*
Y651796D01*
X978167Y651288D02*
X979183D01*
X978674Y650780D02*
Y651796D01*
X978167Y656287D02*
X979183D01*
X978674Y655779D02*
Y656795D01*
X978167Y661288D02*
X979183D01*
X978674Y660780D02*
Y661796D01*
X973168Y656287D02*
X974184D01*
X973676Y655779D02*
Y656795D01*
X973168Y661288D02*
X974184D01*
X973676Y660780D02*
Y661796D01*
X973168Y666287D02*
X974184D01*
X973676Y665779D02*
Y666795D01*
X983168Y661288D02*
X984184D01*
X983676Y660780D02*
Y661796D01*
X978167Y666287D02*
X979183D01*
X978674Y665779D02*
Y666795D01*
X983168Y666287D02*
X984184D01*
X983676Y665779D02*
Y666795D01*
X988167Y661288D02*
X989183D01*
X988674Y660780D02*
Y661796D01*
X988167Y666287D02*
X989183D01*
X988674Y665779D02*
Y666795D01*
X993168Y666287D02*
X994184D01*
X993676Y665779D02*
Y666795D01*
X998166Y666287D02*
X999182D01*
X998674Y665779D02*
Y666795D01*
X1003168Y666287D02*
X1004184D01*
X1003676Y665779D02*
Y666795D01*
X998667Y679388D02*
X999683D01*
X999175Y678880D02*
Y679896D01*
X994667Y726276D02*
X995683D01*
X995175Y725768D02*
Y726784D01*
X1018667Y726276D02*
X1019683D01*
X1019175Y725768D02*
Y726784D01*
X1026667Y726276D02*
X1027683D01*
X1027175Y725768D02*
Y726784D01*
X1034667Y726276D02*
X1035683D01*
X1035175Y725768D02*
Y726784D01*
X1018169Y666287D02*
X1019185D01*
X1018677Y665779D02*
Y666795D01*
X1023168Y666287D02*
X1024184D01*
X1023676Y665779D02*
Y666795D01*
X1028169Y666287D02*
X1029185D01*
X1028677Y665779D02*
Y666795D01*
X1033168Y666287D02*
X1034184D01*
X1033676Y665779D02*
Y666795D01*
X1146643Y591558D02*
X1147659D01*
X1147151Y591050D02*
Y592066D01*
X1154643Y591558D02*
X1155659D01*
X1155151Y591050D02*
Y592066D01*
X1048169Y666287D02*
X1049185D01*
X1048677Y665779D02*
Y666795D01*
X1033168Y661288D02*
X1034184D01*
X1033676Y660780D02*
Y661796D01*
X1038169Y666287D02*
X1039185D01*
X1038677Y665779D02*
Y666795D01*
X1038169Y661288D02*
X1039185D01*
X1038677Y660780D02*
Y661796D01*
X1043168Y666287D02*
X1044184D01*
X1043676Y665779D02*
Y666795D01*
X1043168Y661288D02*
X1044184D01*
X1043676Y660780D02*
Y661796D01*
X1053168Y666287D02*
X1054184D01*
X1053676Y665779D02*
Y666795D01*
X1155891Y564770D02*
X1156907D01*
X1156399Y564262D02*
Y565278D01*
X1048169Y636287D02*
X1049185D01*
X1048677Y635779D02*
Y636795D01*
X1053168Y661288D02*
X1054184D01*
X1053676Y660780D02*
Y661796D01*
X1053168Y656287D02*
X1054184D01*
X1053676Y655779D02*
Y656795D01*
X1053168Y651288D02*
X1054184D01*
X1053676Y650780D02*
Y651796D01*
X1053168Y646287D02*
X1054184D01*
X1053676Y645779D02*
Y646795D01*
X1053168Y641288D02*
X1054184D01*
X1053676Y640780D02*
Y641796D01*
X1053168Y636287D02*
X1054184D01*
X1053676Y635779D02*
Y636795D01*
X1048169Y631286D02*
X1049185D01*
X1048677Y630778D02*
Y631794D01*
X1053168Y631286D02*
X1054184D01*
X1053676Y630778D02*
Y631794D01*
X1093684Y599226D02*
X1094700D01*
X1094192Y598718D02*
Y599734D01*
X1033168Y606287D02*
X1034184D01*
X1033676Y605779D02*
Y606795D01*
X1043168Y606287D02*
X1044184D01*
X1043676Y605779D02*
Y606795D01*
X1129244Y599226D02*
X1130260D01*
X1129752Y598718D02*
Y599734D01*
X1111464Y599226D02*
X1112480D01*
X1111972Y598718D02*
Y599734D01*
X1038169Y606287D02*
X1039185D01*
X1038677Y605779D02*
Y606795D01*
X1048169Y661288D02*
X1049185D01*
X1048677Y660780D02*
Y661796D01*
X1048169Y656287D02*
X1049185D01*
X1048677Y655779D02*
Y656795D01*
X1048169Y651288D02*
X1049185D01*
X1048677Y650780D02*
Y651796D01*
X1048169Y646287D02*
X1049185D01*
X1048677Y645779D02*
Y646795D01*
X1048169Y641288D02*
X1049185D01*
X1048677Y640780D02*
Y641796D01*
X1048169Y626287D02*
X1049185D01*
X1048677Y625779D02*
Y626795D01*
X1048169Y621286D02*
X1049185D01*
X1048677Y620778D02*
Y621794D01*
X1053168Y626287D02*
X1054184D01*
X1053676Y625779D02*
Y626795D01*
X890803Y533253D02*
X891818D01*
X891311Y532745D02*
Y533761D01*
X900304Y534510D02*
X901320D01*
X900812Y534002D02*
Y535018D01*
X1028169Y661288D02*
X1029185D01*
X1028677Y660780D02*
Y661796D01*
X1023168Y661288D02*
X1024184D01*
X1023676Y660780D02*
Y661796D01*
X1018169Y661288D02*
X1019185D01*
X1018677Y660780D02*
Y661796D01*
X1013168Y661288D02*
X1014184D01*
X1013676Y660780D02*
Y661796D01*
X1008166Y661288D02*
X1009182D01*
X1008674Y660780D02*
Y661796D01*
X1003168Y661288D02*
X1004184D01*
X1003676Y660780D02*
Y661796D01*
X998166Y661288D02*
X999182D01*
X998674Y660780D02*
Y661796D01*
X993168Y661288D02*
X994184D01*
X993676Y660780D02*
Y661796D01*
X1004761Y600344D02*
X1005777D01*
X1005269Y599836D02*
Y600852D01*
X1013168Y666287D02*
X1014184D01*
X1013676Y665779D02*
Y666795D01*
X1008166Y666287D02*
X1009182D01*
X1008674Y665779D02*
Y666795D01*
X978167Y616287D02*
X979183D01*
X978674Y615779D02*
Y616795D01*
X973168Y621286D02*
X974184D01*
X973676Y620778D02*
Y621794D01*
X955166Y606287D02*
X956182D01*
X955675Y605779D02*
Y606795D01*
X978167Y611286D02*
X979183D01*
X978674Y610778D02*
Y611794D01*
X973168Y611286D02*
X974184D01*
X973676Y610778D02*
Y611794D01*
X922557Y613329D02*
X923572D01*
X923064Y612821D02*
Y613837D01*
X918557Y605329D02*
X919573D01*
X919064Y604821D02*
Y605837D01*
X922557Y609329D02*
X923572D01*
X923064Y608821D02*
Y609837D01*
X932057Y621829D02*
X933073D01*
X932564Y621321D02*
Y622337D01*
X988167Y611286D02*
X989183D01*
X988674Y610778D02*
Y611794D01*
X993168Y611286D02*
X994184D01*
X993676Y610778D02*
Y611794D01*
X990667Y596294D02*
X991683D01*
X991175Y595786D02*
Y596802D01*
X1040169Y596299D02*
X1041185D01*
X1040677Y595791D02*
Y596807D01*
X1048169Y596329D02*
X1049185D01*
X1048677Y595821D02*
Y596837D01*
X1093456Y613536D02*
X1094472D01*
X1093964Y613028D02*
Y614044D01*
X1089956Y609036D02*
X1090972D01*
X1090464Y608528D02*
Y609544D01*
X1053168Y621286D02*
X1054184D01*
X1053676Y620778D02*
Y621794D01*
X1064456Y599036D02*
X1065472D01*
X1064964Y598528D02*
Y599544D01*
X1068956Y595536D02*
X1069972D01*
X1069464Y595028D02*
Y596044D01*
X1024257Y551054D02*
X1025273D01*
X1024765Y550546D02*
Y551562D01*
X871422Y715782D02*
X872438D01*
X871930Y715274D02*
Y716290D01*
X871422Y724782D02*
X872438D01*
X871930Y724274D02*
Y725290D01*
X1138301Y687960D02*
X1139317D01*
X1138809Y687452D02*
Y688468D01*
X1138301Y697104D02*
X1139317D01*
X1138809Y696596D02*
Y697612D01*
X1138301Y706248D02*
X1139317D01*
X1138809Y705740D02*
Y706756D01*
X1138301Y715392D02*
X1139317D01*
X1138809Y714884D02*
Y715900D01*
X1096727Y701676D02*
X1097743D01*
X1097235Y701168D02*
Y702184D01*
X1114173Y683388D02*
X1115189D01*
X1114681Y682880D02*
Y683896D01*
X1114173Y692532D02*
X1115189D01*
X1114681Y692024D02*
Y693040D01*
X1114173Y701676D02*
X1115189D01*
X1114681Y701168D02*
Y702184D01*
X1114173Y710820D02*
X1115189D01*
X1114681Y710312D02*
Y711328D01*
X1048385Y687960D02*
X1049401D01*
X1048893Y687452D02*
Y688468D01*
X1048385Y697104D02*
X1049401D01*
X1048893Y696596D02*
Y697612D01*
X1048385Y706248D02*
X1049401D01*
X1048893Y705740D02*
Y706756D01*
X1048385Y715392D02*
X1049401D01*
X1048893Y714884D02*
Y715900D01*
X1024257Y710820D02*
X1025273D01*
X1024765Y710312D02*
Y711328D01*
X1024257Y701676D02*
X1025273D01*
X1024765Y701168D02*
Y702184D01*
X1024257Y692532D02*
X1025273D01*
X1024765Y692024D02*
Y693040D01*
X1024257Y683388D02*
X1025273D01*
X1024765Y682880D02*
Y683896D01*
X997077Y687960D02*
X998093D01*
X997585Y687452D02*
Y688468D01*
X997077Y697104D02*
X998093D01*
X997585Y696596D02*
Y697612D01*
X997077Y706248D02*
X998093D01*
X997585Y705740D02*
Y706756D01*
X972949Y683388D02*
X973965D01*
X973457Y682880D02*
Y683896D01*
X972949Y692532D02*
X973965D01*
X973457Y692024D02*
Y693040D01*
X972949Y701676D02*
X973965D01*
X973457Y701168D02*
Y702184D01*
X883033Y683388D02*
X884049D01*
X883541Y682880D02*
Y683896D01*
X883033Y692532D02*
X884049D01*
X883541Y692024D02*
Y693040D01*
X907161Y687960D02*
X908177D01*
X907669Y687452D02*
Y688468D01*
X907161Y697104D02*
X908177D01*
X907669Y696596D02*
Y697612D01*
X907161Y706248D02*
X908177D01*
X907669Y705740D02*
Y706756D01*
X907161Y715392D02*
X908177D01*
X907669Y714884D02*
Y715900D01*
X883033Y560198D02*
X884049D01*
X883541Y559690D02*
Y560706D01*
X883033Y569342D02*
X884049D01*
X883541Y568834D02*
Y569850D01*
X883033Y578486D02*
X884049D01*
X883541Y577978D02*
Y578994D01*
X907161Y555626D02*
X908177D01*
X907669Y555118D02*
Y556134D01*
X907161Y564770D02*
X908177D01*
X907669Y564262D02*
Y565278D01*
X907161Y573914D02*
X908177D01*
X907669Y573406D02*
Y574422D01*
X907161Y583058D02*
X908177D01*
X907669Y582550D02*
Y583566D01*
X972949Y551054D02*
X973965D01*
X973457Y550546D02*
Y551562D01*
X972949Y560198D02*
X973965D01*
X973457Y559690D02*
Y560706D01*
X972949Y569342D02*
X973965D01*
X973457Y568834D02*
Y569850D01*
X972949Y578486D02*
X973965D01*
X973457Y577978D02*
Y578994D01*
X1138301Y555626D02*
X1139317D01*
X1138809Y555118D02*
Y556134D01*
X1138301Y564770D02*
X1139317D01*
X1138809Y564262D02*
Y565278D01*
X1138301Y573914D02*
X1139317D01*
X1138809Y573406D02*
Y574422D01*
X1138301Y583058D02*
X1139317D01*
X1138809Y582550D02*
Y583566D01*
X1114173Y551054D02*
X1115189D01*
X1114681Y550546D02*
Y551562D01*
X1114173Y560198D02*
X1115189D01*
X1114681Y559690D02*
Y560706D01*
X1114173Y569342D02*
X1115189D01*
X1114681Y568834D02*
Y569850D01*
X1114173Y578486D02*
X1115189D01*
X1114681Y577978D02*
Y578994D01*
X1048385Y555626D02*
X1049401D01*
X1048893Y555118D02*
Y556134D01*
X1048385Y564770D02*
X1049401D01*
X1048893Y564262D02*
Y565278D01*
X1048385Y573914D02*
X1049401D01*
X1048893Y573406D02*
Y574422D01*
X1048385Y583058D02*
X1049401D01*
X1048893Y582550D02*
Y583566D01*
X1024257Y560198D02*
X1025273D01*
X1024765Y559690D02*
Y560706D01*
X1024257Y569342D02*
X1025273D01*
X1024765Y568834D02*
Y569850D01*
X1024257Y578486D02*
X1025273D01*
X1024765Y577978D02*
Y578994D01*
X1096583Y560198D02*
X1097599D01*
X1097091Y559690D02*
Y560706D01*
X1096583Y578486D02*
X1097599D01*
X1097091Y577978D02*
Y578994D01*
X1096583Y569342D02*
X1097599D01*
X1097091Y568834D02*
Y569850D01*
X1096583Y551054D02*
X1097599D01*
X1097091Y550546D02*
Y551562D01*
X1154621Y574058D02*
X1155637D01*
X1155129Y573550D02*
Y574566D01*
X1145373Y547126D02*
X1146389D01*
X1145881Y546618D02*
Y547634D01*
X911001Y546626D02*
X912017D01*
X911509Y546118D02*
Y547134D01*
X932420Y546626D02*
X933436D01*
X932928Y546118D02*
Y547134D01*
X924420Y546626D02*
X925436D01*
X924928Y546118D02*
Y547134D01*
X924420Y678960D02*
X925436D01*
X924928Y678452D02*
Y679468D01*
X881442Y734552D02*
X882458D01*
X881950Y734044D02*
Y735060D01*
X873442Y734552D02*
X874458D01*
X873950Y734044D02*
Y735060D01*
X932420Y678960D02*
X933436D01*
X932928Y678452D02*
Y679468D01*
X1034667Y734276D02*
X1035683D01*
X1035175Y733768D02*
Y734784D01*
X1026667Y734276D02*
X1027683D01*
X1027175Y733768D02*
Y734784D01*
X1002667Y734276D02*
X1003683D01*
X1003175Y733768D02*
Y734784D01*
X994667Y734276D02*
X995683D01*
X995175Y733768D02*
Y734784D01*
X986667Y734276D02*
X987683D01*
X987175Y733768D02*
Y734784D01*
X1155891Y582058D02*
X1156907D01*
X1156399Y581550D02*
Y582566D01*
X1155891Y557058D02*
X1156907D01*
X1156399Y556550D02*
Y557566D01*
X1153373Y547126D02*
X1154389D01*
X1153881Y546618D02*
Y547634D01*
X1014672Y588256D02*
X1015688D01*
X1015180Y587748D02*
Y588764D01*
X864173Y730120D02*
X865189D01*
X864681Y729612D02*
Y730628D01*
X864173Y714120D02*
X865189D01*
X864681Y713612D02*
Y714628D01*
X1154643Y679460D02*
X1155659D01*
X1155151Y678952D02*
Y679968D01*
X1155891Y688960D02*
X1156907D01*
X1156399Y688452D02*
Y689468D01*
X1154643Y723748D02*
X1155659D01*
X1155151Y723240D02*
Y724256D01*
X1155891Y714104D02*
X1156907D01*
X1156399Y713596D02*
Y714612D01*
X1030667Y532170D02*
X1031683D01*
X1031175Y531662D02*
Y532678D01*
X1022667Y532170D02*
X1023683D01*
X1023175Y531662D02*
Y532678D01*
X1014667Y532170D02*
X1015683D01*
X1015175Y531662D02*
Y532678D01*
X1006667Y532170D02*
X1007683D01*
X1007175Y531662D02*
Y532678D01*
X998667Y532170D02*
X999683D01*
X999175Y531662D02*
Y532678D01*
X990667Y532170D02*
X991683D01*
X991175Y531662D02*
Y532678D01*
X932751Y583058D02*
X933767D01*
X933259Y582550D02*
Y583566D01*
X932751Y573914D02*
X933767D01*
X933259Y573406D02*
Y574422D01*
X932751Y564770D02*
X933767D01*
X933259Y564262D02*
Y565278D01*
X932751Y555626D02*
X933767D01*
X933259Y555118D02*
Y556134D01*
X947359Y578486D02*
X948375D01*
X947867Y577978D02*
Y578994D01*
X947359Y569342D02*
X948375D01*
X947867Y568834D02*
Y569850D01*
X947359Y560198D02*
X948375D01*
X947867Y559690D02*
Y560706D01*
X947359Y551054D02*
X948375D01*
X947867Y550546D02*
Y551562D01*
X1088583Y578486D02*
X1089599D01*
X1089091Y577978D02*
Y578994D01*
X1088583Y569342D02*
X1089599D01*
X1089091Y568834D02*
Y569850D01*
X1088583Y560198D02*
X1089599D01*
X1089091Y559690D02*
Y560706D01*
X1088583Y551054D02*
X1089599D01*
X1089091Y550546D02*
Y551562D01*
X1073975Y583058D02*
X1074991D01*
X1074483Y582550D02*
Y583566D01*
X1073975Y573914D02*
X1074991D01*
X1074483Y573406D02*
Y574422D01*
X1073975Y564770D02*
X1074991D01*
X1074483Y564262D02*
Y565278D01*
X1073975Y555626D02*
X1074991D01*
X1074483Y555118D02*
Y556134D01*
X1088583Y710820D02*
X1089599D01*
X1089091Y710312D02*
Y711328D01*
X1088583Y701676D02*
X1089599D01*
X1089091Y701168D02*
Y702184D01*
X1088583Y692532D02*
X1089599D01*
X1089091Y692024D02*
Y693040D01*
X1088583Y683388D02*
X1089599D01*
X1089091Y682880D02*
Y683896D01*
X1073975Y715392D02*
X1074991D01*
X1074483Y714884D02*
Y715900D01*
X1073975Y706248D02*
X1074991D01*
X1074483Y705740D02*
Y706756D01*
X1073975Y697104D02*
X1074991D01*
X1074483Y696596D02*
Y697612D01*
X1073975Y687960D02*
X1074991D01*
X1074483Y687452D02*
Y688468D01*
X947359Y710820D02*
X948375D01*
X947867Y710312D02*
Y711328D01*
X947359Y701676D02*
X948375D01*
X947867Y701168D02*
Y702184D01*
X947359Y692532D02*
X948375D01*
X947867Y692024D02*
Y693040D01*
X947359Y683388D02*
X948375D01*
X947867Y682880D02*
Y683896D01*
X932751Y687960D02*
X933767D01*
X933259Y687452D02*
Y688468D01*
X932751Y697104D02*
X933767D01*
X933259Y696596D02*
Y697612D01*
X932751Y706248D02*
X933767D01*
X933259Y705740D02*
Y706756D01*
X932751Y715392D02*
X933767D01*
X933259Y714884D02*
Y715900D01*
X864173Y706120D02*
X865189D01*
X864681Y705612D02*
Y706628D01*
X864173Y722120D02*
X865189D01*
X864681Y721612D02*
Y722628D01*
X1022672Y588256D02*
X1023688D01*
X1023180Y587748D02*
Y588764D01*
X1146643Y679460D02*
X1147659D01*
X1147151Y678952D02*
Y679968D01*
X1146643Y723748D02*
X1147659D01*
X1147151Y723240D02*
Y724256D01*
X955359Y683388D02*
X956375D01*
X955867Y682880D02*
Y683896D01*
X955359Y692532D02*
X956375D01*
X955867Y692024D02*
Y693040D01*
X955359Y701676D02*
X956375D01*
X955867Y701168D02*
Y702184D01*
X955359Y710820D02*
X956375D01*
X955867Y710312D02*
Y711328D01*
X924751Y687960D02*
X925767D01*
X925259Y687452D02*
Y688468D01*
X924751Y697104D02*
X925767D01*
X925259Y696596D02*
Y697612D01*
X924751Y706248D02*
X925767D01*
X925259Y705740D02*
Y706756D01*
X924751Y715392D02*
X925767D01*
X925259Y714884D02*
Y715900D01*
X1155891Y696960D02*
X1156907D01*
X1156399Y696452D02*
Y697468D01*
X1155891Y706104D02*
X1156907D01*
X1156399Y705596D02*
Y706612D01*
X1065975Y687960D02*
X1066991D01*
X1066483Y687452D02*
Y688468D01*
X1065975Y697104D02*
X1066991D01*
X1066483Y696596D02*
Y697612D01*
X1065975Y706248D02*
X1066991D01*
X1066483Y705740D02*
Y706756D01*
X1065975Y715392D02*
X1066991D01*
X1066483Y714884D02*
Y715900D01*
X1096583Y683388D02*
X1097599D01*
X1097091Y682880D02*
Y683896D01*
X1096583Y692532D02*
X1097599D01*
X1097091Y692024D02*
Y693040D01*
X1096583Y710820D02*
X1097599D01*
X1097091Y710312D02*
Y711328D01*
X924751Y555626D02*
X925767D01*
X925259Y555118D02*
Y556134D01*
X924751Y564770D02*
X925767D01*
X925259Y564262D02*
Y565278D01*
X924751Y573914D02*
X925767D01*
X925259Y573406D02*
Y574422D01*
X924751Y583058D02*
X925767D01*
X925259Y582550D02*
Y583566D01*
X955359Y551054D02*
X956375D01*
X955867Y550546D02*
Y551562D01*
X955359Y560198D02*
X956375D01*
X955867Y559690D02*
Y560706D01*
X955359Y569342D02*
X956375D01*
X955867Y568834D02*
Y569850D01*
X955359Y578486D02*
X956375D01*
X955867Y577978D02*
Y578994D01*
X1065975Y555626D02*
X1066991D01*
X1066483Y555118D02*
Y556134D01*
X1065975Y564770D02*
X1066991D01*
X1066483Y564262D02*
Y565278D01*
X1065975Y573914D02*
X1066991D01*
X1066483Y573406D02*
Y574422D01*
X990667Y540170D02*
X991683D01*
X991175Y539662D02*
Y540678D01*
X998667Y540170D02*
X999683D01*
X999175Y539662D02*
Y540678D01*
X1006667Y540170D02*
X1007683D01*
X1007175Y539662D02*
Y540678D01*
X1014667Y540170D02*
X1015683D01*
X1015175Y539662D02*
Y540678D01*
X1030667Y540170D02*
X1031683D01*
X1031175Y539662D02*
Y540678D01*
X1022667Y540170D02*
X1023683D01*
X1023175Y539662D02*
Y540678D01*
X998667Y592828D02*
X999683D01*
X999175Y592320D02*
Y593336D01*
X1010667Y726466D02*
X1011683D01*
X1011175Y725958D02*
Y726974D01*
X1065975Y583058D02*
X1066991D01*
X1066483Y582550D02*
Y583566D01*
X986667Y726276D02*
X987683D01*
X987175Y725768D02*
Y726784D01*
X1002667Y726276D02*
X1003683D01*
X1003175Y725768D02*
Y726784D01*
X998166Y611286D02*
X999182D01*
X998674Y610778D02*
Y611794D01*
X1003168Y611286D02*
X1004184D01*
X1003676Y610778D02*
Y611794D01*
X1008166Y611286D02*
X1009182D01*
X1008674Y610778D02*
Y611794D01*
X1013168Y611286D02*
X1014184D01*
X1013676Y610778D02*
Y611794D01*
X1018169Y611286D02*
X1019185D01*
X1018677Y610778D02*
Y611794D01*
X1023168Y611286D02*
X1024184D01*
X1023676Y610778D02*
Y611794D01*
X1028169Y611286D02*
X1029185D01*
X1028677Y610778D02*
Y611794D01*
X1028169Y606287D02*
X1029185D01*
X1028677Y605779D02*
Y606795D01*
X1053168Y606287D02*
X1054184D01*
X1053676Y605779D02*
Y606795D01*
X1053168Y616287D02*
X1054184D01*
X1053676Y615779D02*
Y616795D01*
X1048169Y616287D02*
X1049185D01*
X1048677Y615779D02*
Y616795D01*
X1048169Y611286D02*
X1049185D01*
X1048677Y610778D02*
Y611794D01*
X1043168Y611286D02*
X1044184D01*
X1043676Y610778D02*
Y611794D01*
X1033168Y611286D02*
X1034184D01*
X1033676Y610778D02*
Y611794D01*
X1038169Y611286D02*
X1039185D01*
X1038677Y610778D02*
Y611794D01*
X741752Y613397D02*
X742768D01*
X742260Y612889D02*
Y613905D01*
X791819Y550260D02*
X792835D01*
X792327Y549752D02*
Y550768D01*
X507576Y577658D02*
X508592D01*
X508084Y577150D02*
Y578166D01*
X704606Y619808D02*
X705622D01*
X705114Y619300D02*
Y620316D01*
X770956Y524148D02*
X771972D01*
X771464Y523640D02*
Y524656D01*
X782817Y537958D02*
X783833D01*
X783325Y537450D02*
Y538466D01*
X680135Y707265D02*
X681151D01*
X680643Y706758D02*
Y707774D01*
X694385Y704016D02*
X695401D01*
X694893Y703508D02*
Y704523D01*
X648605Y697515D02*
X649621D01*
X649113Y697008D02*
Y698024D01*
X648605Y705640D02*
X649621D01*
X649113Y705133D02*
Y706149D01*
X665885Y713815D02*
X666901D01*
X666393Y713307D02*
Y714323D01*
X739385Y684673D02*
X740401D01*
X739893Y684165D02*
Y685181D01*
X704405Y685015D02*
X705421D01*
X704913Y684508D02*
Y685524D01*
X705885Y677974D02*
X706901D01*
X706393Y677466D02*
Y678482D01*
X712905Y685015D02*
X713921D01*
X713413Y684508D02*
Y685524D01*
X718385Y683649D02*
X719401D01*
X718894Y683141D02*
Y684157D01*
X704405Y694016D02*
X705421D01*
X704913Y693508D02*
Y694523D01*
X704405Y705575D02*
X705421D01*
X704913Y705068D02*
Y706084D01*
X704405Y714576D02*
X705421D01*
X704913Y714068D02*
Y715083D01*
X712905Y714576D02*
X713921D01*
X713413Y714068D02*
Y715083D01*
X720239Y714553D02*
X721255D01*
X720747Y714045D02*
Y715061D01*
X721155Y706575D02*
X722171D01*
X721663Y706068D02*
Y707084D01*
X726385Y698344D02*
X727401D01*
X726893Y697836D02*
Y698852D01*
X739385Y712016D02*
X740401D01*
X739893Y711507D02*
Y712523D01*
X667385Y677974D02*
X668401D01*
X667893Y677466D02*
Y678482D01*
X675385Y677974D02*
X676401D01*
X675893Y677466D02*
Y678482D01*
X690634Y667974D02*
X691650D01*
X691142Y667466D02*
Y668482D01*
X657055Y689016D02*
X658071D01*
X657563Y688508D02*
Y689523D01*
X657055Y681015D02*
X658071D01*
X657563Y680508D02*
Y681524D01*
X544458Y633441D02*
X545474D01*
X544966Y632933D02*
Y633949D01*
X756412Y619808D02*
X757428D01*
X756920Y619300D02*
Y620316D01*
X708086Y559018D02*
X709102D01*
X708594Y558510D02*
Y559526D01*
X751796Y606308D02*
X752812D01*
X752304Y605800D02*
Y606816D01*
X724416Y619808D02*
X725432D01*
X724924Y619300D02*
Y620316D01*
X574431Y591266D02*
X575447D01*
X574939Y590758D02*
Y591774D01*
X598561Y509298D02*
X599577D01*
X599069Y508790D02*
Y509806D01*
X711796Y593308D02*
X712812D01*
X712304Y592800D02*
Y593816D01*
X724416Y610808D02*
X725432D01*
X724924Y610300D02*
Y611316D01*
X626162Y589807D02*
X627178D01*
X626670Y589299D02*
Y590315D01*
X556202Y555658D02*
X557218D01*
X556710Y555150D02*
Y556166D01*
X564702Y555658D02*
X565718D01*
X565210Y555150D02*
Y556166D01*
X626162Y594807D02*
X627178D01*
X626670Y594299D02*
Y595315D01*
X511035Y659455D02*
X512051D01*
X511543Y658947D02*
Y659963D01*
X538035Y659455D02*
X539051D01*
X538543Y658947D02*
Y659963D01*
X565632Y627329D02*
X566648D01*
X566140Y626821D02*
Y627837D01*
X642681Y597807D02*
X643697D01*
X643189Y597299D02*
Y598315D01*
X757829Y583308D02*
X758845D01*
X758337Y582800D02*
Y583816D01*
X676046Y551258D02*
X677062D01*
X676554Y550750D02*
Y551766D01*
X684046Y536528D02*
X685062D01*
X684554Y536020D02*
Y537036D01*
X642681Y589807D02*
X643697D01*
X643189Y589299D02*
Y590315D01*
X607561Y509298D02*
X608577D01*
X608069Y508790D02*
Y509806D01*
X631661Y555706D02*
X632677D01*
X632169Y555198D02*
Y556214D01*
X728891Y545825D02*
X729907D01*
X729399Y545317D02*
Y546333D01*
X564702Y585218D02*
X565718D01*
X565210Y584710D02*
Y585726D01*
X556202Y585218D02*
X557218D01*
X556710Y584710D02*
Y585726D01*
X546182Y590158D02*
X547198D01*
X546690Y589650D02*
Y590666D01*
X574661Y582721D02*
X575677D01*
X575169Y582213D02*
Y583229D01*
X626162Y584807D02*
X627178D01*
X626670Y584299D02*
Y585315D01*
X575181Y545913D02*
X576197D01*
X575689Y545405D02*
Y546421D01*
X560632Y624281D02*
X561648D01*
X561140Y623773D02*
Y624789D01*
X582402Y622993D02*
X583418D01*
X582910Y622485D02*
Y623501D01*
X609411Y591266D02*
X610427D01*
X609919Y590758D02*
Y591774D01*
X600161Y536893D02*
X601177D01*
X600669Y536385D02*
Y537401D01*
X600161Y573496D02*
X601177D01*
X600669Y572988D02*
Y574004D01*
X575181Y554663D02*
X576197D01*
X575689Y554155D02*
Y555171D01*
X609411Y554663D02*
X610427D01*
X609919Y554155D02*
Y555171D01*
X555632Y641281D02*
X556648D01*
X556140Y640773D02*
Y641789D01*
X560632Y641281D02*
X561648D01*
X561140Y640773D02*
Y641789D01*
X555632Y624281D02*
X556648D01*
X556140Y623773D02*
Y624789D01*
X557640Y597403D02*
X558656D01*
X558148Y596895D02*
Y597911D01*
X561640Y614633D02*
X562656D01*
X562148Y614125D02*
Y615141D01*
X637447Y629855D02*
X638463D01*
X637955Y629347D02*
Y630363D01*
X620161Y611308D02*
X621177D01*
X620669Y610800D02*
Y611816D01*
X607447Y621855D02*
X608463D01*
X607955Y621347D02*
Y622363D01*
X682066Y576058D02*
X683082D01*
X682574Y575550D02*
Y576566D01*
X674566Y565538D02*
X675582D01*
X675074Y565030D02*
Y566046D01*
X660046Y604808D02*
X661062D01*
X660554Y604300D02*
Y605316D01*
X660046Y588808D02*
X661062D01*
X660554Y588300D02*
Y589316D01*
X657856Y565538D02*
X658872D01*
X658364Y565030D02*
Y566046D01*
X657856Y576058D02*
X658872D01*
X658364Y575550D02*
Y576566D01*
X546182Y574658D02*
X547198D01*
X546690Y574150D02*
Y575166D01*
X560452Y537913D02*
X561468D01*
X560960Y537405D02*
Y538421D01*
X546452Y537913D02*
X547468D01*
X546960Y537405D02*
Y538421D01*
X507576Y553008D02*
X508592D01*
X508084Y552500D02*
Y553516D01*
X515460Y579682D02*
X516476D01*
X515968Y579174D02*
Y580190D01*
X538182Y590158D02*
X539198D01*
X538690Y589650D02*
Y590666D01*
X544081Y623398D02*
X545097D01*
X544589Y622890D02*
Y623906D01*
X538458Y605383D02*
X539474D01*
X538966Y604875D02*
Y605891D01*
X556202Y576218D02*
X557218D01*
X556710Y575710D02*
Y576726D01*
X556202Y564658D02*
X557218D01*
X556710Y564150D02*
Y565166D01*
X531932Y561658D02*
X532948D01*
X532440Y561150D02*
Y562166D01*
X531932Y577658D02*
X532948D01*
X532440Y577150D02*
Y578166D01*
X704296Y566808D02*
X705312D01*
X704804Y566300D02*
Y567316D01*
X703796Y576808D02*
X704812D01*
X704304Y576300D02*
Y577316D01*
X712296Y566808D02*
X713312D01*
X712804Y566300D02*
Y567316D01*
X609411Y583266D02*
X610427D01*
X609919Y582758D02*
Y583774D01*
X609411Y546663D02*
X610427D01*
X609919Y546155D02*
Y547171D01*
X600161Y564496D02*
X601177D01*
X600669Y563988D02*
Y565004D01*
X600161Y527893D02*
X601177D01*
X600669Y527385D02*
Y528401D01*
X523632Y649330D02*
X524648D01*
X524140Y648822D02*
Y649838D01*
X509632Y649330D02*
X510648D01*
X510140Y648822D02*
Y649838D01*
X637197Y689575D02*
X638213D01*
X637705Y689067D02*
Y690083D01*
X630947Y679255D02*
X631963D01*
X631455Y678747D02*
Y679763D01*
X756412Y709432D02*
X757428D01*
X756920Y708924D02*
Y709940D01*
X568576Y714693D02*
X569592D01*
X569084Y714185D02*
Y715201D01*
X576326Y701943D02*
X577342D01*
X576834Y701435D02*
Y702451D01*
X618697Y716115D02*
X619713D01*
X619205Y715607D02*
Y716623D01*
X618197Y698425D02*
X619213D01*
X618705Y697917D02*
Y698933D01*
X637197Y697575D02*
X638213D01*
X637705Y697067D02*
Y698083D01*
X618197Y689575D02*
X619213D01*
X618705Y689067D02*
Y690083D01*
X751796Y598308D02*
X752812D01*
X752304Y597800D02*
Y598816D01*
X537506Y648983D02*
X538522D01*
X538014Y648475D02*
Y649491D01*
X595728Y703375D02*
X596744D01*
X596236Y702867D02*
Y703883D01*
X539242Y520700D02*
X540258D01*
X539750Y520192D02*
Y521208D01*
X531535Y677056D02*
X532551D01*
X532043Y676548D02*
Y677564D01*
X517535Y677056D02*
X518551D01*
X518043Y676548D02*
Y677564D01*
X736796Y558308D02*
X737812D01*
X737304Y557800D02*
Y558816D01*
X736796Y563308D02*
X737812D01*
X737304Y562800D02*
Y563816D01*
X711796Y578308D02*
X712812D01*
X712304Y577800D02*
Y578816D01*
X711796Y583308D02*
X712812D01*
X712304Y582800D02*
Y583816D01*
X731796Y583308D02*
X732812D01*
X732304Y582800D02*
Y583816D01*
X736796Y583308D02*
X737812D01*
X737304Y582800D02*
Y583816D01*
X736796Y578308D02*
X737812D01*
X737304Y577800D02*
Y578816D01*
X726796Y573308D02*
X727812D01*
X727304Y572800D02*
Y573816D01*
X721796Y573308D02*
X722812D01*
X722304Y572800D02*
Y573816D01*
X726796Y568308D02*
X727812D01*
X727304Y567800D02*
Y568816D01*
X721796Y568308D02*
X722812D01*
X722304Y567800D02*
Y568816D01*
X595728Y694875D02*
X596744D01*
X596236Y694367D02*
Y695383D01*
M02*
