G04*
G04 #@! TF.GenerationSoftware,Altium Limited,Altium Designer,24.3.1 (35)*
G04*
G04 Layer_Color=8388736*
%FSLAX44Y44*%
%MOMM*%
G71*
G04*
G04 #@! TF.SameCoordinates,35E8F126-3BB9-435E-BEC0-E910B6038B45*
G04*
G04*
G04 #@! TF.FilePolarity,Positive*
G04*
G01*
G75*
%ADD12C,0.1000*%
%ADD73C,0.0762*%
%ADD105C,0.0000*%
%ADD106C,0.0254*%
D12*
X679643Y693016D02*
G03*
X679643Y693016I-5000J0D01*
G01*
X531440Y563658D02*
G03*
X531440Y563658I-5000J0D01*
G01*
X665643Y714016D02*
X695643D01*
X665643Y684016D02*
X695643D01*
Y714016D01*
X665643Y684016D02*
Y714016D01*
X517440Y584658D02*
X547440D01*
X517440Y554658D02*
X547440D01*
Y584658D01*
X517440Y554658D02*
Y584658D01*
X916515Y602379D02*
X925614D01*
X916515Y616279D02*
X925614D01*
X916515Y602379D02*
Y616279D01*
X925614Y602379D02*
Y616279D01*
X625419Y582558D02*
Y597058D01*
X635419Y582558D02*
Y597058D01*
X625419Y582558D02*
X635419D01*
X625419Y597058D02*
X635419D01*
X692393Y665724D02*
Y680224D01*
X682393Y665724D02*
Y680224D01*
X692393D01*
X682393Y665724D02*
X692393D01*
X552640Y626531D02*
Y639031D01*
X569640Y626531D02*
Y639031D01*
X552640D02*
X569640D01*
X552640Y626531D02*
X569640D01*
X705054Y539316D02*
Y561316D01*
X732054Y539316D02*
Y561316D01*
X705054Y539316D02*
X732054D01*
X705054Y561316D02*
X732054D01*
D73*
X541727Y637671D02*
X533264Y629207D01*
X541727D02*
X533264Y637671D01*
X541727Y633439D02*
X533264D01*
X537495Y629207D02*
Y637671D01*
D105*
X529282Y638927D02*
G03*
X535378Y638927I3048J0D01*
G01*
D106*
X517343Y635981D02*
X523567D01*
X517343Y630901D02*
Y635981D01*
Y630901D02*
X523567D01*
Y635981D01*
X517343Y616981D02*
X523567D01*
X517343Y611901D02*
Y616981D01*
Y611901D02*
X523567D01*
Y616981D01*
X541092Y611901D02*
X547315D01*
Y616981D01*
X541092D02*
X547315D01*
X541092Y611901D02*
Y616981D01*
Y621401D02*
X547315D01*
Y626481D01*
X541092D02*
X547315D01*
X541092Y621401D02*
Y626481D01*
Y630901D02*
X547315D01*
Y635981D01*
X541092D02*
X547315D01*
X541092Y630901D02*
Y635981D01*
Y608955D02*
Y638927D01*
X523567D02*
X541092D01*
X523567Y608955D02*
Y638927D01*
Y608955D02*
X541092D01*
M02*
