G04*
G04 #@! TF.GenerationSoftware,Altium Limited,Altium Designer,24.3.1 (35)*
G04*
G04 Layer_Color=32896*
%FSLAX44Y44*%
%MOMM*%
G71*
G04*
G04 #@! TF.SameCoordinates,35E8F126-3BB9-435E-BEC0-E910B6038B45*
G04*
G04*
G04 #@! TF.FilePolarity,Positive*
G04*
G01*
G75*
%ADD12C,0.1000*%
%ADD15C,0.1270*%
G36*
X1059312Y671923D02*
Y664754D01*
X1052143Y671923D01*
X1059312D01*
D02*
G37*
D12*
X685393Y716516D02*
Y722515D01*
Y716516D02*
X696393D01*
X685393Y722515D02*
X696393D01*
Y716516D02*
Y722515D01*
X718663Y705076D02*
X724663D01*
X718663Y716076D02*
X724663D01*
Y705076D02*
Y716076D01*
X718663Y705076D02*
Y716076D01*
X634705Y688075D02*
X640705D01*
X634705Y699075D02*
X640705D01*
Y688075D02*
Y699075D01*
X634705Y688075D02*
Y699075D01*
X624704Y688924D02*
Y698924D01*
X629724D01*
Y688924D02*
Y698924D01*
X624704Y688924D02*
X629724D01*
X616204D02*
Y698924D01*
X621224D01*
Y688924D02*
Y698924D01*
X616204Y688924D02*
X621224D01*
X648956Y713613D02*
X658955D01*
X648956D02*
Y718633D01*
X658955D01*
Y713613D02*
Y718633D01*
X633456Y713613D02*
X643455D01*
X633456D02*
Y718633D01*
X643455D01*
Y713613D02*
Y718633D01*
X511598Y618941D02*
Y628941D01*
X506578Y618941D02*
X511598D01*
X506578D02*
Y628941D01*
X511598D01*
X568584Y708193D02*
X577584D01*
X568584Y721193D02*
X577584D01*
X568584Y708193D02*
Y721193D01*
X577584Y708193D02*
Y721193D01*
X746570Y547204D02*
X757570D01*
X746570Y541204D02*
X757570D01*
Y547204D01*
X746570Y541204D02*
Y547204D01*
X702412Y684515D02*
X707432D01*
Y694515D01*
X702412D02*
X707432D01*
X702412Y684515D02*
Y694515D01*
X710912Y684515D02*
X715932D01*
Y694515D01*
X710912D02*
X715932D01*
X710912Y684515D02*
Y694515D01*
X702412Y705075D02*
X707432D01*
Y715075D01*
X702412D02*
X707432D01*
X702412Y705075D02*
Y715075D01*
X710912Y705075D02*
X715932D01*
Y715075D01*
X710912D02*
X715932D01*
X710912Y705075D02*
Y715075D01*
X554209Y555157D02*
X559229D01*
Y565157D01*
X554209D02*
X559229D01*
X554209Y555157D02*
Y565157D01*
X562709Y555157D02*
X567729D01*
Y565157D01*
X562709D02*
X567729D01*
X562709Y555157D02*
Y565157D01*
X554209Y575717D02*
X559229D01*
Y585717D01*
X554209D02*
X559229D01*
X554209Y575717D02*
Y585717D01*
X562709Y575717D02*
X567729D01*
Y585717D01*
X562709D02*
X567729D01*
X562709Y575717D02*
Y585717D01*
X632373Y506780D02*
Y511799D01*
Y506780D02*
X642373D01*
Y511799D01*
X632373D02*
X642373D01*
X930046Y622330D02*
X935066D01*
X930046Y612330D02*
Y622330D01*
Y612330D02*
X935066D01*
Y622330D01*
X930046Y605830D02*
X935066D01*
X930046Y595830D02*
Y605830D01*
Y595830D02*
X935066D01*
Y605830D01*
X910565Y602828D02*
Y607848D01*
X900565D02*
X910565D01*
X900565Y602828D02*
Y607848D01*
Y602828D02*
X910565D01*
X737392Y684173D02*
X742412D01*
Y694172D01*
X737392D02*
X742412D01*
X737392Y684173D02*
Y694172D01*
Y702515D02*
X742412D01*
Y712515D01*
X737392D02*
X742412D01*
X737392Y702515D02*
Y712515D01*
X888619Y659636D02*
X893639D01*
Y669635D01*
X888619D02*
X893639D01*
X888619Y659636D02*
Y669635D01*
X598168Y563996D02*
X603188D01*
Y573996D01*
X598168D02*
X603188D01*
X598168Y563996D02*
Y573996D01*
Y581766D02*
X603188D01*
Y591766D01*
X598168D02*
X603188D01*
X598168Y581766D02*
Y591766D01*
X582419Y588747D02*
Y593767D01*
Y588747D02*
X592419D01*
Y593767D01*
X582419D02*
X592419D01*
X598569Y506780D02*
Y511799D01*
Y506780D02*
X608568D01*
Y511799D01*
X598569D02*
X608568D01*
X598168Y527393D02*
X603188D01*
Y537393D01*
X598168D02*
X603188D01*
X598168Y527393D02*
Y537393D01*
Y545163D02*
X603188D01*
Y555163D01*
X598168D02*
X603188D01*
X598168Y545163D02*
Y555163D01*
X583169Y552145D02*
Y557164D01*
Y552145D02*
X593168D01*
Y557164D01*
X583169D02*
X593168D01*
X1063216Y596287D02*
X1071215D01*
Y612288D01*
X1063216Y596287D02*
Y612288D01*
X1071215D01*
X1093213Y607288D02*
Y615287D01*
X1077212D02*
X1093213D01*
X1077212Y607288D02*
X1093213D01*
X1077212D02*
Y615287D01*
X909259Y552126D02*
Y559126D01*
Y552126D02*
X920259D01*
X909259Y559126D02*
X920259D01*
Y552126D02*
Y559126D01*
X909259Y561270D02*
Y568270D01*
Y561270D02*
X920259D01*
X909259Y568270D02*
X920259D01*
Y561270D02*
Y568270D01*
X909259Y570414D02*
Y577414D01*
Y570414D02*
X920259D01*
X909259Y577414D02*
X920259D01*
Y570414D02*
Y577414D01*
X909259Y579558D02*
Y586558D01*
Y579558D02*
X920259D01*
X909259Y586558D02*
X920259D01*
Y579558D02*
Y586558D01*
X909259Y543126D02*
Y550126D01*
Y543126D02*
X920259D01*
X909259Y550126D02*
X920259D01*
Y543126D02*
Y550126D01*
X871934Y542614D02*
X878934D01*
X871934Y531614D02*
Y542614D01*
X878934Y531614D02*
Y542614D01*
X871934Y531614D02*
X878934D01*
X876086Y546626D02*
Y553626D01*
X865086D02*
X876086D01*
X865086Y546626D02*
X876086D01*
X865086D02*
Y553626D01*
X876086Y555626D02*
Y562626D01*
X865086D02*
X876086D01*
X865086Y555626D02*
X876086D01*
X865086D02*
Y562626D01*
X999180Y552126D02*
Y559126D01*
Y552126D02*
X1010180D01*
X999180Y559126D02*
X1010180D01*
Y552126D02*
Y559126D01*
X999180Y561270D02*
Y568270D01*
Y561270D02*
X1010180D01*
X999180Y568270D02*
X1010180D01*
Y561270D02*
Y568270D01*
X999180Y570414D02*
Y577414D01*
Y570414D02*
X1010180D01*
X999180Y577414D02*
X1010180D01*
Y570414D02*
Y577414D01*
X999175Y579558D02*
Y586558D01*
Y579558D02*
X1010175D01*
X999175Y586558D02*
X1010175D01*
Y579558D02*
Y586558D01*
X971867Y547554D02*
Y554554D01*
X960867D02*
X971867D01*
X960867Y547554D02*
X971867D01*
X960867D02*
Y554554D01*
X971867Y556698D02*
Y563698D01*
X960867D02*
X971867D01*
X960867Y556698D02*
X971867D01*
X960867D02*
Y563698D01*
X971867Y565842D02*
Y572842D01*
X960867D02*
X971867D01*
X960867Y565842D02*
X971867D01*
X960867D02*
Y572842D01*
X971867Y574986D02*
Y581986D01*
X960867D02*
X971867D01*
X960867Y574986D02*
X971867D01*
X960867D02*
Y581986D01*
X1050483Y552126D02*
Y559126D01*
Y552126D02*
X1061483D01*
X1050483Y559126D02*
X1061483D01*
Y552126D02*
Y559126D01*
X1050483Y561270D02*
Y568270D01*
Y561270D02*
X1061483D01*
X1050483Y568270D02*
X1061483D01*
Y561270D02*
Y568270D01*
X1050483Y570414D02*
Y577414D01*
Y570414D02*
X1061483D01*
X1050483Y577414D02*
X1061483D01*
Y570414D02*
Y577414D01*
X1050483Y579558D02*
Y586558D01*
Y579558D02*
X1061483D01*
X1050483Y586558D02*
X1061483D01*
Y579558D02*
Y586558D01*
X1023180Y547554D02*
Y554554D01*
X1012180D02*
X1023180D01*
X1012180Y547554D02*
X1023180D01*
X1012180D02*
Y554554D01*
X1023180Y556698D02*
Y563698D01*
X1012180D02*
X1023180D01*
X1012180Y556698D02*
X1023180D01*
X1012180D02*
Y563698D01*
X1023180Y565842D02*
Y572842D01*
X1012180D02*
X1023180D01*
X1012180Y565842D02*
X1023180D01*
X1012180D02*
Y572842D01*
X1023180Y574986D02*
Y581986D01*
X1012180D02*
X1023180D01*
X1012180Y574986D02*
X1023180D01*
X1012180D02*
Y581986D01*
X1140399Y552126D02*
Y559126D01*
Y552126D02*
X1151399D01*
X1140399Y559126D02*
X1151399D01*
Y552126D02*
Y559126D01*
X1140399Y561270D02*
Y568270D01*
Y561270D02*
X1151399D01*
X1140399Y568270D02*
X1151399D01*
Y561270D02*
Y568270D01*
X1140399Y570414D02*
Y577414D01*
Y570414D02*
X1151399D01*
X1140399Y577414D02*
X1151399D01*
Y570414D02*
Y577414D01*
X1140399Y579558D02*
Y586558D01*
Y579558D02*
X1151399D01*
X1140399Y586558D02*
X1151399D01*
Y579558D02*
Y586558D01*
X1113091Y547554D02*
Y554554D01*
X1102091D02*
X1113091D01*
X1102091Y547554D02*
X1113091D01*
X1102091D02*
Y554554D01*
X1113091Y556698D02*
Y563698D01*
X1102091D02*
X1113091D01*
X1102091Y556698D02*
X1113091D01*
X1102091D02*
Y563698D01*
X1113091Y565842D02*
Y572842D01*
X1102091D02*
X1113091D01*
X1102091Y565842D02*
X1113091D01*
X1102091D02*
Y572842D01*
X1113091Y574986D02*
Y581986D01*
X1102091D02*
X1113091D01*
X1102091Y574986D02*
X1113091D01*
X1102091D02*
Y581986D01*
X909259Y684460D02*
Y691460D01*
Y684460D02*
X920259D01*
X909259Y691460D02*
X920259D01*
Y684460D02*
Y691460D01*
X909259Y693604D02*
Y700604D01*
Y693604D02*
X920259D01*
X909259Y700604D02*
X920259D01*
Y693604D02*
Y700604D01*
X909259Y702748D02*
Y709748D01*
Y702748D02*
X920259D01*
X909259Y709748D02*
X920259D01*
Y702748D02*
Y709748D01*
X909259Y711892D02*
Y718892D01*
Y711892D02*
X920259D01*
X909259Y718892D02*
X920259D01*
Y711892D02*
Y718892D01*
X909259Y675460D02*
Y682460D01*
Y675460D02*
X920259D01*
X909259Y682460D02*
X920259D01*
Y675460D02*
Y682460D01*
X880680Y703282D02*
Y710282D01*
X869680D02*
X880680D01*
X869680Y703282D02*
X880680D01*
X869680D02*
Y710282D01*
X880680Y712282D02*
Y719282D01*
X869680D02*
X880680D01*
X869680Y712282D02*
X880680D01*
X869680D02*
Y719282D01*
X880680Y721282D02*
Y728282D01*
X869680D02*
X880680D01*
X869680Y721282D02*
X880680D01*
X869680D02*
Y728282D01*
X999175Y684460D02*
Y691460D01*
Y684460D02*
X1010175D01*
X999175Y691460D02*
X1010175D01*
Y684460D02*
Y691460D01*
X999175Y693604D02*
Y700604D01*
Y693604D02*
X1010175D01*
X999175Y700604D02*
X1010175D01*
Y693604D02*
Y700604D01*
X999175Y702748D02*
Y709748D01*
Y702748D02*
X1010175D01*
X999175Y709748D02*
X1010175D01*
Y702748D02*
Y709748D01*
X999175Y711892D02*
Y718892D01*
Y711892D02*
X1010175D01*
X999175Y718892D02*
X1010175D01*
Y711892D02*
Y718892D01*
X971867Y679888D02*
Y686888D01*
X960867D02*
X971867D01*
X960867Y679888D02*
X971867D01*
X960867D02*
Y686888D01*
X971867Y689032D02*
Y696032D01*
X960867D02*
X971867D01*
X960867Y689032D02*
X971867D01*
X960867D02*
Y696032D01*
X971867Y698176D02*
Y705176D01*
X960867D02*
X971867D01*
X960867Y698176D02*
X971867D01*
X960867D02*
Y705176D01*
X971867Y707320D02*
Y714320D01*
X960867D02*
X971867D01*
X960867Y707320D02*
X971867D01*
X960867D02*
Y714320D01*
X1050483Y684460D02*
Y691460D01*
Y684460D02*
X1061483D01*
X1050483Y691460D02*
X1061483D01*
Y684460D02*
Y691460D01*
X1050483Y693604D02*
Y700604D01*
Y693604D02*
X1061483D01*
X1050483Y700604D02*
X1061483D01*
Y693604D02*
Y700604D01*
X1050483Y702748D02*
Y709748D01*
Y702748D02*
X1061483D01*
X1050483Y709748D02*
X1061483D01*
Y702748D02*
Y709748D01*
X1050483Y711892D02*
Y718892D01*
Y711892D02*
X1061483D01*
X1050483Y718892D02*
X1061483D01*
Y711892D02*
Y718892D01*
X1023175Y679888D02*
Y686888D01*
X1012175D02*
X1023175D01*
X1012175Y679888D02*
X1023175D01*
X1012175D02*
Y686888D01*
X1023175Y689032D02*
Y696032D01*
X1012175D02*
X1023175D01*
X1012175Y689032D02*
X1023175D01*
X1012175D02*
Y696032D01*
X1023175Y698176D02*
Y705176D01*
X1012175D02*
X1023175D01*
X1012175Y698176D02*
X1023175D01*
X1012175D02*
Y705176D01*
X1023175Y707320D02*
Y714320D01*
X1012175D02*
X1023175D01*
X1012175Y707320D02*
X1023175D01*
X1012175D02*
Y714320D01*
X1140399Y684460D02*
Y691460D01*
Y684460D02*
X1151399D01*
X1140399Y691460D02*
X1151399D01*
Y684460D02*
Y691460D01*
X1140399Y693604D02*
Y700604D01*
Y693604D02*
X1151399D01*
X1140399Y700604D02*
X1151399D01*
Y693604D02*
Y700604D01*
X1140399Y702748D02*
Y709748D01*
Y702748D02*
X1151399D01*
X1140399Y709748D02*
X1151399D01*
Y702748D02*
Y709748D01*
X1140399Y711748D02*
Y718748D01*
Y711748D02*
X1151399D01*
X1140399Y718748D02*
X1151399D01*
Y711748D02*
Y718748D01*
X1113091Y679888D02*
Y686888D01*
X1102091D02*
X1113091D01*
X1102091Y679888D02*
X1113091D01*
X1102091D02*
Y686888D01*
X1113091Y689032D02*
Y696032D01*
X1102091D02*
X1113091D01*
X1102091Y689032D02*
X1113091D01*
X1102091D02*
Y696032D01*
X1113091Y698176D02*
Y705176D01*
X1102091D02*
X1113091D01*
X1102091Y698176D02*
X1113091D01*
X1102091D02*
Y705176D01*
X1113091Y707320D02*
Y714320D01*
X1102091D02*
X1113091D01*
X1102091Y707320D02*
X1113091D01*
X1102091D02*
Y714320D01*
X923759Y552626D02*
X934759D01*
X923759Y558626D02*
X934759D01*
X923759Y552626D02*
Y558626D01*
X934759Y552626D02*
Y558626D01*
X923759Y561770D02*
X934759D01*
X923759Y567770D02*
X934759D01*
X923759Y561770D02*
Y567770D01*
X934759Y561770D02*
Y567770D01*
X923759Y570914D02*
X934759D01*
X923759Y576914D02*
X934759D01*
X923759Y570914D02*
Y576914D01*
X934759Y570914D02*
Y576914D01*
X923759Y580058D02*
X934759D01*
X923759Y586058D02*
X934759D01*
X923759Y580058D02*
Y586058D01*
X934759Y580058D02*
Y586058D01*
X923759Y543626D02*
X934759D01*
X923759Y549626D02*
X934759D01*
X923759Y543626D02*
Y549626D01*
X934759Y543626D02*
Y549626D01*
X897812Y525010D02*
Y536010D01*
X903812Y525010D02*
Y536010D01*
X897812D02*
X903812D01*
X897812Y525010D02*
X903812D01*
X889812D02*
Y536010D01*
X895812Y525010D02*
Y536010D01*
X889812D02*
X895812D01*
X889812Y525010D02*
X895812D01*
X881812D02*
Y536010D01*
X887812Y525010D02*
Y536010D01*
X881812D02*
X887812D01*
X881812Y525010D02*
X887812D01*
X988175Y530670D02*
Y541670D01*
X994175Y530670D02*
Y541670D01*
X988175D02*
X994175D01*
X988175Y530670D02*
X994175D01*
X996175D02*
Y541670D01*
X1002175Y530670D02*
Y541670D01*
X996175D02*
X1002175D01*
X996175Y530670D02*
X1002175D01*
X1004175D02*
Y541670D01*
X1010175Y530670D02*
Y541670D01*
X1004175D02*
X1010175D01*
X1004175Y530670D02*
X1010175D01*
X997675Y589828D02*
X1008675D01*
X997675Y595828D02*
X1008675D01*
X997675Y589828D02*
Y595828D01*
X1008675Y589828D02*
Y595828D01*
X946367Y554054D02*
X957367D01*
X946367Y548054D02*
X957367D01*
Y554054D01*
X946367Y548054D02*
Y554054D01*
Y563198D02*
X957367D01*
X946367Y557198D02*
X957367D01*
Y563198D01*
X946367Y557198D02*
Y563198D01*
Y572342D02*
X957367D01*
X946367Y566342D02*
X957367D01*
Y572342D01*
X946367Y566342D02*
Y572342D01*
Y581486D02*
X957367D01*
X946367Y575486D02*
X957367D01*
Y581486D01*
X946367Y575486D02*
Y581486D01*
X1064983Y552626D02*
X1075983D01*
X1064983Y558626D02*
X1075983D01*
X1064983Y552626D02*
Y558626D01*
X1075983Y552626D02*
Y558626D01*
X1064983Y561770D02*
X1075983D01*
X1064983Y567770D02*
X1075983D01*
X1064983Y561770D02*
Y567770D01*
X1075983Y561770D02*
Y567770D01*
X1064983Y570914D02*
X1075983D01*
X1064983Y576914D02*
X1075983D01*
X1064983Y570914D02*
Y576914D01*
X1075983Y570914D02*
Y576914D01*
X1064983Y580058D02*
X1075983D01*
X1064983Y586058D02*
X1075983D01*
X1064983Y580058D02*
Y586058D01*
X1075983Y580058D02*
Y586058D01*
X1028175Y530670D02*
Y541670D01*
X1034175Y530670D02*
Y541670D01*
X1028175D02*
X1034175D01*
X1028175Y530670D02*
X1034175D01*
X1020175D02*
Y541670D01*
X1026175Y530670D02*
Y541670D01*
X1020175D02*
X1026175D01*
X1020175Y530670D02*
X1026175D01*
X1012175D02*
Y541670D01*
X1018175Y530670D02*
Y541670D01*
X1012175D02*
X1018175D01*
X1012175Y530670D02*
X1018175D01*
X1013680Y591256D02*
X1024680D01*
X1013680Y585256D02*
X1024680D01*
Y591256D01*
X1013680Y585256D02*
Y591256D01*
X1144381Y544126D02*
X1155381D01*
X1144381Y550126D02*
X1155381D01*
X1144381Y544126D02*
Y550126D01*
X1155381Y544126D02*
Y550126D01*
X1153399Y555270D02*
Y566270D01*
X1159399Y555270D02*
Y566270D01*
X1153399D02*
X1159399D01*
X1153399Y555270D02*
X1159399D01*
X1159399Y572558D02*
Y583558D01*
X1153399Y572558D02*
Y583558D01*
Y572558D02*
X1159399D01*
X1153399Y583558D02*
X1159399D01*
X1145651Y588558D02*
X1156651D01*
X1145651Y594558D02*
X1156651D01*
X1145651Y588558D02*
Y594558D01*
X1156651Y588558D02*
Y594558D01*
X1087591Y554054D02*
X1098591D01*
X1087591Y548054D02*
X1098591D01*
Y554054D01*
X1087591Y548054D02*
Y554054D01*
Y563198D02*
X1098591D01*
X1087591Y557198D02*
X1098591D01*
Y563198D01*
X1087591Y557198D02*
Y563198D01*
Y572342D02*
X1098591D01*
X1087591Y566342D02*
X1098591D01*
Y572342D01*
X1087591Y566342D02*
Y572342D01*
Y581486D02*
X1098591D01*
X1087591Y575486D02*
X1098591D01*
Y581486D01*
X1087591Y575486D02*
Y581486D01*
X923759Y684960D02*
X934759D01*
X923759Y690960D02*
X934759D01*
X923759Y684960D02*
Y690960D01*
X934759Y684960D02*
Y690960D01*
X923759Y694104D02*
X934759D01*
X923759Y700104D02*
X934759D01*
X923759Y694104D02*
Y700104D01*
X934759Y694104D02*
Y700104D01*
X923759Y703248D02*
X934759D01*
X923759Y709248D02*
X934759D01*
X923759Y703248D02*
Y709248D01*
X934759Y703248D02*
Y709248D01*
X923759Y712392D02*
X934759D01*
X923759Y718392D02*
X934759D01*
X923759Y712392D02*
Y718392D01*
X934759Y712392D02*
Y718392D01*
X923759Y675960D02*
X934759D01*
X923759Y681960D02*
X934759D01*
X923759Y675960D02*
Y681960D01*
X934759Y675960D02*
Y681960D01*
X867681Y704620D02*
Y715620D01*
X861681Y704620D02*
Y715620D01*
Y704620D02*
X867681D01*
X861681Y715620D02*
X867681D01*
Y720620D02*
Y731620D01*
X861681Y720620D02*
Y731620D01*
Y720620D02*
X867681D01*
X861681Y731620D02*
X867681D01*
X872450Y737552D02*
X883450D01*
X872450Y731552D02*
X883450D01*
Y737552D01*
X872450Y731552D02*
Y737552D01*
X997675Y676388D02*
X1008675D01*
X997675Y682388D02*
X1008675D01*
X997675Y676388D02*
Y682388D01*
X1008675Y676388D02*
Y682388D01*
X1006175Y724776D02*
Y735776D01*
X1000175Y724776D02*
Y735776D01*
Y724776D02*
X1006175D01*
X1000175Y735776D02*
X1006175D01*
X998175Y724776D02*
Y735776D01*
X992175Y724776D02*
Y735776D01*
Y724776D02*
X998175D01*
X992175Y735776D02*
X998175D01*
X990175Y724776D02*
Y735776D01*
X984175Y724776D02*
Y735776D01*
Y724776D02*
X990175D01*
X984175Y735776D02*
X990175D01*
X946367Y686388D02*
X957367D01*
X946367Y680388D02*
X957367D01*
Y686388D01*
X946367Y680388D02*
Y686388D01*
Y695532D02*
X957367D01*
X946367Y689532D02*
X957367D01*
Y695532D01*
X946367Y689532D02*
Y695532D01*
X946367Y704676D02*
X957367D01*
X946367Y698676D02*
X957367D01*
Y704676D01*
X946367Y698676D02*
Y704676D01*
Y713820D02*
X957367D01*
X946367Y707820D02*
X957367D01*
Y713820D01*
X946367Y707820D02*
Y713820D01*
X1064983Y684960D02*
X1075983D01*
X1064983Y690960D02*
X1075983D01*
X1064983Y684960D02*
Y690960D01*
X1075983Y684960D02*
Y690960D01*
X1064983Y694104D02*
X1075983D01*
X1064983Y700104D02*
X1075983D01*
X1064983Y694104D02*
Y700104D01*
X1075983Y694104D02*
Y700104D01*
X1064983Y703248D02*
X1075983D01*
X1064983Y709248D02*
X1075983D01*
X1064983Y703248D02*
Y709248D01*
X1075983Y703248D02*
Y709248D01*
X1064983Y712392D02*
X1075983D01*
X1064983Y718392D02*
X1075983D01*
X1064983Y712392D02*
Y718392D01*
X1075983Y712392D02*
Y718392D01*
X1014175Y724776D02*
Y735776D01*
X1008175Y724776D02*
Y735776D01*
Y724776D02*
X1014175D01*
X1008175Y735776D02*
X1014175D01*
X1022175Y724776D02*
Y735776D01*
X1016175Y724776D02*
Y735776D01*
Y724776D02*
X1022175D01*
X1016175Y735776D02*
X1022175D01*
X1030175Y724776D02*
Y735776D01*
X1024175Y724776D02*
Y735776D01*
Y724776D02*
X1030175D01*
X1024175Y735776D02*
X1030175D01*
X1038175Y724776D02*
Y735776D01*
X1032175Y724776D02*
Y735776D01*
Y724776D02*
X1038175D01*
X1032175Y735776D02*
X1038175D01*
X1145651Y676460D02*
X1156651D01*
X1145651Y682460D02*
X1156651D01*
X1145651Y676460D02*
Y682460D01*
X1156651Y676460D02*
Y682460D01*
X1153399Y687460D02*
Y698460D01*
X1159399Y687460D02*
Y698460D01*
X1153399D02*
X1159399D01*
X1153399Y687460D02*
X1159399D01*
X1159399Y704604D02*
Y715604D01*
X1153399Y704604D02*
Y715604D01*
Y704604D02*
X1159399D01*
X1153399Y715604D02*
X1159399D01*
X1145651Y720748D02*
X1156651D01*
X1145651Y726748D02*
X1156651D01*
X1145651Y720748D02*
Y726748D01*
X1156651Y720748D02*
Y726748D01*
X1087591Y686388D02*
X1098591D01*
X1087591Y680388D02*
X1098591D01*
Y686388D01*
X1087591Y680388D02*
Y686388D01*
Y695532D02*
X1098591D01*
X1087591Y689532D02*
X1098591D01*
Y695532D01*
X1087591Y689532D02*
Y695532D01*
Y704820D02*
X1098591D01*
X1087591Y698820D02*
X1098591D01*
Y704820D01*
X1087591Y698820D02*
Y704820D01*
Y713820D02*
X1098591D01*
X1087591Y707820D02*
X1098591D01*
Y713820D01*
X1087591Y707820D02*
Y713820D01*
X954174Y603287D02*
X965174D01*
X954174Y609287D02*
X965174D01*
X954174Y603287D02*
Y609287D01*
X965174Y603287D02*
Y609287D01*
X1039177Y599299D02*
X1050177D01*
X1039177Y593299D02*
X1050177D01*
Y599299D01*
X1039177Y593299D02*
Y599299D01*
X981675Y593294D02*
X992675D01*
X981675Y599294D02*
X992675D01*
X981675Y593294D02*
Y599294D01*
X992675Y593294D02*
Y599294D01*
X660563Y679516D02*
Y690516D01*
X654563Y679516D02*
Y690516D01*
Y679516D02*
X660563D01*
X654563Y690516D02*
X660563D01*
X660563Y696015D02*
Y707016D01*
X654563Y696015D02*
Y707016D01*
Y696015D02*
X660563D01*
X654563Y707016D02*
X660563D01*
X537190Y587158D02*
X548190D01*
X537190Y593158D02*
X548190D01*
X537190Y587158D02*
Y593158D01*
X548190Y587158D02*
Y593158D01*
X511084Y551508D02*
Y562508D01*
X505084Y551508D02*
Y562508D01*
Y551508D02*
X511084D01*
X505084Y562508D02*
X511084D01*
Y568158D02*
Y579158D01*
X505084Y568158D02*
Y579158D01*
Y568158D02*
X511084D01*
X505084Y579158D02*
X511084D01*
X734304Y555308D02*
Y566308D01*
X740304Y555308D02*
Y566308D01*
X734304D02*
X740304D01*
X734304Y555308D02*
X740304D01*
X742304D02*
Y566308D01*
X748304Y555308D02*
Y566308D01*
X742304D02*
X748304D01*
X742304Y555308D02*
X748304D01*
X693804Y552808D02*
Y563808D01*
X699804Y552808D02*
Y563808D01*
X693804D02*
X699804D01*
X693804Y552808D02*
X699804D01*
X752170Y658000D02*
X761670D01*
X752170Y675500D02*
X761670D01*
Y658000D02*
Y675500D01*
X752170Y658000D02*
Y675500D01*
X741828Y575308D02*
Y586308D01*
X735828Y575308D02*
Y586308D01*
Y575308D02*
X741828D01*
X735828Y586308D02*
X741828D01*
X715304Y575308D02*
Y586308D01*
X709304Y575308D02*
Y586308D01*
Y575308D02*
X715304D01*
X709304Y586308D02*
X715304D01*
X617205Y713115D02*
X628205D01*
X617205Y719115D02*
X628205D01*
X617205Y713115D02*
Y719115D01*
X628205Y713115D02*
Y719115D01*
X599236Y693367D02*
Y704367D01*
X593236Y693367D02*
Y704367D01*
Y693367D02*
X599236D01*
X593236Y704367D02*
X599236D01*
X652113Y696015D02*
Y707016D01*
X646113Y696015D02*
Y707016D01*
Y696015D02*
X652113D01*
X646113Y707016D02*
X652113D01*
X707304Y575308D02*
Y586308D01*
X701304Y575308D02*
Y586308D01*
Y575308D02*
X707304D01*
X701304Y586308D02*
X707304D01*
X646189Y588307D02*
Y599307D01*
X640189Y588307D02*
Y599307D01*
Y588307D02*
X646189D01*
X640189Y599307D02*
X646189D01*
X703304Y563808D02*
X714304D01*
X703304Y569808D02*
X714304D01*
X703304Y563808D02*
Y569808D01*
X714304Y563808D02*
Y569808D01*
X666393Y680974D02*
X677393D01*
X666393Y674974D02*
X677393D01*
Y680974D01*
X666393Y674974D02*
Y680974D01*
X578169Y581221D02*
Y592221D01*
X572169Y581221D02*
Y592221D01*
Y581221D02*
X578169D01*
X572169Y592221D02*
X578169D01*
X719304Y569808D02*
X730304D01*
X719304Y563808D02*
X730304D01*
Y569808D01*
X719304Y563808D02*
Y569808D01*
X578689Y544413D02*
Y555413D01*
X572689Y544413D02*
Y555413D01*
Y544413D02*
X578689D01*
X572689Y555413D02*
X578689D01*
X719304Y571808D02*
X730304D01*
X719304Y577808D02*
X730304D01*
X719304Y571808D02*
Y577808D01*
X730304Y571808D02*
Y577808D01*
X727828Y581308D02*
Y592308D01*
X733828Y581308D02*
Y592308D01*
X727828D02*
X733828D01*
X727828Y581308D02*
X733828D01*
X749304Y596808D02*
Y607808D01*
X755304Y596808D02*
Y607808D01*
X749304D02*
X755304D01*
X749304Y596808D02*
X755304D01*
X735804Y539046D02*
X746804D01*
X735804Y533046D02*
X746804D01*
Y539046D01*
X735804Y533046D02*
Y539046D01*
X709304Y591808D02*
Y602808D01*
X715304Y591808D02*
Y602808D01*
X709304D02*
X715304D01*
X709304Y591808D02*
X715304D01*
X693804Y536458D02*
Y547458D01*
X699804Y536458D02*
Y547458D01*
X693804D02*
X699804D01*
X693804Y536458D02*
X699804D01*
D15*
X968674Y601286D02*
Y671288D01*
X1058677D01*
Y601286D02*
Y671288D01*
X968674Y601286D02*
X1058677D01*
M02*
