G04*
G04 #@! TF.GenerationSoftware,Altium Limited,Altium Designer,24.3.1 (35)*
G04*
G04 Layer_Color=16711935*
%FSLAX44Y44*%
%MOMM*%
G71*
G04*
G04 #@! TF.SameCoordinates,35E8F126-3BB9-435E-BEC0-E910B6038B45*
G04*
G04*
G04 #@! TF.FilePolarity,Positive*
G04*
G01*
G75*
%ADD12C,0.1000*%
%ADD14C,0.2540*%
%ADD15C,0.1270*%
%ADD104C,0.1001*%
D12*
X623455Y634855D02*
G03*
X623455Y634855I-4000J0D01*
G01*
X728643Y687927D02*
G03*
X728643Y687927I-5000J0D01*
G01*
X635705Y541578D02*
G03*
X635705Y541578I-5000J0D01*
G01*
X703804Y596807D02*
G03*
X703804Y596807I-5000J0D01*
G01*
X686554Y586808D02*
Y606808D01*
X674554Y586808D02*
Y606808D01*
X686554D01*
X674554Y586808D02*
X686554D01*
X772470Y565005D02*
Y579505D01*
X782470Y565005D02*
Y579505D01*
X772470D02*
X782470D01*
X772470Y565005D02*
X782470D01*
X782470Y585045D02*
Y599544D01*
X772470Y585045D02*
Y599544D01*
Y585045D02*
X782470D01*
X772470Y599544D02*
X782470D01*
X643205Y693925D02*
Y711425D01*
X613205Y693925D02*
X643205D01*
X613205Y711425D02*
X643205D01*
X613205Y693925D02*
Y711425D01*
X745643Y678927D02*
Y709927D01*
X714643Y678927D02*
Y709927D01*
X745643D01*
X714643Y678927D02*
X745643D01*
X580419Y567266D02*
Y596266D01*
X596419Y567266D02*
Y596266D01*
X580419D02*
X596419D01*
X580419Y567266D02*
X596419D01*
X621705Y517278D02*
Y550578D01*
X654505Y517278D02*
Y550578D01*
X621705D02*
X654505D01*
X621705Y517278D02*
X654505D01*
X580419Y530663D02*
Y559663D01*
X596419Y530663D02*
Y559663D01*
X580419D02*
X596419D01*
X580419Y530663D02*
X596419D01*
X689805Y605807D02*
X759805D01*
Y535807D02*
Y605807D01*
X689805Y535807D02*
X759805D01*
X689805D02*
Y605807D01*
X565098Y598833D02*
Y607933D01*
X551198Y598833D02*
Y607933D01*
X565098D01*
X551198Y598833D02*
X565098D01*
X668054Y540758D02*
X678054D01*
X668054Y545758D02*
X678054D01*
Y540758D02*
Y545758D01*
X668054Y540758D02*
Y545758D01*
X754170Y708182D02*
Y718682D01*
X759670Y708182D02*
Y718682D01*
X754170Y708182D02*
X759670D01*
X754170Y718682D02*
X759670D01*
X770665Y707960D02*
Y718460D01*
X776165Y707960D02*
Y718460D01*
X770665Y707960D02*
X776165D01*
X770665Y718460D02*
X776165D01*
X784889Y707960D02*
Y718460D01*
X790389Y707960D02*
Y718460D01*
X784889Y707960D02*
X790389D01*
X784889Y718460D02*
X790389D01*
X529405Y710498D02*
Y720998D01*
X534905Y710498D02*
Y720998D01*
X529405Y710498D02*
X534905D01*
X529405Y720998D02*
X534905D01*
X515181Y710498D02*
Y720998D01*
X520681Y710498D02*
Y720998D01*
X515181Y710498D02*
X520681D01*
X515181Y720998D02*
X520681D01*
D14*
X755652Y421007D02*
Y455297D01*
Y421007D02*
X762002D01*
Y412752D02*
Y421007D01*
Y412752D02*
X812802D01*
Y421007D01*
X819152D01*
Y455297D01*
X812802D02*
X819152D01*
X812802D02*
Y463552D01*
X762002D02*
X812802D01*
X762002Y455297D02*
Y463552D01*
X755652Y455297D02*
X762002D01*
D15*
X672824Y578808D02*
X684824D01*
X672824Y562808D02*
X684824D01*
Y578808D01*
X672824Y562808D02*
Y578808D01*
D104*
X712300Y419100D02*
Y444500D01*
X533400Y419100D02*
X712300D01*
X533400D02*
Y444500D01*
X712300D01*
M02*
