G04*
G04 #@! TF.GenerationSoftware,Altium Limited,Altium Designer,24.3.1 (35)*
G04*
G04 Layer_Color=32896*
%FSLAX44Y44*%
%MOMM*%
G71*
G04*
G04 #@! TF.SameCoordinates,35E8F126-3BB9-435E-BEC0-E910B6038B45*
G04*
G04*
G04 #@! TF.FilePolarity,Positive*
G04*
G01*
G75*
%ADD10C,0.2500*%
%ADD12C,0.1000*%
%ADD13C,0.2000*%
%ADD14C,0.2540*%
%ADD15C,0.1270*%
%ADD17C,0.1778*%
%ADD18C,0.1524*%
G36*
X1073319Y419795D02*
X958681D01*
Y451425D01*
X1073319D01*
Y419795D01*
D02*
G37*
%LPC*%
G36*
X979185Y445993D02*
X974778D01*
X972962Y440087D01*
X972081Y436756D01*
X971199Y439893D01*
X969278Y445993D01*
X964783D01*
X963761Y425245D01*
X967198D01*
X967586Y436967D01*
X967727Y441656D01*
X968732Y438483D01*
X971041Y431415D01*
X973473D01*
X975554Y438483D01*
X976435Y441656D01*
X976541Y437056D01*
X976893Y425245D01*
X980207D01*
X979185Y445993D01*
D02*
G37*
G36*
X1068239D02*
X1061206D01*
X1060959Y445975D01*
X1060659Y445957D01*
X1060325Y445922D01*
X1059954Y445887D01*
X1059549Y445834D01*
X1059126Y445764D01*
X1058685Y445693D01*
X1058244Y445587D01*
X1057804Y445464D01*
X1057381Y445323D01*
X1056975Y445146D01*
X1056588Y444970D01*
X1056235Y444741D01*
X1056217Y444724D01*
X1056164Y444688D01*
X1056076Y444618D01*
X1055953Y444512D01*
X1055830Y444371D01*
X1055671Y444212D01*
X1055512Y444036D01*
X1055336Y443807D01*
X1055177Y443560D01*
X1055019Y443296D01*
X1054860Y442978D01*
X1054737Y442643D01*
X1054613Y442273D01*
X1054525Y441885D01*
X1054472Y441462D01*
X1054455Y441004D01*
Y440969D01*
Y440881D01*
X1054472Y440722D01*
Y440528D01*
X1054508Y440299D01*
X1054543Y440034D01*
X1054578Y439770D01*
X1054649Y439488D01*
Y439453D01*
X1054684Y439365D01*
X1054719Y439224D01*
X1054790Y439047D01*
X1054860Y438836D01*
X1054966Y438607D01*
X1055072Y438360D01*
X1055213Y438131D01*
X1055230Y438096D01*
X1055283Y438025D01*
X1055354Y437919D01*
X1055477Y437761D01*
X1055600Y437602D01*
X1055777Y437408D01*
X1055953Y437214D01*
X1056164Y437038D01*
X1056182Y437020D01*
X1056270Y436967D01*
X1056376Y436879D01*
X1056535Y436773D01*
X1056746Y436650D01*
X1056975Y436527D01*
X1057222Y436403D01*
X1057504Y436297D01*
X1057469D01*
X1057363Y436262D01*
X1057222Y436227D01*
X1057028Y436174D01*
X1056799Y436104D01*
X1056552Y436015D01*
X1056288Y435910D01*
X1056023Y435786D01*
X1055988Y435769D01*
X1055900Y435716D01*
X1055777Y435645D01*
X1055600Y435522D01*
X1055406Y435381D01*
X1055213Y435222D01*
X1055001Y435028D01*
X1054790Y434817D01*
X1054772Y434781D01*
X1054701Y434711D01*
X1054613Y434588D01*
X1054490Y434411D01*
X1054349Y434217D01*
X1054208Y433971D01*
X1054067Y433706D01*
X1053943Y433406D01*
X1053926Y433371D01*
X1053891Y433265D01*
X1053838Y433107D01*
X1053785Y432878D01*
X1053732Y432613D01*
X1053679Y432314D01*
X1053644Y431979D01*
X1053626Y431609D01*
Y431468D01*
X1053644Y431309D01*
X1053661Y431080D01*
X1053697Y430833D01*
X1053732Y430516D01*
X1053802Y430181D01*
X1053891Y429828D01*
X1054014Y429440D01*
X1054155Y429053D01*
X1054314Y428647D01*
X1054525Y428259D01*
X1054772Y427872D01*
X1055054Y427501D01*
X1055389Y427149D01*
X1055759Y426832D01*
X1055777Y426814D01*
X1055865Y426761D01*
X1055988Y426690D01*
X1056147Y426585D01*
X1056376Y426461D01*
X1056640Y426338D01*
X1056958Y426179D01*
X1057328Y426038D01*
X1057733Y425897D01*
X1058192Y425756D01*
X1058703Y425615D01*
X1059249Y425492D01*
X1059849Y425386D01*
X1060501Y425316D01*
X1061171Y425263D01*
X1061911Y425245D01*
X1068239D01*
Y445993D01*
D02*
G37*
G36*
X1033284D02*
X1017895D01*
Y442732D01*
X1023589D01*
Y425245D01*
X1027590D01*
Y442732D01*
X1033284D01*
Y445993D01*
D02*
G37*
G36*
X1015409D02*
X1000021D01*
Y442732D01*
X1005714D01*
Y425245D01*
X1009716D01*
Y442732D01*
X1015409D01*
Y445993D01*
D02*
G37*
G36*
X1043349Y446345D02*
X1043173D01*
X1043067Y446328D01*
X1042961D01*
X1042679Y446310D01*
X1042344Y446257D01*
X1041939Y446204D01*
X1041516Y446116D01*
X1041040Y446010D01*
X1040564Y445852D01*
X1040053Y445675D01*
X1039542Y445464D01*
X1039031Y445199D01*
X1038537Y444882D01*
X1038061Y444512D01*
X1037603Y444089D01*
X1037197Y443613D01*
X1037180Y443578D01*
X1037109Y443489D01*
X1037003Y443331D01*
X1036880Y443102D01*
X1036721Y442820D01*
X1036545Y442485D01*
X1036351Y442079D01*
X1036157Y441603D01*
X1035963Y441075D01*
X1035769Y440493D01*
X1035593Y439841D01*
X1035434Y439136D01*
X1035311Y438360D01*
X1035205Y437531D01*
X1035135Y436650D01*
X1035117Y435698D01*
Y435416D01*
X1035135Y435222D01*
Y434975D01*
X1035152Y434693D01*
X1035170Y434376D01*
X1035205Y434024D01*
X1035240Y433653D01*
X1035276Y433265D01*
X1035399Y432455D01*
X1035558Y431626D01*
X1035664Y431203D01*
X1035787Y430815D01*
Y430798D01*
X1035822Y430727D01*
X1035857Y430621D01*
X1035910Y430480D01*
X1035981Y430304D01*
X1036051Y430093D01*
X1036157Y429881D01*
X1036263Y429634D01*
X1036510Y429088D01*
X1036827Y428541D01*
X1037197Y427977D01*
X1037603Y427448D01*
X1037620Y427431D01*
X1037655Y427396D01*
X1037726Y427325D01*
X1037796Y427237D01*
X1037920Y427131D01*
X1038043Y427008D01*
X1038202Y426867D01*
X1038361Y426726D01*
X1038555Y426567D01*
X1038766Y426408D01*
X1039224Y426073D01*
X1039736Y425774D01*
X1040300Y425509D01*
X1040317D01*
X1040370Y425474D01*
X1040458Y425457D01*
X1040564Y425404D01*
X1040705Y425368D01*
X1040881Y425316D01*
X1041075Y425245D01*
X1041287Y425192D01*
X1041534Y425139D01*
X1041798Y425069D01*
X1042344Y424981D01*
X1042961Y424910D01*
X1043614Y424875D01*
X1043790D01*
X1043896Y424892D01*
X1044001D01*
X1044284Y424910D01*
X1044618Y424963D01*
X1045024Y425016D01*
X1045447Y425104D01*
X1045923Y425210D01*
X1046399Y425351D01*
X1046910Y425545D01*
X1047421Y425756D01*
X1047932Y426021D01*
X1048426Y426338D01*
X1048902Y426690D01*
X1049360Y427113D01*
X1049766Y427589D01*
X1049783Y427625D01*
X1049854Y427713D01*
X1049960Y427872D01*
X1050083Y428101D01*
X1050242Y428383D01*
X1050418Y428735D01*
X1050612Y429141D01*
X1050788Y429599D01*
X1050982Y430128D01*
X1051176Y430727D01*
X1051352Y431379D01*
X1051511Y432085D01*
X1051634Y432842D01*
X1051740Y433671D01*
X1051811Y434570D01*
X1051828Y435504D01*
Y435786D01*
X1051811Y435980D01*
Y436227D01*
X1051793Y436509D01*
X1051775Y436826D01*
X1051740Y437179D01*
X1051705Y437549D01*
X1051669Y437937D01*
X1051546Y438748D01*
X1051387Y439576D01*
X1051282Y439982D01*
X1051176Y440369D01*
Y440387D01*
X1051141Y440458D01*
X1051105Y440563D01*
X1051052Y440704D01*
X1050982Y440881D01*
X1050911Y441092D01*
X1050806Y441321D01*
X1050700Y441568D01*
X1050453Y442097D01*
X1050136Y442661D01*
X1049783Y443225D01*
X1049589Y443489D01*
X1049378Y443736D01*
X1049360Y443754D01*
X1049325Y443789D01*
X1049255Y443860D01*
X1049166Y443948D01*
X1049061Y444071D01*
X1048920Y444195D01*
X1048779Y444336D01*
X1048602Y444477D01*
X1048408Y444635D01*
X1048197Y444794D01*
X1047738Y445129D01*
X1047227Y445429D01*
X1046663Y445693D01*
X1046646D01*
X1046593Y445728D01*
X1046505Y445746D01*
X1046399Y445799D01*
X1046258Y445852D01*
X1046081Y445905D01*
X1045888Y445957D01*
X1045658Y446028D01*
X1045429Y446081D01*
X1045165Y446134D01*
X1044618Y446239D01*
X1044001Y446310D01*
X1043349Y446345D01*
D02*
G37*
G36*
X989726D02*
X989550D01*
X989444Y446328D01*
X989338D01*
X989056Y446310D01*
X988721Y446257D01*
X988316Y446204D01*
X987893Y446116D01*
X987417Y446010D01*
X986941Y445852D01*
X986430Y445675D01*
X985919Y445464D01*
X985407Y445199D01*
X984914Y444882D01*
X984438Y444512D01*
X983979Y444089D01*
X983574Y443613D01*
X983556Y443578D01*
X983486Y443489D01*
X983380Y443331D01*
X983257Y443102D01*
X983098Y442820D01*
X982922Y442485D01*
X982728Y442079D01*
X982534Y441603D01*
X982340Y441075D01*
X982146Y440493D01*
X981970Y439841D01*
X981811Y439136D01*
X981688Y438360D01*
X981582Y437531D01*
X981512Y436650D01*
X981494Y435698D01*
Y435416D01*
X981512Y435222D01*
Y434975D01*
X981529Y434693D01*
X981547Y434376D01*
X981582Y434024D01*
X981617Y433653D01*
X981653Y433265D01*
X981776Y432455D01*
X981935Y431626D01*
X982040Y431203D01*
X982164Y430815D01*
Y430798D01*
X982199Y430727D01*
X982234Y430621D01*
X982287Y430480D01*
X982358Y430304D01*
X982428Y430093D01*
X982534Y429881D01*
X982640Y429634D01*
X982887Y429088D01*
X983204Y428541D01*
X983574Y427977D01*
X983979Y427448D01*
X983997Y427431D01*
X984032Y427396D01*
X984103Y427325D01*
X984173Y427237D01*
X984297Y427131D01*
X984420Y427008D01*
X984579Y426867D01*
X984737Y426726D01*
X984931Y426567D01*
X985143Y426408D01*
X985601Y426073D01*
X986112Y425774D01*
X986676Y425509D01*
X986694D01*
X986747Y425474D01*
X986835Y425457D01*
X986941Y425404D01*
X987082Y425368D01*
X987258Y425316D01*
X987452Y425245D01*
X987664Y425192D01*
X987910Y425139D01*
X988175Y425069D01*
X988721Y424981D01*
X989338Y424910D01*
X989990Y424875D01*
X990167D01*
X990273Y424892D01*
X990378D01*
X990660Y424910D01*
X990995Y424963D01*
X991401Y425016D01*
X991824Y425104D01*
X992300Y425210D01*
X992776Y425351D01*
X993287Y425545D01*
X993798Y425756D01*
X994309Y426021D01*
X994803Y426338D01*
X995279Y426690D01*
X995737Y427113D01*
X996143Y427589D01*
X996160Y427625D01*
X996231Y427713D01*
X996336Y427872D01*
X996460Y428101D01*
X996618Y428383D01*
X996795Y428735D01*
X996989Y429141D01*
X997165Y429599D01*
X997359Y430128D01*
X997553Y430727D01*
X997729Y431379D01*
X997888Y432085D01*
X998011Y432842D01*
X998117Y433671D01*
X998187Y434570D01*
X998205Y435504D01*
Y435786D01*
X998187Y435980D01*
Y436227D01*
X998170Y436509D01*
X998152Y436826D01*
X998117Y437179D01*
X998082Y437549D01*
X998046Y437937D01*
X997923Y438748D01*
X997764Y439576D01*
X997658Y439982D01*
X997553Y440369D01*
Y440387D01*
X997517Y440458D01*
X997482Y440563D01*
X997429Y440704D01*
X997359Y440881D01*
X997288Y441092D01*
X997182Y441321D01*
X997077Y441568D01*
X996830Y442097D01*
X996513Y442661D01*
X996160Y443225D01*
X995966Y443489D01*
X995755Y443736D01*
X995737Y443754D01*
X995702Y443789D01*
X995631Y443860D01*
X995543Y443948D01*
X995437Y444071D01*
X995296Y444195D01*
X995155Y444336D01*
X994979Y444477D01*
X994785Y444635D01*
X994574Y444794D01*
X994115Y445129D01*
X993604Y445429D01*
X993040Y445693D01*
X993022D01*
X992970Y445728D01*
X992881Y445746D01*
X992776Y445799D01*
X992635Y445852D01*
X992458Y445905D01*
X992264Y445957D01*
X992035Y446028D01*
X991806Y446081D01*
X991542Y446134D01*
X990995Y446239D01*
X990378Y446310D01*
X989726Y446345D01*
D02*
G37*
%LPD*%
G36*
X1064361Y437408D02*
X1061841D01*
X1061664Y437426D01*
X1061453Y437443D01*
X1061206Y437461D01*
X1060942Y437514D01*
X1060659Y437567D01*
X1060413Y437637D01*
X1060378Y437655D01*
X1060307Y437672D01*
X1060184Y437725D01*
X1060025Y437796D01*
X1059849Y437884D01*
X1059672Y437990D01*
X1059496Y438113D01*
X1059320Y438254D01*
X1059302Y438272D01*
X1059249Y438325D01*
X1059179Y438413D01*
X1059091Y438519D01*
X1058985Y438660D01*
X1058879Y438818D01*
X1058791Y438994D01*
X1058720Y439188D01*
X1058703Y439206D01*
X1058685Y439277D01*
X1058650Y439382D01*
X1058615Y439523D01*
X1058579Y439700D01*
X1058562Y439893D01*
X1058527Y440105D01*
Y440317D01*
Y440352D01*
Y440422D01*
X1058544Y440528D01*
Y440669D01*
X1058579Y440828D01*
X1058615Y441004D01*
X1058650Y441198D01*
X1058720Y441374D01*
Y441392D01*
X1058756Y441462D01*
X1058809Y441550D01*
X1058861Y441656D01*
X1058950Y441780D01*
X1059055Y441921D01*
X1059196Y442062D01*
X1059337Y442185D01*
X1059355Y442203D01*
X1059408Y442238D01*
X1059514Y442309D01*
X1059637Y442379D01*
X1059778Y442449D01*
X1059972Y442538D01*
X1060184Y442626D01*
X1060413Y442696D01*
X1060448Y442714D01*
X1060536Y442732D01*
X1060659Y442767D01*
X1060853Y442802D01*
X1061083Y442837D01*
X1061365Y442855D01*
X1061664Y442890D01*
X1064361D01*
Y437408D01*
D02*
G37*
G36*
Y428436D02*
X1061488D01*
X1061312Y428453D01*
X1061083Y428471D01*
X1060836Y428488D01*
X1060554Y428541D01*
X1060272Y428594D01*
X1060007Y428665D01*
X1059972Y428682D01*
X1059884Y428718D01*
X1059761Y428770D01*
X1059584Y428841D01*
X1059390Y428929D01*
X1059196Y429053D01*
X1059003Y429176D01*
X1058809Y429317D01*
X1058791Y429335D01*
X1058738Y429388D01*
X1058650Y429476D01*
X1058544Y429599D01*
X1058421Y429740D01*
X1058297Y429916D01*
X1058192Y430093D01*
X1058086Y430304D01*
X1058068Y430339D01*
X1058051Y430410D01*
X1058015Y430516D01*
X1057962Y430674D01*
X1057910Y430868D01*
X1057874Y431062D01*
X1057857Y431291D01*
X1057839Y431538D01*
Y431556D01*
Y431591D01*
Y431661D01*
X1057857Y431767D01*
X1057874Y431873D01*
X1057892Y432014D01*
X1057962Y432314D01*
X1058086Y432649D01*
X1058174Y432825D01*
X1058262Y433001D01*
X1058386Y433177D01*
X1058527Y433354D01*
X1058685Y433512D01*
X1058861Y433653D01*
X1058879Y433671D01*
X1058914Y433689D01*
X1058967Y433724D01*
X1059055Y433777D01*
X1059161Y433830D01*
X1059285Y433900D01*
X1059443Y433971D01*
X1059620Y434041D01*
X1059831Y434112D01*
X1060060Y434182D01*
X1060307Y434253D01*
X1060589Y434306D01*
X1060889Y434358D01*
X1061224Y434394D01*
X1061576Y434429D01*
X1064361D01*
Y428436D01*
D02*
G37*
G36*
X1043755Y442802D02*
X1043878D01*
X1044143Y442767D01*
X1044442Y442696D01*
X1044777Y442626D01*
X1045094Y442502D01*
X1045412Y442344D01*
X1045447Y442326D01*
X1045535Y442256D01*
X1045694Y442150D01*
X1045870Y441991D01*
X1046081Y441797D01*
X1046293Y441568D01*
X1046505Y441286D01*
X1046716Y440969D01*
Y440951D01*
X1046734Y440933D01*
X1046769Y440881D01*
X1046804Y440810D01*
X1046840Y440722D01*
X1046892Y440616D01*
X1046998Y440352D01*
X1047122Y440034D01*
X1047245Y439647D01*
X1047368Y439206D01*
X1047474Y438730D01*
Y438713D01*
X1047492Y438677D01*
Y438589D01*
X1047509Y438501D01*
X1047527Y438377D01*
X1047545Y438219D01*
X1047562Y438043D01*
X1047580Y437849D01*
X1047615Y437637D01*
X1047633Y437408D01*
X1047668Y436897D01*
X1047686Y436315D01*
X1047703Y435698D01*
Y435681D01*
Y435663D01*
Y435610D01*
Y435540D01*
Y435346D01*
X1047686Y435099D01*
X1047668Y434781D01*
X1047650Y434429D01*
X1047615Y434041D01*
X1047580Y433636D01*
X1047527Y433195D01*
X1047457Y432737D01*
X1047280Y431820D01*
X1047174Y431379D01*
X1047033Y430956D01*
X1046892Y430569D01*
X1046716Y430198D01*
X1046699Y430181D01*
X1046663Y430128D01*
X1046610Y430040D01*
X1046522Y429916D01*
X1046416Y429775D01*
X1046275Y429634D01*
X1046117Y429476D01*
X1045940Y429299D01*
X1045729Y429141D01*
X1045482Y428964D01*
X1045218Y428823D01*
X1044936Y428682D01*
X1044601Y428559D01*
X1044266Y428471D01*
X1043878Y428418D01*
X1043473Y428400D01*
X1043279D01*
X1043191Y428418D01*
X1043067D01*
X1042803Y428453D01*
X1042503Y428506D01*
X1042186Y428594D01*
X1041869Y428700D01*
X1041551Y428859D01*
X1041534D01*
X1041516Y428876D01*
X1041410Y428947D01*
X1041269Y429053D01*
X1041075Y429211D01*
X1040881Y429405D01*
X1040652Y429634D01*
X1040441Y429916D01*
X1040247Y430234D01*
Y430251D01*
X1040229Y430269D01*
X1040194Y430322D01*
X1040159Y430392D01*
X1040123Y430480D01*
X1040070Y430586D01*
X1039965Y430850D01*
X1039841Y431168D01*
X1039718Y431556D01*
X1039594Y431979D01*
X1039489Y432455D01*
Y432472D01*
X1039471Y432508D01*
Y432596D01*
X1039454Y432684D01*
X1039436Y432825D01*
X1039418Y432966D01*
X1039383Y433142D01*
X1039365Y433336D01*
X1039348Y433548D01*
X1039313Y433794D01*
X1039277Y434306D01*
X1039260Y434887D01*
X1039242Y435504D01*
Y435522D01*
Y435540D01*
Y435592D01*
Y435663D01*
Y435857D01*
X1039260Y436104D01*
X1039277Y436421D01*
X1039295Y436773D01*
X1039330Y437161D01*
X1039365Y437567D01*
X1039418Y438007D01*
X1039489Y438466D01*
X1039665Y439382D01*
X1039771Y439823D01*
X1039894Y440246D01*
X1040053Y440652D01*
X1040229Y441004D01*
X1040247Y441022D01*
X1040282Y441075D01*
X1040335Y441180D01*
X1040423Y441286D01*
X1040529Y441427D01*
X1040652Y441586D01*
X1040811Y441744D01*
X1041005Y441921D01*
X1041216Y442079D01*
X1041445Y442238D01*
X1041728Y442397D01*
X1042010Y442538D01*
X1042327Y442661D01*
X1042679Y442749D01*
X1043067Y442802D01*
X1043473Y442820D01*
X1043667D01*
X1043755Y442802D01*
D02*
G37*
G36*
X990132D02*
X990255D01*
X990519Y442767D01*
X990819Y442696D01*
X991154Y442626D01*
X991471Y442502D01*
X991788Y442344D01*
X991824Y442326D01*
X991912Y442256D01*
X992070Y442150D01*
X992247Y441991D01*
X992458Y441797D01*
X992670Y441568D01*
X992881Y441286D01*
X993093Y440969D01*
Y440951D01*
X993111Y440933D01*
X993146Y440881D01*
X993181Y440810D01*
X993216Y440722D01*
X993269Y440616D01*
X993375Y440352D01*
X993498Y440034D01*
X993622Y439647D01*
X993745Y439206D01*
X993851Y438730D01*
Y438713D01*
X993868Y438677D01*
Y438589D01*
X993886Y438501D01*
X993904Y438377D01*
X993921Y438219D01*
X993939Y438043D01*
X993957Y437849D01*
X993992Y437637D01*
X994010Y437408D01*
X994045Y436897D01*
X994062Y436315D01*
X994080Y435698D01*
Y435681D01*
Y435663D01*
Y435610D01*
Y435540D01*
Y435346D01*
X994062Y435099D01*
X994045Y434781D01*
X994027Y434429D01*
X993992Y434041D01*
X993957Y433636D01*
X993904Y433195D01*
X993833Y432737D01*
X993657Y431820D01*
X993551Y431379D01*
X993410Y430956D01*
X993269Y430569D01*
X993093Y430198D01*
X993075Y430181D01*
X993040Y430128D01*
X992987Y430040D01*
X992899Y429916D01*
X992793Y429775D01*
X992652Y429634D01*
X992494Y429476D01*
X992317Y429299D01*
X992106Y429141D01*
X991859Y428964D01*
X991595Y428823D01*
X991312Y428682D01*
X990978Y428559D01*
X990643Y428471D01*
X990255Y428418D01*
X989849Y428400D01*
X989656D01*
X989567Y428418D01*
X989444D01*
X989180Y428453D01*
X988880Y428506D01*
X988563Y428594D01*
X988245Y428700D01*
X987928Y428859D01*
X987910D01*
X987893Y428876D01*
X987787Y428947D01*
X987646Y429053D01*
X987452Y429211D01*
X987258Y429405D01*
X987029Y429634D01*
X986817Y429916D01*
X986624Y430234D01*
Y430251D01*
X986606Y430269D01*
X986571Y430322D01*
X986535Y430392D01*
X986500Y430480D01*
X986447Y430586D01*
X986342Y430850D01*
X986218Y431168D01*
X986095Y431556D01*
X985971Y431979D01*
X985866Y432455D01*
Y432472D01*
X985848Y432508D01*
Y432596D01*
X985830Y432684D01*
X985813Y432825D01*
X985795Y432966D01*
X985760Y433142D01*
X985742Y433336D01*
X985725Y433548D01*
X985689Y433794D01*
X985654Y434306D01*
X985637Y434887D01*
X985619Y435504D01*
Y435522D01*
Y435540D01*
Y435592D01*
Y435663D01*
Y435857D01*
X985637Y436104D01*
X985654Y436421D01*
X985672Y436773D01*
X985707Y437161D01*
X985742Y437567D01*
X985795Y438007D01*
X985866Y438466D01*
X986042Y439382D01*
X986148Y439823D01*
X986271Y440246D01*
X986430Y440652D01*
X986606Y441004D01*
X986624Y441022D01*
X986659Y441075D01*
X986712Y441180D01*
X986800Y441286D01*
X986906Y441427D01*
X987029Y441586D01*
X987188Y441744D01*
X987382Y441921D01*
X987593Y442079D01*
X987822Y442238D01*
X988104Y442397D01*
X988386Y442538D01*
X988704Y442661D01*
X989056Y442749D01*
X989444Y442802D01*
X989849Y442820D01*
X990043D01*
X990132Y442802D01*
D02*
G37*
D10*
X586720Y718820D02*
G03*
X586720Y718820I-1250J0D01*
G01*
X574765Y624281D02*
G03*
X574765Y624281I-1250J0D01*
G01*
X551329Y642441D02*
G03*
X551329Y642441I-1250J0D01*
G01*
D12*
X663440Y681990D02*
G03*
X663440Y681990I-500J0D01*
G01*
X515558Y551180D02*
G03*
X515558Y551180I-500J0D01*
G01*
X927165Y617329D02*
G03*
X927165Y617329I-500J0D01*
G01*
D13*
X665143Y683515D02*
Y683765D01*
Y714266D02*
Y714516D01*
X696143Y683515D02*
Y683765D01*
Y714266D02*
Y714516D01*
X665143Y683515D02*
X668893D01*
X692393D02*
X696143D01*
X665143Y714516D02*
X668893D01*
X692393D02*
X696143D01*
X568584Y708193D02*
Y708843D01*
Y708193D02*
X570584D01*
X568584Y720543D02*
Y721193D01*
X570584D01*
X516940Y554158D02*
Y554408D01*
Y584908D02*
Y585158D01*
X547940Y554158D02*
Y554408D01*
Y584908D02*
Y585158D01*
X516940Y554158D02*
X520690D01*
X544190D02*
X547940D01*
X516940Y585158D02*
X520690D01*
X544190D02*
X547940D01*
X717054Y559316D02*
X720054D01*
X717054Y541316D02*
X720054D01*
D14*
X1055370Y675640D02*
G03*
X1055370Y675640I-1270J0D01*
G01*
D15*
X1115060Y607060D02*
X1117600Y609600D01*
X1099820Y604520D02*
X1102360Y607060D01*
X901700Y543560D02*
X911860Y528320D01*
X622427Y634019D02*
X616502D01*
X619464D01*
Y625132D01*
X613539D02*
Y634019D01*
X609096D01*
X607615Y632537D01*
Y629575D01*
X609096Y628094D01*
X613539D01*
X600209Y625132D02*
Y634019D01*
X604652Y629575D01*
X598728D01*
X595765Y632537D02*
X594284Y634019D01*
X591322D01*
X589840Y632537D01*
Y626613D01*
X591322Y625132D01*
X594284D01*
X595765Y626613D01*
Y632537D01*
X677856Y613214D02*
X671931D01*
X674893D01*
Y604326D01*
X668969D02*
Y613214D01*
X664525D01*
X663044Y611732D01*
Y608770D01*
X664525Y607289D01*
X668969D01*
X660082Y611732D02*
X658600Y613214D01*
X655638D01*
X654157Y611732D01*
Y610251D01*
X655638Y608770D01*
X657119D01*
X655638D01*
X654157Y607289D01*
Y605808D01*
X655638Y604326D01*
X658600D01*
X660082Y605808D01*
X651195D02*
X649713Y604326D01*
X646751D01*
X645270Y605808D01*
Y611732D01*
X646751Y613214D01*
X649713D01*
X651195Y611732D01*
Y610251D01*
X649713Y608770D01*
X645270D01*
X921473Y660450D02*
Y669337D01*
X917029D01*
X915548Y667856D01*
Y664894D01*
X917029Y663413D01*
X921473D01*
X918511D02*
X915548Y660450D01*
X906661D02*
X912586D01*
X906661Y666375D01*
Y667856D01*
X908142Y669337D01*
X911105D01*
X912586Y667856D01*
X903699D02*
X902218Y669337D01*
X899255D01*
X897774Y667856D01*
Y666375D01*
X899255Y664894D01*
X900736D01*
X899255D01*
X897774Y663413D01*
Y661931D01*
X899255Y660450D01*
X902218D01*
X903699Y661931D01*
X913608Y598804D02*
X907683D01*
X910645D01*
Y589916D01*
X904720D02*
Y598804D01*
X900277D01*
X898796Y597322D01*
Y594360D01*
X900277Y592879D01*
X904720D01*
X895833Y597322D02*
X894352Y598804D01*
X891390D01*
X889909Y597322D01*
Y595841D01*
X891390Y594360D01*
X892871D01*
X891390D01*
X889909Y592879D01*
Y591398D01*
X891390Y589916D01*
X894352D01*
X895833Y591398D01*
X886946Y597322D02*
X885465Y598804D01*
X882503D01*
X881021Y597322D01*
Y595841D01*
X882503Y594360D01*
X881021Y592879D01*
Y591398D01*
X882503Y589916D01*
X885465D01*
X886946Y591398D01*
Y592879D01*
X885465Y594360D01*
X886946Y595841D01*
Y597322D01*
X885465Y594360D02*
X882503D01*
X623569Y515625D02*
Y520703D01*
Y518164D01*
X615951D01*
Y523242D02*
X623569D01*
Y527051D01*
X622299Y528320D01*
X619760D01*
X618490Y527051D01*
Y523242D01*
X622299Y530860D02*
X623569Y532129D01*
Y534668D01*
X622299Y535938D01*
X621030D01*
X619760Y534668D01*
Y533399D01*
Y534668D01*
X618490Y535938D01*
X617221D01*
X615951Y534668D01*
Y532129D01*
X617221Y530860D01*
X623569Y543555D02*
Y538477D01*
X619760D01*
X621030Y541016D01*
Y542286D01*
X619760Y543555D01*
X617221D01*
X615951Y542286D01*
Y539747D01*
X617221Y538477D01*
X612772Y514351D02*
Y521969D01*
X608963D01*
X607694Y520699D01*
Y518160D01*
X608963Y516890D01*
X612772D01*
X610233D02*
X607694Y514351D01*
X605154D02*
X602615D01*
X603885D01*
Y521969D01*
X605154Y520699D01*
X593728Y521969D02*
X596267Y520699D01*
X598806Y518160D01*
Y515621D01*
X597537Y514351D01*
X594998D01*
X593728Y515621D01*
Y516890D01*
X594998Y518160D01*
X598806D01*
X1062356Y617434D02*
X1071244D01*
Y621878D01*
X1069762Y623359D01*
X1066800D01*
X1065319Y621878D01*
Y617434D01*
Y620396D02*
X1062356Y623359D01*
X1071244Y632246D02*
Y626321D01*
X1066800D01*
X1068281Y629284D01*
Y630765D01*
X1066800Y632246D01*
X1063838D01*
X1062356Y630765D01*
Y627802D01*
X1063838Y626321D01*
X697922Y628308D02*
X691997D01*
X694959D01*
Y619421D01*
X689035D02*
Y628308D01*
X684591D01*
X683110Y626827D01*
Y623865D01*
X684591Y622384D01*
X689035D01*
X680148Y626827D02*
X678666Y628308D01*
X675704D01*
X674223Y626827D01*
Y625346D01*
X675704Y623865D01*
X677185D01*
X675704D01*
X674223Y622384D01*
Y620902D01*
X675704Y619421D01*
X678666D01*
X680148Y620902D01*
X671261Y626827D02*
X669779Y628308D01*
X666817D01*
X665336Y626827D01*
Y620902D01*
X666817Y619421D01*
X669779D01*
X671261Y620902D01*
Y626827D01*
X781203Y628588D02*
X775278D01*
X778241D01*
Y619701D01*
X772316D02*
Y628588D01*
X767872D01*
X766391Y627107D01*
Y624145D01*
X767872Y622664D01*
X772316D01*
X757504Y619701D02*
X763429D01*
X757504Y625626D01*
Y627107D01*
X758985Y628588D01*
X761948D01*
X763429Y627107D01*
X754542D02*
X753061Y628588D01*
X750098D01*
X748617Y627107D01*
Y625626D01*
X750098Y624145D01*
X748617Y622664D01*
Y621183D01*
X750098Y619701D01*
X753061D01*
X754542Y621183D01*
Y622664D01*
X753061Y624145D01*
X754542Y625626D01*
Y627107D01*
X753061Y624145D02*
X750098D01*
X937896Y614600D02*
X946784D01*
Y619043D01*
X945302Y620524D01*
X942340D01*
X940859Y619043D01*
Y614600D01*
Y617562D02*
X937896Y620524D01*
X945302Y623487D02*
X946784Y624968D01*
Y627930D01*
X945302Y629412D01*
X943821D01*
X942340Y627930D01*
Y626449D01*
Y627930D01*
X940859Y629412D01*
X939378D01*
X937896Y627930D01*
Y624968D01*
X939378Y623487D01*
X946784Y638299D02*
X945302Y635336D01*
X942340Y632374D01*
X939378D01*
X937896Y633855D01*
Y636818D01*
X939378Y638299D01*
X940859D01*
X942340Y636818D01*
Y632374D01*
X937896Y586660D02*
X946784D01*
Y591103D01*
X945302Y592584D01*
X942340D01*
X940859Y591103D01*
Y586660D01*
Y589622D02*
X937896Y592584D01*
X945302Y595547D02*
X946784Y597028D01*
Y599990D01*
X945302Y601472D01*
X943821D01*
X942340Y599990D01*
Y598509D01*
Y599990D01*
X940859Y601472D01*
X939378D01*
X937896Y599990D01*
Y597028D01*
X939378Y595547D01*
X946784Y610359D02*
Y604434D01*
X942340D01*
X943821Y607396D01*
Y608877D01*
X942340Y610359D01*
X939378D01*
X937896Y608877D01*
Y605915D01*
X939378Y604434D01*
X925703Y621351D02*
X918297D01*
X916815Y622832D01*
Y625795D01*
X918297Y627276D01*
X925703D01*
X916815Y630238D02*
Y633201D01*
Y631719D01*
X925703D01*
X924221Y630238D01*
X925703Y643569D02*
Y637644D01*
X921259D01*
X922740Y640607D01*
Y642088D01*
X921259Y643569D01*
X918297D01*
X916815Y642088D01*
Y639125D01*
X918297Y637644D01*
X903871Y611721D02*
X912758D01*
Y616164D01*
X911277Y617645D01*
X908315D01*
X906833Y616164D01*
Y611721D01*
Y614683D02*
X903871Y617645D01*
X911277Y620608D02*
X912758Y622089D01*
Y625051D01*
X911277Y626532D01*
X909796D01*
X908315Y625051D01*
Y623570D01*
Y625051D01*
X906833Y626532D01*
X905352D01*
X903871Y625051D01*
Y622089D01*
X905352Y620608D01*
X903871Y633938D02*
X912758D01*
X908315Y629495D01*
Y635420D01*
X1091986Y620396D02*
Y629284D01*
X1087542D01*
X1086061Y627802D01*
Y624840D01*
X1087542Y623359D01*
X1091986D01*
X1089024D02*
X1086061Y620396D01*
X1078655D02*
Y629284D01*
X1083099Y624840D01*
X1077174D01*
X574671Y524509D02*
X569592D01*
X572132D01*
Y516891D01*
X567053D02*
Y524509D01*
X563244D01*
X561975Y523239D01*
Y520700D01*
X563244Y519430D01*
X567053D01*
X559436Y516891D02*
X556896D01*
X558166D01*
Y524509D01*
X559436Y523239D01*
X553088Y518161D02*
X551818Y516891D01*
X549279D01*
X548009Y518161D01*
Y523239D01*
X549279Y524509D01*
X551818D01*
X553088Y523239D01*
Y521970D01*
X551818Y520700D01*
X548009D01*
X575791Y513078D02*
X570712D01*
X573251D01*
Y505461D01*
X568173D02*
Y513078D01*
X564364D01*
X563095Y511809D01*
Y509270D01*
X564364Y508000D01*
X568173D01*
X560556Y505461D02*
X558017D01*
X559286D01*
Y513078D01*
X560556Y511809D01*
X549129Y513078D02*
X551669Y511809D01*
X554208Y509270D01*
Y506730D01*
X552938Y505461D01*
X550399D01*
X549129Y506730D01*
Y508000D01*
X550399Y509270D01*
X554208D01*
X646427Y514351D02*
Y521969D01*
X642618D01*
X641348Y520699D01*
Y518160D01*
X642618Y516890D01*
X646427D01*
X643887D02*
X641348Y514351D01*
X638809Y521969D02*
X633731D01*
Y520699D01*
X638809Y515621D01*
Y514351D01*
X631192Y520699D02*
X629922Y521969D01*
X627383D01*
X626113Y520699D01*
Y519430D01*
X627383Y518160D01*
X626113Y516890D01*
Y515621D01*
X627383Y514351D01*
X629922D01*
X631192Y515621D01*
Y516890D01*
X629922Y518160D01*
X631192Y519430D01*
Y520699D01*
X629922Y518160D02*
X627383D01*
X621088Y607948D02*
X615164D01*
X618126D01*
Y599060D01*
X612201D02*
Y607948D01*
X607758D01*
X606277Y606466D01*
Y603504D01*
X607758Y602023D01*
X612201D01*
X603314Y599060D02*
X600352D01*
X601833D01*
Y607948D01*
X603314Y606466D01*
X589983Y599060D02*
X595908D01*
X589983Y604985D01*
Y606466D01*
X591465Y607948D01*
X594427D01*
X595908Y606466D01*
X589277Y538479D02*
X584198D01*
X586738D01*
Y530861D01*
X581659D02*
Y538479D01*
X577850D01*
X576581Y537209D01*
Y534670D01*
X577850Y533400D01*
X581659D01*
X574042Y537209D02*
X572772Y538479D01*
X570233D01*
X568963Y537209D01*
Y535940D01*
X570233Y534670D01*
X568963Y533400D01*
Y532131D01*
X570233Y530861D01*
X572772D01*
X574042Y532131D01*
Y533400D01*
X572772Y534670D01*
X574042Y535940D01*
Y537209D01*
X572772Y534670D02*
X570233D01*
X539012Y537783D02*
X533934D01*
X536473D01*
Y530165D01*
X531395D02*
Y537783D01*
X527586D01*
X526316Y536513D01*
Y533974D01*
X527586Y532704D01*
X531395D01*
X523777Y537783D02*
X518699D01*
Y536513D01*
X523777Y531435D01*
Y530165D01*
X665477Y538479D02*
X660398D01*
X662937D01*
Y530861D01*
X657859D02*
Y538479D01*
X654050D01*
X652781Y537209D01*
Y534670D01*
X654050Y533400D01*
X657859D01*
X645163Y530861D02*
X650242D01*
X645163Y535940D01*
Y537209D01*
X646433Y538479D01*
X648972D01*
X650242Y537209D01*
X1094312Y669924D02*
Y662518D01*
X1092831Y661036D01*
X1089868D01*
X1088387Y662518D01*
Y669924D01*
X1085425D02*
X1079500D01*
Y668442D01*
X1085425Y662518D01*
Y661036D01*
X1076538Y668442D02*
X1075056Y669924D01*
X1072094D01*
X1070613Y668442D01*
Y662518D01*
X1072094Y661036D01*
X1075056D01*
X1076538Y662518D01*
Y668442D01*
X1067651Y661036D02*
X1064688D01*
X1066169D01*
Y669924D01*
X1067651Y668442D01*
X645890Y580008D02*
Y572602D01*
X644408Y571120D01*
X641446D01*
X639965Y572602D01*
Y580008D01*
X637003Y571120D02*
X634040D01*
X635521D01*
Y580008D01*
X637003Y578526D01*
X623672Y571120D02*
X629597D01*
X623672Y577045D01*
Y578526D01*
X625153Y580008D01*
X628116D01*
X629597Y578526D01*
X712256Y677544D02*
Y670138D01*
X710775Y668656D01*
X707812D01*
X706331Y670138D01*
Y677544D01*
X703369Y670138D02*
X701888Y668656D01*
X698925D01*
X697444Y670138D01*
Y676062D01*
X698925Y677544D01*
X701888D01*
X703369Y676062D01*
Y674581D01*
X701888Y673100D01*
X697444D01*
X568746Y614044D02*
Y606638D01*
X567265Y605156D01*
X564302D01*
X562821Y606638D01*
Y614044D01*
X555415Y605156D02*
Y614044D01*
X559859Y609600D01*
X553934D01*
X541963Y551222D02*
Y544874D01*
X540694Y543605D01*
X538154D01*
X536885Y544874D01*
Y551222D01*
X534346Y543605D02*
X531806D01*
X533076D01*
Y551222D01*
X534346Y549952D01*
X527998D02*
X526728Y551222D01*
X524189D01*
X522919Y549952D01*
Y544874D01*
X524189Y543605D01*
X526728D01*
X527998Y544874D01*
Y549952D01*
X520380Y543605D02*
X517841D01*
X519110D01*
Y551222D01*
X520380Y549952D01*
X1109344Y609183D02*
Y615108D01*
Y612146D01*
X1100456D01*
Y618070D02*
X1109344D01*
Y622514D01*
X1107862Y623995D01*
X1104900D01*
X1103419Y622514D01*
Y618070D01*
X1109344Y626958D02*
Y632882D01*
X1107862D01*
X1101938Y626958D01*
X1100456D01*
X1107862Y635845D02*
X1109344Y637326D01*
Y640288D01*
X1107862Y641769D01*
X1101938D01*
X1100456Y640288D01*
Y637326D01*
X1101938Y635845D01*
X1107862D01*
Y644732D02*
X1109344Y646213D01*
Y649175D01*
X1107862Y650657D01*
X1106381D01*
X1104900Y649175D01*
Y647694D01*
Y649175D01*
X1103419Y650657D01*
X1101938D01*
X1100456Y649175D01*
Y646213D01*
X1101938Y644732D01*
X1122044Y611723D02*
Y617648D01*
Y614686D01*
X1113156D01*
Y620611D02*
X1122044D01*
Y625054D01*
X1120562Y626535D01*
X1117600D01*
X1116119Y625054D01*
Y620611D01*
X1122044Y629498D02*
Y635422D01*
X1120562D01*
X1114638Y629498D01*
X1113156D01*
X1120562Y638385D02*
X1122044Y639866D01*
Y642828D01*
X1120562Y644309D01*
X1114638D01*
X1113156Y642828D01*
Y639866D01*
X1114638Y638385D01*
X1120562D01*
X1113156Y653197D02*
Y647272D01*
X1119081Y653197D01*
X1120562D01*
X1122044Y651715D01*
Y648753D01*
X1120562Y647272D01*
X1137284Y608125D02*
Y614049D01*
Y611087D01*
X1128396D01*
Y617012D02*
X1137284D01*
Y621455D01*
X1135802Y622936D01*
X1132840D01*
X1131359Y621455D01*
Y617012D01*
X1137284Y625899D02*
Y631824D01*
X1135802D01*
X1129878Y625899D01*
X1128396D01*
X1135802Y634786D02*
X1137284Y636267D01*
Y639230D01*
X1135802Y640711D01*
X1129878D01*
X1128396Y639230D01*
Y636267D01*
X1129878Y634786D01*
X1135802D01*
X1128396Y643673D02*
Y646636D01*
Y645154D01*
X1137284D01*
X1135802Y643673D01*
X565306Y691210D02*
X559381D01*
X562344D01*
Y682322D01*
X556419D02*
Y691210D01*
X551976D01*
X550494Y689728D01*
Y686766D01*
X551976Y685285D01*
X556419D01*
X547532Y682322D02*
X544570D01*
X546051D01*
Y691210D01*
X547532Y689728D01*
X540126D02*
X538645Y691210D01*
X535682D01*
X534201Y689728D01*
Y683804D01*
X535682Y682322D01*
X538645D01*
X540126Y683804D01*
Y689728D01*
X532707Y595075D02*
X527629D01*
X530168D01*
Y587457D01*
X525090D02*
Y595075D01*
X521281D01*
X520011Y593805D01*
Y591266D01*
X521281Y589996D01*
X525090D01*
X512394Y595075D02*
X514933Y593805D01*
X517472Y591266D01*
Y588727D01*
X516203Y587457D01*
X513663D01*
X512394Y588727D01*
Y589996D01*
X513663Y591266D01*
X517472D01*
X528740Y691514D02*
X522815D01*
X525777D01*
Y682626D01*
X519852D02*
Y691514D01*
X515409D01*
X513928Y690032D01*
Y687070D01*
X515409Y685589D01*
X519852D01*
X510965Y690032D02*
X509484Y691514D01*
X506522D01*
X505041Y690032D01*
Y688551D01*
X506522Y687070D01*
X508003D01*
X506522D01*
X505041Y685589D01*
Y684108D01*
X506522Y682626D01*
X509484D01*
X510965Y684108D01*
X734268Y626744D02*
X728344D01*
X731306D01*
Y617856D01*
X725381D02*
Y626744D01*
X720938D01*
X719456Y625262D01*
Y622300D01*
X720938Y620819D01*
X725381D01*
X716494Y617856D02*
X713532D01*
X715013D01*
Y626744D01*
X716494Y625262D01*
X631014Y683590D02*
X623396D01*
Y679782D01*
X624666Y678512D01*
X627205D01*
X628475Y679782D01*
Y683590D01*
Y681051D02*
X631014Y678512D01*
X624666Y675973D02*
X623396Y674703D01*
Y672164D01*
X624666Y670894D01*
X625936D01*
X627205Y672164D01*
Y673434D01*
Y672164D01*
X628475Y670894D01*
X629744D01*
X631014Y672164D01*
Y674703D01*
X629744Y675973D01*
X631014Y663277D02*
Y668355D01*
X625936Y663277D01*
X624666D01*
X623396Y664547D01*
Y667086D01*
X624666Y668355D01*
X621455Y683861D02*
X613837D01*
Y680053D01*
X615107Y678783D01*
X617646D01*
X618915Y680053D01*
Y683861D01*
Y681322D02*
X621455Y678783D01*
X615107Y676244D02*
X613837Y674974D01*
Y672435D01*
X615107Y671166D01*
X616376D01*
X617646Y672435D01*
Y673705D01*
Y672435D01*
X618915Y671166D01*
X620185D01*
X621455Y672435D01*
Y674974D01*
X620185Y676244D01*
X621455Y668626D02*
Y666087D01*
Y667357D01*
X613837D01*
X615107Y668626D01*
X770040Y683896D02*
Y692784D01*
X765596D01*
X764115Y691302D01*
Y688340D01*
X765596Y686859D01*
X770040D01*
X767077D02*
X764115Y683896D01*
X755228D02*
X761152D01*
X755228Y689821D01*
Y691302D01*
X756709Y692784D01*
X759671D01*
X761152Y691302D01*
X752265Y685378D02*
X750784Y683896D01*
X747822D01*
X746340Y685378D01*
Y691302D01*
X747822Y692784D01*
X750784D01*
X752265Y691302D01*
Y689821D01*
X750784Y688340D01*
X746340D01*
X770040Y702946D02*
Y711834D01*
X765596D01*
X764115Y710352D01*
Y707390D01*
X765596Y705909D01*
X770040D01*
X767077D02*
X764115Y702946D01*
X755228D02*
X761152D01*
X755228Y708871D01*
Y710352D01*
X756709Y711834D01*
X759671D01*
X761152Y710352D01*
X746340Y711834D02*
X752265D01*
Y707390D01*
X749303Y708871D01*
X747822D01*
X746340Y707390D01*
Y704428D01*
X747822Y702946D01*
X750784D01*
X752265Y704428D01*
X557530Y710778D02*
Y716702D01*
X559011Y718184D01*
X561974D01*
X563455Y716702D01*
Y710778D01*
X561974Y709296D01*
X559011D01*
X560492Y712259D02*
X557530Y709296D01*
X559011D02*
X557530Y710778D01*
X554568Y709296D02*
X551605D01*
X553086D01*
Y718184D01*
X554568Y716702D01*
X585045Y629286D02*
Y638174D01*
X582082Y635211D01*
X579120Y638174D01*
Y629286D01*
X576158D02*
X573195D01*
X574676D01*
Y638174D01*
X576158Y636692D01*
X960034Y618028D02*
X961516Y616547D01*
Y613584D01*
X960034Y612103D01*
X954110D01*
X952628Y613584D01*
Y616547D01*
X954110Y618028D01*
X961516Y620990D02*
Y626915D01*
X960034D01*
X954110Y620990D01*
X952628D01*
X960034Y629877D02*
X961516Y631358D01*
Y634321D01*
X960034Y635802D01*
X954110D01*
X952628Y634321D01*
Y631358D01*
X954110Y629877D01*
X960034D01*
Y638764D02*
X961516Y640246D01*
Y643208D01*
X960034Y644689D01*
X958553D01*
X957072Y643208D01*
Y641727D01*
Y643208D01*
X955591Y644689D01*
X954110D01*
X952628Y643208D01*
Y640246D01*
X954110Y638764D01*
X607828Y718819D02*
X609098Y720089D01*
X611637D01*
X612907Y718819D01*
Y713741D01*
X611637Y712471D01*
X609098D01*
X607828Y713741D01*
X605289Y718819D02*
X604020Y720089D01*
X601480D01*
X600211Y718819D01*
Y717550D01*
X601480Y716280D01*
X602750D01*
X601480D01*
X600211Y715010D01*
Y713741D01*
X601480Y712471D01*
X604020D01*
X605289Y713741D01*
X597672Y718819D02*
X596402Y720089D01*
X593863D01*
X592593Y718819D01*
Y717550D01*
X593863Y716280D01*
X595132D01*
X593863D01*
X592593Y715010D01*
Y713741D01*
X593863Y712471D01*
X596402D01*
X597672Y713741D01*
X635166Y678512D02*
X633896Y679782D01*
Y682321D01*
X635166Y683590D01*
X640244D01*
X641514Y682321D01*
Y679782D01*
X640244Y678512D01*
X635166Y675973D02*
X633896Y674703D01*
Y672164D01*
X635166Y670894D01*
X636436D01*
X637705Y672164D01*
Y673434D01*
Y672164D01*
X638975Y670894D01*
X640244D01*
X641514Y672164D01*
Y674703D01*
X640244Y675973D01*
X641514Y663277D02*
Y668355D01*
X636436Y663277D01*
X635166D01*
X633896Y664547D01*
Y667086D01*
X635166Y668355D01*
X600842Y687423D02*
X602324Y688904D01*
X605286D01*
X606767Y687423D01*
Y681498D01*
X605286Y680017D01*
X602324D01*
X600842Y681498D01*
X597880Y687423D02*
X596399Y688904D01*
X593437D01*
X591955Y687423D01*
Y685942D01*
X593437Y684461D01*
X594918D01*
X593437D01*
X591955Y682979D01*
Y681498D01*
X593437Y680017D01*
X596399D01*
X597880Y681498D01*
X588993Y687423D02*
X587512Y688904D01*
X584549D01*
X583068Y687423D01*
Y681498D01*
X584549Y680017D01*
X587512D01*
X588993Y681498D01*
Y687423D01*
X667594Y593769D02*
X669075Y595250D01*
X672037D01*
X673518Y593769D01*
Y587844D01*
X672037Y586363D01*
X669075D01*
X667594Y587844D01*
X658706Y586363D02*
X664631D01*
X658706Y592288D01*
Y593769D01*
X660188Y595250D01*
X663150D01*
X664631Y593769D01*
X655744Y595250D02*
X649819D01*
Y593769D01*
X655744Y587844D01*
Y586363D01*
X671829Y670559D02*
X673098Y671829D01*
X675638D01*
X676907Y670559D01*
Y665481D01*
X675638Y664211D01*
X673098D01*
X671829Y665481D01*
X664211Y664211D02*
X669290D01*
X664211Y669290D01*
Y670559D01*
X665481Y671829D01*
X668020D01*
X669290Y670559D01*
X661672Y664211D02*
X659133D01*
X660403D01*
Y671829D01*
X661672Y670559D01*
X720915Y694940D02*
X719433Y696422D01*
Y699384D01*
X720915Y700865D01*
X726839D01*
X728320Y699384D01*
Y696422D01*
X726839Y694940D01*
X728320Y686053D02*
Y691978D01*
X722396Y686053D01*
X720915D01*
X719433Y687534D01*
Y690497D01*
X720915Y691978D01*
Y683091D02*
X719433Y681610D01*
Y678647D01*
X720915Y677166D01*
X726839D01*
X728320Y678647D01*
Y681610D01*
X726839Y683091D01*
X720915D01*
X743795Y669712D02*
X745276Y671194D01*
X748238D01*
X749719Y669712D01*
Y663788D01*
X748238Y662306D01*
X745276D01*
X743795Y663788D01*
X740832Y669712D02*
X739351Y671194D01*
X736389D01*
X734908Y669712D01*
Y668231D01*
X736389Y666750D01*
X737870D01*
X736389D01*
X734908Y665269D01*
Y663788D01*
X736389Y662306D01*
X739351D01*
X740832Y663788D01*
X731945Y671194D02*
X726021D01*
Y669712D01*
X731945Y663788D01*
Y662306D01*
D17*
X471932Y673330D02*
Y665713D01*
X468123Y661904D01*
X464314Y665713D01*
Y673330D01*
X460506D02*
X456697D01*
X458601D01*
Y661904D01*
X460506D01*
X456697D01*
X450984D02*
Y673330D01*
X443366Y661904D01*
Y673330D01*
X439557Y661904D02*
Y673330D01*
X433844D01*
X431940Y671426D01*
Y667617D01*
X433844Y665713D01*
X439557D01*
X435749D02*
X431940Y661904D01*
X428131D02*
Y669521D01*
X424322Y673330D01*
X420514Y669521D01*
Y661904D01*
Y667617D01*
X428131D01*
X416705Y673330D02*
Y661904D01*
X412896Y665713D01*
X409087Y661904D01*
Y673330D01*
X451649Y605918D02*
X453554Y607822D01*
X457363D01*
X459267Y605918D01*
Y598300D01*
X457363Y596396D01*
X453554D01*
X451649Y598300D01*
Y602109D01*
X455458D01*
X447840Y596396D02*
Y607822D01*
X440223Y596396D01*
Y607822D01*
X436414D02*
Y596396D01*
X430701D01*
X428797Y598300D01*
Y605918D01*
X430701Y607822D01*
X436414D01*
X924132Y730884D02*
X930057D01*
Y726440D01*
X927094D01*
X930057D01*
Y721996D01*
X921170Y730884D02*
X915245D01*
X918207D01*
Y721996D01*
X912282Y729402D02*
X910801Y730884D01*
X907839D01*
X906358Y729402D01*
Y727921D01*
X907839Y726440D01*
X906358Y724959D01*
Y723478D01*
X907839Y721996D01*
X910801D01*
X912282Y723478D01*
Y724959D01*
X910801Y726440D01*
X912282Y727921D01*
Y729402D01*
X910801Y726440D02*
X907839D01*
X898952Y721996D02*
Y730884D01*
X903395Y726440D01*
X897470D01*
X894508Y729402D02*
X893027Y730884D01*
X890065D01*
X888583Y729402D01*
Y723478D01*
X890065Y721996D01*
X893027D01*
X894508Y723478D01*
Y729402D01*
X946992Y525144D02*
X952917D01*
Y520700D01*
X949954D01*
X952917D01*
Y516256D01*
X944029Y525144D02*
X938105D01*
X941067D01*
Y516256D01*
X935142Y523662D02*
X933661Y525144D01*
X930699D01*
X929218Y523662D01*
Y522181D01*
X930699Y520700D01*
X929218Y519219D01*
Y517738D01*
X930699Y516256D01*
X933661D01*
X935142Y517738D01*
Y519219D01*
X933661Y520700D01*
X935142Y522181D01*
Y523662D01*
X933661Y520700D02*
X930699D01*
X926255Y523662D02*
X924774Y525144D01*
X921812D01*
X920331Y523662D01*
Y522181D01*
X921812Y520700D01*
X920331Y519219D01*
Y517738D01*
X921812Y516256D01*
X924774D01*
X926255Y517738D01*
Y519219D01*
X924774Y520700D01*
X926255Y522181D01*
Y523662D01*
X924774Y520700D02*
X921812D01*
X917368Y523662D02*
X915887Y525144D01*
X912925D01*
X911443Y523662D01*
Y517738D01*
X912925Y516256D01*
X915887D01*
X917368Y517738D01*
Y523662D01*
X977472Y542924D02*
X983397D01*
Y538480D01*
X980434D01*
X983397D01*
Y534036D01*
X974510Y542924D02*
X968585D01*
X971547D01*
Y534036D01*
X965622Y541442D02*
X964141Y542924D01*
X961179D01*
X959698Y541442D01*
Y539961D01*
X961179Y538480D01*
X959698Y536999D01*
Y535518D01*
X961179Y534036D01*
X964141D01*
X965622Y535518D01*
Y536999D01*
X964141Y538480D01*
X965622Y539961D01*
Y541442D01*
X964141Y538480D02*
X961179D01*
X956735Y542924D02*
X950810D01*
Y541442D01*
X956735Y535518D01*
Y534036D01*
X947848Y541442D02*
X946367Y542924D01*
X943405D01*
X941923Y541442D01*
Y535518D01*
X943405Y534036D01*
X946367D01*
X947848Y535518D01*
Y541442D01*
X974932Y730884D02*
X980857D01*
Y726440D01*
X977894D01*
X980857D01*
Y721996D01*
X971970Y730884D02*
X966045D01*
X969007D01*
Y721996D01*
X963082Y729402D02*
X961601Y730884D01*
X958639D01*
X957158Y729402D01*
Y727921D01*
X958639Y726440D01*
X957158Y724959D01*
Y723478D01*
X958639Y721996D01*
X961601D01*
X963082Y723478D01*
Y724959D01*
X961601Y726440D01*
X963082Y727921D01*
Y729402D01*
X961601Y726440D02*
X958639D01*
X954195Y729402D02*
X952714Y730884D01*
X949752D01*
X948270Y729402D01*
Y727921D01*
X949752Y726440D01*
X951233D01*
X949752D01*
X948270Y724959D01*
Y723478D01*
X949752Y721996D01*
X952714D01*
X954195Y723478D01*
X945308Y729402D02*
X943827Y730884D01*
X940865D01*
X939383Y729402D01*
Y723478D01*
X940865Y721996D01*
X943827D01*
X945308Y723478D01*
Y729402D01*
X1076532Y542924D02*
X1082457D01*
Y538480D01*
X1079494D01*
X1082457D01*
Y534036D01*
X1073569Y542924D02*
X1067645D01*
X1070607D01*
Y534036D01*
X1064682Y541442D02*
X1063201Y542924D01*
X1060239D01*
X1058758Y541442D01*
Y539961D01*
X1060239Y538480D01*
X1058758Y536999D01*
Y535518D01*
X1060239Y534036D01*
X1063201D01*
X1064682Y535518D01*
Y536999D01*
X1063201Y538480D01*
X1064682Y539961D01*
Y541442D01*
X1063201Y538480D02*
X1060239D01*
X1049871Y542924D02*
X1052833Y541442D01*
X1055795Y538480D01*
Y535518D01*
X1054314Y534036D01*
X1051352D01*
X1049871Y535518D01*
Y536999D01*
X1051352Y538480D01*
X1055795D01*
X1046908Y541442D02*
X1045427Y542924D01*
X1042465D01*
X1040983Y541442D01*
Y535518D01*
X1042465Y534036D01*
X1045427D01*
X1046908Y535518D01*
Y541442D01*
X1076532Y730884D02*
X1082457D01*
Y726440D01*
X1079494D01*
X1082457D01*
Y721996D01*
X1073569Y730884D02*
X1067645D01*
X1070607D01*
Y721996D01*
X1064682Y729402D02*
X1063201Y730884D01*
X1060239D01*
X1058758Y729402D01*
Y727921D01*
X1060239Y726440D01*
X1058758Y724959D01*
Y723478D01*
X1060239Y721996D01*
X1063201D01*
X1064682Y723478D01*
Y724959D01*
X1063201Y726440D01*
X1064682Y727921D01*
Y729402D01*
X1063201Y726440D02*
X1060239D01*
X1049871Y721996D02*
X1055795D01*
X1049871Y727921D01*
Y729402D01*
X1051352Y730884D01*
X1054314D01*
X1055795Y729402D01*
X1046908D02*
X1045427Y730884D01*
X1042465D01*
X1040983Y729402D01*
Y723478D01*
X1042465Y721996D01*
X1045427D01*
X1046908Y723478D01*
Y729402D01*
X1131671Y730884D02*
X1137596D01*
Y726440D01*
X1134634D01*
X1137596D01*
Y721996D01*
X1128709Y730884D02*
X1122784D01*
X1125747D01*
Y721996D01*
X1119822Y729402D02*
X1118341Y730884D01*
X1115378D01*
X1113897Y729402D01*
Y727921D01*
X1115378Y726440D01*
X1113897Y724959D01*
Y723478D01*
X1115378Y721996D01*
X1118341D01*
X1119822Y723478D01*
Y724959D01*
X1118341Y726440D01*
X1119822Y727921D01*
Y729402D01*
X1118341Y726440D02*
X1115378D01*
X1110935Y721996D02*
X1107972D01*
X1109454D01*
Y730884D01*
X1110935Y729402D01*
X1103529D02*
X1102048Y730884D01*
X1099085D01*
X1097604Y729402D01*
Y723478D01*
X1099085Y721996D01*
X1102048D01*
X1103529Y723478D01*
Y729402D01*
X1132412Y542924D02*
X1138337D01*
Y538480D01*
X1135374D01*
X1138337D01*
Y534036D01*
X1129449Y542924D02*
X1123525D01*
X1126487D01*
Y534036D01*
X1120562Y541442D02*
X1119081Y542924D01*
X1116119D01*
X1114638Y541442D01*
Y539961D01*
X1116119Y538480D01*
X1114638Y536999D01*
Y535518D01*
X1116119Y534036D01*
X1119081D01*
X1120562Y535518D01*
Y536999D01*
X1119081Y538480D01*
X1120562Y539961D01*
Y541442D01*
X1119081Y538480D02*
X1116119D01*
X1105751Y542924D02*
X1111675D01*
Y538480D01*
X1108713Y539961D01*
X1107232D01*
X1105751Y538480D01*
Y535518D01*
X1107232Y534036D01*
X1110194D01*
X1111675Y535518D01*
X1102788Y541442D02*
X1101307Y542924D01*
X1098345D01*
X1096863Y541442D01*
Y535518D01*
X1098345Y534036D01*
X1101307D01*
X1102788Y535518D01*
Y541442D01*
D18*
X522296Y607685D02*
X542363D01*
X522296Y620055D02*
Y627828D01*
Y640197D02*
X542363D01*
M02*
