G04*
G04 #@! TF.GenerationSoftware,Altium Limited,Altium Designer,24.3.1 (35)*
G04*
G04 Layer_Color=128*
%FSLAX44Y44*%
%MOMM*%
G71*
G04*
G04 #@! TF.SameCoordinates,35E8F126-3BB9-435E-BEC0-E910B6038B45*
G04*
G04*
G04 #@! TF.FilePolarity,Positive*
G04*
G01*
G75*
%ADD15C,0.1270*%
D15*
X612537Y451361D02*
X613553D01*
X613045Y450853D02*
Y451869D01*
X739385Y717601D02*
X740401D01*
X739893Y717093D02*
Y718109D01*
X697433Y715775D02*
X698449D01*
X697941Y715267D02*
Y716283D01*
X510620Y602701D02*
X511636D01*
X511128Y602193D02*
Y603209D01*
X513089Y614441D02*
X514105D01*
X513597Y613933D02*
Y614949D01*
X508572Y613345D02*
X509588D01*
X509080Y612837D02*
Y613853D01*
X690227Y560644D02*
X691243D01*
X690735Y560136D02*
Y561152D01*
X660046Y588808D02*
X661062D01*
X660554Y588300D02*
Y589316D01*
X664254Y550279D02*
X665270D01*
X664762Y549771D02*
Y550787D01*
X723663Y603919D02*
X724679D01*
X724171Y603411D02*
Y604427D01*
X746796Y543308D02*
X747812D01*
X747304Y542800D02*
Y543816D01*
X719303Y585815D02*
X720319D01*
X719811Y585307D02*
Y586323D01*
X647697Y625355D02*
X648713D01*
X648205Y624847D02*
Y625863D01*
X656697Y625355D02*
X657713D01*
X657205Y624847D02*
Y625863D01*
X624476Y629826D02*
X625492D01*
X624984Y629318D02*
Y630334D01*
X886865Y601472D02*
X887881D01*
X887373Y600964D02*
Y601980D01*
X761495Y422912D02*
X762511D01*
X762002Y422405D02*
Y423420D01*
X452882Y622300D02*
X453898D01*
X453390Y621792D02*
Y622808D01*
X452882Y647700D02*
X453898D01*
X453390Y647192D02*
Y648208D01*
X545592Y422910D02*
X546608D01*
X546100Y422402D02*
Y423418D01*
X780711Y592294D02*
X781727D01*
X781219Y591786D02*
Y592802D01*
X699262Y509269D02*
X700278D01*
X699770Y508761D02*
Y509777D01*
X642865Y514327D02*
X643881D01*
X643373Y513819D02*
Y514835D01*
X632365Y509298D02*
X633381D01*
X632873Y508790D02*
Y509806D01*
X812294Y453392D02*
X813310D01*
X812802Y452884D02*
Y453900D01*
X786894Y453392D02*
X787910D01*
X787402Y452884D02*
Y453900D01*
X761494Y453392D02*
X762510D01*
X762002Y452884D02*
Y453900D01*
X774194Y453392D02*
X775210D01*
X774702Y452884D02*
Y453900D01*
X812294Y422912D02*
X813310D01*
X812803Y422405D02*
Y423420D01*
X786895Y422912D02*
X787911D01*
X787402Y422405D02*
Y423420D01*
X774194Y422912D02*
X775210D01*
X774703Y422405D02*
Y423420D01*
X697992Y440690D02*
X699008D01*
X698500Y440182D02*
Y441198D01*
X647192Y440690D02*
X648208D01*
X647700Y440182D02*
Y441198D01*
X621792Y440690D02*
X622808D01*
X622300Y440182D02*
Y441198D01*
X884314Y706234D02*
X885330D01*
X884822Y705726D02*
Y706742D01*
X883978Y715158D02*
X884994D01*
X884486Y714650D02*
Y715666D01*
X932057Y596299D02*
X933073D01*
X932564Y595791D02*
Y596807D01*
X982667Y596325D02*
X983683D01*
X983175Y595816D02*
Y596833D01*
X885595Y546320D02*
X886611D01*
X886103Y545812D02*
Y546828D01*
X997077Y555626D02*
X998093D01*
X997585Y555118D02*
Y556134D01*
X997077Y564770D02*
X998093D01*
X997585Y564262D02*
Y565278D01*
X997077Y573914D02*
X998093D01*
X997585Y573406D02*
Y574422D01*
X997077Y583058D02*
X998093D01*
X997585Y582550D02*
Y583566D01*
X997077Y715392D02*
X998093D01*
X997585Y714884D02*
Y715900D01*
X972949Y710820D02*
X973965D01*
X973457Y710312D02*
Y711328D01*
X576326Y718943D02*
X577342D01*
X576834Y718435D02*
Y719451D01*
X651947Y530678D02*
X652963D01*
X652455Y530170D02*
Y531186D01*
X668498Y525025D02*
X669514D01*
X669006Y524517D02*
Y525533D01*
X623247Y524178D02*
X624263D01*
X623755Y523670D02*
Y524686D01*
X623247Y537178D02*
X624263D01*
X623755Y536670D02*
Y537686D01*
X734296Y595808D02*
X735312D01*
X734804Y595300D02*
Y596316D01*
X746796Y593308D02*
X747812D01*
X747304Y592800D02*
Y593816D01*
X741796Y593308D02*
X742812D01*
X742304Y592800D02*
Y593816D01*
X746796Y588308D02*
X747812D01*
X747304Y587800D02*
Y588816D01*
X708576Y606902D02*
X709592D01*
X709084Y606394D02*
Y607410D01*
X717023Y613397D02*
X718039D01*
X717531Y612889D02*
Y613905D01*
X709303Y537178D02*
X710319D01*
X709811Y536670D02*
Y537686D01*
X733209Y570815D02*
X734225D01*
X733717Y570307D02*
Y571323D01*
X623247Y543678D02*
X624263D01*
X623755Y543170D02*
Y544186D01*
X702885Y538182D02*
X703901D01*
X703393Y537674D02*
Y538690D01*
X623247Y530678D02*
X624263D01*
X623755Y530170D02*
Y531186D01*
X709753Y519439D02*
X710770D01*
X710262Y518931D02*
Y519947D01*
X711796Y525813D02*
X712812D01*
X712304Y525305D02*
Y526321D01*
X719303Y522232D02*
X720319D01*
X719811Y521724D02*
Y522740D01*
X678575Y525025D02*
X679591D01*
X679083Y524517D02*
Y525533D01*
X696797Y529229D02*
X697813D01*
X697305Y528721D02*
Y529737D01*
X667257Y514327D02*
X668273D01*
X667765Y513819D02*
Y514835D01*
X619223Y509298D02*
X620239D01*
X619731Y508790D02*
Y509806D01*
X890612Y602281D02*
X891628D01*
X891120Y601773D02*
Y602789D01*
X894902Y602967D02*
X895918D01*
X895410Y602459D02*
Y603475D01*
X1004761Y600344D02*
X1005777D01*
X1005269Y599836D02*
Y600852D01*
X887304Y596294D02*
X888320D01*
X887812Y595786D02*
Y596802D01*
X880238Y619759D02*
X881254D01*
X880746Y619251D02*
Y620267D01*
X988167Y606287D02*
X989183D01*
X988674Y605779D02*
Y606795D01*
X998166Y606287D02*
X999182D01*
X998674Y605779D02*
Y606795D01*
X1008166Y606287D02*
X1009182D01*
X1008674Y605779D02*
Y606795D01*
X773211Y605974D02*
X774227D01*
X773719Y605466D02*
Y606482D01*
X765766Y581028D02*
X766782D01*
X766274Y580520D02*
Y581536D01*
X1093684Y599226D02*
X1094700D01*
X1094192Y598718D02*
Y599734D01*
X1033168Y606287D02*
X1034184D01*
X1033676Y605779D02*
Y606795D01*
X1043168Y606287D02*
X1044184D01*
X1043676Y605779D02*
Y606795D01*
X1129244Y599226D02*
X1130260D01*
X1129752Y598718D02*
Y599734D01*
X1111464Y599226D02*
X1112480D01*
X1111972Y598718D02*
Y599734D01*
X1038169Y606287D02*
X1039185D01*
X1038677Y605779D02*
Y606795D01*
X1048169Y596329D02*
X1049185D01*
X1048677Y595821D02*
Y596837D01*
X1138301Y687960D02*
X1139317D01*
X1138809Y687452D02*
Y688468D01*
X1138301Y697104D02*
X1139317D01*
X1138809Y696596D02*
Y697612D01*
X1138301Y706248D02*
X1139317D01*
X1138809Y705740D02*
Y706756D01*
X1138301Y715392D02*
X1139317D01*
X1138809Y714884D02*
Y715900D01*
X1114173Y683388D02*
X1115189D01*
X1114681Y682880D02*
Y683896D01*
X1114173Y692532D02*
X1115189D01*
X1114681Y692024D02*
Y693040D01*
X1114173Y701676D02*
X1115189D01*
X1114681Y701168D02*
Y702184D01*
X1114173Y710820D02*
X1115189D01*
X1114681Y710312D02*
Y711328D01*
X1048385Y687960D02*
X1049401D01*
X1048893Y687452D02*
Y688468D01*
X1048385Y697104D02*
X1049401D01*
X1048893Y696596D02*
Y697612D01*
X1048385Y706248D02*
X1049401D01*
X1048893Y705740D02*
Y706756D01*
X1048385Y715392D02*
X1049401D01*
X1048893Y714884D02*
Y715900D01*
X1024257Y710820D02*
X1025273D01*
X1024765Y710312D02*
Y711328D01*
X1024257Y701676D02*
X1025273D01*
X1024765Y701168D02*
Y702184D01*
X1024257Y692532D02*
X1025273D01*
X1024765Y692024D02*
Y693040D01*
X1024257Y683388D02*
X1025273D01*
X1024765Y682880D02*
Y683896D01*
X997077Y687960D02*
X998093D01*
X997585Y687452D02*
Y688468D01*
X997077Y697104D02*
X998093D01*
X997585Y696596D02*
Y697612D01*
X997077Y706248D02*
X998093D01*
X997585Y705740D02*
Y706756D01*
X972949Y683388D02*
X973965D01*
X973457Y682880D02*
Y683896D01*
X972949Y692532D02*
X973965D01*
X973457Y692024D02*
Y693040D01*
X972949Y701676D02*
X973965D01*
X973457Y701168D02*
Y702184D01*
X883033Y683388D02*
X884049D01*
X883541Y682880D02*
Y683896D01*
X883033Y692532D02*
X884049D01*
X883541Y692024D02*
Y693040D01*
X907161Y687960D02*
X908177D01*
X907669Y687452D02*
Y688468D01*
X907161Y697104D02*
X908177D01*
X907669Y696596D02*
Y697612D01*
X907161Y706248D02*
X908177D01*
X907669Y705740D02*
Y706756D01*
X907161Y715392D02*
X908177D01*
X907669Y714884D02*
Y715900D01*
X883033Y560198D02*
X884049D01*
X883541Y559690D02*
Y560706D01*
X883033Y569342D02*
X884049D01*
X883541Y568834D02*
Y569850D01*
X883033Y578486D02*
X884049D01*
X883541Y577978D02*
Y578994D01*
X907161Y555626D02*
X908177D01*
X907669Y555118D02*
Y556134D01*
X907161Y564770D02*
X908177D01*
X907669Y564262D02*
Y565278D01*
X907161Y573914D02*
X908177D01*
X907669Y573406D02*
Y574422D01*
X907161Y583058D02*
X908177D01*
X907669Y582550D02*
Y583566D01*
X972949Y551054D02*
X973965D01*
X973457Y550546D02*
Y551562D01*
X972949Y560198D02*
X973965D01*
X973457Y559690D02*
Y560706D01*
X972949Y569342D02*
X973965D01*
X973457Y568834D02*
Y569850D01*
X972949Y578486D02*
X973965D01*
X973457Y577978D02*
Y578994D01*
X1138301Y555626D02*
X1139317D01*
X1138809Y555118D02*
Y556134D01*
X1138301Y564770D02*
X1139317D01*
X1138809Y564262D02*
Y565278D01*
X1138301Y573914D02*
X1139317D01*
X1138809Y573406D02*
Y574422D01*
X1138301Y583058D02*
X1139317D01*
X1138809Y582550D02*
Y583566D01*
X1114173Y551054D02*
X1115189D01*
X1114681Y550546D02*
Y551562D01*
X1114173Y560198D02*
X1115189D01*
X1114681Y559690D02*
Y560706D01*
X1114173Y569342D02*
X1115189D01*
X1114681Y568834D02*
Y569850D01*
X1114173Y578486D02*
X1115189D01*
X1114681Y577978D02*
Y578994D01*
X1048385Y555626D02*
X1049401D01*
X1048893Y555118D02*
Y556134D01*
X1048385Y564770D02*
X1049401D01*
X1048893Y564262D02*
Y565278D01*
X1048385Y573914D02*
X1049401D01*
X1048893Y573406D02*
Y574422D01*
X1048385Y583058D02*
X1049401D01*
X1048893Y582550D02*
Y583566D01*
X1024257Y551054D02*
X1025273D01*
X1024765Y550546D02*
Y551562D01*
X1024257Y560198D02*
X1025273D01*
X1024765Y559690D02*
Y560706D01*
X1024257Y569342D02*
X1025273D01*
X1024765Y568834D02*
Y569850D01*
X1024257Y578486D02*
X1025273D01*
X1024765Y577978D02*
Y578994D01*
X749289Y565815D02*
X750305D01*
X749797Y565307D02*
Y566323D01*
X758488Y568067D02*
X759504D01*
X758997Y567559D02*
Y568575D01*
X739303Y570815D02*
X740319D01*
X739811Y570307D02*
Y571323D01*
X736257Y616760D02*
X737273D01*
X736765Y616252D02*
Y617268D01*
X741752Y613397D02*
X742768D01*
X742260Y612889D02*
Y613905D01*
X773213Y577255D02*
X774229D01*
X773721Y576747D02*
Y577763D01*
X746796Y601833D02*
X747812D01*
X747304Y601325D02*
Y602341D01*
X733748Y603768D02*
X734764D01*
X734256Y603260D02*
Y604276D01*
X769126Y560463D02*
X770142D01*
X769633Y559955D02*
Y560971D01*
X758816Y575815D02*
X759832D01*
X759324Y575307D02*
Y576323D01*
X754770Y580815D02*
X755786D01*
X755278Y580307D02*
Y581323D01*
X762146Y537958D02*
X763162D01*
X762654Y537450D02*
Y538466D01*
X759513Y609307D02*
X760529D01*
X760022Y608799D02*
Y609815D01*
X704606Y619808D02*
X705622D01*
X705114Y619300D02*
Y620316D01*
X770956Y524148D02*
X771972D01*
X771464Y523640D02*
Y524656D01*
X665885Y713815D02*
X666901D01*
X666393Y713307D02*
Y714323D01*
X648605Y705640D02*
X649621D01*
X649113Y705133D02*
Y706149D01*
X705885Y677974D02*
X706901D01*
X706393Y677466D02*
Y678482D01*
X718385Y683649D02*
X719401D01*
X718894Y683141D02*
Y684157D01*
X739385Y684673D02*
X740401D01*
X739893Y684165D02*
Y685181D01*
X720239Y714553D02*
X721255D01*
X720747Y714045D02*
Y715061D01*
X726385Y698344D02*
X727401D01*
X726893Y697836D02*
Y698852D01*
X732885Y703121D02*
X733901D01*
X733393Y702613D02*
Y703629D01*
X643525Y689067D02*
X644541D01*
X644033Y688559D02*
Y689575D01*
X538362Y633441D02*
X539378D01*
X538870Y632933D02*
Y633949D01*
X600928Y720375D02*
X601945D01*
X601437Y719867D02*
Y720883D01*
X531647Y719748D02*
X532663D01*
X532155Y719240D02*
Y720256D01*
X517423Y719748D02*
X518439D01*
X517931Y719240D02*
Y720256D01*
X684046Y536528D02*
X685062D01*
X684554Y536020D02*
Y537036D01*
X716796Y516964D02*
X717812D01*
X717304Y516456D02*
Y517472D01*
X756412Y619808D02*
X757428D01*
X756920Y619300D02*
Y620316D01*
X736796Y536046D02*
X737812D01*
X737304Y535538D02*
Y536554D01*
X724416Y619808D02*
X725432D01*
X724924Y619300D02*
Y620316D01*
X574431Y591266D02*
X575447D01*
X574939Y590758D02*
Y591774D01*
X591411Y580218D02*
X592427D01*
X591919Y579710D02*
Y580726D01*
X696796Y578308D02*
X697812D01*
X697304Y577800D02*
Y578816D01*
X598561Y509298D02*
X599577D01*
X599069Y508790D02*
Y509806D01*
X780711Y587294D02*
X781727D01*
X781219Y586786D02*
Y587802D01*
X780713Y567255D02*
X781729D01*
X781221Y566747D02*
Y567763D01*
X711796Y593308D02*
X712812D01*
X712304Y592800D02*
Y593816D01*
X724416Y610808D02*
X725432D01*
X724924Y610300D02*
Y611316D01*
X626162Y594807D02*
X627178D01*
X626670Y594299D02*
Y595315D01*
X511035Y659455D02*
X512051D01*
X511543Y658947D02*
Y659963D01*
X538035Y659455D02*
X539051D01*
X538543Y658947D02*
Y659963D01*
X757829Y583308D02*
X758845D01*
X758337Y582800D02*
Y583816D01*
X676046Y551258D02*
X677062D01*
X676554Y550750D02*
Y551766D01*
X696106Y619808D02*
X697122D01*
X696614Y619300D02*
Y620316D01*
X668496Y543258D02*
X669512D01*
X669004Y542750D02*
Y543766D01*
X639661Y555706D02*
X640677D01*
X640169Y555198D02*
Y556214D01*
X631661Y555706D02*
X632677D01*
X632169Y555198D02*
Y556214D01*
X741796Y543308D02*
X742812D01*
X742304Y542800D02*
Y543816D01*
X765462Y588178D02*
X766478D01*
X765970Y587670D02*
Y588686D01*
X765462Y568004D02*
X766478D01*
X765970Y567496D02*
Y568512D01*
X780713Y572255D02*
X781729D01*
X781221Y571747D02*
Y572763D01*
X780711Y597294D02*
X781727D01*
X781219Y596786D02*
Y597802D01*
X765462Y596178D02*
X766478D01*
X765970Y595670D02*
Y596686D01*
X773213Y572255D02*
X774229D01*
X773721Y571747D02*
Y572763D01*
X765462Y576004D02*
X766478D01*
X765970Y575496D02*
Y576512D01*
X723392Y525780D02*
X724408D01*
X723900Y525272D02*
Y526288D01*
X696796Y553308D02*
X697812D01*
X697304Y552800D02*
Y553816D01*
X543134Y587110D02*
X544150D01*
X543642Y586602D02*
Y587618D01*
X574661Y582721D02*
X575677D01*
X575169Y582213D02*
Y583229D01*
X575661Y535663D02*
X576677D01*
X576169Y535155D02*
Y536171D01*
X620161Y568308D02*
X621177D01*
X620669Y567800D02*
Y568816D01*
X575181Y545913D02*
X576197D01*
X575689Y545405D02*
Y546421D01*
X553640Y614633D02*
X554656D01*
X554148Y614125D02*
Y615141D01*
X582402Y622993D02*
X583418D01*
X582910Y622485D02*
Y623501D01*
X609411Y591266D02*
X610427D01*
X609919Y590758D02*
Y591774D01*
X600161Y536893D02*
X601177D01*
X600669Y536385D02*
Y537401D01*
X600161Y573496D02*
X601177D01*
X600669Y572988D02*
Y574004D01*
X575181Y554663D02*
X576197D01*
X575689Y554155D02*
Y555171D01*
X609411Y554663D02*
X610427D01*
X609919Y554155D02*
Y555171D01*
X551322Y641281D02*
X552338D01*
X551830Y640773D02*
Y641789D01*
X560632Y641281D02*
X561648D01*
X561140Y640773D02*
Y641789D01*
X555632Y624281D02*
X556648D01*
X556140Y623773D02*
Y624789D01*
X564190Y607933D02*
X565206D01*
X564698Y607425D02*
Y608441D01*
X551090Y598833D02*
X552106D01*
X551598Y598325D02*
Y599341D01*
X557640Y597403D02*
X558656D01*
X558148Y596895D02*
Y597911D01*
X561640Y614633D02*
X562656D01*
X562148Y614125D02*
Y615141D01*
X637447Y629855D02*
X638463D01*
X637955Y629347D02*
Y630363D01*
X620161Y611308D02*
X621177D01*
X620669Y610800D02*
Y611816D01*
X607447Y629855D02*
X608463D01*
X607955Y629347D02*
Y630363D01*
X607447Y621855D02*
X608463D01*
X607955Y621347D02*
Y622363D01*
X682066Y576058D02*
X683082D01*
X682574Y575550D02*
Y576566D01*
X674566Y565538D02*
X675582D01*
X675074Y565030D02*
Y566046D01*
X660046Y604808D02*
X661062D01*
X660554Y604300D02*
Y605316D01*
X657856Y565538D02*
X658872D01*
X658364Y565030D02*
Y566046D01*
X657856Y576058D02*
X658872D01*
X658364Y575550D02*
Y576566D01*
X560452Y537913D02*
X561468D01*
X560960Y537405D02*
Y538421D01*
X546452Y537913D02*
X547468D01*
X546960Y537405D02*
Y538421D01*
X512412Y582730D02*
X513428D01*
X512920Y582222D02*
Y583238D01*
X539771Y627709D02*
X540787D01*
X540279Y627201D02*
Y628217D01*
X538458Y605383D02*
X539474D01*
X538966Y604875D02*
Y605891D01*
X711796Y558308D02*
X712812D01*
X712304Y557800D02*
Y558816D01*
X609411Y583266D02*
X610427D01*
X609919Y582758D02*
Y583774D01*
X609411Y546663D02*
X610427D01*
X609919Y546155D02*
Y547171D01*
X600161Y564496D02*
X601177D01*
X600669Y563988D02*
Y565004D01*
X600161Y527893D02*
X601177D01*
X600669Y527385D02*
Y528401D01*
X508572Y628441D02*
X509588D01*
X509080Y627933D02*
Y628949D01*
X523632Y649330D02*
X524648D01*
X524140Y648822D02*
Y649838D01*
X509632Y649330D02*
X510648D01*
X510140Y648822D02*
Y649838D01*
X585326Y710443D02*
X586342D01*
X585834Y709935D02*
Y710951D01*
X624447Y679255D02*
X625463D01*
X624955Y678747D02*
Y679763D01*
X568076Y705866D02*
X569092D01*
X568584Y705358D02*
Y706374D01*
X637197Y689575D02*
X638213D01*
X637705Y689067D02*
Y690083D01*
X517535Y691056D02*
X518551D01*
X518043Y690548D02*
Y691564D01*
X531535Y691056D02*
X532551D01*
X532043Y690548D02*
Y691564D01*
X630947Y679255D02*
X631963D01*
X631455Y678747D02*
Y679763D01*
X782131Y699710D02*
X783147D01*
X782639Y699202D02*
Y700218D01*
X756412Y709432D02*
X757428D01*
X756920Y708924D02*
Y709940D01*
X568576Y714693D02*
X569592D01*
X569084Y714185D02*
Y715201D01*
X576326Y701943D02*
X577342D01*
X576834Y701435D02*
Y702451D01*
X607447Y673855D02*
X608463D01*
X607955Y673347D02*
Y674363D01*
X618697Y716115D02*
X619713D01*
X619205Y715607D02*
Y716623D01*
X768131Y699710D02*
X769147D01*
X768639Y699202D02*
Y700218D01*
X618197Y689575D02*
X619213D01*
X618705Y689067D02*
Y690083D01*
X751796Y598308D02*
X752812D01*
X752304Y597800D02*
Y598816D01*
X537506Y648983D02*
X538522D01*
X538014Y648475D02*
Y649491D01*
X595728Y703375D02*
X596744D01*
X596236Y702867D02*
Y703883D01*
X605978Y694875D02*
X606994D01*
X606486Y694367D02*
Y695383D01*
X539242Y520700D02*
X540258D01*
X539750Y520192D02*
Y521208D01*
X682752Y509269D02*
X683768D01*
X683260Y508761D02*
Y509777D01*
X741796Y548308D02*
X742812D01*
X742304Y547800D02*
Y548816D01*
X711796Y563308D02*
X712812D01*
X712304Y562800D02*
Y563816D01*
X531535Y677056D02*
X532551D01*
X532043Y676548D02*
Y677564D01*
X517535Y677056D02*
X518551D01*
X518043Y676548D02*
Y677564D01*
X736796Y558308D02*
X737812D01*
X737304Y557800D02*
Y558816D01*
X736796Y563308D02*
X737812D01*
X737304Y562800D02*
Y563816D01*
X696796Y563308D02*
X697812D01*
X697304Y562800D02*
Y563816D01*
X711796Y578308D02*
X712812D01*
X712304Y577800D02*
Y578816D01*
X711796Y583308D02*
X712812D01*
X712304Y582800D02*
Y583816D01*
X731796Y583308D02*
X732812D01*
X732304Y582800D02*
Y583816D01*
X736796Y583308D02*
X737812D01*
X737304Y582800D02*
Y583816D01*
X736796Y578308D02*
X737812D01*
X737304Y577800D02*
Y578816D01*
X726796Y573308D02*
X727812D01*
X727304Y572800D02*
Y573816D01*
X721796Y573308D02*
X722812D01*
X722304Y572800D02*
Y573816D01*
X726796Y568308D02*
X727812D01*
X727304Y567800D02*
Y568816D01*
X721796Y568308D02*
X722812D01*
X722304Y567800D02*
Y568816D01*
X787131Y717210D02*
X788147D01*
X787639Y716702D02*
Y717718D01*
X772907Y717210D02*
X773923D01*
X773415Y716702D02*
Y717718D01*
X637609Y677715D02*
X638625D01*
X638117Y677207D02*
Y678223D01*
X595728Y694875D02*
X596744D01*
X596236Y694367D02*
Y695383D01*
X607447Y681855D02*
X608463D01*
X607955Y681347D02*
Y682363D01*
X637197Y715775D02*
X638213D01*
X637705Y715267D02*
Y716283D01*
X756412Y717432D02*
X757428D01*
X756920Y716924D02*
Y717940D01*
M02*
