G04*
G04 #@! TF.GenerationSoftware,Altium Limited,Altium Designer,24.3.1 (35)*
G04*
G04 Layer_Color=2752767*
%FSLAX44Y44*%
%MOMM*%
G71*
G04*
G04 #@! TF.SameCoordinates,35E8F126-3BB9-435E-BEC0-E910B6038B45*
G04*
G04*
G04 #@! TF.FilePolarity,Positive*
G04*
G01*
G75*
%ADD15C,0.1270*%
%ADD108C,0.1693*%
D15*
X1222955Y430841D02*
Y441001D01*
X1233115D01*
Y430841D01*
X1222955D01*
X430841D02*
Y441001D01*
X441001D01*
Y430841D01*
X430841D01*
Y836019D02*
Y846179D01*
X441001D01*
Y836019D01*
X430841D01*
X1222955D02*
Y846179D01*
X1233115D01*
Y836019D01*
X1222955D01*
X652785Y757712D02*
X647705Y767872D01*
X657865D01*
X652785Y757712D01*
Y759744D02*
X649737Y765840D01*
X655833D01*
X652785Y759744D01*
X773415Y757712D02*
X768335Y767872D01*
X778495D01*
X773415Y757712D01*
Y759744D02*
X770367Y765840D01*
X776463D01*
X773415Y759744D01*
X787639Y757712D02*
X782559Y767872D01*
X792719D01*
X787639Y757712D01*
Y759744D02*
X784591Y765840D01*
X790687D01*
X787639Y759744D01*
X532155Y757712D02*
X527075Y767872D01*
X537235D01*
X532155Y757712D01*
Y759744D02*
X529107Y765840D01*
X535203D01*
X532155Y759744D01*
X517931Y757712D02*
X512851Y767872D01*
X523011D01*
X517931Y757712D01*
Y759744D02*
X514883Y765840D01*
X520979D01*
X517931Y759744D01*
X759462Y429262D02*
Y426722D01*
X764542D01*
Y429262D01*
X767082D01*
Y434342D01*
X764542D01*
Y436882D01*
X759462D01*
Y434342D01*
X756922D01*
Y429262D01*
X759462D01*
Y441962D02*
Y439422D01*
X764542D01*
Y441962D01*
X767082D01*
Y447042D01*
X764542D01*
Y449582D01*
X759462D01*
Y447042D01*
X756922D01*
Y441962D01*
X759462D01*
X772162Y429262D02*
Y426722D01*
X777242D01*
Y429262D01*
X779782D01*
Y434342D01*
X777242D01*
Y436882D01*
X772162D01*
Y434342D01*
X769622D01*
Y429262D01*
X772162D01*
Y441962D02*
Y439422D01*
X777242D01*
Y441962D01*
X779782D01*
Y447042D01*
X777242D01*
Y449582D01*
X772162D01*
Y447042D01*
X769622D01*
Y441962D01*
X772162D01*
X784862Y429262D02*
Y426722D01*
X789942D01*
Y429262D01*
X792482D01*
Y434342D01*
X789942D01*
Y436882D01*
X784862D01*
Y434342D01*
X782322D01*
Y429262D01*
X784862D01*
Y441962D02*
Y439422D01*
X789942D01*
Y441962D01*
X792482D01*
Y447042D01*
X789942D01*
Y449582D01*
X784862D01*
Y447042D01*
X782322D01*
Y441962D01*
X784862D01*
X797562Y429262D02*
Y426722D01*
X802642D01*
Y429262D01*
X805182D01*
Y434342D01*
X802642D01*
Y436882D01*
X797562D01*
Y434342D01*
X795022D01*
Y429262D01*
X797562D01*
Y441962D02*
Y439422D01*
X802642D01*
Y441962D01*
X805182D01*
Y447042D01*
X802642D01*
Y449582D01*
X797562D01*
Y447042D01*
X795022D01*
Y441962D01*
X797562D01*
X810262Y429262D02*
Y426722D01*
X815342D01*
Y429262D01*
X817882D01*
Y434342D01*
X815342D01*
Y436882D01*
X810262D01*
Y434342D01*
X807722D01*
Y429262D01*
X810262D01*
Y441962D02*
Y439422D01*
X815342D01*
Y441962D01*
X817882D01*
Y447042D01*
X815342D01*
Y449582D01*
X810262D01*
Y447042D01*
X807722D01*
Y441962D01*
X810262D01*
X886588Y573406D02*
X889128Y578486D01*
X886588Y583566D01*
X891668Y581026D01*
X896748Y583566D01*
X894208Y578486D01*
X896748Y573406D01*
X891668Y575946D01*
X886588Y573406D01*
Y564262D02*
X889128Y569342D01*
X886588Y574422D01*
X891668Y571882D01*
X896748Y574422D01*
X894208Y569342D01*
X896748Y564262D01*
X891668Y566802D01*
X886588Y564262D01*
Y555118D02*
X889128Y560198D01*
X886588Y565278D01*
X891668Y562738D01*
X896748Y565278D01*
X894208Y560198D01*
X896748Y555118D01*
X891668Y557658D01*
X886588Y555118D01*
Y545974D02*
X889128Y551054D01*
X886588Y556134D01*
X891668Y553594D01*
X896748Y556134D01*
X894208Y551054D01*
X896748Y545974D01*
X891668Y548514D01*
X886588Y545974D01*
X894462Y577978D02*
X897002Y583058D01*
X894462Y588138D01*
X899542Y585598D01*
X904622Y588138D01*
X902082Y583058D01*
X904622Y577978D01*
X899542Y580518D01*
X894462Y577978D01*
Y568834D02*
X897002Y573914D01*
X894462Y578994D01*
X899542Y576454D01*
X904622Y578994D01*
X902082Y573914D01*
X904622Y568834D01*
X899542Y571374D01*
X894462Y568834D01*
Y559690D02*
X897002Y564770D01*
X894462Y569850D01*
X899542Y567310D01*
X904622Y569850D01*
X902082Y564770D01*
X904622Y559690D01*
X899542Y562230D01*
X894462Y559690D01*
Y550546D02*
X897002Y555626D01*
X894462Y560706D01*
X899542Y558166D01*
X904622Y560706D01*
X902082Y555626D01*
X904622Y550546D01*
X899542Y553086D01*
X894462Y550546D01*
X976504Y573406D02*
X979044Y578486D01*
X976504Y583566D01*
X981584Y581026D01*
X986664Y583566D01*
X984124Y578486D01*
X986664Y573406D01*
X981584Y575946D01*
X976504Y573406D01*
Y564262D02*
X979044Y569342D01*
X976504Y574422D01*
X981584Y571882D01*
X986664Y574422D01*
X984124Y569342D01*
X986664Y564262D01*
X981584Y566802D01*
X976504Y564262D01*
Y555118D02*
X979044Y560198D01*
X976504Y565278D01*
X981584Y562738D01*
X986664Y565278D01*
X984124Y560198D01*
X986664Y555118D01*
X981584Y557658D01*
X976504Y555118D01*
Y545974D02*
X979044Y551054D01*
X976504Y556134D01*
X981584Y553594D01*
X986664Y556134D01*
X984124Y551054D01*
X986664Y545974D01*
X981584Y548514D01*
X976504Y545974D01*
X984378Y577978D02*
X986918Y583058D01*
X984378Y588138D01*
X989458Y585598D01*
X994538Y588138D01*
X991998Y583058D01*
X994538Y577978D01*
X989458Y580518D01*
X984378Y577978D01*
Y568834D02*
X986918Y573914D01*
X984378Y578994D01*
X989458Y576454D01*
X994538Y578994D01*
X991998Y573914D01*
X994538Y568834D01*
X989458Y571374D01*
X984378Y568834D01*
Y559690D02*
X986918Y564770D01*
X984378Y569850D01*
X989458Y567310D01*
X994538Y569850D01*
X991998Y564770D01*
X994538Y559690D01*
X989458Y562230D01*
X984378Y559690D01*
Y550546D02*
X986918Y555626D01*
X984378Y560706D01*
X989458Y558166D01*
X994538Y560706D01*
X991998Y555626D01*
X994538Y550546D01*
X989458Y553086D01*
X984378Y550546D01*
X1027812Y573406D02*
X1030352Y578486D01*
X1027812Y583566D01*
X1032892Y581026D01*
X1037972Y583566D01*
X1035432Y578486D01*
X1037972Y573406D01*
X1032892Y575946D01*
X1027812Y573406D01*
Y564262D02*
X1030352Y569342D01*
X1027812Y574422D01*
X1032892Y571882D01*
X1037972Y574422D01*
X1035432Y569342D01*
X1037972Y564262D01*
X1032892Y566802D01*
X1027812Y564262D01*
Y555118D02*
X1030352Y560198D01*
X1027812Y565278D01*
X1032892Y562738D01*
X1037972Y565278D01*
X1035432Y560198D01*
X1037972Y555118D01*
X1032892Y557658D01*
X1027812Y555118D01*
Y545974D02*
X1030352Y551054D01*
X1027812Y556134D01*
X1032892Y553594D01*
X1037972Y556134D01*
X1035432Y551054D01*
X1037972Y545974D01*
X1032892Y548514D01*
X1027812Y545974D01*
X1035686Y577978D02*
X1038226Y583058D01*
X1035686Y588138D01*
X1040766Y585598D01*
X1045846Y588138D01*
X1043306Y583058D01*
X1045846Y577978D01*
X1040766Y580518D01*
X1035686Y577978D01*
Y568834D02*
X1038226Y573914D01*
X1035686Y578994D01*
X1040766Y576454D01*
X1045846Y578994D01*
X1043306Y573914D01*
X1045846Y568834D01*
X1040766Y571374D01*
X1035686Y568834D01*
Y559690D02*
X1038226Y564770D01*
X1035686Y569850D01*
X1040766Y567310D01*
X1045846Y569850D01*
X1043306Y564770D01*
X1045846Y559690D01*
X1040766Y562230D01*
X1035686Y559690D01*
Y550546D02*
X1038226Y555626D01*
X1035686Y560706D01*
X1040766Y558166D01*
X1045846Y560706D01*
X1043306Y555626D01*
X1045846Y550546D01*
X1040766Y553086D01*
X1035686Y550546D01*
X1117728Y573406D02*
X1120268Y578486D01*
X1117728Y583566D01*
X1122808Y581026D01*
X1127888Y583566D01*
X1125348Y578486D01*
X1127888Y573406D01*
X1122808Y575946D01*
X1117728Y573406D01*
Y564262D02*
X1120268Y569342D01*
X1117728Y574422D01*
X1122808Y571882D01*
X1127888Y574422D01*
X1125348Y569342D01*
X1127888Y564262D01*
X1122808Y566802D01*
X1117728Y564262D01*
Y555118D02*
X1120268Y560198D01*
X1117728Y565278D01*
X1122808Y562738D01*
X1127888Y565278D01*
X1125348Y560198D01*
X1127888Y555118D01*
X1122808Y557658D01*
X1117728Y555118D01*
Y545974D02*
X1120268Y551054D01*
X1117728Y556134D01*
X1122808Y553594D01*
X1127888Y556134D01*
X1125348Y551054D01*
X1127888Y545974D01*
X1122808Y548514D01*
X1117728Y545974D01*
X1125602Y577978D02*
X1128142Y583058D01*
X1125602Y588138D01*
X1130682Y585598D01*
X1135762Y588138D01*
X1133222Y583058D01*
X1135762Y577978D01*
X1130682Y580518D01*
X1125602Y577978D01*
Y568834D02*
X1128142Y573914D01*
X1125602Y578994D01*
X1130682Y576454D01*
X1135762Y578994D01*
X1133222Y573914D01*
X1135762Y568834D01*
X1130682Y571374D01*
X1125602Y568834D01*
Y559690D02*
X1128142Y564770D01*
X1125602Y569850D01*
X1130682Y567310D01*
X1135762Y569850D01*
X1133222Y564770D01*
X1135762Y559690D01*
X1130682Y562230D01*
X1125602Y559690D01*
Y550546D02*
X1128142Y555626D01*
X1125602Y560706D01*
X1130682Y558166D01*
X1135762Y560706D01*
X1133222Y555626D01*
X1135762Y550546D01*
X1130682Y553086D01*
X1125602Y550546D01*
X886588Y705740D02*
X889128Y710820D01*
X886588Y715900D01*
X891668Y713360D01*
X896748Y715900D01*
X894208Y710820D01*
X896748Y705740D01*
X891668Y708280D01*
X886588Y705740D01*
Y696596D02*
X889128Y701676D01*
X886588Y706756D01*
X891668Y704216D01*
X896748Y706756D01*
X894208Y701676D01*
X896748Y696596D01*
X891668Y699136D01*
X886588Y696596D01*
Y687452D02*
X889128Y692532D01*
X886588Y697612D01*
X891668Y695072D01*
X896748Y697612D01*
X894208Y692532D01*
X896748Y687452D01*
X891668Y689992D01*
X886588Y687452D01*
Y678308D02*
X889128Y683388D01*
X886588Y688468D01*
X891668Y685928D01*
X896748Y688468D01*
X894208Y683388D01*
X896748Y678308D01*
X891668Y680848D01*
X886588Y678308D01*
X894462Y710312D02*
X897002Y715392D01*
X894462Y720472D01*
X899542Y717932D01*
X904622Y720472D01*
X902082Y715392D01*
X904622Y710312D01*
X899542Y712852D01*
X894462Y710312D01*
Y701168D02*
X897002Y706248D01*
X894462Y711328D01*
X899542Y708788D01*
X904622Y711328D01*
X902082Y706248D01*
X904622Y701168D01*
X899542Y703708D01*
X894462Y701168D01*
Y692024D02*
X897002Y697104D01*
X894462Y702184D01*
X899542Y699644D01*
X904622Y702184D01*
X902082Y697104D01*
X904622Y692024D01*
X899542Y694564D01*
X894462Y692024D01*
Y682880D02*
X897002Y687960D01*
X894462Y693040D01*
X899542Y690500D01*
X904622Y693040D01*
X902082Y687960D01*
X904622Y682880D01*
X899542Y685420D01*
X894462Y682880D01*
X976504Y705740D02*
X979044Y710820D01*
X976504Y715900D01*
X981584Y713360D01*
X986664Y715900D01*
X984124Y710820D01*
X986664Y705740D01*
X981584Y708280D01*
X976504Y705740D01*
Y696596D02*
X979044Y701676D01*
X976504Y706756D01*
X981584Y704216D01*
X986664Y706756D01*
X984124Y701676D01*
X986664Y696596D01*
X981584Y699136D01*
X976504Y696596D01*
Y687452D02*
X979044Y692532D01*
X976504Y697612D01*
X981584Y695072D01*
X986664Y697612D01*
X984124Y692532D01*
X986664Y687452D01*
X981584Y689992D01*
X976504Y687452D01*
Y678308D02*
X979044Y683388D01*
X976504Y688468D01*
X981584Y685928D01*
X986664Y688468D01*
X984124Y683388D01*
X986664Y678308D01*
X981584Y680848D01*
X976504Y678308D01*
X984378Y710312D02*
X986918Y715392D01*
X984378Y720472D01*
X989458Y717932D01*
X994538Y720472D01*
X991998Y715392D01*
X994538Y710312D01*
X989458Y712852D01*
X984378Y710312D01*
Y701168D02*
X986918Y706248D01*
X984378Y711328D01*
X989458Y708788D01*
X994538Y711328D01*
X991998Y706248D01*
X994538Y701168D01*
X989458Y703708D01*
X984378Y701168D01*
Y692024D02*
X986918Y697104D01*
X984378Y702184D01*
X989458Y699644D01*
X994538Y702184D01*
X991998Y697104D01*
X994538Y692024D01*
X989458Y694564D01*
X984378Y692024D01*
Y682880D02*
X986918Y687960D01*
X984378Y693040D01*
X989458Y690500D01*
X994538Y693040D01*
X991998Y687960D01*
X994538Y682880D01*
X989458Y685420D01*
X984378Y682880D01*
X1027812Y705740D02*
X1030352Y710820D01*
X1027812Y715900D01*
X1032892Y713360D01*
X1037972Y715900D01*
X1035432Y710820D01*
X1037972Y705740D01*
X1032892Y708280D01*
X1027812Y705740D01*
Y696596D02*
X1030352Y701676D01*
X1027812Y706756D01*
X1032892Y704216D01*
X1037972Y706756D01*
X1035432Y701676D01*
X1037972Y696596D01*
X1032892Y699136D01*
X1027812Y696596D01*
Y687452D02*
X1030352Y692532D01*
X1027812Y697612D01*
X1032892Y695072D01*
X1037972Y697612D01*
X1035432Y692532D01*
X1037972Y687452D01*
X1032892Y689992D01*
X1027812Y687452D01*
Y678308D02*
X1030352Y683388D01*
X1027812Y688468D01*
X1032892Y685928D01*
X1037972Y688468D01*
X1035432Y683388D01*
X1037972Y678308D01*
X1032892Y680848D01*
X1027812Y678308D01*
X1035686Y710312D02*
X1038226Y715392D01*
X1035686Y720472D01*
X1040766Y717932D01*
X1045846Y720472D01*
X1043306Y715392D01*
X1045846Y710312D01*
X1040766Y712852D01*
X1035686Y710312D01*
Y701168D02*
X1038226Y706248D01*
X1035686Y711328D01*
X1040766Y708788D01*
X1045846Y711328D01*
X1043306Y706248D01*
X1045846Y701168D01*
X1040766Y703708D01*
X1035686Y701168D01*
Y692024D02*
X1038226Y697104D01*
X1035686Y702184D01*
X1040766Y699644D01*
X1045846Y702184D01*
X1043306Y697104D01*
X1045846Y692024D01*
X1040766Y694564D01*
X1035686Y692024D01*
Y682880D02*
X1038226Y687960D01*
X1035686Y693040D01*
X1040766Y690500D01*
X1045846Y693040D01*
X1043306Y687960D01*
X1045846Y682880D01*
X1040766Y685420D01*
X1035686Y682880D01*
X1117728Y705740D02*
X1120268Y710820D01*
X1117728Y715900D01*
X1122808Y713360D01*
X1127888Y715900D01*
X1125348Y710820D01*
X1127888Y705740D01*
X1122808Y708280D01*
X1117728Y705740D01*
Y696596D02*
X1120268Y701676D01*
X1117728Y706756D01*
X1122808Y704216D01*
X1127888Y706756D01*
X1125348Y701676D01*
X1127888Y696596D01*
X1122808Y699136D01*
X1117728Y696596D01*
Y687452D02*
X1120268Y692532D01*
X1117728Y697612D01*
X1122808Y695072D01*
X1127888Y697612D01*
X1125348Y692532D01*
X1127888Y687452D01*
X1122808Y689992D01*
X1117728Y687452D01*
Y678308D02*
X1120268Y683388D01*
X1117728Y688468D01*
X1122808Y685928D01*
X1127888Y688468D01*
X1125348Y683388D01*
X1127888Y678308D01*
X1122808Y680848D01*
X1117728Y678308D01*
X1125602Y710312D02*
X1128142Y715392D01*
X1125602Y720472D01*
X1130682Y717932D01*
X1135762Y720472D01*
X1133222Y715392D01*
X1135762Y710312D01*
X1130682Y712852D01*
X1125602Y710312D01*
Y701168D02*
X1128142Y706248D01*
X1125602Y711328D01*
X1130682Y708788D01*
X1135762Y711328D01*
X1133222Y706248D01*
X1135762Y701168D01*
X1130682Y703708D01*
X1125602Y701168D01*
Y692024D02*
X1128142Y697104D01*
X1125602Y702184D01*
X1130682Y699644D01*
X1135762Y702184D01*
X1133222Y697104D01*
X1135762Y692024D01*
X1130682Y694564D01*
X1125602Y692024D01*
Y682880D02*
X1128142Y687960D01*
X1125602Y693040D01*
X1130682Y690500D01*
X1135762Y693040D01*
X1133222Y687960D01*
X1135762Y682880D01*
X1130682Y685420D01*
X1125602Y682880D01*
D108*
X449580Y622300D02*
G03*
X449580Y622300I-5080J0D01*
G01*
Y647700D02*
G03*
X449580Y647700I-5080J0D01*
G01*
X551180Y431800D02*
G03*
X551180Y431800I-5080J0D01*
G01*
X576580D02*
G03*
X576580Y431800I-5080J0D01*
G01*
X601980D02*
G03*
X601980Y431800I-5080J0D01*
G01*
X627380D02*
G03*
X627380Y431800I-5080J0D01*
G01*
X652780D02*
G03*
X652780Y431800I-5080J0D01*
G01*
X678180D02*
G03*
X678180Y431800I-5080J0D01*
G01*
X703580D02*
G03*
X703580Y431800I-5080J0D01*
G01*
M02*
