G04*
G04 #@! TF.GenerationSoftware,Altium Limited,Altium Designer,24.3.1 (35)*
G04*
G04 Layer_Physical_Order=6*
G04 Layer_Color=16711680*
%FSLAX44Y44*%
%MOMM*%
G71*
G04*
G04 #@! TF.SameCoordinates,35E8F126-3BB9-435E-BEC0-E910B6038B45*
G04*
G04*
G04 #@! TF.FilePolarity,Positive*
G04*
G01*
G75*
%ADD14C,0.2540*%
%ADD15C,0.1270*%
%ADD16C,0.2032*%
%ADD17C,0.1778*%
%ADD20R,0.4500X0.5500*%
%ADD22R,0.5200X0.5200*%
%ADD25R,0.5000X0.3000*%
%ADD31C,0.2100*%
%ADD32R,0.5500X0.4500*%
%ADD33R,0.7000X0.9000*%
%ADD38R,0.5200X0.5200*%
%ADD39R,0.9000X0.7000*%
%ADD72C,1.0000*%
%ADD73C,0.0762*%
G04:AMPARAMS|DCode=74|XSize=1.6002mm|YSize=2.032mm|CornerRadius=0mm|HoleSize=0mm|Usage=FLASHONLY|Rotation=90.000|XOffset=0mm|YOffset=0mm|HoleType=Round|Shape=Octagon|*
%AMOCTAGOND74*
4,1,8,-1.0160,-0.4001,-1.0160,0.4001,-0.6160,0.8001,0.6160,0.8001,1.0160,0.4001,1.0160,-0.4001,0.6160,-0.8001,-0.6160,-0.8001,-1.0160,-0.4001,0.0*
%
%ADD74OCTAGOND74*%

%ADD75R,1.7000X2.1000*%
%ADD76O,1.7000X2.1000*%
%ADD77O,0.9500X1.4732*%
%ADD78C,0.2540*%
%ADD79C,0.3810*%
%ADD81C,0.1016*%
%ADD83R,0.5000X0.4700*%
%ADD84R,0.5000X0.3700*%
G04:AMPARAMS|DCode=85|XSize=0.3mm|YSize=0.3mm|CornerRadius=0.15mm|HoleSize=0mm|Usage=FLASHONLY|Rotation=180.000|XOffset=0mm|YOffset=0mm|HoleType=Round|Shape=RoundedRectangle|*
%AMROUNDEDRECTD85*
21,1,0.3000,0.0000,0,0,180.0*
21,1,0.0000,0.3000,0,0,180.0*
1,1,0.3000,0.0000,0.0000*
1,1,0.3000,0.0000,0.0000*
1,1,0.3000,0.0000,0.0000*
1,1,0.3000,0.0000,0.0000*
%
%ADD85ROUNDEDRECTD85*%
%ADD86R,1.6500X2.3800*%
%ADD87R,0.7000X0.2500*%
%ADD88R,0.7747X0.4572*%
%ADD89R,0.3000X0.5000*%
%ADD90R,0.6000X2.0000*%
%ADD91R,0.3500X0.6500*%
%ADD92R,0.6500X0.3500*%
G36*
X1160071Y731298D02*
X1160071Y731298D01*
Y718459D01*
X1160015Y717720D01*
X1159309Y717720D01*
X1157034D01*
Y714104D01*
X1156399D01*
Y713469D01*
X1152783D01*
Y710488D01*
X1152974D01*
Y708704D01*
X1153037Y708552D01*
Y702742D01*
X1159761Y702742D01*
X1160071Y702109D01*
Y700955D01*
X1159761Y700322D01*
X1159309Y700322D01*
X1153037D01*
Y694512D01*
X1152974Y694360D01*
Y692576D01*
X1152783D01*
Y689595D01*
X1156399D01*
Y688960D01*
X1157034D01*
Y685344D01*
X1160015Y685344D01*
X1160071Y684605D01*
Y586413D01*
X1160015Y585674D01*
X1159309Y585674D01*
X1157034D01*
Y582058D01*
X1156399D01*
Y581423D01*
X1152783D01*
Y578442D01*
X1152974D01*
Y576658D01*
X1153037Y576506D01*
Y570696D01*
X1159761Y570696D01*
X1160071Y570063D01*
Y568765D01*
X1159761Y568132D01*
X1153037D01*
Y562322D01*
X1152974Y562170D01*
Y560386D01*
X1152783D01*
Y557405D01*
X1156399D01*
Y556770D01*
X1157034D01*
Y553154D01*
X1158581D01*
X1159064Y552565D01*
X1158354Y548997D01*
X1158251Y548656D01*
X1157497Y548768D01*
Y550742D01*
X1154516D01*
Y547126D01*
Y543510D01*
X1155878D01*
X1156387Y542748D01*
X1154413Y537980D01*
X1151651Y532815D01*
X1148397Y527944D01*
X1144681Y523416D01*
X1140540Y519275D01*
X1136012Y515559D01*
X1131141Y512304D01*
X1125976Y509543D01*
X1120564Y507302D01*
X1114959Y505602D01*
X1109214Y504459D01*
X1103385Y503885D01*
X1090454D01*
X1090454Y503885D01*
X931388D01*
X931388Y503885D01*
X918457D01*
X912628Y504459D01*
X906883Y505602D01*
X901278Y507302D01*
X895866Y509543D01*
X890701Y512305D01*
X885830Y515559D01*
X881302Y519275D01*
X877161Y523416D01*
X873445Y527944D01*
X871787Y530426D01*
X872146Y531098D01*
X874799D01*
Y533229D01*
X871168D01*
Y532664D01*
X870439Y532443D01*
X870191Y532815D01*
X867429Y537980D01*
X865188Y543392D01*
X864670Y545098D01*
X865236Y545860D01*
X866701D01*
Y549491D01*
X864570D01*
Y548054D01*
X863808Y547941D01*
X863487Y548997D01*
X862345Y554742D01*
X861771Y560571D01*
Y563425D01*
X863822D01*
X864570Y563392D01*
Y559761D01*
X867336D01*
Y558491D01*
X864570D01*
Y554860D01*
X864570D01*
Y554392D01*
X864570D01*
Y550761D01*
X867336D01*
Y550126D01*
X867971D01*
Y545860D01*
X870102D01*
Y546051D01*
X872086D01*
X872238Y546114D01*
X876348D01*
Y550183D01*
X876393Y550192D01*
X877065Y550641D01*
X879265Y552841D01*
X880026Y552525D01*
Y546386D01*
X876556Y542916D01*
X875914D01*
X875914Y542916D01*
X875714Y542876D01*
X871422D01*
Y538765D01*
X871359Y538614D01*
Y536630D01*
X871168D01*
Y534499D01*
X875434D01*
X879700D01*
Y536630D01*
X879509D01*
Y538614D01*
X879446Y538766D01*
Y539946D01*
X883286Y543786D01*
X884110Y543545D01*
X884189Y543149D01*
X884638Y542477D01*
X885908Y541207D01*
X885908Y541207D01*
X886581Y540758D01*
X887373Y540600D01*
X887373Y540600D01*
X901646D01*
X901646Y540600D01*
X902439Y540758D01*
X903111Y541207D01*
X903411Y541507D01*
X903411Y541507D01*
X906458Y544554D01*
X908997D01*
Y542614D01*
X913107D01*
X913259Y542551D01*
X915243D01*
Y542360D01*
X917374D01*
Y546626D01*
X918009D01*
Y547261D01*
X920775D01*
Y550892D01*
X920775D01*
Y551360D01*
X920775D01*
Y554991D01*
X918009D01*
Y556261D01*
X920775D01*
Y559892D01*
X920775D01*
Y560504D01*
X920775D01*
Y564135D01*
X918009D01*
Y565405D01*
X920775D01*
Y569036D01*
X920775D01*
Y569648D01*
X920775D01*
Y573279D01*
X918009D01*
Y574549D01*
X920775D01*
Y578180D01*
X920775D01*
Y578792D01*
X920775D01*
Y582423D01*
X918009D01*
Y583058D01*
X917374D01*
Y587324D01*
X915243D01*
Y587133D01*
X913259D01*
X913107Y587070D01*
X908997D01*
Y585669D01*
X908458Y585130D01*
X906121Y585130D01*
X905793Y585621D01*
X905722Y585668D01*
X905690Y585746D01*
X905230Y586206D01*
X905152Y586238D01*
X905105Y586309D01*
X904564Y586670D01*
X904482Y586687D01*
X904422Y586746D01*
X903821Y586995D01*
X903736D01*
X903666Y587042D01*
X903276Y587120D01*
X903131Y587847D01*
X902289Y589107D01*
X901029Y589949D01*
X899542Y590245D01*
X891668D01*
X890182Y589949D01*
X888921Y589107D01*
X888079Y587847D01*
X887783Y586360D01*
Y582518D01*
X887544Y582470D01*
X887474Y582423D01*
X887389D01*
X886788Y582174D01*
X886729Y582114D01*
X886646Y582098D01*
X886105Y581737D01*
X886058Y581666D01*
X885980Y581634D01*
X885520Y581174D01*
X885488Y581096D01*
X885417Y581049D01*
X885089Y580558D01*
X883541Y580558D01*
X883541Y580558D01*
X882748Y580400D01*
X882076Y579951D01*
X877715Y575589D01*
X877011Y575881D01*
Y609600D01*
X897246D01*
X897798Y609095D01*
X897798Y608838D01*
Y605964D01*
X901065D01*
Y605329D01*
X901700D01*
Y601563D01*
X904331D01*
Y601754D01*
X907814D01*
X907966Y601817D01*
X913076D01*
Y603817D01*
X917670D01*
X918272Y603415D01*
X919064Y603257D01*
X919857Y603415D01*
X920529Y603864D01*
X920739Y604177D01*
X921632Y604212D01*
X921758Y604023D01*
X922357Y603622D01*
X923064Y603482D01*
X923772Y603622D01*
X924063Y603817D01*
X927100D01*
Y596226D01*
X926254D01*
X926178Y596608D01*
X924904Y598514D01*
X922998Y599788D01*
X920750Y600235D01*
X918502Y599788D01*
X916596Y598514D01*
X915322Y596608D01*
X914875Y594360D01*
X915322Y592112D01*
X916596Y590206D01*
X918502Y588932D01*
X920750Y588485D01*
X922998Y588932D01*
X924904Y590206D01*
X926178Y592112D01*
X926338Y592918D01*
X927100Y592843D01*
Y591820D01*
X963000D01*
X963247Y590580D01*
X964520Y588674D01*
X966426Y587400D01*
X968674Y586953D01*
X970923Y587400D01*
X972829Y588674D01*
X974102Y590580D01*
X974349Y591820D01*
X995813D01*
Y589466D01*
X1001623D01*
X1001775Y589403D01*
X1003559D01*
Y589212D01*
X1006540D01*
Y592828D01*
X1007810D01*
Y589212D01*
X1010791D01*
Y591820D01*
X1011564D01*
Y588891D01*
X1015180D01*
Y588256D01*
X1015815D01*
Y584640D01*
X1018796D01*
Y584831D01*
X1020580D01*
X1020732Y584894D01*
X1026542D01*
Y591618D01*
X1027220Y591820D01*
X1075690D01*
Y605790D01*
X1076355Y606024D01*
X1081562D01*
X1081714Y605961D01*
X1087698D01*
Y605770D01*
X1091579D01*
Y611286D01*
Y616802D01*
X1087698D01*
Y616611D01*
X1081714D01*
X1081562Y616548D01*
X1073952D01*
Y612798D01*
X1072476D01*
Y615548D01*
X1061952D01*
Y612798D01*
X1060450D01*
Y671830D01*
X965200D01*
Y665480D01*
X895487D01*
X894886Y665870D01*
Y668501D01*
X891120D01*
X887354D01*
Y665870D01*
X886754Y665480D01*
X877011D01*
Y695137D01*
X877715Y695428D01*
X882076Y691067D01*
X882076Y691067D01*
X882748Y690618D01*
X883541Y690460D01*
X885089Y690460D01*
X885417Y689969D01*
X885488Y689922D01*
X885520Y689844D01*
X885980Y689384D01*
X886058Y689352D01*
X886105Y689281D01*
X886646Y688920D01*
X886729Y688904D01*
X886788Y688844D01*
X887389Y688595D01*
X887474D01*
X887544Y688548D01*
X887783Y688500D01*
Y687420D01*
X887544Y687372D01*
X887474Y687325D01*
X887389D01*
X886788Y687076D01*
X886729Y687017D01*
X886646Y687000D01*
X886105Y686639D01*
X886058Y686568D01*
X885980Y686536D01*
X885520Y686076D01*
X885488Y685998D01*
X885417Y685951D01*
X885089Y685460D01*
X883541Y685460D01*
X882748Y685302D01*
X882076Y684853D01*
X881627Y684181D01*
X881469Y683388D01*
Y679824D01*
X881469Y679824D01*
X881627Y679031D01*
X882076Y678359D01*
X886894Y673541D01*
X887458Y673164D01*
X887457Y673122D01*
X887354Y672402D01*
X887354D01*
Y669771D01*
X891120D01*
X894886D01*
Y672402D01*
X895428Y672934D01*
X901646D01*
X901646Y672934D01*
X902439Y673092D01*
X903111Y673541D01*
X906458Y676888D01*
X908997D01*
Y674948D01*
X913107D01*
X913259Y674885D01*
X915243D01*
Y674694D01*
X917374D01*
Y678960D01*
X918009D01*
Y679595D01*
X920775D01*
Y683226D01*
X920775D01*
Y683694D01*
X920775D01*
Y687325D01*
X918009D01*
Y688595D01*
X920775D01*
Y692226D01*
X920775D01*
Y692838D01*
X920775D01*
Y696469D01*
X918009D01*
Y697739D01*
X920775D01*
Y701370D01*
X920775D01*
Y701982D01*
X920775D01*
Y705613D01*
X918009D01*
Y706883D01*
X920775D01*
Y710514D01*
X920775D01*
Y711126D01*
X920775D01*
Y714757D01*
X918009D01*
Y715392D01*
X917374D01*
Y719658D01*
X915243D01*
Y719467D01*
X913259D01*
X913107Y719404D01*
X908997D01*
Y718003D01*
X908458Y717464D01*
X906121Y717464D01*
X905793Y717955D01*
X905722Y718002D01*
X905690Y718080D01*
X905230Y718540D01*
X905152Y718572D01*
X905105Y718643D01*
X904564Y719004D01*
X904482Y719020D01*
X904422Y719080D01*
X903821Y719329D01*
X903736D01*
X903666Y719376D01*
X903276Y719454D01*
X903131Y720181D01*
X902289Y721441D01*
X901029Y722283D01*
X899542Y722579D01*
X891668D01*
X890182Y722283D01*
X888921Y721441D01*
X888079Y720181D01*
X887783Y718694D01*
Y715868D01*
X887021Y715553D01*
X885951Y716623D01*
X885951Y716623D01*
X884284Y718290D01*
Y719874D01*
X884284Y719874D01*
X884126Y720667D01*
X883677Y721339D01*
X881539Y723477D01*
X880942Y723876D01*
Y728794D01*
X876832D01*
X876680Y728857D01*
X874696D01*
Y729048D01*
X872565D01*
Y724782D01*
X871930D01*
Y724147D01*
X869164D01*
Y720516D01*
X869164D01*
Y720048D01*
X869164D01*
Y716417D01*
X871930D01*
Y715147D01*
X869164D01*
Y711516D01*
X869164D01*
X869164Y711048D01*
X869164D01*
Y707417D01*
X871930D01*
Y706147D01*
X869164D01*
Y703275D01*
X868043D01*
Y708568D01*
X868106Y708720D01*
Y710504D01*
X868297D01*
Y713485D01*
X864681D01*
Y714120D01*
X864046D01*
Y717736D01*
X861771D01*
Y718758D01*
X868043D01*
Y724568D01*
X868106Y724720D01*
Y726504D01*
X868297D01*
Y729485D01*
X864681D01*
Y730120D01*
X864046D01*
Y733736D01*
X861771D01*
Y737415D01*
X870334Y737415D01*
Y735187D01*
X873950D01*
Y734552D01*
X874585D01*
Y730936D01*
X877566D01*
Y731127D01*
X879350D01*
X879501Y731190D01*
X885312D01*
Y737415D01*
X957887Y737415D01*
X957887Y737415D01*
X957887Y737415D01*
X983559Y737415D01*
Y734911D01*
X987175D01*
X990791D01*
Y736059D01*
X991553Y736569D01*
X991559Y736566D01*
Y734911D01*
X995175D01*
X998791D01*
Y736059D01*
X999553Y736569D01*
X999559Y736566D01*
Y734911D01*
X1003175D01*
X1006791D01*
Y736059D01*
X1007553Y736569D01*
X1007559Y736566D01*
Y734911D01*
X1011175D01*
X1014791D01*
Y736059D01*
X1015553Y736569D01*
X1015559Y736566D01*
Y734911D01*
X1019175D01*
X1022791D01*
Y736059D01*
X1023553Y736569D01*
X1023559Y736566D01*
Y734911D01*
X1027175D01*
X1030791D01*
Y736059D01*
X1031553Y736568D01*
X1031559Y736566D01*
Y734911D01*
X1035175D01*
X1038791D01*
Y736876D01*
X1039330Y737414D01*
X1153956Y737414D01*
X1153965Y737415D01*
X1160071D01*
Y731298D01*
D02*
G37*
G36*
X973226Y668549D02*
X972394Y668205D01*
X971758Y667568D01*
X971414Y666737D01*
Y665837D01*
X971758Y665006D01*
X972394Y664369D01*
X972803Y664200D01*
Y663375D01*
X972394Y663206D01*
X971758Y662570D01*
X971414Y661738D01*
Y660838D01*
X971758Y660007D01*
X972394Y659371D01*
X972806Y659200D01*
Y658375D01*
X972394Y658205D01*
X971758Y657568D01*
X971414Y656737D01*
Y655837D01*
X971758Y655006D01*
X972394Y654369D01*
X972803Y654200D01*
Y653375D01*
X972394Y653206D01*
X971758Y652570D01*
X971414Y651738D01*
Y650838D01*
X971758Y650007D01*
X972394Y649371D01*
X972806Y649200D01*
Y648375D01*
X972394Y648205D01*
X971758Y647568D01*
X971414Y646737D01*
Y645837D01*
X971758Y645006D01*
X972394Y644369D01*
X972803Y644200D01*
Y643375D01*
X972394Y643206D01*
X971758Y642570D01*
X971414Y641738D01*
Y640838D01*
X971758Y640007D01*
X972394Y639371D01*
X972806Y639200D01*
Y638375D01*
X972394Y638205D01*
X971758Y637568D01*
X971414Y636737D01*
Y635837D01*
X971758Y635006D01*
X972394Y634369D01*
X972806Y634199D01*
Y633374D01*
X972394Y633203D01*
X971758Y632567D01*
X971414Y631736D01*
Y630836D01*
X971758Y630005D01*
X972394Y629368D01*
X972803Y629199D01*
Y628374D01*
X972394Y628205D01*
X971758Y627568D01*
X971414Y626737D01*
Y625837D01*
X971758Y625006D01*
X972394Y624370D01*
X972806Y624199D01*
Y623374D01*
X972394Y623204D01*
X971758Y622567D01*
X971414Y621736D01*
Y621667D01*
X973676D01*
Y620905D01*
X971414D01*
Y620836D01*
X971758Y620005D01*
X972394Y619368D01*
X972803Y619199D01*
Y618374D01*
X972394Y618205D01*
X971758Y617568D01*
X971414Y616737D01*
Y615837D01*
X971758Y615006D01*
X972394Y614370D01*
X972806Y614199D01*
Y613374D01*
X972394Y613204D01*
X971758Y612567D01*
X971414Y611736D01*
Y611667D01*
X973676D01*
Y610905D01*
X971414D01*
Y610836D01*
X971758Y610005D01*
X972394Y609368D01*
X972803Y609199D01*
Y608374D01*
X972394Y608205D01*
X971989Y607799D01*
X967036D01*
Y609649D01*
X961226D01*
X961075Y609712D01*
X958274D01*
X958123Y609649D01*
X956055D01*
Y606287D01*
Y602925D01*
X958123D01*
X958274Y602862D01*
X961075D01*
X961226Y602925D01*
X967036D01*
Y604775D01*
X971989D01*
X972394Y604370D01*
X973226Y604025D01*
X974126D01*
X974957Y604370D01*
X975593Y605006D01*
X975763Y605415D01*
X976588D01*
X976757Y605006D01*
X977162Y604600D01*
Y603454D01*
X971572Y597864D01*
X969821Y598590D01*
X967528D01*
X965411Y597713D01*
X963790Y596092D01*
X962913Y593974D01*
Y593090D01*
X936744D01*
X936077Y593317D01*
Y598428D01*
X936139Y598579D01*
Y603079D01*
X936077Y603231D01*
Y608341D01*
X934077D01*
Y609817D01*
X936077D01*
Y614928D01*
X936139Y615079D01*
Y619579D01*
X936077Y619731D01*
Y621448D01*
X929053D01*
Y619731D01*
X928990Y619579D01*
Y615079D01*
X929053Y614927D01*
Y609817D01*
X931052D01*
Y608341D01*
X929053D01*
Y606841D01*
X924359D01*
X924212Y607583D01*
X924215Y607607D01*
X924787Y608178D01*
X925097Y608925D01*
Y608948D01*
X923064D01*
Y609710D01*
X925097D01*
Y609734D01*
X924787Y610480D01*
X924407Y610861D01*
X924286Y611329D01*
X924407Y611798D01*
X924787Y612178D01*
X925097Y612925D01*
Y613733D01*
X924787Y614480D01*
X924215Y615052D01*
X923469Y615361D01*
X922660D01*
X921913Y615052D01*
X921533Y614671D01*
X921065Y614551D01*
X920596Y614671D01*
X920216Y615052D01*
X919469Y615361D01*
X918660D01*
X917914Y615052D01*
X917342Y614480D01*
X917032Y613733D01*
Y612925D01*
X917342Y612178D01*
X917913Y611607D01*
X917949Y611397D01*
X917943Y610770D01*
X917528Y610356D01*
X917253Y609690D01*
Y608969D01*
X917528Y608303D01*
X917943Y607889D01*
X917946Y607503D01*
X917363Y606841D01*
X913076D01*
Y608841D01*
X907966D01*
X907814Y608904D01*
X903315D01*
X903163Y608841D01*
X899320D01*
X898622Y609133D01*
X898496Y609403D01*
X898382Y609678D01*
X898363Y609686D01*
X898355Y609704D01*
X897802Y610209D01*
X897521Y610311D01*
X897246Y610425D01*
X877011D01*
Y663788D01*
X887545D01*
Y662386D01*
X887608Y662234D01*
Y660517D01*
X891120D01*
X894632D01*
Y662234D01*
X894695Y662386D01*
Y663788D01*
X966470D01*
Y669290D01*
X973175D01*
X973226Y668549D01*
D02*
G37*
G36*
X568190Y645305D02*
X567935Y644543D01*
X567785Y644543D01*
X563878D01*
Y644543D01*
X563402D01*
Y644543D01*
X559164D01*
X558402Y644543D01*
X558116Y644543D01*
X553878D01*
Y638019D01*
X558116D01*
X558878Y638019D01*
X559164Y638019D01*
X563402D01*
Y638019D01*
X563878D01*
Y638019D01*
X568402D01*
X568402Y643975D01*
Y644007D01*
Y644007D01*
X568402Y644192D01*
X568668Y644333D01*
X569146Y644586D01*
X577005Y638680D01*
X640080Y638680D01*
X688554Y623558D01*
X700717Y623559D01*
X700868Y622797D01*
X699282Y622140D01*
X697661Y620519D01*
X696784Y618401D01*
Y616109D01*
X697661Y613991D01*
X699282Y612370D01*
X701400Y611493D01*
X703692D01*
X705810Y612370D01*
X707431Y613991D01*
X708308Y616109D01*
Y618401D01*
X707431Y620519D01*
X705810Y622140D01*
X704223Y622798D01*
X704374Y623559D01*
X786406Y623569D01*
X786945Y623030D01*
Y595479D01*
X786198Y595330D01*
X786104Y595558D01*
X784483Y597178D01*
X782365Y598056D01*
X780073D01*
X777955Y597178D01*
X776334Y595558D01*
X775457Y593440D01*
Y591147D01*
X776334Y589030D01*
X777955Y587409D01*
X780073Y586532D01*
X782365D01*
X784483Y587409D01*
X786104Y589030D01*
X786198Y589257D01*
X786945Y589108D01*
Y567310D01*
X786958Y567244D01*
X786948Y567178D01*
X787091Y566567D01*
X787193Y565946D01*
X787193Y565946D01*
X787228Y565889D01*
X787241Y565824D01*
X787278Y565768D01*
X787294Y565703D01*
X787660Y565192D01*
X787992Y564658D01*
X788046Y564619D01*
X788083Y564563D01*
X788083Y564563D01*
X788083Y564563D01*
X788139Y564526D01*
X788178Y564472D01*
X788712Y564141D01*
X789223Y563774D01*
X789288Y563758D01*
X789344Y563721D01*
X789409Y563708D01*
X789466Y563673D01*
X789466Y563673D01*
X790087Y563571D01*
X790698Y563428D01*
X790764Y563438D01*
X790830Y563425D01*
X802185D01*
Y560571D01*
X801611Y554742D01*
X800469Y548997D01*
X798768Y543392D01*
X796527Y537980D01*
X793765Y532815D01*
X790511Y527944D01*
X786795Y523416D01*
X782654Y519275D01*
X778126Y515559D01*
X773255Y512304D01*
X768090Y509543D01*
X762678Y507302D01*
X757073Y505602D01*
X751328Y504459D01*
X745499Y503885D01*
X734091D01*
X733775Y504647D01*
X735135Y506006D01*
X736012Y508124D01*
Y510416D01*
X735135Y512534D01*
X733514Y514155D01*
X731396Y515032D01*
X729104D01*
X726986Y514155D01*
X725365Y512534D01*
X724750Y511048D01*
X724555Y510950D01*
X723813Y510778D01*
X723285Y510997D01*
X722477D01*
X721730Y510687D01*
X721512Y510470D01*
X721391Y510461D01*
X720657Y510693D01*
X719932Y512443D01*
X720580Y513090D01*
X722473D01*
X723348Y513452D01*
X726149Y516253D01*
X726835D01*
X727582Y516562D01*
X728154Y517134D01*
X728463Y517881D01*
Y518689D01*
X728154Y519436D01*
X727582Y520008D01*
X727297Y520126D01*
X727230Y520512D01*
X727242Y520973D01*
X728785Y522516D01*
X729662Y524634D01*
Y526926D01*
X728785Y529044D01*
X727164Y530665D01*
X725046Y531542D01*
X722754D01*
X720636Y530665D01*
X719015Y529044D01*
X718138Y526926D01*
Y524634D01*
X719015Y522516D01*
X720636Y520895D01*
X722754Y520018D01*
X724213D01*
X724385Y519816D01*
X724634Y519256D01*
X724399Y518689D01*
Y518003D01*
X721961Y515564D01*
X720067D01*
X719192Y515202D01*
X718183Y514192D01*
X716156Y515032D01*
X713864D01*
X711746Y514155D01*
X710125Y512534D01*
X709248Y510416D01*
Y508124D01*
X710125Y506006D01*
X711229Y504902D01*
X711042Y504451D01*
Y503885D01*
X705052D01*
X704649Y504858D01*
X704078Y505429D01*
X704655Y506006D01*
X705532Y508124D01*
Y510416D01*
X704655Y512533D01*
X703034Y514154D01*
X700916Y515032D01*
X698624D01*
X696506Y514154D01*
X694885Y512533D01*
X694184Y510841D01*
X693304Y510644D01*
X693260Y510687D01*
X692514Y510997D01*
X691705D01*
X690996Y510703D01*
X690948Y510690D01*
X690091Y510898D01*
X689414Y512533D01*
X687794Y514153D01*
X685676Y515031D01*
X684911D01*
Y509269D01*
X684530D01*
Y508888D01*
X678768D01*
Y508407D01*
X678738Y508103D01*
X678117Y507703D01*
X677890D01*
X677143Y507393D01*
X676571Y506822D01*
X676262Y506075D01*
Y505266D01*
X676519Y504646D01*
X676324Y504165D01*
X676129Y503885D01*
X665879D01*
X665672Y504206D01*
X665501Y504646D01*
X665766Y505287D01*
Y505310D01*
X661702D01*
Y505287D01*
X661967Y504646D01*
X661796Y504206D01*
X661590Y503885D01*
X658366D01*
X658051Y504646D01*
X659438Y506034D01*
X660316Y508152D01*
Y510444D01*
X659438Y512562D01*
X657818Y514183D01*
X655700Y515060D01*
X653408D01*
X651290Y514183D01*
X649699Y512592D01*
X649446Y512607D01*
X648937Y512708D01*
Y513841D01*
X649423Y514327D01*
X649732Y515074D01*
Y515882D01*
X649423Y516629D01*
X648851Y517201D01*
X648104Y517510D01*
X647296D01*
X646549Y517201D01*
X645977Y516629D01*
X645668Y515882D01*
Y515074D01*
X645977Y514327D01*
X646463Y513841D01*
Y506334D01*
X646188Y505671D01*
Y503885D01*
X628966D01*
Y504655D01*
X629177Y504866D01*
X629333Y505243D01*
X629757Y505680D01*
X630190Y505786D01*
X634971D01*
X635123Y505723D01*
X639623D01*
X639775Y505786D01*
X644885D01*
Y512810D01*
X639775D01*
X639623Y512873D01*
X635123D01*
X634971Y512810D01*
X629861D01*
Y507479D01*
X629462Y507298D01*
X629099Y507245D01*
X628605Y507739D01*
X627858Y508049D01*
X627050D01*
X626303Y507739D01*
X626106Y507543D01*
X625460Y507974D01*
X625522Y508124D01*
Y510416D01*
X624645Y512533D01*
X623024Y514154D01*
X620906Y515032D01*
X618614D01*
X616496Y514154D01*
X614875Y512533D01*
X613998Y510416D01*
Y508124D01*
X614875Y506006D01*
X616234Y504646D01*
X615919Y503885D01*
X587780D01*
X587464Y504646D01*
X588852Y506034D01*
X589729Y508152D01*
Y510444D01*
X588852Y512562D01*
X587231Y514183D01*
X585113Y515060D01*
X582821D01*
X580703Y514183D01*
X579082Y512562D01*
X578205Y510444D01*
Y508152D01*
X579082Y506034D01*
X580470Y504646D01*
X580154Y503885D01*
X573503D01*
X573502Y503885D01*
X560571D01*
X554742Y504459D01*
X548997Y505602D01*
X543392Y507302D01*
X537980Y509543D01*
X532815Y512305D01*
X527944Y515559D01*
X523416Y519275D01*
X519275Y523416D01*
X515559Y527944D01*
X512304Y532815D01*
X509543Y537980D01*
X507302Y543392D01*
X505636Y548884D01*
X505866Y549394D01*
X506073Y549646D01*
X507703D01*
Y553008D01*
X508084D01*
Y553389D01*
X511446D01*
Y555456D01*
X511509Y555608D01*
Y558145D01*
X513928D01*
Y557646D01*
X514539D01*
X514690Y557583D01*
X523428D01*
Y556996D01*
X532059D01*
Y569658D01*
Y582320D01*
X523428D01*
Y581732D01*
X514690D01*
X514539Y581670D01*
X513928D01*
Y581058D01*
X513866Y580908D01*
Y576170D01*
X511710D01*
X511446Y576434D01*
Y581020D01*
X504722D01*
Y575209D01*
X504659Y575058D01*
Y572258D01*
X504722Y572106D01*
Y566296D01*
X511446D01*
Y568145D01*
X513866D01*
Y561170D01*
X511446D01*
Y564370D01*
X504722D01*
Y559844D01*
X503960Y559807D01*
X503885Y560571D01*
Y573502D01*
X503885Y573502D01*
Y647647D01*
X504601D01*
X505255Y646066D01*
X506876Y644445D01*
X508994Y643568D01*
X511286D01*
X513404Y644445D01*
X515025Y646066D01*
X515902Y648184D01*
Y650476D01*
X515025Y652594D01*
X513404Y654215D01*
X511286Y655092D01*
X508994D01*
X506876Y654215D01*
X505255Y652594D01*
X504601Y651013D01*
X503885D01*
Y663830D01*
X508716D01*
Y661080D01*
X508957Y660497D01*
X509511Y659859D01*
Y659836D01*
X513575D01*
Y659859D01*
X514124Y660497D01*
X514365Y661080D01*
Y663830D01*
X517718D01*
Y661080D01*
X517960Y660497D01*
X518543Y660255D01*
X522543D01*
X523126Y660497D01*
X523368Y661080D01*
Y663830D01*
X526718D01*
Y661080D01*
X526960Y660497D01*
X527543Y660255D01*
X531543D01*
X532126Y660497D01*
X532368Y661080D01*
Y663830D01*
X535716D01*
Y661080D01*
X535957Y660497D01*
X536511Y659859D01*
Y659836D01*
X540575D01*
Y659859D01*
X541124Y660497D01*
X541365Y661080D01*
Y663830D01*
X543543D01*
X568190Y645305D01*
D02*
G37*
G36*
X1046759Y660007D02*
X1047395Y659371D01*
X1047807Y659200D01*
Y658375D01*
X1047395Y658205D01*
X1046759Y657568D01*
X1046415Y656737D01*
Y655837D01*
X1046759Y655006D01*
X1047395Y654369D01*
X1047804Y654200D01*
Y653375D01*
X1047395Y653206D01*
X1046759Y652570D01*
X1046415Y651738D01*
Y650838D01*
X1046759Y650007D01*
X1047395Y649371D01*
X1047807Y649200D01*
Y648375D01*
X1047395Y648205D01*
X1046759Y647568D01*
X1046415Y646737D01*
Y645837D01*
X1046759Y645006D01*
X1047395Y644369D01*
X1047804Y644200D01*
Y643375D01*
X1047395Y643206D01*
X1046759Y642570D01*
X1046415Y641738D01*
Y640838D01*
X1046759Y640007D01*
X1047395Y639371D01*
X1047807Y639200D01*
Y638375D01*
X1047395Y638205D01*
X1046759Y637568D01*
X1046415Y636737D01*
Y635837D01*
X1046759Y635006D01*
X1047395Y634369D01*
X1047807Y634199D01*
Y633374D01*
X1047395Y633203D01*
X1046759Y632567D01*
X1046415Y631736D01*
Y630836D01*
X1046759Y630005D01*
X1047395Y629368D01*
X1047804Y629199D01*
Y628374D01*
X1047395Y628205D01*
X1046759Y627568D01*
X1046415Y626737D01*
Y625837D01*
X1046759Y625006D01*
X1047395Y624370D01*
X1047807Y624199D01*
Y623374D01*
X1047395Y623204D01*
X1046759Y622567D01*
X1046415Y621736D01*
Y620836D01*
X1046759Y620005D01*
X1047395Y619368D01*
X1047804Y619199D01*
Y618374D01*
X1047395Y618205D01*
X1046759Y617568D01*
X1046415Y616737D01*
Y616668D01*
X1048677D01*
Y615906D01*
X1046415D01*
Y615837D01*
X1046759Y615006D01*
X1047395Y614370D01*
X1047807Y614199D01*
Y613374D01*
X1047395Y613204D01*
X1046759Y612567D01*
X1046589Y612155D01*
X1045764D01*
X1045593Y612567D01*
X1044957Y613204D01*
X1044126Y613548D01*
X1044057D01*
Y611286D01*
X1043295D01*
Y613548D01*
X1043226D01*
X1042394Y613204D01*
X1041758Y612567D01*
X1041589Y612158D01*
X1040764D01*
X1040594Y612567D01*
X1039958Y613204D01*
X1039127Y613548D01*
X1039058D01*
Y611286D01*
X1038296D01*
Y613548D01*
X1038227D01*
X1037396Y613204D01*
X1036759Y612567D01*
X1036589Y612155D01*
X1035764D01*
X1035593Y612567D01*
X1034957Y613204D01*
X1034126Y613548D01*
X1034057D01*
Y611286D01*
X1033295D01*
Y613548D01*
X1033226D01*
X1032394Y613204D01*
X1031758Y612567D01*
X1031589Y612158D01*
X1030764D01*
X1030594Y612567D01*
X1029958Y613204D01*
X1029127Y613548D01*
X1029058D01*
Y611286D01*
X1028296D01*
Y613548D01*
X1028227D01*
X1027396Y613204D01*
X1026759Y612567D01*
X1026589Y612155D01*
X1025764D01*
X1025593Y612567D01*
X1024957Y613204D01*
X1024126Y613548D01*
X1024057D01*
Y611286D01*
X1023295D01*
Y613548D01*
X1023226D01*
X1022394Y613204D01*
X1021758Y612567D01*
X1021589Y612158D01*
X1020764D01*
X1020595Y612567D01*
X1019958Y613204D01*
X1019127Y613548D01*
X1019058D01*
Y611286D01*
X1018296D01*
Y613548D01*
X1018227D01*
X1017396Y613204D01*
X1016759Y612567D01*
X1016589Y612155D01*
X1015764D01*
X1015593Y612567D01*
X1014957Y613204D01*
X1014126Y613548D01*
X1014057D01*
Y611286D01*
X1013295D01*
Y613548D01*
X1013226D01*
X1012394Y613204D01*
X1011758Y612567D01*
X1011587Y612155D01*
X1010763D01*
X1010592Y612567D01*
X1009956Y613204D01*
X1009124Y613548D01*
X1009055D01*
Y611286D01*
X1008294D01*
Y613548D01*
X1008224D01*
X1007393Y613204D01*
X1006757Y612567D01*
X1006587Y612158D01*
X1005763D01*
X1005593Y612567D01*
X1004957Y613204D01*
X1004126Y613548D01*
X1004057D01*
Y611286D01*
X1003295D01*
Y613548D01*
X1003226D01*
X1002394Y613204D01*
X1001758Y612567D01*
X1001588Y612155D01*
X1000763D01*
X1000592Y612567D01*
X999956Y613204D01*
X999124Y613548D01*
X999055D01*
Y611286D01*
X998294D01*
Y613548D01*
X998224D01*
X997393Y613204D01*
X996757Y612567D01*
X996588Y612158D01*
X995763D01*
X995593Y612567D01*
X994957Y613204D01*
X994126Y613548D01*
X994057D01*
Y611286D01*
X993295D01*
Y613548D01*
X993226D01*
X992394Y613204D01*
X991758Y612567D01*
X991588Y612155D01*
X990763D01*
X990592Y612567D01*
X989956Y613204D01*
X989124Y613548D01*
X989055D01*
Y611286D01*
X988294D01*
Y613548D01*
X988224D01*
X987393Y613204D01*
X986757Y612567D01*
X986588Y612158D01*
X985763D01*
X985593Y612567D01*
X984957Y613204D01*
X984126Y613548D01*
X983226D01*
X982394Y613204D01*
X981758Y612567D01*
X981588Y612155D01*
X980763D01*
X980592Y612567D01*
X979956Y613204D01*
X979544Y613374D01*
Y614199D01*
X979956Y614370D01*
X980592Y615006D01*
X980937Y615837D01*
Y615906D01*
X978674D01*
Y616668D01*
X980937D01*
Y616737D01*
X980592Y617568D01*
X979956Y618205D01*
X979547Y618374D01*
Y619199D01*
X979956Y619368D01*
X980592Y620005D01*
X980937Y620836D01*
Y621736D01*
X980592Y622567D01*
X979956Y623204D01*
X979544Y623374D01*
Y624199D01*
X979956Y624370D01*
X980592Y625006D01*
X980937Y625837D01*
Y626737D01*
X980592Y627568D01*
X979956Y628205D01*
X979547Y628374D01*
Y629199D01*
X979956Y629368D01*
X980592Y630005D01*
X980937Y630836D01*
Y631736D01*
X980592Y632567D01*
X979956Y633203D01*
X979544Y633374D01*
Y634199D01*
X979956Y634369D01*
X980592Y635006D01*
X980937Y635837D01*
Y636737D01*
X980592Y637568D01*
X979956Y638205D01*
X979544Y638375D01*
Y639200D01*
X979956Y639371D01*
X980592Y640007D01*
X980937Y640838D01*
Y641738D01*
X980592Y642570D01*
X979956Y643206D01*
X979547Y643375D01*
Y644200D01*
X979956Y644369D01*
X980592Y645006D01*
X980937Y645837D01*
Y646737D01*
X980592Y647568D01*
X979956Y648205D01*
X979544Y648375D01*
Y649200D01*
X979956Y649371D01*
X980592Y650007D01*
X980937Y650838D01*
Y651738D01*
X980592Y652570D01*
X979956Y653206D01*
X979547Y653375D01*
Y654200D01*
X979956Y654369D01*
X980592Y655006D01*
X980937Y655837D01*
Y656737D01*
X980592Y657568D01*
X979956Y658205D01*
X979544Y658375D01*
Y659200D01*
X979956Y659371D01*
X980592Y660007D01*
X980763Y660419D01*
X981588D01*
X981758Y660007D01*
X982394Y659371D01*
X983226Y659026D01*
X984126D01*
X984957Y659371D01*
X985593Y660007D01*
X985763Y660416D01*
X986588D01*
X986757Y660007D01*
X987393Y659371D01*
X988224Y659026D01*
X989124D01*
X989956Y659371D01*
X990592Y660007D01*
X990763Y660419D01*
X991588D01*
X991758Y660007D01*
X992394Y659371D01*
X993226Y659026D01*
X994126D01*
X994957Y659371D01*
X995593Y660007D01*
X995763Y660416D01*
X996588D01*
X996757Y660007D01*
X997393Y659371D01*
X998224Y659026D01*
X999124D01*
X999956Y659371D01*
X1000592Y660007D01*
X1000763Y660419D01*
X1001588D01*
X1001758Y660007D01*
X1002394Y659371D01*
X1003226Y659026D01*
X1004126D01*
X1004957Y659371D01*
X1005593Y660007D01*
X1005763Y660416D01*
X1006587D01*
X1006757Y660007D01*
X1007393Y659371D01*
X1008224Y659026D01*
X1009124D01*
X1009956Y659371D01*
X1010592Y660007D01*
X1010763Y660419D01*
X1011587D01*
X1011758Y660007D01*
X1012394Y659371D01*
X1013226Y659026D01*
X1014126D01*
X1014957Y659371D01*
X1015593Y660007D01*
X1015764Y660419D01*
X1016589D01*
X1016759Y660007D01*
X1017396Y659371D01*
X1018227Y659026D01*
X1019127D01*
X1019958Y659371D01*
X1020595Y660007D01*
X1020764Y660416D01*
X1021589D01*
X1021758Y660007D01*
X1022394Y659371D01*
X1023226Y659026D01*
X1024126D01*
X1024957Y659371D01*
X1025593Y660007D01*
X1025764Y660419D01*
X1026589D01*
X1026759Y660007D01*
X1027396Y659371D01*
X1028227Y659026D01*
X1029127D01*
X1029958Y659371D01*
X1030594Y660007D01*
X1030764Y660416D01*
X1031589D01*
X1031758Y660007D01*
X1032394Y659371D01*
X1033226Y659026D01*
X1034126D01*
X1034957Y659371D01*
X1035593Y660007D01*
X1035764Y660419D01*
X1036589D01*
X1036759Y660007D01*
X1037396Y659371D01*
X1038227Y659026D01*
X1039127D01*
X1039958Y659371D01*
X1040594Y660007D01*
X1040764Y660416D01*
X1041589D01*
X1041758Y660007D01*
X1042394Y659371D01*
X1043226Y659026D01*
X1044126D01*
X1044957Y659371D01*
X1045593Y660007D01*
X1045764Y660419D01*
X1046589D01*
X1046759Y660007D01*
D02*
G37*
G36*
X1059180Y612798D02*
X1055362D01*
X1054957Y613204D01*
X1054545Y613374D01*
Y614199D01*
X1054957Y614370D01*
X1055593Y615006D01*
X1055938Y615837D01*
Y615906D01*
X1053676D01*
Y616668D01*
X1055938D01*
Y616737D01*
X1055593Y617568D01*
X1054957Y618205D01*
X1054548Y618374D01*
Y619199D01*
X1054957Y619368D01*
X1055593Y620005D01*
X1055938Y620836D01*
Y620905D01*
X1053676D01*
Y621667D01*
X1055938D01*
Y621736D01*
X1055593Y622567D01*
X1054957Y623204D01*
X1054545Y623374D01*
Y624199D01*
X1054957Y624370D01*
X1055593Y625006D01*
X1055938Y625837D01*
Y626737D01*
X1055593Y627568D01*
X1054957Y628205D01*
X1054548Y628374D01*
Y629199D01*
X1054957Y629368D01*
X1055593Y630005D01*
X1055938Y630836D01*
Y631736D01*
X1055593Y632567D01*
X1054957Y633203D01*
X1054545Y633374D01*
Y634199D01*
X1054957Y634369D01*
X1055593Y635006D01*
X1055938Y635837D01*
Y636737D01*
X1055593Y637568D01*
X1054957Y638205D01*
X1054545Y638375D01*
Y639200D01*
X1054957Y639371D01*
X1055593Y640007D01*
X1055938Y640838D01*
Y641738D01*
X1055593Y642570D01*
X1054957Y643206D01*
X1054548Y643375D01*
Y644200D01*
X1054957Y644369D01*
X1055593Y645006D01*
X1055938Y645837D01*
Y646737D01*
X1055593Y647568D01*
X1054957Y648205D01*
X1054545Y648375D01*
Y649200D01*
X1054957Y649371D01*
X1055593Y650007D01*
X1055938Y650838D01*
Y651738D01*
X1055593Y652570D01*
X1054957Y653206D01*
X1054548Y653375D01*
Y654200D01*
X1054957Y654369D01*
X1055593Y655006D01*
X1055938Y655837D01*
Y656737D01*
X1055593Y657568D01*
X1054957Y658205D01*
X1054545Y658375D01*
Y659200D01*
X1054957Y659371D01*
X1055593Y660007D01*
X1055938Y660838D01*
Y661738D01*
X1055593Y662570D01*
X1054957Y663206D01*
X1054548Y663375D01*
Y664200D01*
X1054957Y664369D01*
X1055593Y665006D01*
X1055938Y665837D01*
Y666737D01*
X1055593Y667568D01*
X1054957Y668205D01*
X1054126Y668549D01*
X1054176Y669290D01*
X1059180D01*
Y612798D01*
D02*
G37*
G36*
Y604520D02*
X1061889D01*
Y600786D01*
X1061952Y600634D01*
Y597667D01*
X1072476D01*
Y600634D01*
X1072539Y600786D01*
Y604520D01*
X1074420D01*
Y593090D01*
X1072476D01*
Y596905D01*
X1061952D01*
Y593090D01*
X1052039D01*
Y599661D01*
X1050189D01*
Y604600D01*
X1050594Y605006D01*
X1050764Y605415D01*
X1051589D01*
X1051758Y605006D01*
X1052394Y604370D01*
X1053226Y604025D01*
X1053295D01*
Y606287D01*
X1053676D01*
Y606668D01*
X1055938D01*
Y606737D01*
X1055593Y607569D01*
X1054957Y608205D01*
X1054548Y608374D01*
Y609199D01*
X1054957Y609368D01*
X1055362Y609774D01*
X1059180D01*
Y604520D01*
D02*
G37*
G36*
X1029058Y604025D02*
X1029127D01*
X1029958Y604370D01*
X1030594Y605006D01*
X1030764Y605415D01*
X1031589D01*
X1031758Y605006D01*
X1032394Y604370D01*
X1033226Y604025D01*
X1034126D01*
X1034957Y604370D01*
X1035593Y605006D01*
X1035764Y605418D01*
X1036589D01*
X1036759Y605006D01*
X1037396Y604370D01*
X1038227Y604025D01*
X1039127D01*
X1039958Y604370D01*
X1040594Y605006D01*
X1040764Y605415D01*
X1041589D01*
X1041758Y605006D01*
X1042394Y604370D01*
X1043226Y604025D01*
X1044126D01*
X1044957Y604370D01*
X1045593Y605006D01*
X1045764Y605418D01*
X1046589D01*
X1046759Y605006D01*
X1047165Y604600D01*
Y599661D01*
X1046228D01*
X1046077Y599724D01*
X1043277D01*
X1043125Y599661D01*
X1041058D01*
Y596299D01*
X1040677D01*
Y595918D01*
X1037315D01*
Y593090D01*
X1010537D01*
Y596190D01*
X1004727D01*
X1004575Y596253D01*
X1001775D01*
X1001623Y596190D01*
X995813D01*
Y593090D01*
X994537D01*
Y595913D01*
X991175D01*
Y596294D01*
X990794D01*
Y599656D01*
X988727D01*
X988575Y599719D01*
X985775D01*
X985188Y600216D01*
Y604600D01*
X985593Y605006D01*
X985763Y605415D01*
X986588D01*
X986757Y605006D01*
X987393Y604370D01*
X988224Y604025D01*
X989124D01*
X989956Y604370D01*
X990592Y605006D01*
X990763Y605418D01*
X991588D01*
X991758Y605006D01*
X992394Y604370D01*
X993226Y604025D01*
X994126D01*
X994957Y604370D01*
X995593Y605006D01*
X995763Y605415D01*
X996588D01*
X996757Y605006D01*
X997393Y604370D01*
X998224Y604025D01*
X999124D01*
X999956Y604370D01*
X1000592Y605006D01*
X1000763Y605418D01*
X1001588D01*
X1001758Y605006D01*
X1002394Y604370D01*
X1003226Y604025D01*
X1004126D01*
X1004957Y604370D01*
X1005593Y605006D01*
X1005763Y605415D01*
X1006587D01*
X1006757Y605006D01*
X1007393Y604370D01*
X1008224Y604025D01*
X1009124D01*
X1009956Y604370D01*
X1010592Y605006D01*
X1010763Y605418D01*
X1011587D01*
X1011758Y605006D01*
X1012394Y604370D01*
X1013226Y604025D01*
X1013588D01*
X1013903Y603263D01*
X1012222Y601581D01*
X1006905D01*
X1006420Y602067D01*
X1005673Y602376D01*
X1004865D01*
X1004118Y602067D01*
X1003546Y601495D01*
X1003237Y600748D01*
Y599940D01*
X1003546Y599193D01*
X1004118Y598622D01*
X1004865Y598312D01*
X1005673D01*
X1006420Y598622D01*
X1006905Y599107D01*
X1012734D01*
X1013609Y599469D01*
X1018183Y604043D01*
X1018227Y604025D01*
X1019127D01*
X1019958Y604370D01*
X1020595Y605006D01*
X1020764Y605415D01*
X1021589D01*
X1021758Y605006D01*
X1022394Y604370D01*
X1023226Y604025D01*
X1024126D01*
X1024957Y604370D01*
X1025593Y605006D01*
X1025764Y605418D01*
X1026589D01*
X1026759Y605006D01*
X1027396Y604370D01*
X1028227Y604025D01*
X1028296D01*
Y606287D01*
X1029058D01*
Y604025D01*
D02*
G37*
%LPC*%
G36*
X873315Y733917D02*
X870334D01*
Y730936D01*
X873315D01*
Y733917D01*
D02*
G37*
G36*
X868297Y733736D02*
X865316D01*
Y730755D01*
X868297D01*
Y733736D01*
D02*
G37*
G36*
X871295Y729048D02*
X869164D01*
Y725417D01*
X871295D01*
Y729048D01*
D02*
G37*
G36*
X1158767Y727364D02*
X1155786D01*
Y724383D01*
X1158767D01*
Y727364D01*
D02*
G37*
G36*
X1030791Y733641D02*
X1027175D01*
X1023559D01*
Y730660D01*
X1023750D01*
Y728876D01*
X1023813Y728725D01*
Y722914D01*
X1030537D01*
Y728725D01*
X1030600Y728876D01*
Y730660D01*
X1030791D01*
Y733641D01*
D02*
G37*
G36*
X1022791D02*
X1019175D01*
X1015559D01*
Y730660D01*
X1015750D01*
Y728876D01*
X1015813Y728725D01*
Y722914D01*
X1022537D01*
Y728725D01*
X1022600Y728876D01*
Y730660D01*
X1022791D01*
Y733641D01*
D02*
G37*
G36*
X1014791D02*
X1011175D01*
X1007559D01*
Y730660D01*
X1007750D01*
Y728876D01*
X1007813Y728725D01*
Y722914D01*
X1014537D01*
Y728725D01*
X1014600Y728876D01*
Y730660D01*
X1014791D01*
Y733641D01*
D02*
G37*
G36*
X1006791D02*
X1003175D01*
X999559D01*
Y730660D01*
X999750D01*
Y728876D01*
X999813Y728725D01*
Y722914D01*
X1006537D01*
Y728725D01*
X1006600Y728876D01*
Y730660D01*
X1006791D01*
Y733641D01*
D02*
G37*
G36*
X998791D02*
X995175D01*
X991559D01*
Y730660D01*
X991750D01*
Y728876D01*
X991813Y728725D01*
Y722914D01*
X998537D01*
Y728725D01*
X998600Y728876D01*
Y730660D01*
X998791D01*
Y733641D01*
D02*
G37*
G36*
X1158767Y723113D02*
X1155786D01*
Y720132D01*
X1158767D01*
Y723113D01*
D02*
G37*
G36*
X1154516Y727364D02*
X1151535D01*
Y727173D01*
X1149751D01*
X1149600Y727110D01*
X1143789D01*
Y720386D01*
X1149600D01*
X1149751Y720323D01*
X1150769D01*
X1150796Y720276D01*
X1150359Y719514D01*
X1149784D01*
Y715883D01*
X1151915D01*
Y719320D01*
X1151915D01*
X1151915Y719514D01*
X1151928Y719537D01*
D01*
X1152263Y720132D01*
X1152297Y720132D01*
X1154516D01*
Y723748D01*
Y727364D01*
D02*
G37*
G36*
X936875Y719008D02*
X933894D01*
Y716027D01*
X936875D01*
Y719008D01*
D02*
G37*
G36*
X1078099D02*
X1075118D01*
Y716027D01*
X1078099D01*
Y719008D01*
D02*
G37*
G36*
X1061999Y719658D02*
X1059868D01*
Y716027D01*
X1061999D01*
Y719658D01*
D02*
G37*
G36*
X1010691D02*
X1008560D01*
Y716027D01*
X1010691D01*
Y719658D01*
D02*
G37*
G36*
X920775D02*
X918644D01*
Y716027D01*
X920775D01*
Y719658D01*
D02*
G37*
G36*
X868297Y717736D02*
X865316D01*
Y714755D01*
X868297D01*
Y717736D01*
D02*
G37*
G36*
X1155764Y717720D02*
X1152783D01*
Y714739D01*
X1155764D01*
Y717720D01*
D02*
G37*
G36*
X1130682Y722579D02*
X1122808D01*
X1121321Y722283D01*
X1120061Y721441D01*
X1119219Y720181D01*
X1118923Y718694D01*
Y714852D01*
X1118684Y714804D01*
X1118614Y714757D01*
X1118529D01*
X1117928Y714508D01*
X1117869Y714448D01*
X1117786Y714432D01*
X1117245Y714071D01*
X1117198Y714000D01*
X1117120Y713968D01*
X1116660Y713508D01*
X1116628Y713430D01*
X1116557Y713383D01*
X1116229Y712892D01*
X1114681Y712892D01*
X1113353D01*
Y714832D01*
X1109243D01*
X1109091Y714895D01*
X1107107D01*
Y715086D01*
X1104976D01*
Y710820D01*
X1104341D01*
Y710185D01*
X1101575D01*
Y706554D01*
X1101575D01*
Y705942D01*
X1101575D01*
Y702311D01*
X1104341D01*
Y701041D01*
X1101575D01*
Y697410D01*
X1101575D01*
Y696798D01*
X1101575D01*
Y693167D01*
X1104341D01*
Y691897D01*
X1101575D01*
Y688266D01*
X1101575D01*
Y687654D01*
X1101575D01*
Y684023D01*
X1104341D01*
Y683388D01*
X1104976D01*
Y679122D01*
X1107107D01*
Y679313D01*
X1109091D01*
X1109243Y679376D01*
X1113353D01*
Y680777D01*
X1113892Y681316D01*
X1116229Y681316D01*
X1116557Y680825D01*
X1116628Y680778D01*
X1116660Y680700D01*
X1117120Y680240D01*
X1117198Y680208D01*
X1117245Y680137D01*
X1117786Y679776D01*
X1117869Y679760D01*
X1117928Y679700D01*
X1118529Y679451D01*
X1118614D01*
X1118684Y679404D01*
X1119074Y679326D01*
X1119219Y678599D01*
X1120061Y677339D01*
X1121321Y676497D01*
X1122808Y676201D01*
X1130682D01*
X1132169Y676497D01*
X1133429Y677339D01*
X1134271Y678599D01*
X1134567Y680086D01*
Y683928D01*
X1134806Y683976D01*
X1134876Y684023D01*
X1134961D01*
X1135562Y684272D01*
X1135621Y684332D01*
X1135704Y684348D01*
X1136245Y684709D01*
X1136292Y684780D01*
X1136370Y684812D01*
X1136830Y685272D01*
X1136862Y685350D01*
X1136933Y685397D01*
X1137261Y685888D01*
X1138809Y685888D01*
X1140137D01*
Y683948D01*
X1144247D01*
X1144399Y683885D01*
X1146383D01*
Y683694D01*
X1148514D01*
Y687960D01*
X1149149D01*
Y688595D01*
X1151915D01*
Y692226D01*
X1151915D01*
Y692838D01*
X1151915D01*
Y696469D01*
X1149149D01*
Y697739D01*
X1151915D01*
Y701370D01*
X1151915D01*
Y701982D01*
X1151915D01*
Y705613D01*
X1149149D01*
Y706883D01*
X1151915D01*
Y710514D01*
X1151915D01*
Y710982D01*
X1151915D01*
Y714613D01*
X1149149D01*
Y715248D01*
X1148514D01*
Y719514D01*
X1146383D01*
Y719323D01*
X1144399D01*
X1144247Y719260D01*
X1140137D01*
Y718003D01*
X1139598Y717464D01*
X1137261Y717464D01*
X1136933Y717955D01*
X1136862Y718002D01*
X1136830Y718080D01*
X1136370Y718540D01*
X1136292Y718572D01*
X1136245Y718643D01*
X1135704Y719004D01*
X1135621Y719020D01*
X1135562Y719080D01*
X1134961Y719329D01*
X1134876D01*
X1134806Y719376D01*
X1134416Y719454D01*
X1134271Y720181D01*
X1133429Y721441D01*
X1132169Y722283D01*
X1130682Y722579D01*
D02*
G37*
G36*
X1038791Y733641D02*
X1035175D01*
X1031559D01*
Y730660D01*
X1031750D01*
Y728876D01*
X1031813Y728725D01*
Y723141D01*
X1031813Y722914D01*
X1031468Y722295D01*
X1031405Y722283D01*
X1030145Y721441D01*
X1029303Y720181D01*
X1029007Y718694D01*
Y714852D01*
X1028768Y714804D01*
X1028698Y714757D01*
X1028613D01*
X1028012Y714508D01*
X1027953Y714448D01*
X1027870Y714432D01*
X1027329Y714071D01*
X1027282Y714000D01*
X1027204Y713968D01*
X1026744Y713508D01*
X1026712Y713430D01*
X1026641Y713383D01*
X1026313Y712892D01*
X1024765Y712892D01*
X1023437D01*
Y714832D01*
X1019327D01*
X1019175Y714895D01*
X1017191D01*
Y715086D01*
X1015060D01*
Y710820D01*
X1014425D01*
Y710185D01*
X1011659D01*
Y706554D01*
X1011659D01*
Y705942D01*
X1011659D01*
Y702311D01*
X1014425D01*
Y701041D01*
X1011659D01*
Y697410D01*
X1011659D01*
Y696798D01*
X1011659D01*
Y693167D01*
X1014425D01*
Y691897D01*
X1011659D01*
Y688266D01*
X1011659D01*
Y687654D01*
X1011659D01*
Y684023D01*
X1014425D01*
Y683388D01*
X1015060D01*
Y679122D01*
X1017191D01*
Y679313D01*
X1019175D01*
X1019327Y679376D01*
X1023437D01*
Y680777D01*
X1023976Y681316D01*
X1026313Y681316D01*
X1026641Y680825D01*
X1026712Y680778D01*
X1026744Y680700D01*
X1027204Y680240D01*
X1027282Y680208D01*
X1027329Y680137D01*
X1027870Y679776D01*
X1027953Y679760D01*
X1028012Y679700D01*
X1028613Y679451D01*
X1028698D01*
X1028768Y679404D01*
X1029158Y679326D01*
X1029303Y678599D01*
X1030145Y677339D01*
X1031405Y676497D01*
X1032892Y676201D01*
X1040766D01*
X1042253Y676497D01*
X1043513Y677339D01*
X1044355Y678599D01*
X1044651Y680086D01*
Y683928D01*
X1044890Y683976D01*
X1044960Y684023D01*
X1045045D01*
X1045646Y684272D01*
X1045705Y684332D01*
X1045788Y684348D01*
X1046329Y684709D01*
X1046376Y684780D01*
X1046454Y684812D01*
X1046914Y685272D01*
X1046946Y685350D01*
X1047017Y685397D01*
X1047345Y685888D01*
X1048893Y685888D01*
X1050221D01*
Y683948D01*
X1054331D01*
X1054483Y683885D01*
X1056467D01*
Y683694D01*
X1058598D01*
Y687960D01*
X1059233D01*
Y688595D01*
X1061999D01*
Y692226D01*
X1061999D01*
Y692838D01*
X1061999D01*
Y696469D01*
X1059233D01*
Y697739D01*
X1061999D01*
Y701370D01*
X1061999D01*
Y701982D01*
X1061999D01*
Y705613D01*
X1059233D01*
Y706883D01*
X1061999D01*
Y710514D01*
X1061999D01*
Y711126D01*
X1061999D01*
Y714757D01*
X1059233D01*
Y715392D01*
X1058598D01*
Y719658D01*
X1056467D01*
Y719467D01*
X1054483D01*
X1054331Y719404D01*
X1050221D01*
Y718003D01*
X1049682Y717464D01*
X1047345Y717464D01*
X1047017Y717955D01*
X1046946Y718002D01*
X1046914Y718080D01*
X1046454Y718540D01*
X1046376Y718572D01*
X1046329Y718643D01*
X1045788Y719004D01*
X1045705Y719020D01*
X1045646Y719080D01*
X1045045Y719329D01*
X1044960D01*
X1044890Y719376D01*
X1044500Y719454D01*
X1044355Y720181D01*
X1043513Y721441D01*
X1042253Y722283D01*
X1040766Y722579D01*
X1039160D01*
X1038537Y722914D01*
X1038537Y723341D01*
Y728725D01*
X1038600Y728876D01*
Y730660D01*
X1038791D01*
Y733641D01*
D02*
G37*
G36*
X990791D02*
X987175D01*
X983559D01*
Y730660D01*
X983750D01*
Y728876D01*
X983813Y728725D01*
X983813Y722914D01*
X983190Y722579D01*
X981584D01*
X980098Y722283D01*
X978837Y721441D01*
X977995Y720181D01*
X977699Y718694D01*
Y714852D01*
X977460Y714804D01*
X977390Y714757D01*
X977305D01*
X976704Y714508D01*
X976645Y714448D01*
X976562Y714432D01*
X976021Y714071D01*
X975974Y714000D01*
X975896Y713968D01*
X975436Y713508D01*
X975404Y713430D01*
X975333Y713383D01*
X975005Y712892D01*
X973457Y712892D01*
X972129D01*
Y714832D01*
X968019D01*
X967867Y714895D01*
X965883D01*
Y715086D01*
X963752D01*
Y710820D01*
X963117D01*
Y710185D01*
X960351D01*
Y706554D01*
X960351D01*
Y705942D01*
X960351D01*
Y702311D01*
X963117D01*
Y701041D01*
X960351D01*
Y697410D01*
X960351D01*
Y696798D01*
X960351D01*
Y693167D01*
X963117D01*
Y691897D01*
X960351D01*
Y688266D01*
X960351D01*
Y687654D01*
X960351D01*
Y684023D01*
X963117D01*
Y683388D01*
X963752D01*
Y679122D01*
X965883D01*
Y679313D01*
X967867D01*
X968019Y679376D01*
X972129D01*
Y680777D01*
X972668Y681316D01*
X975005Y681316D01*
X975333Y680825D01*
X975404Y680778D01*
X975436Y680700D01*
X975896Y680240D01*
X975974Y680208D01*
X976021Y680137D01*
X976562Y679776D01*
X976645Y679760D01*
X976704Y679700D01*
X977305Y679451D01*
X977390D01*
X977460Y679404D01*
X977850Y679326D01*
X977995Y678599D01*
X978837Y677339D01*
X980098Y676497D01*
X981584Y676201D01*
X989458D01*
X990945Y676497D01*
X992205Y677339D01*
X993047Y678599D01*
X993343Y680086D01*
Y683928D01*
X993582Y683976D01*
X993652Y684023D01*
X993737D01*
X994338Y684272D01*
X994398Y684332D01*
X994480Y684348D01*
X995021Y684709D01*
X995068Y684780D01*
X995146Y684812D01*
X995606Y685272D01*
X995638Y685350D01*
X995709Y685397D01*
X996037Y685888D01*
X997585Y685888D01*
X998913D01*
Y683948D01*
X1003024D01*
X1003175Y683885D01*
X1004424D01*
X1004516Y683766D01*
X1004143Y683004D01*
X1003559D01*
Y682813D01*
X1001775D01*
X1001623Y682750D01*
X995813D01*
Y676026D01*
X1001623D01*
X1001775Y675963D01*
X1003559D01*
Y675772D01*
X1006540D01*
Y679388D01*
X1007175D01*
Y680023D01*
X1010791D01*
Y682973D01*
X1010791Y683004D01*
X1010691Y683725D01*
X1010691Y683766D01*
Y687325D01*
X1007925D01*
Y688595D01*
X1010691D01*
Y692226D01*
X1010691D01*
Y692838D01*
X1010691D01*
Y696469D01*
X1007925D01*
Y697739D01*
X1010691D01*
Y701370D01*
X1010691D01*
Y701982D01*
X1010691D01*
Y705613D01*
X1007925D01*
Y706883D01*
X1010691D01*
Y710514D01*
X1010691D01*
Y711126D01*
X1010691D01*
Y714757D01*
X1007925D01*
Y715392D01*
X1007290D01*
Y719658D01*
X1005159D01*
Y719467D01*
X1003175D01*
X1003024Y719404D01*
X998913D01*
Y718003D01*
X998374Y717464D01*
X996037Y717464D01*
X995709Y717955D01*
X995638Y718002D01*
X995606Y718080D01*
X995146Y718540D01*
X995068Y718572D01*
X995021Y718643D01*
X994480Y719004D01*
X994398Y719020D01*
X994338Y719080D01*
X993737Y719329D01*
X993652D01*
X993582Y719376D01*
X993192Y719454D01*
X993047Y720181D01*
X992205Y721441D01*
X990945Y722283D01*
X990882Y722295D01*
X990537Y722914D01*
X990537Y723141D01*
Y728725D01*
X990600Y728876D01*
Y730660D01*
X990791D01*
Y733641D01*
D02*
G37*
G36*
X1078099Y714757D02*
X1075118D01*
Y711776D01*
X1078099D01*
Y714757D01*
D02*
G37*
G36*
X1073848Y719008D02*
X1070867D01*
Y718817D01*
X1069083D01*
X1068931Y718754D01*
X1063121D01*
Y712030D01*
X1068931D01*
X1069083Y711967D01*
X1070867D01*
Y711776D01*
X1073848D01*
Y715392D01*
Y719008D01*
D02*
G37*
G36*
X936875Y714757D02*
X933894D01*
Y711776D01*
X936875D01*
Y714757D01*
D02*
G37*
G36*
X932624Y719008D02*
X929643D01*
Y718817D01*
X927859D01*
X927707Y718754D01*
X921897D01*
Y712030D01*
X927707D01*
X927859Y711967D01*
X929643D01*
Y711776D01*
X932624D01*
Y715392D01*
Y719008D01*
D02*
G37*
G36*
X947232Y714436D02*
X944251D01*
Y711455D01*
X947232D01*
Y714436D01*
D02*
G37*
G36*
X1013790Y715086D02*
X1011659D01*
Y711455D01*
X1013790D01*
Y715086D01*
D02*
G37*
G36*
X962482D02*
X960351D01*
Y711455D01*
X962482D01*
Y715086D01*
D02*
G37*
G36*
X1103706D02*
X1101575D01*
Y711455D01*
X1103706D01*
Y715086D01*
D02*
G37*
G36*
X1088456Y714436D02*
X1085475D01*
Y711455D01*
X1088456D01*
Y714436D01*
D02*
G37*
G36*
X1092707D02*
X1089726D01*
Y710820D01*
Y707204D01*
X1092707D01*
Y707395D01*
X1094491D01*
X1094643Y707458D01*
X1100453D01*
Y714182D01*
X1094643D01*
X1094491Y714245D01*
X1092707D01*
Y714436D01*
D02*
G37*
G36*
X1088456Y710185D02*
X1085475D01*
Y707204D01*
X1088456D01*
Y710185D01*
D02*
G37*
G36*
X951483Y714436D02*
X948502D01*
Y710820D01*
Y707204D01*
X951483D01*
Y707395D01*
X953267D01*
X953419Y707458D01*
X959229D01*
Y714182D01*
X953419D01*
X953267Y714245D01*
X951483D01*
Y714436D01*
D02*
G37*
G36*
X947232Y710185D02*
X944251D01*
Y707204D01*
X947232D01*
Y710185D01*
D02*
G37*
G36*
X936875Y709864D02*
X933894D01*
Y706883D01*
X936875D01*
Y709864D01*
D02*
G37*
G36*
X1078099D02*
X1075118D01*
Y706883D01*
X1078099D01*
Y709864D01*
D02*
G37*
G36*
Y705613D02*
X1075118D01*
Y702632D01*
X1078099D01*
Y705613D01*
D02*
G37*
G36*
X1073848Y709864D02*
X1070867D01*
Y709673D01*
X1069083D01*
X1068931Y709610D01*
X1063121D01*
Y702886D01*
X1068931D01*
X1069083Y702823D01*
X1070867D01*
Y702632D01*
X1073848D01*
Y706248D01*
Y709864D01*
D02*
G37*
G36*
X936875Y705613D02*
X933894D01*
Y702632D01*
X936875D01*
Y705613D01*
D02*
G37*
G36*
X932624Y709864D02*
X929643D01*
Y709673D01*
X927859D01*
X927707Y709610D01*
X921897D01*
Y702886D01*
X927707D01*
X927859Y702823D01*
X929643D01*
Y702632D01*
X932624D01*
Y706248D01*
Y709864D01*
D02*
G37*
G36*
X1088456Y705436D02*
X1085475D01*
Y702455D01*
X1088456D01*
Y705436D01*
D02*
G37*
G36*
X947232Y705292D02*
X944251D01*
Y702311D01*
X947232D01*
Y705292D01*
D02*
G37*
G36*
X1092707Y705436D02*
X1089726D01*
Y701820D01*
Y698204D01*
X1092707D01*
Y698395D01*
X1094491D01*
X1094643Y698458D01*
X1100453D01*
Y705182D01*
X1094643D01*
X1094491Y705245D01*
X1092707D01*
Y705436D01*
D02*
G37*
G36*
X1088456Y701185D02*
X1085475D01*
Y698204D01*
X1088456D01*
Y701185D01*
D02*
G37*
G36*
X951483Y705292D02*
X948502D01*
Y701676D01*
Y698060D01*
X951483D01*
Y698251D01*
X953267D01*
X953419Y698314D01*
X959229D01*
Y705038D01*
X953419D01*
X953267Y705101D01*
X951483D01*
Y705292D01*
D02*
G37*
G36*
X947232Y701041D02*
X944251D01*
Y698060D01*
X947232D01*
Y701041D01*
D02*
G37*
G36*
X936875Y700720D02*
X933894D01*
Y697739D01*
X936875D01*
Y700720D01*
D02*
G37*
G36*
X1078099D02*
X1075118D01*
Y697739D01*
X1078099D01*
Y700720D01*
D02*
G37*
G36*
Y696469D02*
X1075118D01*
Y693488D01*
X1078099D01*
Y696469D01*
D02*
G37*
G36*
X1073848Y700720D02*
X1070867D01*
Y700529D01*
X1069083D01*
X1068931Y700466D01*
X1063121D01*
Y693742D01*
X1068931D01*
X1069083Y693679D01*
X1070867D01*
Y693488D01*
X1073848D01*
Y697104D01*
Y700720D01*
D02*
G37*
G36*
X936875Y696469D02*
X933894D01*
Y693488D01*
X936875D01*
Y696469D01*
D02*
G37*
G36*
X932624Y700720D02*
X929643D01*
Y700529D01*
X927859D01*
X927707Y700466D01*
X921897D01*
Y693742D01*
X927707D01*
X927859Y693679D01*
X929643D01*
Y693488D01*
X932624D01*
Y697104D01*
Y700720D01*
D02*
G37*
G36*
X947232Y696148D02*
X944251D01*
Y693167D01*
X947232D01*
Y696148D01*
D02*
G37*
G36*
X1088456D02*
X1085475D01*
Y693167D01*
X1088456D01*
Y696148D01*
D02*
G37*
G36*
X1092707D02*
X1089726D01*
Y692532D01*
Y688916D01*
X1092707D01*
Y689107D01*
X1094491D01*
X1094643Y689170D01*
X1100453D01*
Y695894D01*
X1094643D01*
X1094491Y695957D01*
X1092707D01*
Y696148D01*
D02*
G37*
G36*
X1088456Y691897D02*
X1085475D01*
Y688916D01*
X1088456D01*
Y691897D01*
D02*
G37*
G36*
X951483Y696148D02*
X948502D01*
Y692532D01*
Y688916D01*
X951483D01*
Y689107D01*
X953267D01*
X953419Y689170D01*
X959229D01*
Y695894D01*
X953419D01*
X953267Y695957D01*
X951483D01*
Y696148D01*
D02*
G37*
G36*
X947232Y691897D02*
X944251D01*
Y688916D01*
X947232D01*
Y691897D01*
D02*
G37*
G36*
X936875Y691576D02*
X933894D01*
Y688595D01*
X936875D01*
Y691576D01*
D02*
G37*
G36*
X1078099D02*
X1075118D01*
Y688595D01*
X1078099D01*
Y691576D01*
D02*
G37*
G36*
X1155764Y688325D02*
X1152783D01*
Y685344D01*
X1155764D01*
Y688325D01*
D02*
G37*
G36*
X1078099Y687325D02*
X1075118D01*
Y684344D01*
X1078099D01*
Y687325D01*
D02*
G37*
G36*
X1073848Y691576D02*
X1070867D01*
Y691385D01*
X1069083D01*
X1068931Y691322D01*
X1063121D01*
Y684598D01*
X1068931D01*
X1069083Y684535D01*
X1070867D01*
Y684344D01*
X1073848D01*
Y687960D01*
Y691576D01*
D02*
G37*
G36*
X936875Y687325D02*
X933894D01*
Y684344D01*
X936875D01*
Y687325D01*
D02*
G37*
G36*
X932624Y691576D02*
X929643D01*
Y691385D01*
X927859D01*
X927707Y691322D01*
X921897D01*
Y684598D01*
X927707D01*
X927859Y684535D01*
X929643D01*
Y684344D01*
X932624D01*
Y687960D01*
Y691576D01*
D02*
G37*
G36*
X947232Y687004D02*
X944251D01*
Y684023D01*
X947232D01*
Y687004D01*
D02*
G37*
G36*
X1088456Y687004D02*
X1085475D01*
Y684023D01*
X1088456D01*
Y687004D01*
D02*
G37*
G36*
X1061999Y687325D02*
X1059868D01*
Y683694D01*
X1061999D01*
Y687325D01*
D02*
G37*
G36*
X1155786Y683076D02*
Y680095D01*
X1158767D01*
Y683076D01*
X1155786D01*
D02*
G37*
G36*
X951483Y687004D02*
X948502D01*
Y683388D01*
Y679772D01*
X951483D01*
Y679963D01*
X953267D01*
X953419Y680026D01*
X959229D01*
Y686750D01*
X953419D01*
X953267Y686813D01*
X951483D01*
Y687004D01*
D02*
G37*
G36*
X947232Y682753D02*
X944251D01*
Y679772D01*
X947232D01*
Y682753D01*
D02*
G37*
G36*
X1092707Y687004D02*
X1089726D01*
Y683388D01*
Y679772D01*
X1092707D01*
Y679963D01*
X1094491D01*
X1094643Y680026D01*
X1100453D01*
Y686750D01*
X1094643D01*
X1094491Y686813D01*
X1092707D01*
Y687004D01*
D02*
G37*
G36*
X1088456Y682753D02*
X1085475D01*
Y679772D01*
X1088456D01*
Y682753D01*
D02*
G37*
G36*
X936875Y682576D02*
X933894D01*
Y679595D01*
X936875D01*
Y682576D01*
D02*
G37*
G36*
X1013790Y682753D02*
X1011659D01*
Y679122D01*
X1013790D01*
Y682753D01*
D02*
G37*
G36*
X962482D02*
X960351D01*
Y679122D01*
X962482D01*
Y682753D01*
D02*
G37*
G36*
X1103706Y682753D02*
X1101575D01*
Y679122D01*
X1103706D01*
Y682753D01*
D02*
G37*
G36*
X1158767Y678825D02*
X1155786D01*
Y675844D01*
X1158767D01*
Y678825D01*
D02*
G37*
G36*
X1151915Y687325D02*
X1149784D01*
Y683694D01*
X1150359D01*
X1150796Y682932D01*
X1150769Y682885D01*
X1149751D01*
X1149600Y682822D01*
X1143789D01*
Y676098D01*
X1149600D01*
X1149751Y676035D01*
X1151535D01*
Y675844D01*
X1154516D01*
Y679460D01*
Y683076D01*
X1152297D01*
X1152263Y683076D01*
X1151928Y683671D01*
D01*
X1151915Y683694D01*
X1151915Y683888D01*
X1151915D01*
Y687325D01*
D02*
G37*
G36*
X1010791Y678753D02*
X1007810D01*
Y675772D01*
X1010791D01*
Y678753D01*
D02*
G37*
G36*
X936875Y678325D02*
X933894D01*
Y675344D01*
X936875D01*
Y678325D01*
D02*
G37*
G36*
X932624Y682576D02*
X929643D01*
Y682385D01*
X927859D01*
X927707Y682322D01*
X921897D01*
Y675598D01*
X927707D01*
X927859Y675535D01*
X929643D01*
Y675344D01*
X932624D01*
Y678960D01*
Y682576D01*
D02*
G37*
G36*
X920775Y678325D02*
X918644D01*
Y674694D01*
X920775D01*
Y678325D01*
D02*
G37*
G36*
X882664Y673260D02*
Y671691D01*
X884234D01*
X884183Y671948D01*
X883677Y672704D01*
X882921Y673209D01*
X882664Y673260D01*
D02*
G37*
G36*
X881394D02*
X881137Y673209D01*
X880381Y672704D01*
X879876Y671948D01*
X879825Y671691D01*
X881394D01*
Y673260D01*
D02*
G37*
G36*
X884234Y670421D02*
X882664D01*
Y668851D01*
X882921Y668903D01*
X883677Y669408D01*
X884183Y670164D01*
X884234Y670421D01*
D02*
G37*
G36*
X881394D02*
X879825D01*
X879876Y670164D01*
X880381Y669408D01*
X881137Y668903D01*
X881394Y668851D01*
Y670421D01*
D02*
G37*
G36*
X1096730Y616802D02*
X1092849D01*
Y611921D01*
X1096730D01*
Y616802D01*
D02*
G37*
G36*
X900430Y604694D02*
X897798D01*
Y601563D01*
X900430D01*
Y604694D01*
D02*
G37*
G36*
X1129752Y605101D02*
X1127504Y604654D01*
X1125598Y603380D01*
X1124324Y601474D01*
X1123877Y599226D01*
X1124324Y596978D01*
X1125598Y595072D01*
X1127504Y593799D01*
X1129752Y593351D01*
X1132000Y593799D01*
X1133906Y595072D01*
X1135179Y596978D01*
X1135627Y599226D01*
X1135179Y601474D01*
X1133906Y603380D01*
X1132000Y604654D01*
X1129752Y605101D01*
D02*
G37*
G36*
X1096730Y610651D02*
X1092849D01*
Y605770D01*
X1093649D01*
X1093724Y605008D01*
X1091944Y604654D01*
X1090038Y603380D01*
X1088764Y601474D01*
X1088317Y599226D01*
X1088764Y596978D01*
X1090038Y595072D01*
X1091944Y593799D01*
X1094192Y593351D01*
X1096440Y593799D01*
X1098346Y595072D01*
X1099620Y596978D01*
X1100067Y599226D01*
X1099620Y601474D01*
X1098346Y603380D01*
X1096440Y604654D01*
X1094661Y605008D01*
X1094736Y605770D01*
X1096730D01*
Y610651D01*
D02*
G37*
G36*
X1111972Y605101D02*
X1109724Y604654D01*
X1107818Y603380D01*
X1106544Y601474D01*
X1106097Y599226D01*
X1106544Y596978D01*
X1107818Y595072D01*
X1109724Y593798D01*
X1111972Y593351D01*
X1114220Y593798D01*
X1116126Y595072D01*
X1117400Y596978D01*
X1117847Y599226D01*
X1117400Y601474D01*
X1116126Y603380D01*
X1114220Y604654D01*
X1111972Y605101D01*
D02*
G37*
G36*
X1158767Y595174D02*
X1155786D01*
Y592193D01*
X1158767D01*
Y595174D01*
D02*
G37*
G36*
Y590923D02*
X1155786D01*
Y587942D01*
X1158767D01*
Y590923D01*
D02*
G37*
G36*
X1154516Y595174D02*
X1151535D01*
Y594983D01*
X1149751D01*
X1149600Y594920D01*
X1143789D01*
Y588196D01*
X1149600D01*
X1149751Y588133D01*
X1150769D01*
X1150796Y588086D01*
X1150359Y587324D01*
X1149784D01*
Y583693D01*
X1151915D01*
Y587130D01*
X1151915D01*
X1151915Y587324D01*
X1151928Y587347D01*
X1151928D01*
X1152263Y587942D01*
X1152297Y587942D01*
X1154516D01*
Y591558D01*
Y595174D01*
D02*
G37*
G36*
X1014545Y587621D02*
X1011564D01*
Y584640D01*
X1014545D01*
Y587621D01*
D02*
G37*
G36*
X1078099Y586674D02*
X1075118D01*
Y583693D01*
X1078099D01*
Y586674D01*
D02*
G37*
G36*
X936875D02*
X933894D01*
Y583693D01*
X936875D01*
Y586674D01*
D02*
G37*
G36*
X1061999Y587324D02*
X1059868D01*
Y583693D01*
X1061999D01*
Y587324D01*
D02*
G37*
G36*
X1010691D02*
X1008560D01*
Y583693D01*
X1010691D01*
Y587324D01*
D02*
G37*
G36*
X920775D02*
X918644D01*
Y583693D01*
X920775D01*
Y587324D01*
D02*
G37*
G36*
X1155764Y585674D02*
X1152783D01*
Y582693D01*
X1155764D01*
Y585674D01*
D02*
G37*
G36*
X1130682Y590245D02*
X1122808D01*
X1121321Y589949D01*
X1120061Y589107D01*
X1119219Y587847D01*
X1118923Y586360D01*
Y582518D01*
X1118684Y582470D01*
X1118614Y582423D01*
X1118529D01*
X1117928Y582174D01*
X1117869Y582114D01*
X1117786Y582098D01*
X1117245Y581737D01*
X1117198Y581666D01*
X1117120Y581634D01*
X1116660Y581174D01*
X1116628Y581096D01*
X1116557Y581049D01*
X1116229Y580558D01*
X1114681Y580558D01*
X1113353D01*
Y582498D01*
X1109243D01*
X1109091Y582561D01*
X1107107D01*
Y582752D01*
X1104976D01*
Y578486D01*
X1104341D01*
Y577851D01*
X1101575D01*
Y574220D01*
X1101575D01*
Y573608D01*
X1101575D01*
Y569977D01*
X1104341D01*
Y568707D01*
X1101575D01*
Y565076D01*
X1101575D01*
Y564464D01*
X1101575D01*
Y560833D01*
X1104341D01*
Y559563D01*
X1101575D01*
Y555932D01*
X1101575D01*
Y555320D01*
X1101575D01*
Y551689D01*
X1104341D01*
Y551054D01*
X1104976D01*
Y546788D01*
X1107107D01*
Y546979D01*
X1109091D01*
X1109243Y547042D01*
X1113353D01*
Y548443D01*
X1113892Y548982D01*
X1116229Y548982D01*
X1116557Y548491D01*
X1116628Y548444D01*
X1116660Y548366D01*
X1117120Y547906D01*
X1117198Y547874D01*
X1117245Y547803D01*
X1117786Y547442D01*
X1117869Y547426D01*
X1117928Y547366D01*
X1118529Y547117D01*
X1118614D01*
X1118684Y547070D01*
X1119074Y546992D01*
X1119219Y546265D01*
X1120061Y545005D01*
X1121321Y544163D01*
X1122808Y543867D01*
X1130682D01*
X1132169Y544163D01*
X1133429Y545005D01*
X1134271Y546265D01*
X1134567Y547752D01*
Y551594D01*
X1134806Y551642D01*
X1134876Y551689D01*
X1134961D01*
X1135562Y551938D01*
X1135621Y551997D01*
X1135704Y552014D01*
X1136245Y552375D01*
X1136292Y552446D01*
X1136370Y552478D01*
X1136830Y552938D01*
X1136862Y553016D01*
X1136933Y553063D01*
X1137261Y553554D01*
X1138809Y553554D01*
X1140137D01*
Y551614D01*
X1144247D01*
X1144399Y551551D01*
X1146383D01*
Y551360D01*
X1149089D01*
X1149526Y550598D01*
X1149499Y550551D01*
X1148481D01*
X1148330Y550488D01*
X1142519D01*
Y543764D01*
X1148330D01*
X1148481Y543701D01*
X1150265D01*
Y543510D01*
X1153246D01*
Y547126D01*
Y550742D01*
X1152263D01*
X1151915Y551360D01*
X1151915Y551504D01*
Y554991D01*
X1149149D01*
Y556261D01*
X1151915D01*
Y559892D01*
X1151915D01*
Y560504D01*
X1151915D01*
Y564135D01*
X1149149D01*
Y565405D01*
X1151915D01*
Y569036D01*
X1151915D01*
Y569648D01*
X1151915D01*
Y573279D01*
X1149149D01*
Y574549D01*
X1151915D01*
Y578180D01*
X1151915D01*
Y578792D01*
X1151915D01*
Y582423D01*
X1149149D01*
Y583058D01*
X1148514D01*
Y587324D01*
X1146383D01*
Y587133D01*
X1144399D01*
X1144247Y587070D01*
X1140137D01*
Y585669D01*
X1139598Y585130D01*
X1137261Y585130D01*
X1136933Y585621D01*
X1136862Y585668D01*
X1136830Y585746D01*
X1136370Y586206D01*
X1136292Y586238D01*
X1136245Y586309D01*
X1135704Y586670D01*
X1135621Y586687D01*
X1135562Y586746D01*
X1134961Y586995D01*
X1134876D01*
X1134806Y587042D01*
X1134416Y587120D01*
X1134271Y587847D01*
X1133429Y589107D01*
X1132169Y589949D01*
X1130682Y590245D01*
D02*
G37*
G36*
X1040766D02*
X1032892D01*
X1031405Y589949D01*
X1030145Y589107D01*
X1029303Y587847D01*
X1029007Y586360D01*
Y582518D01*
X1028768Y582470D01*
X1028698Y582423D01*
X1028613D01*
X1028012Y582174D01*
X1027953Y582114D01*
X1027870Y582098D01*
X1027329Y581737D01*
X1027282Y581666D01*
X1027204Y581634D01*
X1026744Y581174D01*
X1026712Y581096D01*
X1026641Y581049D01*
X1026313Y580558D01*
X1024765Y580558D01*
X1023442D01*
Y582498D01*
X1019332D01*
X1019180Y582561D01*
X1017196D01*
Y582752D01*
X1015065D01*
Y578486D01*
X1014430D01*
Y577851D01*
X1011664D01*
Y574220D01*
X1011664D01*
Y573608D01*
X1011664D01*
Y569977D01*
X1014430D01*
Y568707D01*
X1011664D01*
Y565076D01*
X1011664D01*
Y564464D01*
X1011664D01*
Y560833D01*
X1014430D01*
Y559563D01*
X1011664D01*
Y555932D01*
X1011664D01*
Y555320D01*
X1011664D01*
Y551689D01*
X1014430D01*
Y551054D01*
X1015065D01*
Y546788D01*
X1017196D01*
Y546979D01*
X1019180D01*
X1019332Y547042D01*
X1023442D01*
Y548443D01*
X1023981Y548982D01*
X1026313Y548982D01*
X1026641Y548491D01*
X1026712Y548444D01*
X1026744Y548366D01*
X1027204Y547906D01*
X1027282Y547874D01*
X1027329Y547803D01*
X1027870Y547442D01*
X1027953Y547426D01*
X1028012Y547366D01*
X1028613Y547117D01*
X1028698D01*
X1028768Y547070D01*
X1029158Y546992D01*
X1029303Y546265D01*
X1030145Y545005D01*
X1031210Y544294D01*
X1030979Y543532D01*
X1027813D01*
Y537721D01*
X1027750Y537570D01*
Y535786D01*
X1027559D01*
Y532805D01*
X1034791D01*
Y535786D01*
X1034600D01*
Y537570D01*
X1034537Y537721D01*
X1034537Y543532D01*
X1035160Y543867D01*
X1040766D01*
X1042253Y544163D01*
X1043513Y545005D01*
X1044355Y546265D01*
X1044651Y547752D01*
Y551594D01*
X1044890Y551642D01*
X1044960Y551689D01*
X1045045D01*
X1045646Y551938D01*
X1045705Y551997D01*
X1045788Y552014D01*
X1046329Y552375D01*
X1046376Y552446D01*
X1046454Y552478D01*
X1046914Y552938D01*
X1046946Y553016D01*
X1047017Y553063D01*
X1047345Y553554D01*
X1048893Y553554D01*
X1050221D01*
Y551614D01*
X1054331D01*
X1054483Y551551D01*
X1056467D01*
Y551360D01*
X1058598D01*
Y555626D01*
X1059233D01*
Y556261D01*
X1061999D01*
Y559892D01*
X1061999D01*
Y560504D01*
X1061999D01*
Y564135D01*
X1059233D01*
Y565405D01*
X1061999D01*
Y569036D01*
X1061999D01*
Y569648D01*
X1061999D01*
Y573279D01*
X1059233D01*
Y574549D01*
X1061999D01*
Y578180D01*
X1061999D01*
Y578792D01*
X1061999D01*
Y582423D01*
X1059233D01*
Y583058D01*
X1058598D01*
Y587324D01*
X1056467D01*
Y587133D01*
X1054483D01*
X1054331Y587070D01*
X1050221D01*
Y585669D01*
X1049682Y585130D01*
X1047345Y585130D01*
X1047017Y585621D01*
X1046946Y585668D01*
X1046914Y585746D01*
X1046454Y586206D01*
X1046376Y586238D01*
X1046329Y586309D01*
X1045788Y586670D01*
X1045705Y586687D01*
X1045646Y586746D01*
X1045045Y586995D01*
X1044960D01*
X1044890Y587042D01*
X1044500Y587120D01*
X1044355Y587847D01*
X1043513Y589107D01*
X1042253Y589949D01*
X1040766Y590245D01*
D02*
G37*
G36*
X989458D02*
X981584D01*
X980098Y589949D01*
X978837Y589107D01*
X977995Y587847D01*
X977699Y586360D01*
Y582518D01*
X977460Y582470D01*
X977390Y582423D01*
X977305D01*
X976704Y582174D01*
X976645Y582114D01*
X976562Y582098D01*
X976021Y581737D01*
X975974Y581666D01*
X975896Y581634D01*
X975436Y581174D01*
X975404Y581096D01*
X975333Y581049D01*
X975005Y580558D01*
X973457Y580558D01*
X972129D01*
Y582498D01*
X968019D01*
X967867Y582561D01*
X965883D01*
Y582752D01*
X963752D01*
Y578486D01*
X963117D01*
Y577851D01*
X960351D01*
Y574220D01*
X960351D01*
Y573608D01*
X960351D01*
Y569977D01*
X963117D01*
Y568707D01*
X960351D01*
Y565076D01*
X960351D01*
Y564464D01*
X960351D01*
Y560833D01*
X963117D01*
Y559563D01*
X960351D01*
Y555932D01*
X960351D01*
Y555320D01*
X960351D01*
Y551689D01*
X963117D01*
Y551054D01*
X963752D01*
Y546788D01*
X965883D01*
Y546979D01*
X967867D01*
X968019Y547042D01*
X972129D01*
Y548443D01*
X972668Y548982D01*
X975005Y548982D01*
X975333Y548491D01*
X975404Y548444D01*
X975436Y548366D01*
X975896Y547906D01*
X975974Y547874D01*
X976021Y547803D01*
X976562Y547442D01*
X976645Y547426D01*
X976704Y547366D01*
X977305Y547117D01*
X977390D01*
X977460Y547070D01*
X977850Y546992D01*
X977995Y546265D01*
X978837Y545005D01*
X980098Y544163D01*
X981584Y543867D01*
X987190D01*
X987813Y543532D01*
X987813Y543105D01*
Y537721D01*
X987750Y537570D01*
Y535786D01*
X987559D01*
Y532805D01*
X994791D01*
Y535786D01*
X994600D01*
Y537570D01*
X994537Y537721D01*
Y543532D01*
X991371D01*
X991140Y544294D01*
X992205Y545005D01*
X993047Y546265D01*
X993343Y547752D01*
Y551594D01*
X993582Y551642D01*
X993652Y551689D01*
X993737D01*
X994338Y551938D01*
X994398Y551997D01*
X994480Y552014D01*
X995021Y552375D01*
X995068Y552446D01*
X995146Y552478D01*
X995606Y552938D01*
X995638Y553016D01*
X995709Y553063D01*
X996037Y553554D01*
X997585Y553554D01*
X998918D01*
Y551614D01*
X1003028D01*
X1003180Y551551D01*
X1005164D01*
Y551360D01*
X1007295D01*
Y555626D01*
X1007930D01*
Y556261D01*
X1010696D01*
Y559892D01*
X1010696D01*
Y560504D01*
X1010696D01*
Y564135D01*
X1007930D01*
Y565405D01*
X1010696D01*
Y569036D01*
X1010696D01*
Y569648D01*
X1010696D01*
Y573279D01*
X1007930D01*
Y574549D01*
X1010696D01*
Y578032D01*
X1010696Y578180D01*
X1010696D01*
X1010691Y578792D01*
X1010691D01*
Y582423D01*
X1007925D01*
Y583058D01*
X1007290D01*
Y587324D01*
X1005159D01*
Y587133D01*
X1003175D01*
X1003023Y587070D01*
X998913D01*
Y585669D01*
X998374Y585130D01*
X996037Y585130D01*
X995709Y585621D01*
X995638Y585668D01*
X995606Y585746D01*
X995146Y586206D01*
X995068Y586238D01*
X995021Y586309D01*
X994480Y586670D01*
X994398Y586687D01*
X994338Y586746D01*
X993737Y586995D01*
X993652D01*
X993582Y587042D01*
X993192Y587120D01*
X993047Y587847D01*
X992205Y589107D01*
X990945Y589949D01*
X989458Y590245D01*
D02*
G37*
G36*
X1078099Y582423D02*
X1075118D01*
Y579442D01*
X1078099D01*
Y582423D01*
D02*
G37*
G36*
X1073848Y586674D02*
X1070867D01*
Y586483D01*
X1069083D01*
X1068931Y586420D01*
X1063121D01*
Y579696D01*
X1068931D01*
X1069083Y579633D01*
X1070867D01*
Y579442D01*
X1073848D01*
Y583058D01*
Y586674D01*
D02*
G37*
G36*
X936875Y582423D02*
X933894D01*
Y579442D01*
X936875D01*
Y582423D01*
D02*
G37*
G36*
X932624Y586674D02*
X929643D01*
Y586483D01*
X927859D01*
X927707Y586420D01*
X921897D01*
Y579696D01*
X927707D01*
X927859Y579633D01*
X929643D01*
Y579442D01*
X932624D01*
Y583058D01*
Y586674D01*
D02*
G37*
G36*
X1013795Y582752D02*
X1011664D01*
Y579121D01*
X1013795D01*
Y582752D01*
D02*
G37*
G36*
X1103706D02*
X1101575D01*
Y579121D01*
X1103706D01*
Y582752D01*
D02*
G37*
G36*
X962482D02*
X960351D01*
Y579121D01*
X962482D01*
Y582752D01*
D02*
G37*
G36*
X1088456Y582102D02*
X1085475D01*
Y579121D01*
X1088456D01*
Y582102D01*
D02*
G37*
G36*
X947232D02*
X944251D01*
Y579121D01*
X947232D01*
Y582102D01*
D02*
G37*
G36*
X1092707D02*
X1089726D01*
Y578486D01*
Y574870D01*
X1092707D01*
Y575061D01*
X1094491D01*
X1094643Y575124D01*
X1100453D01*
Y581848D01*
X1094643D01*
X1094491Y581911D01*
X1092707D01*
Y582102D01*
D02*
G37*
G36*
X1088456Y577851D02*
X1085475D01*
Y574870D01*
X1088456D01*
Y577851D01*
D02*
G37*
G36*
X951483Y582102D02*
X948502D01*
Y578486D01*
Y574870D01*
X951483D01*
Y575061D01*
X953267D01*
X953419Y575124D01*
X959229D01*
Y581848D01*
X953419D01*
X953267Y581911D01*
X951483D01*
Y582102D01*
D02*
G37*
G36*
X947232Y577851D02*
X944251D01*
Y574870D01*
X947232D01*
Y577851D01*
D02*
G37*
G36*
X1078099Y577530D02*
X1075118D01*
Y574549D01*
X1078099D01*
Y577530D01*
D02*
G37*
G36*
X936875D02*
X933894D01*
Y574549D01*
X936875D01*
Y577530D01*
D02*
G37*
G36*
X1078099Y573279D02*
X1075118D01*
Y570298D01*
X1078099D01*
Y573279D01*
D02*
G37*
G36*
X1073848Y577530D02*
X1070867D01*
Y577339D01*
X1069083D01*
X1068931Y577276D01*
X1063121D01*
Y570552D01*
X1068931D01*
X1069083Y570489D01*
X1070867D01*
Y570298D01*
X1073848D01*
Y573914D01*
Y577530D01*
D02*
G37*
G36*
X936875Y573279D02*
X933894D01*
Y570298D01*
X936875D01*
Y573279D01*
D02*
G37*
G36*
X932624Y577530D02*
X929643D01*
Y577339D01*
X927859D01*
X927707Y577276D01*
X921897D01*
Y570552D01*
X927707D01*
X927859Y570489D01*
X929643D01*
Y570298D01*
X932624D01*
Y573914D01*
Y577530D01*
D02*
G37*
G36*
X1088456Y572958D02*
X1085475D01*
Y569977D01*
X1088456D01*
Y572958D01*
D02*
G37*
G36*
X947232D02*
X944251D01*
Y569977D01*
X947232D01*
Y572958D01*
D02*
G37*
G36*
X1092707D02*
X1089726D01*
Y569342D01*
Y565726D01*
X1092707D01*
Y565917D01*
X1094491D01*
X1094643Y565980D01*
X1100453D01*
Y572704D01*
X1094643D01*
X1094491Y572767D01*
X1092707D01*
Y572958D01*
D02*
G37*
G36*
X1088456Y568707D02*
X1085475D01*
Y565726D01*
X1088456D01*
Y568707D01*
D02*
G37*
G36*
X951483Y572958D02*
X948502D01*
Y569342D01*
Y565726D01*
X951483D01*
Y565917D01*
X953267D01*
X953419Y565980D01*
X959229D01*
Y572704D01*
X953419D01*
X953267Y572767D01*
X951483D01*
Y572958D01*
D02*
G37*
G36*
X947232Y568707D02*
X944251D01*
Y565726D01*
X947232D01*
Y568707D01*
D02*
G37*
G36*
X1078099Y568386D02*
X1075118D01*
Y565405D01*
X1078099D01*
Y568386D01*
D02*
G37*
G36*
X936875D02*
X933894D01*
Y565405D01*
X936875D01*
Y568386D01*
D02*
G37*
G36*
X1078099Y564135D02*
X1075118D01*
Y561154D01*
X1078099D01*
Y564135D01*
D02*
G37*
G36*
X1073848Y568386D02*
X1070867D01*
Y568195D01*
X1069083D01*
X1068931Y568132D01*
X1063121D01*
Y561408D01*
X1068931D01*
X1069083Y561345D01*
X1070867D01*
Y561154D01*
X1073848D01*
Y564770D01*
Y568386D01*
D02*
G37*
G36*
X936875Y564135D02*
X933894D01*
Y561154D01*
X936875D01*
Y564135D01*
D02*
G37*
G36*
X932624Y568386D02*
X929643D01*
Y568195D01*
X927859D01*
X927707Y568132D01*
X921897D01*
Y561408D01*
X927707D01*
X927859Y561345D01*
X929643D01*
Y561154D01*
X932624D01*
Y564770D01*
Y568386D01*
D02*
G37*
G36*
X1088456Y563814D02*
X1085475D01*
Y560833D01*
X1088456D01*
Y563814D01*
D02*
G37*
G36*
X947232D02*
X944251D01*
Y560833D01*
X947232D01*
Y563814D01*
D02*
G37*
G36*
X1092707D02*
X1089726D01*
Y560198D01*
Y556582D01*
X1092707D01*
Y556773D01*
X1094491D01*
X1094643Y556836D01*
X1100453D01*
Y563560D01*
X1094643D01*
X1094491Y563623D01*
X1092707D01*
Y563814D01*
D02*
G37*
G36*
X1088456Y559563D02*
X1085475D01*
Y556582D01*
X1088456D01*
Y559563D01*
D02*
G37*
G36*
X951483Y563814D02*
X948502D01*
Y560198D01*
Y556582D01*
X951483D01*
Y556773D01*
X953267D01*
X953419Y556836D01*
X959229D01*
Y563560D01*
X953419D01*
X953267Y563623D01*
X951483D01*
Y563814D01*
D02*
G37*
G36*
X947232Y559563D02*
X944251D01*
Y556582D01*
X947232D01*
Y559563D01*
D02*
G37*
G36*
X1078099Y559242D02*
X1075118D01*
Y556261D01*
X1078099D01*
Y559242D01*
D02*
G37*
G36*
X936875D02*
X933894D01*
Y556261D01*
X936875D01*
Y559242D01*
D02*
G37*
G36*
X1155764Y556135D02*
X1152783D01*
Y553154D01*
X1155764D01*
Y556135D01*
D02*
G37*
G36*
X1078099Y554991D02*
X1075118D01*
Y552010D01*
X1078099D01*
Y554991D01*
D02*
G37*
G36*
X1073848Y559242D02*
X1070867D01*
Y559051D01*
X1069083D01*
X1068931Y558988D01*
X1063121D01*
Y552264D01*
X1068931D01*
X1069083Y552201D01*
X1070867D01*
Y552010D01*
X1073848D01*
Y555626D01*
Y559242D01*
D02*
G37*
G36*
X936875Y554991D02*
X933894D01*
Y552010D01*
X936875D01*
Y554991D01*
D02*
G37*
G36*
X932624Y559242D02*
X929643D01*
Y559051D01*
X927859D01*
X927707Y558988D01*
X921897D01*
Y552264D01*
X927707D01*
X927859Y552201D01*
X929643D01*
Y552010D01*
X932624D01*
Y555626D01*
Y559242D01*
D02*
G37*
G36*
X1088456Y554670D02*
X1085475D01*
Y551689D01*
X1088456D01*
Y554670D01*
D02*
G37*
G36*
X947232D02*
X944251D01*
Y551689D01*
X947232D01*
Y554670D01*
D02*
G37*
G36*
X1061999Y554991D02*
X1059868D01*
Y551360D01*
X1061999D01*
Y554991D01*
D02*
G37*
G36*
X1010696D02*
X1008565D01*
Y551360D01*
X1010696D01*
Y554991D01*
D02*
G37*
G36*
X1092707Y554670D02*
X1089726D01*
Y551054D01*
Y547438D01*
X1092707D01*
Y547629D01*
X1094491D01*
X1094643Y547692D01*
X1100453D01*
Y554416D01*
X1094643D01*
X1094491Y554479D01*
X1092707D01*
Y554670D01*
D02*
G37*
G36*
X1088456Y550419D02*
X1085475D01*
Y547438D01*
X1088456D01*
Y550419D01*
D02*
G37*
G36*
X951483Y554670D02*
X948502D01*
Y551054D01*
Y547438D01*
X951483D01*
Y547629D01*
X953267D01*
X953419Y547692D01*
X959229D01*
Y554416D01*
X953419D01*
X953267Y554479D01*
X951483D01*
Y554670D01*
D02*
G37*
G36*
X947232Y550419D02*
X944251D01*
Y547438D01*
X947232D01*
Y550419D01*
D02*
G37*
G36*
X936875Y550242D02*
X933894D01*
Y547261D01*
X936875D01*
Y550242D01*
D02*
G37*
G36*
X1103706Y550419D02*
X1101575D01*
Y546788D01*
X1103706D01*
Y550419D01*
D02*
G37*
G36*
X1013795D02*
X1011664D01*
Y546788D01*
X1013795D01*
Y550419D01*
D02*
G37*
G36*
X962482D02*
X960351D01*
Y546788D01*
X962482D01*
Y550419D01*
D02*
G37*
G36*
X936875Y545991D02*
X933894D01*
Y543010D01*
X936875D01*
Y545991D01*
D02*
G37*
G36*
X932624Y550242D02*
X929643D01*
Y550051D01*
X927859D01*
X927707Y549988D01*
X921897D01*
Y543264D01*
X927707D01*
X927859Y543201D01*
X929643D01*
Y543010D01*
X932624D01*
Y546626D01*
Y550242D01*
D02*
G37*
G36*
X920775Y545991D02*
X918644D01*
Y542360D01*
X920775D01*
Y545991D01*
D02*
G37*
G36*
X1026537Y543532D02*
X1019813D01*
Y537721D01*
X1019750Y537570D01*
Y535786D01*
X1019559D01*
Y532805D01*
X1026791D01*
Y535786D01*
X1026600D01*
Y537570D01*
X1026537Y537721D01*
Y543532D01*
D02*
G37*
G36*
X1018537D02*
X1011813D01*
Y537721D01*
X1011750Y537570D01*
Y535786D01*
X1011559D01*
Y532805D01*
X1018791D01*
Y535786D01*
X1018600D01*
Y537570D01*
X1018537Y537721D01*
Y543532D01*
D02*
G37*
G36*
X1010537D02*
X1003813D01*
Y537721D01*
X1003750Y537570D01*
Y535786D01*
X1003559D01*
Y532805D01*
X1010791D01*
Y535786D01*
X1010600D01*
Y537570D01*
X1010537Y537721D01*
Y543532D01*
D02*
G37*
G36*
X1002537D02*
X995813D01*
Y537721D01*
X995750Y537570D01*
Y535786D01*
X995559D01*
Y532805D01*
X1002791D01*
Y535786D01*
X1002600D01*
Y537570D01*
X1002537Y537721D01*
Y543532D01*
D02*
G37*
G36*
X879700Y533229D02*
X876069D01*
Y531098D01*
X879700D01*
Y533229D01*
D02*
G37*
G36*
X1034791Y531535D02*
X1031810D01*
Y528554D01*
X1034791D01*
Y531535D01*
D02*
G37*
G36*
X1030540D02*
X1027559D01*
Y528554D01*
X1030540D01*
Y531535D01*
D02*
G37*
G36*
X1026791D02*
X1023810D01*
Y528554D01*
X1026791D01*
Y531535D01*
D02*
G37*
G36*
X1022540D02*
X1019559D01*
Y528554D01*
X1022540D01*
Y531535D01*
D02*
G37*
G36*
X1018791D02*
X1015810D01*
Y528554D01*
X1018791D01*
Y531535D01*
D02*
G37*
G36*
X1014540D02*
X1011559D01*
Y528554D01*
X1014540D01*
Y531535D01*
D02*
G37*
G36*
X1010791D02*
X1007810D01*
Y528554D01*
X1010791D01*
Y531535D01*
D02*
G37*
G36*
X1006540D02*
X1003559D01*
Y528554D01*
X1006540D01*
Y531535D01*
D02*
G37*
G36*
X1002791D02*
X999810D01*
Y528554D01*
X1002791D01*
Y531535D01*
D02*
G37*
G36*
X998540D02*
X995559D01*
Y528554D01*
X998540D01*
Y531535D01*
D02*
G37*
G36*
X994791D02*
X991810D01*
Y528554D01*
X994791D01*
Y531535D01*
D02*
G37*
G36*
X990540D02*
X987559D01*
Y528554D01*
X990540D01*
Y531535D01*
D02*
G37*
G36*
X904174Y537872D02*
X897450D01*
Y532062D01*
X897387Y531910D01*
Y530126D01*
X897196D01*
Y527145D01*
X904428D01*
Y530126D01*
X904237D01*
Y531910D01*
X904174Y532062D01*
Y537872D01*
D02*
G37*
G36*
X896174D02*
X889450D01*
Y534126D01*
X889396Y534046D01*
X889239Y533253D01*
X889396Y532460D01*
X889450Y532380D01*
Y532062D01*
X889387Y531910D01*
Y530126D01*
X889196D01*
Y527145D01*
X896428D01*
Y530126D01*
X896237D01*
Y531910D01*
X896174Y532062D01*
Y537872D01*
D02*
G37*
G36*
X888174D02*
X881450D01*
Y532062D01*
X881387Y531910D01*
Y530126D01*
X881196D01*
Y527145D01*
X888428D01*
Y530126D01*
X888237D01*
Y531910D01*
X888174Y532062D01*
Y537872D01*
D02*
G37*
G36*
X904428Y525875D02*
X901447D01*
Y522894D01*
X904428D01*
Y525875D01*
D02*
G37*
G36*
X900177D02*
X897196D01*
Y522894D01*
X900177D01*
Y525875D01*
D02*
G37*
G36*
X896428D02*
X893447D01*
Y522894D01*
X896428D01*
Y525875D01*
D02*
G37*
G36*
X892177D02*
X889196D01*
Y522894D01*
X892177D01*
Y525875D01*
D02*
G37*
G36*
X888428D02*
X885447D01*
Y522894D01*
X888428D01*
Y525875D01*
D02*
G37*
G36*
X884177D02*
X881196D01*
Y522894D01*
X884177D01*
Y525875D01*
D02*
G37*
G36*
X894632Y659755D02*
X891501D01*
Y657124D01*
X894632D01*
Y659755D01*
D02*
G37*
G36*
X890739D02*
X887608D01*
Y657124D01*
X890739D01*
Y659755D01*
D02*
G37*
G36*
X936077Y624841D02*
X932945D01*
Y622210D01*
X936077D01*
Y624841D01*
D02*
G37*
G36*
X932184D02*
X929053D01*
Y622210D01*
X932184D01*
Y624841D01*
D02*
G37*
G36*
X955293Y609649D02*
X952312D01*
Y606668D01*
X955293D01*
Y609649D01*
D02*
G37*
G36*
Y605906D02*
X952312D01*
Y602925D01*
X955293D01*
Y605906D01*
D02*
G37*
G36*
X540575Y659074D02*
X538924D01*
Y657423D01*
X538947D01*
X539694Y657732D01*
X540266Y658304D01*
X540575Y659051D01*
Y659074D01*
D02*
G37*
G36*
X538162D02*
X536511D01*
Y659051D01*
X536820Y658304D01*
X537392Y657732D01*
X538139Y657423D01*
X538162D01*
Y659074D01*
D02*
G37*
G36*
X513575D02*
X511924D01*
Y657423D01*
X511947D01*
X512694Y657732D01*
X513266Y658304D01*
X513575Y659051D01*
Y659074D01*
D02*
G37*
G36*
X511162D02*
X509511D01*
Y659051D01*
X509820Y658304D01*
X510392Y657732D01*
X511139Y657423D01*
X511162D01*
Y659074D01*
D02*
G37*
G36*
X539160Y654745D02*
X538395D01*
Y649364D01*
X543776D01*
Y650129D01*
X542899Y652247D01*
X541278Y653868D01*
X539160Y654745D01*
D02*
G37*
G36*
X537633D02*
X536868D01*
X534750Y653868D01*
X533129Y652247D01*
X532252Y650129D01*
Y649364D01*
X537633D01*
Y654745D01*
D02*
G37*
G36*
X525286Y655092D02*
X522994D01*
X520876Y654215D01*
X519255Y652594D01*
X518378Y650476D01*
Y648184D01*
X519255Y646066D01*
X520876Y644445D01*
X522994Y643568D01*
X525286D01*
X527404Y644445D01*
X529025Y646066D01*
X529902Y648184D01*
Y650476D01*
X529025Y652594D01*
X527404Y654215D01*
X525286Y655092D01*
D02*
G37*
G36*
X543776Y648602D02*
X538395D01*
Y643221D01*
X539160D01*
X541278Y644098D01*
X542899Y645719D01*
X543776Y647837D01*
Y648602D01*
D02*
G37*
G36*
X537633D02*
X532252D01*
Y647837D01*
X533129Y645719D01*
X534750Y644098D01*
X536868Y643221D01*
X537633D01*
Y648602D01*
D02*
G37*
G36*
X549602Y636489D02*
X545347D01*
Y633822D01*
X549602D01*
Y636489D01*
D02*
G37*
G36*
X544585D02*
X540331D01*
Y633822D01*
X544585D01*
Y636489D01*
D02*
G37*
G36*
X524328D02*
X515057D01*
Y633071D01*
X513479Y631493D01*
X510060D01*
X510060Y631493D01*
X509859Y631453D01*
X505568D01*
Y626343D01*
X505505Y626191D01*
Y621691D01*
X505568Y621539D01*
Y616429D01*
X512592D01*
Y621539D01*
X512654Y621691D01*
Y626191D01*
X512592Y626343D01*
Y627349D01*
X514337D01*
X514338Y627349D01*
X515130Y627507D01*
X515802Y627956D01*
X518239Y630393D01*
X524328D01*
Y636489D01*
D02*
G37*
G36*
X549602Y633060D02*
X545347D01*
Y630393D01*
X549602D01*
Y633060D01*
D02*
G37*
G36*
X544585D02*
X540331D01*
Y630393D01*
X544585D01*
Y633060D01*
D02*
G37*
G36*
X638359Y631887D02*
X638336D01*
Y630236D01*
X639987D01*
Y630259D01*
X639678Y631006D01*
X639106Y631577D01*
X638359Y631887D01*
D02*
G37*
G36*
X637574D02*
X637551D01*
X636804Y631577D01*
X636232Y631006D01*
X635923Y630259D01*
Y630236D01*
X637574D01*
Y631887D01*
D02*
G37*
G36*
X639987Y629474D02*
X638336D01*
Y627823D01*
X638359D01*
X639106Y628132D01*
X639678Y628704D01*
X639987Y629450D01*
Y629474D01*
D02*
G37*
G36*
X637574D02*
X635923D01*
Y629450D01*
X636232Y628704D01*
X636804Y628132D01*
X637551Y627823D01*
X637574D01*
Y629474D01*
D02*
G37*
G36*
X566544Y629361D02*
X566521D01*
Y627329D01*
X565759D01*
Y629361D01*
X565736D01*
X564989Y629052D01*
X564417Y628480D01*
X564108Y627733D01*
Y627678D01*
X563402Y627543D01*
X563116Y627543D01*
X559164D01*
X558402Y627543D01*
X558116Y627543D01*
X553878D01*
Y621019D01*
X558116D01*
X558878Y621019D01*
X559164Y621019D01*
X563116D01*
X563878Y621019D01*
X564164Y621019D01*
X565759D01*
Y624281D01*
X566140D01*
Y624662D01*
X568402D01*
Y627543D01*
X568172D01*
Y627733D01*
X567863Y628480D01*
X567291Y629052D01*
X566544Y629361D01*
D02*
G37*
G36*
X549602Y626989D02*
X545347D01*
Y624322D01*
X549602D01*
Y626989D01*
D02*
G37*
G36*
X544585D02*
X540331D01*
Y624322D01*
X544585D01*
Y626989D01*
D02*
G37*
G36*
X583314Y625025D02*
X583291D01*
Y623374D01*
X584942D01*
Y623397D01*
X584633Y624144D01*
X584061Y624715D01*
X583314Y625025D01*
D02*
G37*
G36*
X582529D02*
X582506D01*
X581759Y624715D01*
X581188Y624144D01*
X580878Y623397D01*
Y623374D01*
X582529D01*
Y625025D01*
D02*
G37*
G36*
X629796Y634412D02*
X627504D01*
X625386Y633535D01*
X623765Y631914D01*
X623459Y631175D01*
X623261Y630977D01*
X622952Y630230D01*
Y629950D01*
X622888Y629796D01*
Y627504D01*
X623765Y625386D01*
X625386Y623765D01*
X627504Y622888D01*
X629796D01*
X631914Y623765D01*
X633535Y625386D01*
X634412Y627504D01*
Y629796D01*
X633535Y631914D01*
X631914Y633535D01*
X629796Y634412D01*
D02*
G37*
G36*
X608359Y623887D02*
X608336D01*
Y622236D01*
X609987D01*
Y622259D01*
X609678Y623006D01*
X609106Y623577D01*
X608359Y623887D01*
D02*
G37*
G36*
X607574D02*
X607551D01*
X606804Y623577D01*
X606232Y623006D01*
X605923Y622259D01*
Y622236D01*
X607574D01*
Y623887D01*
D02*
G37*
G36*
X568402Y623900D02*
X566521D01*
Y621019D01*
X568402D01*
Y623900D01*
D02*
G37*
G36*
X584942Y622612D02*
X583291D01*
Y620961D01*
X583314D01*
X584061Y621270D01*
X584633Y621842D01*
X584942Y622589D01*
Y622612D01*
D02*
G37*
G36*
X582529D02*
X580878D01*
Y622589D01*
X581188Y621842D01*
X581759Y621270D01*
X582506Y620961D01*
X582529D01*
Y622612D01*
D02*
G37*
G36*
X549602Y623560D02*
X545347D01*
Y620893D01*
X549602D01*
Y623560D01*
D02*
G37*
G36*
X544585D02*
X540331D01*
Y620893D01*
X544585D01*
Y623560D01*
D02*
G37*
G36*
X757324Y621840D02*
X757301D01*
Y620189D01*
X758952D01*
Y620212D01*
X758643Y620959D01*
X758071Y621530D01*
X757324Y621840D01*
D02*
G37*
G36*
X756539D02*
X756516D01*
X755769Y621530D01*
X755197Y620959D01*
X754888Y620212D01*
Y620189D01*
X756539D01*
Y621840D01*
D02*
G37*
G36*
X725328D02*
X725305D01*
Y620189D01*
X726956D01*
Y620212D01*
X726646Y620959D01*
X726075Y621530D01*
X725328Y621840D01*
D02*
G37*
G36*
X724543D02*
X724520D01*
X723773Y621530D01*
X723201Y620959D01*
X722892Y620212D01*
Y620189D01*
X724543D01*
Y621840D01*
D02*
G37*
G36*
X609987Y621474D02*
X608336D01*
Y619823D01*
X608359D01*
X609106Y620132D01*
X609678Y620704D01*
X609987Y621451D01*
Y621474D01*
D02*
G37*
G36*
X607574D02*
X605923D01*
Y621451D01*
X606232Y620704D01*
X606804Y620132D01*
X607551Y619823D01*
X607574D01*
Y621474D01*
D02*
G37*
G36*
X758952Y619427D02*
X757301D01*
Y617776D01*
X757324D01*
X758071Y618085D01*
X758643Y618657D01*
X758952Y619403D01*
Y619427D01*
D02*
G37*
G36*
X756539D02*
X754888D01*
Y619403D01*
X755197Y618657D01*
X755769Y618085D01*
X756516Y617776D01*
X756539D01*
Y619427D01*
D02*
G37*
G36*
X726956D02*
X725305D01*
Y617776D01*
X725328D01*
X726075Y618085D01*
X726646Y618657D01*
X726956Y619403D01*
Y619427D01*
D02*
G37*
G36*
X724543D02*
X722892D01*
Y619403D01*
X723201Y618657D01*
X723773Y618085D01*
X724520Y617776D01*
X724543D01*
Y619427D01*
D02*
G37*
G36*
X562552Y616665D02*
X562529D01*
Y615014D01*
X564180D01*
Y615037D01*
X563871Y615784D01*
X563299Y616355D01*
X562552Y616665D01*
D02*
G37*
G36*
X561767D02*
X561744D01*
X560997Y616355D01*
X560425Y615784D01*
X560116Y615037D01*
Y615014D01*
X561767D01*
Y616665D01*
D02*
G37*
G36*
X564180Y614252D02*
X562529D01*
Y612601D01*
X562552D01*
X563299Y612910D01*
X563871Y613482D01*
X564180Y614229D01*
Y614252D01*
D02*
G37*
G36*
X561767D02*
X560116D01*
Y614229D01*
X560425Y613482D01*
X560997Y612910D01*
X561744Y612601D01*
X561767D01*
Y614252D01*
D02*
G37*
G36*
X621073Y613340D02*
X621050D01*
Y611689D01*
X622701D01*
Y611712D01*
X622392Y612459D01*
X621820Y613030D01*
X621073Y613340D01*
D02*
G37*
G36*
X620288D02*
X620265D01*
X619518Y613030D01*
X618946Y612459D01*
X618637Y611712D01*
Y611689D01*
X620288D01*
Y613340D01*
D02*
G37*
G36*
X549602Y617489D02*
X540331D01*
Y611393D01*
X549602D01*
Y617489D01*
D02*
G37*
G36*
X524328D02*
X515057D01*
Y611393D01*
X524328D01*
Y617489D01*
D02*
G37*
G36*
X622701Y610927D02*
X621050D01*
Y609276D01*
X621073D01*
X621820Y609585D01*
X622392Y610157D01*
X622701Y610904D01*
Y610927D01*
D02*
G37*
G36*
X620288D02*
X618637D01*
Y610904D01*
X618946Y610157D01*
X619518Y609585D01*
X620265Y609276D01*
X620288D01*
Y610927D01*
D02*
G37*
G36*
X743406Y619159D02*
X741114D01*
X738996Y618282D01*
X737375Y616661D01*
X736498Y614543D01*
Y612251D01*
X737375Y610133D01*
X738996Y608512D01*
X741114Y607635D01*
X743406D01*
X745524Y608512D01*
X747145Y610133D01*
X748022Y612251D01*
Y614543D01*
X747145Y616661D01*
X745524Y618282D01*
X743406Y619159D01*
D02*
G37*
G36*
X755666Y609670D02*
X752685D01*
Y606689D01*
X755666D01*
Y609670D01*
D02*
G37*
G36*
X751923D02*
X748942D01*
Y606689D01*
X751923D01*
Y609670D01*
D02*
G37*
G36*
X539370Y607415D02*
X539347D01*
Y605764D01*
X540998D01*
Y605787D01*
X540689Y606534D01*
X540117Y607105D01*
X539370Y607415D01*
D02*
G37*
G36*
X538585D02*
X538562D01*
X537815Y607105D01*
X537243Y606534D01*
X536934Y605787D01*
Y605764D01*
X538585D01*
Y607415D01*
D02*
G37*
G36*
X660958Y606840D02*
X660935D01*
Y605189D01*
X662586D01*
Y605212D01*
X662276Y605959D01*
X661705Y606530D01*
X660958Y606840D01*
D02*
G37*
G36*
X660173D02*
X660150D01*
X659403Y606530D01*
X658831Y605959D01*
X658522Y605212D01*
Y605189D01*
X660173D01*
Y606840D01*
D02*
G37*
G36*
X728588Y616070D02*
X726296D01*
X724178Y615193D01*
X722558Y613572D01*
X721680Y611454D01*
Y609162D01*
X722558Y607044D01*
X724178Y605423D01*
X726296Y604546D01*
X728588D01*
X730706Y605423D01*
X732327Y607044D01*
X733204Y609162D01*
Y611454D01*
X732327Y613572D01*
X730706Y615193D01*
X728588Y616070D01*
D02*
G37*
G36*
X775846Y615362D02*
X773554D01*
X771436Y614485D01*
X769815Y612864D01*
X768938Y610746D01*
Y608454D01*
X769815Y606336D01*
X771436Y604715D01*
X773554Y603838D01*
X775846D01*
X777964Y604715D01*
X779585Y606336D01*
X780462Y608454D01*
Y610746D01*
X779585Y612864D01*
X777964Y614485D01*
X775846Y615362D01*
D02*
G37*
G36*
X540998Y605002D02*
X539347D01*
Y603351D01*
X539370D01*
X540117Y603660D01*
X540689Y604232D01*
X540998Y604978D01*
Y605002D01*
D02*
G37*
G36*
X538585D02*
X536934D01*
Y604978D01*
X537243Y604232D01*
X537815Y603660D01*
X538562Y603351D01*
X538585D01*
Y605002D01*
D02*
G37*
G36*
X662586Y604427D02*
X660935D01*
Y602776D01*
X660958D01*
X661705Y603085D01*
X662276Y603657D01*
X662586Y604403D01*
Y604427D01*
D02*
G37*
G36*
X660173D02*
X658522D01*
Y604403D01*
X658831Y603657D01*
X659403Y603085D01*
X660150Y602776D01*
X660173D01*
Y604427D01*
D02*
G37*
G36*
X715666Y604670D02*
X712685D01*
Y601689D01*
X715666D01*
Y604670D01*
D02*
G37*
G36*
X711923D02*
X708942D01*
Y601689D01*
X711923D01*
Y604670D01*
D02*
G37*
G36*
X646551Y601169D02*
X643570D01*
Y598188D01*
X646551D01*
Y601169D01*
D02*
G37*
G36*
X642808D02*
X639827D01*
Y598188D01*
X642808D01*
Y601169D01*
D02*
G37*
G36*
X558552Y599435D02*
X558529D01*
Y597784D01*
X560180D01*
Y597807D01*
X559871Y598554D01*
X559299Y599125D01*
X558552Y599435D01*
D02*
G37*
G36*
X557767D02*
X557744D01*
X556997Y599125D01*
X556426Y598554D01*
X556116Y597807D01*
Y597784D01*
X557767D01*
Y599435D01*
D02*
G37*
G36*
X512356Y607875D02*
X510064D01*
X507946Y606997D01*
X506325Y605377D01*
X505448Y603259D01*
Y600967D01*
X506325Y598849D01*
X507946Y597228D01*
X510064Y596351D01*
X512356D01*
X514474Y597228D01*
X516095Y598849D01*
X516972Y600967D01*
Y603259D01*
X516095Y605377D01*
X514474Y606997D01*
X512356Y607875D01*
D02*
G37*
G36*
X560180Y597022D02*
X558529D01*
Y595371D01*
X558552D01*
X559299Y595680D01*
X559871Y596252D01*
X560180Y596999D01*
Y597022D01*
D02*
G37*
G36*
X557767D02*
X556116D01*
Y596999D01*
X556426Y596252D01*
X556997Y595680D01*
X557744Y595371D01*
X557767D01*
Y597022D01*
D02*
G37*
G36*
X755666Y605927D02*
X748942D01*
Y603859D01*
X748879Y603708D01*
Y600908D01*
X748942Y600756D01*
Y594946D01*
X755666D01*
Y600756D01*
X755729Y600908D01*
Y603708D01*
X755666Y603859D01*
Y605927D01*
D02*
G37*
G36*
X613605Y597028D02*
X611313D01*
X609195Y596151D01*
X607574Y594530D01*
X606920Y592949D01*
X604181D01*
Y594278D01*
X597157D01*
Y592949D01*
X594931D01*
Y594778D01*
X589821D01*
X589669Y594841D01*
X585169D01*
X585017Y594778D01*
X579907D01*
Y592949D01*
X578531D01*
Y594083D01*
X571807D01*
Y588273D01*
X571744Y588121D01*
Y585321D01*
X571807Y585169D01*
Y583102D01*
X575169D01*
X578531D01*
Y585169D01*
X578594Y585321D01*
Y588121D01*
X578531Y588273D01*
Y589583D01*
X579907D01*
Y587754D01*
X585017D01*
X585169Y587691D01*
X589669D01*
X589821Y587754D01*
X594931D01*
Y589583D01*
X596576D01*
X597094Y589016D01*
Y584516D01*
X597157Y584364D01*
Y579254D01*
X599157D01*
Y576508D01*
X597157D01*
Y571398D01*
X597094Y571246D01*
Y566746D01*
X597157Y566594D01*
Y564877D01*
X600669D01*
X604181D01*
Y566594D01*
X604244Y566746D01*
Y571246D01*
X604181Y571398D01*
Y576508D01*
X602181D01*
Y579254D01*
X604181D01*
Y584364D01*
X604244Y584516D01*
Y589016D01*
X604762Y589583D01*
X606920D01*
X607574Y588002D01*
X609195Y586381D01*
X609971Y586060D01*
X609819Y585298D01*
X609515D01*
X608768Y584989D01*
X608196Y584417D01*
X607887Y583670D01*
Y583647D01*
X611951D01*
Y583670D01*
X611642Y584417D01*
X611317Y584742D01*
X611632Y585504D01*
X613605D01*
X615723Y586381D01*
X617344Y588002D01*
X618221Y590120D01*
Y592412D01*
X617344Y594530D01*
X615723Y596151D01*
X613605Y597028D01*
D02*
G37*
G36*
X734190Y594170D02*
X731209D01*
Y591189D01*
X734190D01*
Y594170D01*
D02*
G37*
G36*
X730447D02*
X727466D01*
Y591189D01*
X730447D01*
Y594170D01*
D02*
G37*
G36*
X538309Y593520D02*
X535328D01*
Y590539D01*
X538309D01*
Y593520D01*
D02*
G37*
G36*
X629932Y597069D02*
X623408D01*
Y592831D01*
X623408Y592069D01*
X623408Y591783D01*
Y590188D01*
X629932D01*
Y591783D01*
X629932Y592545D01*
X629932Y592831D01*
Y597069D01*
D02*
G37*
G36*
X715666Y600927D02*
X708942D01*
Y598859D01*
X708879Y598708D01*
Y595908D01*
X708942Y595756D01*
Y589946D01*
X715666D01*
Y595756D01*
X715729Y595908D01*
Y598708D01*
X715666Y598859D01*
Y600927D01*
D02*
G37*
G36*
X660958Y590840D02*
X660935D01*
Y589189D01*
X662586D01*
Y589212D01*
X662276Y589959D01*
X661705Y590530D01*
X660958Y590840D01*
D02*
G37*
G36*
X660173D02*
X660150D01*
X659403Y590530D01*
X658831Y589959D01*
X658522Y589212D01*
Y589189D01*
X660173D01*
Y590840D01*
D02*
G37*
G36*
X715666Y588170D02*
X708942D01*
Y586880D01*
X707666D01*
Y588170D01*
X700942D01*
Y582359D01*
X700879Y582208D01*
Y579408D01*
X700942Y579256D01*
Y577189D01*
X704304D01*
X707666D01*
Y579256D01*
X707729Y579408D01*
Y582208D01*
X708285Y582736D01*
X708323D01*
X708879Y582208D01*
Y579408D01*
X708942Y579256D01*
Y577189D01*
X712304D01*
X715666D01*
Y579256D01*
X715729Y579408D01*
Y582208D01*
X715666Y582359D01*
Y588170D01*
D02*
G37*
G36*
X538309Y589777D02*
X535328D01*
Y586796D01*
X538309D01*
Y589777D01*
D02*
G37*
G36*
X662586Y588427D02*
X660935D01*
Y586776D01*
X660958D01*
X661705Y587085D01*
X662276Y587657D01*
X662586Y588403D01*
Y588427D01*
D02*
G37*
G36*
X660173D02*
X658522D01*
Y588403D01*
X658831Y587657D01*
X659403Y587085D01*
X660150Y586776D01*
X660173D01*
Y588427D01*
D02*
G37*
G36*
X636146Y615362D02*
X633854D01*
X631736Y614485D01*
X630115Y612864D01*
X629238Y610746D01*
Y608454D01*
X630115Y606336D01*
X631736Y604715D01*
X632933Y604220D01*
Y597069D01*
X630908D01*
Y592831D01*
X630908Y592069D01*
X630908Y591783D01*
Y587545D01*
X630908Y587545D01*
Y587069D01*
X630908D01*
X630908Y586783D01*
Y582545D01*
X637432D01*
Y583735D01*
X638800D01*
X639444Y583863D01*
X639990Y584227D01*
X642208Y586445D01*
X646551D01*
Y592255D01*
X646614Y592407D01*
Y595207D01*
X646551Y595358D01*
Y597426D01*
X643189D01*
X639827D01*
Y595358D01*
X639764Y595207D01*
Y592407D01*
X639827Y592255D01*
Y591490D01*
X637971D01*
X637432Y592029D01*
Y592545D01*
X637432Y592831D01*
Y597069D01*
X635407D01*
Y603838D01*
X636146D01*
X638264Y604715D01*
X639885Y606336D01*
X640762Y608454D01*
Y610746D01*
X639885Y612864D01*
X638264Y614485D01*
X636146Y615362D01*
D02*
G37*
G36*
X629932Y589426D02*
X623408D01*
Y587831D01*
X623408Y587069D01*
X623408Y586783D01*
Y582545D01*
X629932D01*
Y586783D01*
X629932Y587545D01*
X629932Y587831D01*
Y589426D01*
D02*
G37*
G36*
X544090Y593582D02*
X541290D01*
X541138Y593520D01*
X539071D01*
Y590158D01*
Y586796D01*
X541138D01*
X541290Y586733D01*
X544090D01*
X544618Y586177D01*
Y581732D01*
X541452D01*
Y582320D01*
X532821D01*
Y569658D01*
Y556996D01*
X541452D01*
Y557583D01*
X550190D01*
X550342Y557646D01*
X550952D01*
Y558256D01*
X551015Y558408D01*
Y563145D01*
X552789D01*
X553135Y562408D01*
Y557908D01*
X553198Y557756D01*
Y556039D01*
X556710D01*
X560222D01*
Y557756D01*
X560285Y557908D01*
Y562408D01*
X560222Y562559D01*
Y567670D01*
X560787Y568145D01*
X561133D01*
X561698Y567670D01*
Y562559D01*
X561635Y562408D01*
Y557908D01*
X561698Y557756D01*
Y556039D01*
X565210D01*
X568722D01*
Y557756D01*
X568785Y557908D01*
Y562408D01*
X568722Y562559D01*
Y567670D01*
X566722D01*
Y573206D01*
X568722D01*
Y578316D01*
X568785Y578468D01*
Y582968D01*
X568722Y583119D01*
Y588230D01*
X561698D01*
Y583119D01*
X561635Y582968D01*
Y578468D01*
X561698Y578316D01*
Y573206D01*
X563698D01*
Y571170D01*
X551015D01*
Y580908D01*
X550952Y581059D01*
Y581670D01*
X550342D01*
X550190Y581732D01*
X548762D01*
Y586796D01*
X550052D01*
Y593520D01*
X544242D01*
X544090Y593582D01*
D02*
G37*
G36*
X611951Y582885D02*
X610300D01*
Y581234D01*
X610323D01*
X611070Y581543D01*
X611642Y582115D01*
X611951Y582862D01*
Y582885D01*
D02*
G37*
G36*
X609538D02*
X607887D01*
Y582862D01*
X608196Y582115D01*
X608768Y581543D01*
X609515Y581234D01*
X609538D01*
Y582885D01*
D02*
G37*
G36*
X734190Y590427D02*
X727466D01*
Y588359D01*
X727403Y588208D01*
Y585408D01*
X727466Y585256D01*
Y579446D01*
X734190D01*
Y582551D01*
X734336Y582904D01*
Y583712D01*
X734190Y584064D01*
Y585256D01*
X734252Y585408D01*
Y588208D01*
X734190Y588359D01*
Y590427D01*
D02*
G37*
G36*
X578531Y582340D02*
X575550D01*
Y579359D01*
X578531D01*
Y582340D01*
D02*
G37*
G36*
X574788D02*
X571807D01*
Y579359D01*
X574788D01*
Y582340D01*
D02*
G37*
G36*
X763146Y589070D02*
X760854D01*
X758736Y588192D01*
X757115Y586572D01*
X756238Y584454D01*
Y582162D01*
X757115Y580044D01*
X758736Y578423D01*
X760854Y577546D01*
X763146D01*
X765264Y578423D01*
X766885Y580044D01*
X767762Y582162D01*
Y584454D01*
X766885Y586572D01*
X765264Y588192D01*
X763146Y589070D01*
D02*
G37*
G36*
X742190Y588170D02*
X735466D01*
Y584180D01*
X735272Y583712D01*
Y582904D01*
X735466Y582435D01*
Y582359D01*
X735403Y582208D01*
Y579408D01*
X735466Y579256D01*
Y579180D01*
X735272Y578712D01*
Y578689D01*
X735971D01*
X736228Y578582D01*
X737304D01*
Y577927D01*
X735272D01*
Y577904D01*
X735466Y577435D01*
Y577189D01*
X738828D01*
X742190D01*
Y579256D01*
X742253Y579408D01*
Y582208D01*
X742190Y582359D01*
Y588170D01*
D02*
G37*
G36*
X682978Y578090D02*
X682955D01*
Y576439D01*
X684606D01*
Y576462D01*
X684296Y577209D01*
X683725Y577780D01*
X682978Y578090D01*
D02*
G37*
G36*
X682193D02*
X682170D01*
X681423Y577780D01*
X680851Y577209D01*
X680542Y576462D01*
Y576439D01*
X682193D01*
Y578090D01*
D02*
G37*
G36*
X658768D02*
X658745D01*
Y576439D01*
X660396D01*
Y576462D01*
X660086Y577209D01*
X659515Y577780D01*
X658768Y578090D01*
D02*
G37*
G36*
X657983D02*
X657960D01*
X657213Y577780D01*
X656641Y577209D01*
X656332Y576462D01*
Y576439D01*
X657983D01*
Y578090D01*
D02*
G37*
G36*
X720423Y578170D02*
X717442D01*
Y575189D01*
X720423D01*
Y578170D01*
D02*
G37*
G36*
X684606Y575677D02*
X682955D01*
Y574026D01*
X682978D01*
X683725Y574335D01*
X684296Y574907D01*
X684606Y575653D01*
Y575677D01*
D02*
G37*
G36*
X682193D02*
X680542D01*
Y575653D01*
X680851Y574907D01*
X681423Y574335D01*
X682170Y574026D01*
X682193D01*
Y575677D01*
D02*
G37*
G36*
X660396D02*
X658745D01*
Y574026D01*
X658768D01*
X659515Y574335D01*
X660086Y574907D01*
X660396Y575653D01*
Y575677D01*
D02*
G37*
G36*
X657983D02*
X656332D01*
Y575653D01*
X656641Y574907D01*
X657213Y574335D01*
X657960Y574026D01*
X657983D01*
Y575677D01*
D02*
G37*
G36*
X742190Y576427D02*
X739209D01*
Y573446D01*
X742190D01*
Y576427D01*
D02*
G37*
G36*
X738447D02*
X735466D01*
Y573446D01*
X738447D01*
Y576427D01*
D02*
G37*
G36*
X715666D02*
X712685D01*
Y573446D01*
X715666D01*
Y576427D01*
D02*
G37*
G36*
X711923D02*
X708942D01*
Y573446D01*
X711923D01*
Y576427D01*
D02*
G37*
G36*
X707666D02*
X704685D01*
Y573446D01*
X707666D01*
Y576427D01*
D02*
G37*
G36*
X703923D02*
X700942D01*
Y573446D01*
X703923D01*
Y576427D01*
D02*
G37*
G36*
X560222Y588230D02*
X553198D01*
Y583119D01*
X553135Y582968D01*
Y578468D01*
X553198Y578316D01*
Y573206D01*
X560222D01*
Y578316D01*
X560285Y578468D01*
Y582968D01*
X560222Y583119D01*
Y588230D01*
D02*
G37*
G36*
X720423Y574427D02*
X717442D01*
Y571446D01*
X720423D01*
Y574427D01*
D02*
G37*
G36*
X726204Y578232D02*
X723404D01*
X723252Y578170D01*
X721185D01*
Y574808D01*
Y571446D01*
X721489D01*
X721899Y571276D01*
X721923D01*
Y573308D01*
X722578D01*
Y572208D01*
X722685Y571951D01*
Y571276D01*
X722708D01*
X723118Y571446D01*
X723252D01*
X723404Y571383D01*
X726204D01*
X726355Y571446D01*
X726489D01*
X726899Y571276D01*
X727708D01*
X728118Y571446D01*
X732166D01*
Y578170D01*
X726355D01*
X726204Y578232D01*
D02*
G37*
G36*
X727708Y570340D02*
X727685D01*
Y568308D01*
X727029D01*
Y569408D01*
X726923Y569664D01*
Y570340D01*
X726899D01*
X726489Y570170D01*
X726355D01*
X726204Y570233D01*
X723404D01*
X723252Y570170D01*
X723118D01*
X722708Y570340D01*
X721899D01*
X721489Y570170D01*
X717442D01*
Y563446D01*
X723252D01*
X723404Y563383D01*
X726204D01*
X726355Y563446D01*
X728423D01*
Y566808D01*
Y570170D01*
X728118D01*
X727708Y570340D01*
D02*
G37*
G36*
X704423Y570170D02*
X701442D01*
Y567189D01*
X704423D01*
Y570170D01*
D02*
G37*
G36*
X732166Y570170D02*
X729185D01*
Y567189D01*
X732166D01*
Y570170D01*
D02*
G37*
G36*
X675478Y567570D02*
X675455D01*
Y565919D01*
X677106D01*
Y565942D01*
X676796Y566689D01*
X676225Y567260D01*
X675478Y567570D01*
D02*
G37*
G36*
X674693D02*
X674669D01*
X673923Y567260D01*
X673351Y566689D01*
X673042Y565942D01*
Y565919D01*
X674693D01*
Y567570D01*
D02*
G37*
G36*
X658768D02*
X658745D01*
Y565919D01*
X660396D01*
Y565942D01*
X660086Y566689D01*
X659515Y567260D01*
X658768Y567570D01*
D02*
G37*
G36*
X657983D02*
X657960D01*
X657213Y567260D01*
X656641Y566689D01*
X656332Y565942D01*
Y565919D01*
X657983D01*
Y567570D01*
D02*
G37*
G36*
X774576Y577262D02*
X772284D01*
X770166Y576385D01*
X768545Y574764D01*
X767668Y572646D01*
Y570354D01*
X768545Y568236D01*
X770166Y566615D01*
X772284Y565738D01*
X774576D01*
X776694Y566615D01*
X778315Y568236D01*
X779192Y570354D01*
Y572646D01*
X778315Y574764D01*
X776694Y576385D01*
X774576Y577262D01*
D02*
G37*
G36*
X748666Y568170D02*
X745685D01*
Y565189D01*
X748666D01*
Y568170D01*
D02*
G37*
G36*
X744923D02*
X741942D01*
Y565189D01*
X744923D01*
Y568170D01*
D02*
G37*
G36*
X740666D02*
X737685D01*
Y565189D01*
X740666D01*
Y568170D01*
D02*
G37*
G36*
X736923D02*
X733942D01*
Y565189D01*
X736923D01*
Y568170D01*
D02*
G37*
G36*
X677106Y565157D02*
X675455D01*
Y563506D01*
X675478D01*
X676225Y563815D01*
X676796Y564387D01*
X677106Y565134D01*
Y565157D01*
D02*
G37*
G36*
X674693D02*
X673042D01*
Y565134D01*
X673351Y564387D01*
X673923Y563815D01*
X674669Y563506D01*
X674693D01*
Y565157D01*
D02*
G37*
G36*
X660396D02*
X658745D01*
Y563506D01*
X658768D01*
X659515Y563815D01*
X660086Y564387D01*
X660396Y565134D01*
Y565157D01*
D02*
G37*
G36*
X657983D02*
X656332D01*
Y565134D01*
X656641Y564387D01*
X657213Y563815D01*
X657960Y563506D01*
X657983D01*
Y565157D01*
D02*
G37*
G36*
X704423Y566427D02*
X701442D01*
Y563446D01*
X704423D01*
Y566427D01*
D02*
G37*
G36*
X732166Y566427D02*
X729185D01*
Y563446D01*
X732166D01*
Y566427D01*
D02*
G37*
G36*
X710204Y570233D02*
X707404D01*
X707252Y570170D01*
X705185D01*
Y566808D01*
Y563446D01*
X707252D01*
X707404Y563383D01*
X710204D01*
X710355Y563446D01*
X716166D01*
Y570170D01*
X710355D01*
X710204Y570233D01*
D02*
G37*
G36*
X700166Y565670D02*
X697185D01*
Y562689D01*
X700166D01*
Y565670D01*
D02*
G37*
G36*
X696423D02*
X693442D01*
Y562689D01*
X696423D01*
Y565670D01*
D02*
G37*
G36*
X604181Y564115D02*
X601050D01*
Y561484D01*
X604181D01*
Y564115D01*
D02*
G37*
G36*
X600288D02*
X597157D01*
Y561484D01*
X600288D01*
Y564115D01*
D02*
G37*
G36*
X748666Y564427D02*
X741942D01*
Y562359D01*
X741879Y562208D01*
Y559408D01*
X741323Y558880D01*
X741285D01*
X740729Y559408D01*
Y562208D01*
X740666Y562359D01*
Y564427D01*
X733942D01*
Y562359D01*
X733879Y562208D01*
Y559408D01*
X733942Y559256D01*
Y553446D01*
X740666D01*
Y554736D01*
X741942D01*
Y553446D01*
X748666D01*
Y559256D01*
X748728Y559408D01*
Y562208D01*
X748666Y562359D01*
Y564427D01*
D02*
G37*
G36*
X590419Y558238D02*
X585919D01*
X585767Y558175D01*
X580657D01*
Y556347D01*
X579051D01*
Y557275D01*
X572327D01*
Y551465D01*
X572264Y551313D01*
Y548513D01*
X572327Y548362D01*
Y546294D01*
X575689D01*
X579051D01*
Y548362D01*
X579114Y548513D01*
Y551313D01*
X579051Y551465D01*
Y552980D01*
X580657D01*
Y551151D01*
X585767D01*
X585919Y551088D01*
X590419D01*
X590571Y551151D01*
X595681D01*
Y552980D01*
X596576D01*
X597094Y552413D01*
Y547913D01*
X597157Y547762D01*
Y542651D01*
X599157D01*
Y539905D01*
X597157D01*
Y534795D01*
X597094Y534643D01*
Y530143D01*
X597157Y529992D01*
Y528274D01*
X600669D01*
X604181D01*
Y529992D01*
X604244Y530143D01*
Y534643D01*
X604181Y534795D01*
Y539905D01*
X602181D01*
Y542651D01*
X604181D01*
Y547762D01*
X604244Y547913D01*
Y552413D01*
X604762Y552980D01*
X608729D01*
X608768Y552941D01*
X609515Y552631D01*
X610323D01*
X611070Y552941D01*
X611642Y553512D01*
X611951Y554259D01*
Y555067D01*
X611642Y555814D01*
X611070Y556386D01*
X610323Y556695D01*
X609515D01*
X608768Y556386D01*
X608729Y556347D01*
X604181D01*
Y557675D01*
X597157D01*
Y556347D01*
X595681D01*
Y558175D01*
X590571D01*
X590419Y558238D01*
D02*
G37*
G36*
X632573Y557738D02*
X632550D01*
Y556087D01*
X634201D01*
Y556110D01*
X633892Y556857D01*
X633320Y557429D01*
X632573Y557738D01*
D02*
G37*
G36*
X631788D02*
X631765D01*
X631018Y557429D01*
X630446Y556857D01*
X630137Y556110D01*
Y556087D01*
X631788D01*
Y557738D01*
D02*
G37*
G36*
X634201Y555325D02*
X632550D01*
Y553674D01*
X632573D01*
X633320Y553983D01*
X633892Y554555D01*
X634201Y555302D01*
Y555325D01*
D02*
G37*
G36*
X631788D02*
X630137D01*
Y555302D01*
X630446Y554555D01*
X631018Y553983D01*
X631765Y553674D01*
X631788D01*
Y555325D01*
D02*
G37*
G36*
X568722Y555277D02*
X565591D01*
Y552646D01*
X568722D01*
Y555277D01*
D02*
G37*
G36*
X564829D02*
X561698D01*
Y552646D01*
X564829D01*
Y555277D01*
D02*
G37*
G36*
X560222D02*
X557091D01*
Y552646D01*
X560222D01*
Y555277D01*
D02*
G37*
G36*
X556329D02*
X553198D01*
Y552646D01*
X556329D01*
Y555277D01*
D02*
G37*
G36*
X676958Y553290D02*
X676935D01*
Y551639D01*
X678586D01*
Y551662D01*
X678276Y552409D01*
X677705Y552980D01*
X676958Y553290D01*
D02*
G37*
G36*
X676173D02*
X676150D01*
X675403Y552980D01*
X674831Y552409D01*
X674522Y551662D01*
Y551639D01*
X676173D01*
Y553290D01*
D02*
G37*
G36*
X700166Y561927D02*
X693442D01*
Y559859D01*
X693379Y559708D01*
Y556908D01*
X693442Y556756D01*
Y550946D01*
X700166D01*
Y556756D01*
X700229Y556908D01*
Y559708D01*
X700166Y559859D01*
Y561927D01*
D02*
G37*
G36*
X511446Y552627D02*
X508465D01*
Y549646D01*
X511446D01*
Y552627D01*
D02*
G37*
G36*
X678586Y550877D02*
X676935D01*
Y549226D01*
X676958D01*
X677705Y549535D01*
X678276Y550107D01*
X678586Y550854D01*
Y550877D01*
D02*
G37*
G36*
X676173D02*
X674522D01*
Y550854D01*
X674831Y550107D01*
X675403Y549535D01*
X676150Y549226D01*
X676173D01*
Y550877D01*
D02*
G37*
G36*
X700166Y549320D02*
X693442D01*
Y547195D01*
X692372D01*
X691886Y547680D01*
X691140Y547990D01*
X690331D01*
X689584Y547680D01*
X689013Y547109D01*
X688703Y546362D01*
Y545554D01*
X689013Y544807D01*
X689584Y544235D01*
X690331Y543926D01*
X691140D01*
X691886Y544235D01*
X692372Y544720D01*
X693442D01*
Y543509D01*
X693379Y543358D01*
Y540558D01*
X693442Y540406D01*
Y538339D01*
X700166D01*
Y540406D01*
X700228Y540558D01*
Y543358D01*
X700166Y543509D01*
Y549320D01*
D02*
G37*
G36*
X610323Y548695D02*
X610300D01*
Y547044D01*
X611951D01*
Y547067D01*
X611642Y547814D01*
X611070Y548386D01*
X610323Y548695D01*
D02*
G37*
G36*
X609538D02*
X609515D01*
X608768Y548386D01*
X608196Y547814D01*
X607887Y547067D01*
Y547044D01*
X609538D01*
Y548695D01*
D02*
G37*
G36*
X793473Y558212D02*
X791181D01*
X789063Y557335D01*
X787442Y555714D01*
X786565Y553596D01*
Y551304D01*
X787442Y549186D01*
X789063Y547565D01*
X791181Y546688D01*
X793473D01*
X795591Y547565D01*
X797212Y549186D01*
X798089Y551304D01*
Y553596D01*
X797212Y555714D01*
X795591Y557335D01*
X793473Y558212D01*
D02*
G37*
G36*
X774423Y558212D02*
X772131D01*
X770013Y557334D01*
X768392Y555714D01*
X767515Y553596D01*
Y551303D01*
X768392Y549186D01*
X770013Y547565D01*
X772131Y546688D01*
X774423D01*
X776541Y547565D01*
X778162Y549186D01*
X779039Y551303D01*
Y553596D01*
X778162Y555714D01*
X776541Y557334D01*
X774423Y558212D01*
D02*
G37*
G36*
X611951Y546282D02*
X610300D01*
Y544631D01*
X610323D01*
X611070Y544941D01*
X611642Y545512D01*
X611951Y546259D01*
Y546282D01*
D02*
G37*
G36*
X609538D02*
X607887D01*
Y546259D01*
X608196Y545512D01*
X608768Y544941D01*
X609515Y544631D01*
X609538D01*
Y546282D01*
D02*
G37*
G36*
X759432Y547566D02*
X756451D01*
Y544585D01*
X759432D01*
Y547566D01*
D02*
G37*
G36*
X579051Y545532D02*
X576070D01*
Y542551D01*
X579051D01*
Y545532D01*
D02*
G37*
G36*
X575308D02*
X572327D01*
Y542551D01*
X575308D01*
Y545532D01*
D02*
G37*
G36*
X759432Y543823D02*
X756451D01*
Y540842D01*
X759432D01*
Y543823D01*
D02*
G37*
G36*
X753470Y547629D02*
X750670D01*
X750518Y547566D01*
X744708D01*
Y540842D01*
X750518D01*
X750670Y540779D01*
X753470D01*
X753621Y540842D01*
X755689D01*
Y544204D01*
Y547566D01*
X753621D01*
X753470Y547629D01*
D02*
G37*
G36*
X725054Y561111D02*
X721704D01*
Y539521D01*
X725054D01*
Y539554D01*
X731816D01*
Y561078D01*
X725054D01*
Y561111D01*
D02*
G37*
G36*
X715404Y561086D02*
X712054D01*
Y561078D01*
X705292D01*
Y539554D01*
X712054D01*
Y539496D01*
X715404D01*
Y561086D01*
D02*
G37*
G36*
X684958Y538560D02*
X684935D01*
Y536909D01*
X686586D01*
Y536932D01*
X686276Y537679D01*
X685705Y538250D01*
X684958Y538560D01*
D02*
G37*
G36*
X684173D02*
X684149D01*
X683403Y538250D01*
X682831Y537679D01*
X682522Y536932D01*
Y536909D01*
X684173D01*
Y538560D01*
D02*
G37*
G36*
X748666Y539408D02*
X745685D01*
Y536427D01*
X748666D01*
Y539408D01*
D02*
G37*
G36*
X700166Y537577D02*
X697185D01*
Y534596D01*
X700166D01*
Y537577D01*
D02*
G37*
G36*
X696423D02*
X693442D01*
Y534596D01*
X696423D01*
Y537577D01*
D02*
G37*
G36*
X686586Y536147D02*
X684935D01*
Y534496D01*
X684958D01*
X685705Y534805D01*
X686276Y535377D01*
X686586Y536124D01*
Y536147D01*
D02*
G37*
G36*
X684173D02*
X682522D01*
Y536124D01*
X682831Y535377D01*
X683403Y534805D01*
X684149Y534496D01*
X684173D01*
Y536147D01*
D02*
G37*
G36*
X748666Y535665D02*
X745685D01*
Y532684D01*
X748666D01*
Y535665D01*
D02*
G37*
G36*
X742704Y539470D02*
X739904D01*
X739752Y539408D01*
X733942D01*
Y532684D01*
X739752D01*
X739904Y532621D01*
X742704D01*
X742855Y532684D01*
X744923D01*
Y536046D01*
Y539408D01*
X742855D01*
X742704Y539470D01*
D02*
G37*
G36*
X784471Y543720D02*
X782179D01*
X780061Y542842D01*
X778440Y541222D01*
X777563Y539104D01*
Y536812D01*
X778440Y534694D01*
X780061Y533073D01*
X782179Y532196D01*
X784471D01*
X786589Y533073D01*
X788210Y534694D01*
X789087Y536812D01*
Y539104D01*
X788210Y541222D01*
X786589Y542842D01*
X784471Y543720D01*
D02*
G37*
G36*
X562106Y543675D02*
X559814D01*
X557696Y542798D01*
X556075Y541177D01*
X555198Y539059D01*
Y536767D01*
X556075Y534649D01*
X557696Y533028D01*
X559814Y532151D01*
X562106D01*
X564224Y533028D01*
X565845Y534649D01*
X566722Y536767D01*
Y539059D01*
X565845Y541177D01*
X564224Y542798D01*
X562106Y543675D01*
D02*
G37*
G36*
X548106D02*
X545814D01*
X543696Y542798D01*
X542075Y541177D01*
X541198Y539059D01*
Y536767D01*
X542075Y534649D01*
X543696Y533028D01*
X545814Y532151D01*
X548106D01*
X550224Y533028D01*
X551845Y534649D01*
X552722Y536767D01*
Y539059D01*
X551845Y541177D01*
X550224Y542798D01*
X548106Y543675D01*
D02*
G37*
G36*
X604181Y527512D02*
X601050D01*
Y524881D01*
X604181D01*
Y527512D01*
D02*
G37*
G36*
X600288D02*
X597157D01*
Y524881D01*
X600288D01*
Y527512D01*
D02*
G37*
G36*
X540896Y526462D02*
X540131D01*
Y521081D01*
X545512D01*
Y521846D01*
X544635Y523964D01*
X543014Y525585D01*
X540896Y526462D01*
D02*
G37*
G36*
X539369D02*
X538604D01*
X536486Y525585D01*
X534865Y523964D01*
X533988Y521846D01*
Y521081D01*
X539369D01*
Y526462D01*
D02*
G37*
G36*
X655700Y529328D02*
X653408D01*
X651290Y528451D01*
X649669Y526830D01*
X648792Y524712D01*
Y522420D01*
X649669Y520302D01*
X651290Y518681D01*
X653408Y517804D01*
X655700D01*
X657818Y518681D01*
X659438Y520302D01*
X659500Y520450D01*
X660399Y520629D01*
X660518Y520510D01*
X661265Y520200D01*
X662073D01*
X662820Y520510D01*
X663391Y521081D01*
X663701Y521828D01*
Y522636D01*
X663391Y523383D01*
X662820Y523955D01*
X662073Y524264D01*
X661265D01*
X661078Y524187D01*
X660316Y524696D01*
Y524712D01*
X659438Y526830D01*
X657818Y528451D01*
X655700Y529328D01*
D02*
G37*
G36*
X698450Y531542D02*
X696158D01*
X694040Y530665D01*
X692419Y529044D01*
X691542Y526926D01*
Y524634D01*
X692419Y522516D01*
X694040Y520895D01*
X696158Y520018D01*
X698450D01*
X700568Y520895D01*
X702188Y522516D01*
X703066Y524634D01*
Y526926D01*
X702188Y529044D01*
X700568Y530665D01*
X698450Y531542D01*
D02*
G37*
G36*
X772610Y529910D02*
X770318D01*
X768200Y529033D01*
X766579Y527412D01*
X765702Y525294D01*
Y523002D01*
X766579Y520884D01*
X768200Y519263D01*
X770318Y518386D01*
X772610D01*
X774728Y519263D01*
X776348Y520884D01*
X777226Y523002D01*
Y525294D01*
X776348Y527412D01*
X774728Y529033D01*
X772610Y529910D01*
D02*
G37*
G36*
X545512Y520319D02*
X540131D01*
Y514938D01*
X540896D01*
X543014Y515815D01*
X544635Y517436D01*
X545512Y519554D01*
Y520319D01*
D02*
G37*
G36*
X539369D02*
X533988D01*
Y519554D01*
X534865Y517436D01*
X536486Y515815D01*
X538604Y514938D01*
X539369D01*
Y520319D01*
D02*
G37*
G36*
X684149Y515031D02*
X683383D01*
X681266Y514153D01*
X679645Y512533D01*
X678768Y510415D01*
Y509650D01*
X684149D01*
Y515031D01*
D02*
G37*
G36*
X664138Y507723D02*
X664115D01*
Y506072D01*
X665766D01*
Y506095D01*
X665457Y506842D01*
X664885Y507414D01*
X664138Y507723D01*
D02*
G37*
G36*
X663353D02*
X663330D01*
X662583Y507414D01*
X662012Y506842D01*
X661702Y506095D01*
Y506072D01*
X663353D01*
Y507723D01*
D02*
G37*
G36*
X605819Y512873D02*
X601319D01*
X601167Y512810D01*
X596057D01*
Y505786D01*
X601167D01*
X601319Y505723D01*
X605819D01*
X605971Y505786D01*
X611081D01*
Y512810D01*
X605971D01*
X605819Y512873D01*
D02*
G37*
G36*
X1055938Y605906D02*
X1054057D01*
Y604025D01*
X1054126D01*
X1054957Y604370D01*
X1055593Y605006D01*
X1055938Y605837D01*
Y605906D01*
D02*
G37*
G36*
X1040296Y599661D02*
X1037315D01*
Y596680D01*
X1040296D01*
Y599661D01*
D02*
G37*
G36*
X994537Y599656D02*
X991556D01*
Y596675D01*
X994537D01*
Y599656D01*
D02*
G37*
%LPD*%
G36*
G01X888668Y575184D02*
G02Y581788I0J3302D01*
G01X891668D01*
G01Y575184D01*
G01X888668D01*
D02*
G37*
G36*
G01Y566040D02*
G02Y572644I0J3302D01*
G01X891668D01*
G01Y566040D01*
G01X888668D01*
D02*
G37*
G36*
G01Y556896D02*
G02Y563500I0J3302D01*
G01X891668D01*
G01Y556896D01*
G01X888668D01*
D02*
G37*
G36*
G01Y547752D02*
G02Y554356I0J3302D01*
G01X891668D01*
G01Y547752D01*
G01X888668D01*
D02*
G37*
G36*
G01X902542Y586360D02*
G02Y579756I0J-3302D01*
G01X899542D01*
G01Y586360D01*
G01X902542D01*
D02*
G37*
G36*
G01Y577216D02*
G02Y570612I0J-3302D01*
G01X899542D01*
G01Y577216D01*
G01X902542D01*
D02*
G37*
G36*
G01Y568072D02*
G02Y561468I0J-3302D01*
G01X899542D01*
G01Y568072D01*
G01X902542D01*
D02*
G37*
G36*
G01Y558928D02*
G02Y552324I0J-3302D01*
G01X899542D01*
G01Y558928D01*
G01X902542D01*
D02*
G37*
G36*
G01X978584Y575184D02*
G02Y581788I0J3302D01*
G01X981584D01*
G01Y575184D01*
G01X978584D01*
D02*
G37*
G36*
G01Y566040D02*
G02Y572644I0J3302D01*
G01X981584D01*
G01Y566040D01*
G01X978584D01*
D02*
G37*
G36*
G01Y556896D02*
G02Y563500I0J3302D01*
G01X981584D01*
G01Y556896D01*
G01X978584D01*
D02*
G37*
G36*
G01Y547752D02*
G02Y554356I0J3302D01*
G01X981584D01*
G01Y547752D01*
G01X978584D01*
D02*
G37*
G36*
G01X992458Y586360D02*
G02Y579756I0J-3302D01*
G01X989458D01*
G01Y586360D01*
G01X992458D01*
D02*
G37*
G36*
G01Y577216D02*
G02Y570612I0J-3302D01*
G01X989458D01*
G01Y577216D01*
G01X992458D01*
D02*
G37*
G36*
G01Y568072D02*
G02Y561468I0J-3302D01*
G01X989458D01*
G01Y568072D01*
G01X992458D01*
D02*
G37*
G36*
G01Y558928D02*
G02Y552324I0J-3302D01*
G01X989458D01*
G01Y558928D01*
G01X992458D01*
D02*
G37*
G36*
G01X1029892Y575184D02*
G02Y581788I0J3302D01*
G01X1032892D01*
G01Y575184D01*
G01X1029892D01*
D02*
G37*
G36*
G01Y566040D02*
G02Y572644I0J3302D01*
G01X1032892D01*
G01Y566040D01*
G01X1029892D01*
D02*
G37*
G36*
G01Y556896D02*
G02Y563500I0J3302D01*
G01X1032892D01*
G01Y556896D01*
G01X1029892D01*
D02*
G37*
G36*
G01Y547752D02*
G02Y554356I0J3302D01*
G01X1032892D01*
G01Y547752D01*
G01X1029892D01*
D02*
G37*
G36*
G01X1043766Y586360D02*
G02Y579756I0J-3302D01*
G01X1040766D01*
G01Y586360D01*
G01X1043766D01*
D02*
G37*
G36*
G01Y577216D02*
G02Y570612I0J-3302D01*
G01X1040766D01*
G01Y577216D01*
G01X1043766D01*
D02*
G37*
G36*
G01Y568072D02*
G02Y561468I0J-3302D01*
G01X1040766D01*
G01Y568072D01*
G01X1043766D01*
D02*
G37*
G36*
G01Y558928D02*
G02Y552324I0J-3302D01*
G01X1040766D01*
G01Y558928D01*
G01X1043766D01*
D02*
G37*
G36*
G01X1119808Y575184D02*
G02Y581788I0J3302D01*
G01X1122808D01*
G01Y575184D01*
G01X1119808D01*
D02*
G37*
G36*
G01Y566040D02*
G02Y572644I0J3302D01*
G01X1122808D01*
G01Y566040D01*
G01X1119808D01*
D02*
G37*
G36*
G01Y556896D02*
G02Y563500I0J3302D01*
G01X1122808D01*
G01Y556896D01*
G01X1119808D01*
D02*
G37*
G36*
G01Y547752D02*
G02Y554356I0J3302D01*
G01X1122808D01*
G01Y547752D01*
G01X1119808D01*
D02*
G37*
G36*
G01X1133682Y586360D02*
G02Y579756I0J-3302D01*
G01X1130682D01*
G01Y586360D01*
G01X1133682D01*
D02*
G37*
G36*
G01Y577216D02*
G02Y570612I0J-3302D01*
G01X1130682D01*
G01Y577216D01*
G01X1133682D01*
D02*
G37*
G36*
G01Y568072D02*
G02Y561468I0J-3302D01*
G01X1130682D01*
G01Y568072D01*
G01X1133682D01*
D02*
G37*
G36*
G01Y558928D02*
G02Y552324I0J-3302D01*
G01X1130682D01*
G01Y558928D01*
G01X1133682D01*
D02*
G37*
G36*
G01X888668Y707518D02*
G02Y714122I0J3302D01*
G01X891668D01*
G01Y707518D01*
G01X888668D01*
D02*
G37*
G36*
G01Y698374D02*
G02Y704978I0J3302D01*
G01X891668D01*
G01Y698374D01*
G01X888668D01*
D02*
G37*
G36*
G01Y689230D02*
G02Y695834I0J3302D01*
G01X891668D01*
G01Y689230D01*
G01X888668D01*
D02*
G37*
G36*
G01Y680086D02*
G02Y686690I0J3302D01*
G01X891668D01*
G01Y680086D01*
G01X888668D01*
D02*
G37*
G36*
G01X902542Y718694D02*
G02Y712090I0J-3302D01*
G01X899542D01*
G01Y718694D01*
G01X902542D01*
D02*
G37*
G36*
G01Y709550D02*
G02Y702946I0J-3302D01*
G01X899542D01*
G01Y709550D01*
G01X902542D01*
D02*
G37*
G36*
G01Y700406D02*
G02Y693802I0J-3302D01*
G01X899542D01*
G01Y700406D01*
G01X902542D01*
D02*
G37*
G36*
G01Y691262D02*
G02Y684658I0J-3302D01*
G01X899542D01*
G01Y691262D01*
G01X902542D01*
D02*
G37*
G36*
G01X978584Y707518D02*
G02Y714122I0J3302D01*
G01X981584D01*
G01Y707518D01*
G01X978584D01*
D02*
G37*
G36*
G01Y698374D02*
G02Y704978I0J3302D01*
G01X981584D01*
G01Y698374D01*
G01X978584D01*
D02*
G37*
G36*
G01Y689230D02*
G02Y695834I0J3302D01*
G01X981584D01*
G01Y689230D01*
G01X978584D01*
D02*
G37*
G36*
G01Y680086D02*
G02Y686690I0J3302D01*
G01X981584D01*
G01Y680086D01*
G01X978584D01*
D02*
G37*
G36*
G01X992458Y718694D02*
G02Y712090I0J-3302D01*
G01X989458D01*
G01Y718694D01*
G01X992458D01*
D02*
G37*
G36*
G01Y709550D02*
G02Y702946I0J-3302D01*
G01X989458D01*
G01Y709550D01*
G01X992458D01*
D02*
G37*
G36*
G01Y700406D02*
G02Y693802I0J-3302D01*
G01X989458D01*
G01Y700406D01*
G01X992458D01*
D02*
G37*
G36*
G01Y691262D02*
G02Y684658I0J-3302D01*
G01X989458D01*
G01Y691262D01*
G01X992458D01*
D02*
G37*
G36*
G01X1029892Y707518D02*
G02Y714122I0J3302D01*
G01X1032892D01*
G01Y707518D01*
G01X1029892D01*
D02*
G37*
G36*
G01Y698374D02*
G02Y704978I0J3302D01*
G01X1032892D01*
G01Y698374D01*
G01X1029892D01*
D02*
G37*
G36*
G01Y689230D02*
G02Y695834I0J3302D01*
G01X1032892D01*
G01Y689230D01*
G01X1029892D01*
D02*
G37*
G36*
G01Y680086D02*
G02Y686690I0J3302D01*
G01X1032892D01*
G01Y680086D01*
G01X1029892D01*
D02*
G37*
G36*
G01X1043766Y718694D02*
G02Y712090I0J-3302D01*
G01X1040766D01*
G01Y718694D01*
G01X1043766D01*
D02*
G37*
G36*
G01Y709550D02*
G02Y702946I0J-3302D01*
G01X1040766D01*
G01Y709550D01*
G01X1043766D01*
D02*
G37*
G36*
G01Y700406D02*
G02Y693802I0J-3302D01*
G01X1040766D01*
G01Y700406D01*
G01X1043766D01*
D02*
G37*
G36*
G01Y691262D02*
G02Y684658I0J-3302D01*
G01X1040766D01*
G01Y691262D01*
G01X1043766D01*
D02*
G37*
G36*
G01X1119808Y707518D02*
G02Y714122I0J3302D01*
G01X1122808D01*
G01Y707518D01*
G01X1119808D01*
D02*
G37*
G36*
G01Y698374D02*
G02Y704978I0J3302D01*
G01X1122808D01*
G01Y698374D01*
G01X1119808D01*
D02*
G37*
G36*
G01Y689230D02*
G02Y695834I0J3302D01*
G01X1122808D01*
G01Y689230D01*
G01X1119808D01*
D02*
G37*
G36*
G01Y680086D02*
G02Y686690I0J3302D01*
G01X1122808D01*
G01Y680086D01*
G01X1119808D01*
D02*
G37*
G36*
G01X1133682Y718694D02*
G02Y712090I0J-3302D01*
G01X1130682D01*
G01Y718694D01*
G01X1133682D01*
D02*
G37*
G36*
G01Y709550D02*
G02Y702946I0J-3302D01*
G01X1130682D01*
G01Y709550D01*
G01X1133682D01*
D02*
G37*
G36*
G01Y700406D02*
G02Y693802I0J-3302D01*
G01X1130682D01*
G01Y700406D01*
G01X1133682D01*
D02*
G37*
G36*
G01Y691262D02*
G02Y684658I0J-3302D01*
G01X1130682D01*
G01Y691262D01*
G01X1133682D01*
D02*
G37*
D14*
X737304Y556808D02*
X745304D01*
X704304Y584808D02*
X712304D01*
X509080Y628441D02*
X509580D01*
X510060Y629421D02*
X514338D01*
X517090Y632425D02*
X518106Y633441D01*
X517090Y632173D02*
Y632425D01*
X514338Y629421D02*
X517090Y632173D01*
X509080Y628441D02*
X510060Y629421D01*
X518106Y633441D02*
X519693D01*
X694893Y709016D02*
Y719516D01*
X622300Y440690D02*
X622300Y443738D01*
X737304Y564808D02*
X745304D01*
X663734Y456724D02*
Y500000D01*
Y500082D02*
Y505691D01*
X660400Y453390D02*
X663734Y456724D01*
X660400Y418084D02*
Y453390D01*
X647700Y440690D02*
X647700Y443738D01*
X453390Y647700D02*
X456438Y647700D01*
X453390Y622300D02*
X456438Y622300D01*
X538014Y648983D02*
Y648983D01*
X699770Y509269D02*
X699770Y512317D01*
X787402Y453392D02*
X787402Y456440D01*
X882212Y717432D02*
X884486Y715158D01*
X879700Y722012D02*
X880074D01*
X882212Y717432D02*
Y719874D01*
X880074Y722012D02*
X882212Y719874D01*
X882838Y708218D02*
Y710780D01*
Y708218D02*
X884822Y706234D01*
X886460Y704596D01*
X878430Y723282D02*
X879700Y722012D01*
X878430Y723282D02*
Y724782D01*
X884486Y715158D02*
X886124Y713520D01*
X886103Y546320D02*
Y550765D01*
Y546320D02*
X886103Y546320D01*
Y543942D02*
Y546320D01*
Y543942D02*
X887373Y542672D01*
X901646D02*
X901946Y542972D01*
X901946D02*
X905600Y546626D01*
X901946Y542972D02*
X901946D01*
X887373Y542672D02*
X901646D01*
X997585Y555626D02*
X1001420Y555626D01*
X995269D02*
X997585Y555626D01*
Y564770D02*
X1001420Y564770D01*
X995269D02*
X997585Y564770D01*
Y573914D02*
X1001420Y573914D01*
X995269D02*
X997585Y573914D01*
Y583058D02*
X1001420Y583058D01*
X995269D02*
X997585Y583058D01*
X995269Y715392D02*
X997585Y715392D01*
X1001420Y715392D01*
X969622Y710820D02*
X973457Y710820D01*
X975773Y710820D01*
X878206Y564915D02*
Y573151D01*
X883541Y578486D01*
X879444Y555951D02*
Y561020D01*
X883541Y565116D01*
Y569342D01*
X875600Y552106D02*
X879444Y555951D01*
X875106Y561896D02*
X875187D01*
X878206Y564915D01*
X873836Y560626D02*
X875106Y561896D01*
X873836Y559126D02*
Y560626D01*
Y551626D02*
X874316Y552106D01*
X873836Y550126D02*
Y551626D01*
X874316Y552106D02*
X875600D01*
X875434Y540364D02*
X875914Y540844D01*
X883541Y554591D02*
Y560198D01*
X882098Y553148D02*
X883541Y554591D01*
X877414Y540844D02*
X882098Y545528D01*
Y553148D01*
X875914Y540844D02*
X877414D01*
X1024765Y551054D02*
X1027081Y551054D01*
X1020930D02*
X1024765Y551054D01*
X880606Y713012D02*
X882838Y710780D01*
X879700Y713012D02*
X880606D01*
X878430Y714282D02*
X879700Y713012D01*
X878430Y714282D02*
Y715782D01*
X878430Y697643D02*
Y706782D01*
Y697643D02*
X883541Y692532D01*
X1136493Y687960D02*
X1138809Y687960D01*
X1142644Y687960D01*
X1136493Y697104D02*
X1138809Y697104D01*
X1142644Y697104D01*
X1136493Y706248D02*
X1138809Y706248D01*
X1142644Y706248D01*
X1136493Y715392D02*
X1138809Y715392D01*
X1142644Y715392D01*
X1114681Y683388D02*
X1116997Y683388D01*
X1110846D02*
X1114681Y683388D01*
Y692532D02*
X1116997Y692532D01*
X1110846D02*
X1114681Y692532D01*
Y701676D02*
X1116997Y701676D01*
X1110846D02*
X1114681Y701676D01*
Y710820D02*
X1116997Y710820D01*
X1110846D02*
X1114681Y710820D01*
X1046577Y687960D02*
X1048893Y687960D01*
X1052728Y687960D01*
X1046577Y697104D02*
X1048893Y697104D01*
X1052728Y697104D01*
X1046577Y706248D02*
X1048893Y706248D01*
X1052728Y706248D01*
X1046577Y715392D02*
X1048893Y715392D01*
X1052728Y715392D01*
X1024765Y710820D02*
X1027081Y710820D01*
X1020930D02*
X1024765Y710820D01*
Y701676D02*
X1027081Y701676D01*
X1020930D02*
X1024765Y701676D01*
Y692532D02*
X1027081Y692532D01*
X1020930D02*
X1024765Y692532D01*
Y683388D02*
X1027081Y683388D01*
X1020930D02*
X1024765Y683388D01*
X995269Y687960D02*
X997585Y687960D01*
X1001420Y687960D01*
X995269Y697104D02*
X997585Y697104D01*
X1001420Y697104D01*
X995269Y706248D02*
X997585Y706248D01*
X1001420Y706248D01*
X973457Y683388D02*
X975773Y683388D01*
X969622D02*
X973457Y683388D01*
Y692532D02*
X975773Y692532D01*
X969622D02*
X973457Y692532D01*
Y701676D02*
X975773Y701676D01*
X969622D02*
X973457Y701676D01*
X888359Y675006D02*
X901646D01*
X883541Y679824D02*
Y683388D01*
Y679824D02*
X888359Y675006D01*
X883541Y683388D02*
X885857Y683388D01*
X883541Y692532D02*
X885857Y692532D01*
X905353Y687960D02*
X907669Y687960D01*
X911504Y687960D01*
X905353Y697104D02*
X907669Y697104D01*
X911504Y697104D01*
X905353Y706248D02*
X907669Y706248D01*
X911504Y706248D01*
X905353Y715392D02*
X907669Y715392D01*
X911504Y715392D01*
X883541Y560198D02*
X885857Y560198D01*
X883541Y569342D02*
X885857Y569342D01*
X883541Y578486D02*
X885857Y578486D01*
X905353Y555626D02*
X907669Y555626D01*
X911504Y555626D01*
X905353Y564770D02*
X907669Y564770D01*
X911504Y564770D01*
X905353Y573914D02*
X907669Y573914D01*
X911504Y573914D01*
X905353Y583058D02*
X907669Y583058D01*
X911504Y583058D01*
X973457Y551054D02*
X975773Y551054D01*
X969622D02*
X973457Y551054D01*
Y560198D02*
X975773Y560198D01*
X969622D02*
X973457Y560198D01*
Y569342D02*
X975773Y569342D01*
X969622D02*
X973457Y569342D01*
Y578486D02*
X975773Y578486D01*
X969622D02*
X973457Y578486D01*
X1136493Y555626D02*
X1138809Y555626D01*
X1142644Y555626D01*
X1136493Y564770D02*
X1138809Y564770D01*
X1142644Y564770D01*
X1136493Y573914D02*
X1138809Y573914D01*
X1142644Y573914D01*
X1136493Y583058D02*
X1138809Y583058D01*
X1142644Y583058D01*
X1114681Y551054D02*
X1116997Y551054D01*
X1110846D02*
X1114681Y551054D01*
Y560198D02*
X1116997Y560198D01*
X1110846D02*
X1114681Y560198D01*
Y569342D02*
X1116997Y569342D01*
X1110846D02*
X1114681Y569342D01*
Y578486D02*
X1116997Y578486D01*
X1110846D02*
X1114681Y578486D01*
X1046577Y555626D02*
X1048893Y555626D01*
X1052728Y555626D01*
X1046577Y564770D02*
X1048893Y564770D01*
X1052728Y564770D01*
X1046577Y573914D02*
X1048893Y573914D01*
X1052728Y573914D01*
X1046577Y583058D02*
X1048893Y583058D01*
X1052728Y583058D01*
X1024765Y560198D02*
X1027081Y560198D01*
X1020930D02*
X1024765Y560198D01*
Y569342D02*
X1027081Y569342D01*
X1020930D02*
X1024765Y569342D01*
X1020930Y578486D02*
X1024765Y578486D01*
X1027081Y578486D01*
X905600Y546626D02*
X911509D01*
X901646Y675006D02*
X905600Y678960D01*
X911509D01*
X666393Y709016D02*
Y713815D01*
X546690Y579658D02*
Y590158D01*
D15*
X722881Y505613D02*
Y508965D01*
X721153Y503885D02*
X722881Y505613D01*
X721153Y469082D02*
Y503885D01*
X508084Y561008D02*
X509434Y559658D01*
X518190D01*
X627454Y448892D02*
Y506017D01*
X622300Y443738D02*
X627454Y448892D01*
X728037Y500000D02*
Y503789D01*
X728580Y504332D02*
Y507600D01*
X730250Y509270D01*
X728037Y503789D02*
X728580Y504332D01*
X728037Y463693D02*
X728109Y463621D01*
X728037Y463693D02*
Y500000D01*
X647700Y443738D02*
Y505671D01*
X692110Y486854D02*
Y508965D01*
X678294Y475437D02*
Y505671D01*
X963674Y606287D02*
X973676D01*
X712554Y456440D02*
Y500082D01*
Y504451D02*
X715010Y506908D01*
Y509270D01*
X712554Y500082D02*
Y504451D01*
X500000Y637540D02*
X500033D01*
X930980Y594714D02*
X932564Y596299D01*
X920750Y594360D02*
X921104Y594714D01*
X930980D01*
X812805Y453392D02*
Y472710D01*
X812802Y472713D02*
X812805Y472710D01*
X787402Y456440D02*
Y469082D01*
X787400Y469084D02*
X787402Y469082D01*
X699770Y507599D02*
Y509269D01*
Y507599D02*
X703580Y503789D01*
Y490220D02*
Y503789D01*
X983676Y606287D02*
Y611286D01*
Y596795D02*
Y606287D01*
X968674Y592828D02*
X978674Y602828D01*
Y606287D01*
X1048677Y596329D02*
Y606287D01*
X1053676Y611286D02*
X1066214D01*
X923064Y605329D02*
X932564D01*
X910064D02*
X919064D01*
X932564D02*
Y612829D01*
X1067214Y611286D02*
X1078214D01*
X675893Y677974D02*
X683642D01*
X691142Y672974D02*
X708347D01*
X691142Y677974D02*
X706393D01*
X657563Y689016D02*
X666393D01*
X694893Y694016D02*
X704913D01*
X708347Y672974D02*
X718894Y683520D01*
Y683649D01*
X739893Y693673D02*
Y698344D01*
X713413Y694016D02*
Y699016D01*
X726893Y698344D02*
X739893D01*
X694893Y699016D02*
X713413D01*
X739893Y698344D02*
Y703016D01*
X713413Y699016D02*
Y705575D01*
X657563Y705516D02*
Y705640D01*
X649113D02*
X657563D01*
X600669Y573496D02*
Y582266D01*
X600669Y536893D02*
Y545663D01*
X561140Y641281D02*
X566140D01*
X511084Y574658D02*
X518190D01*
X508084Y577658D02*
X511084Y574658D01*
X508084Y569658D02*
X518190D01*
X565210D02*
Y576218D01*
Y564658D02*
Y569658D01*
X546690D02*
X565210D01*
X546690Y564658D02*
X556710D01*
X527440D02*
X532440Y569658D01*
X518190Y564658D02*
X527440D01*
D16*
X1227255Y802100D02*
G03*
X1227255Y802100I-17000J0D01*
G01*
Y474920D02*
G03*
X1227255Y474920I-17000J0D01*
G01*
X470701D02*
G03*
X470701Y474920I-17000J0D01*
G01*
D17*
X500000Y649330D02*
X500033D01*
X510140D01*
X458068D02*
X500000D01*
X456438Y647700D02*
X458068Y649330D01*
X471678Y637540D02*
X500000D01*
X456438Y622300D02*
X471678Y637540D01*
X500033D02*
X526571D01*
X538014Y648983D01*
X591919Y591266D02*
X609919D01*
X574939D02*
X582919D01*
X575689Y554663D02*
X583669D01*
X634781Y585418D02*
X638800D01*
X643189Y589807D02*
Y589807D01*
X634170Y584807D02*
X634781Y585418D01*
X638800D02*
X643189Y589807D01*
X634170Y589807D02*
X643189D01*
X583669Y554663D02*
X583669Y554663D01*
X600669D02*
X609919D01*
X600669Y554663D02*
X600669Y554663D01*
X609919D02*
X609919Y554663D01*
X592669Y554663D02*
X600669D01*
X592669Y554663D02*
X592669Y554663D01*
D20*
X658455Y716115D02*
D03*
X649455D02*
D03*
X642955D02*
D03*
X633955D02*
D03*
X641873Y509298D02*
D03*
X632873D02*
D03*
X901065Y605329D02*
D03*
X910064D02*
D03*
X591919Y591266D02*
D03*
X582919D02*
D03*
X608069Y509298D02*
D03*
X599069D02*
D03*
X592669Y554663D02*
D03*
X583669D02*
D03*
D22*
X686893Y719516D02*
D03*
X694893D02*
D03*
X756070Y544204D02*
D03*
X748070D02*
D03*
X925259Y555626D02*
D03*
X933259D02*
D03*
X925259Y564770D02*
D03*
X933259D02*
D03*
X925259Y573914D02*
D03*
X933259D02*
D03*
X925259Y583058D02*
D03*
X933259D02*
D03*
X925259Y546626D02*
D03*
X933259D02*
D03*
X999175Y592828D02*
D03*
X1007175D02*
D03*
X955867Y551054D02*
D03*
X947867D02*
D03*
X955867Y560198D02*
D03*
X947867D02*
D03*
X955867Y569342D02*
D03*
X947867D02*
D03*
X955867Y578486D02*
D03*
X947867D02*
D03*
X1066483Y555626D02*
D03*
X1074483D02*
D03*
X1066483Y564770D02*
D03*
X1074483D02*
D03*
X1066483Y573914D02*
D03*
X1074483D02*
D03*
X1066483Y583058D02*
D03*
X1074483D02*
D03*
X1023180Y588256D02*
D03*
X1015180D02*
D03*
X1145881Y547126D02*
D03*
X1153881D02*
D03*
X1147151Y591558D02*
D03*
X1155151D02*
D03*
X1097091Y551054D02*
D03*
X1089091D02*
D03*
X1097091Y560198D02*
D03*
X1089091D02*
D03*
X1097091Y569342D02*
D03*
X1089091D02*
D03*
X1097091Y578486D02*
D03*
X1089091D02*
D03*
X925259Y687960D02*
D03*
X933259D02*
D03*
X925259Y697104D02*
D03*
X933259D02*
D03*
X925259Y706248D02*
D03*
X933259D02*
D03*
X925259Y715392D02*
D03*
X933259D02*
D03*
X925259Y678960D02*
D03*
X933259D02*
D03*
X881950Y734552D02*
D03*
X873950D02*
D03*
X999175Y679388D02*
D03*
X1007175D02*
D03*
X955867Y683388D02*
D03*
X947867D02*
D03*
X955867Y692532D02*
D03*
X947867D02*
D03*
X955867Y701676D02*
D03*
X947867D02*
D03*
X955867Y710820D02*
D03*
X947867D02*
D03*
X1066483Y687960D02*
D03*
X1074483D02*
D03*
X1066483Y697104D02*
D03*
X1074483D02*
D03*
X1066483Y706248D02*
D03*
X1074483D02*
D03*
X1066483Y715392D02*
D03*
X1074483D02*
D03*
X1147151Y679460D02*
D03*
X1155151D02*
D03*
X1147151Y723748D02*
D03*
X1155151D02*
D03*
X1097091Y683388D02*
D03*
X1089091D02*
D03*
X1097091Y692532D02*
D03*
X1089091D02*
D03*
X1097091Y701820D02*
D03*
X1089091D02*
D03*
X1097091Y710820D02*
D03*
X1089091D02*
D03*
X955674Y606287D02*
D03*
X963674D02*
D03*
X1048677Y596299D02*
D03*
X1040677D02*
D03*
X983175Y596294D02*
D03*
X991175D02*
D03*
X538690Y590158D02*
D03*
X546690D02*
D03*
X618705Y716115D02*
D03*
X626705D02*
D03*
X704804Y566808D02*
D03*
X712804D02*
D03*
X675893Y677974D02*
D03*
X667893D02*
D03*
X728804Y566808D02*
D03*
X720804D02*
D03*
X720804Y574808D02*
D03*
X728804D02*
D03*
X745304Y536046D02*
D03*
X737304D02*
D03*
D25*
X634170Y584807D02*
D03*
Y589807D02*
D03*
Y594807D02*
D03*
X626670D02*
D03*
Y589807D02*
D03*
Y584807D02*
D03*
X683642Y677974D02*
D03*
Y672974D02*
D03*
Y667974D02*
D03*
X691142D02*
D03*
Y672974D02*
D03*
Y677974D02*
D03*
D31*
X919064Y605329D02*
D03*
X923064D02*
D03*
X919064Y609329D02*
D03*
X923064D02*
D03*
X919064Y613329D02*
D03*
X923064D02*
D03*
D32*
X627205Y689425D02*
D03*
Y698425D02*
D03*
X618705Y689425D02*
D03*
Y698425D02*
D03*
X509080Y628441D02*
D03*
Y619441D02*
D03*
X704913Y694016D02*
D03*
Y685015D02*
D03*
X713413Y694016D02*
D03*
Y685015D02*
D03*
X704913Y714576D02*
D03*
Y705575D02*
D03*
X713413Y714576D02*
D03*
Y705575D02*
D03*
X556710Y564658D02*
D03*
Y555658D02*
D03*
X565210Y564658D02*
D03*
Y555658D02*
D03*
X556710Y585218D02*
D03*
Y576218D02*
D03*
X565210Y585218D02*
D03*
Y576218D02*
D03*
X932564Y612829D02*
D03*
Y621829D02*
D03*
Y596329D02*
D03*
Y605329D02*
D03*
X739893Y693673D02*
D03*
Y684673D02*
D03*
Y712016D02*
D03*
Y703016D02*
D03*
X891120Y669136D02*
D03*
Y660136D02*
D03*
X600669Y573496D02*
D03*
Y564496D02*
D03*
Y591266D02*
D03*
Y582266D02*
D03*
X600669Y536893D02*
D03*
Y527893D02*
D03*
Y554663D02*
D03*
Y545663D02*
D03*
D33*
X1092214Y611286D02*
D03*
X1078214D02*
D03*
D38*
X721663Y706575D02*
D03*
Y714576D02*
D03*
X637705Y689575D02*
D03*
Y697575D02*
D03*
X900812Y534510D02*
D03*
Y526510D02*
D03*
X892812Y534510D02*
D03*
Y526510D02*
D03*
X884812Y534510D02*
D03*
Y526510D02*
D03*
X991175Y540170D02*
D03*
Y532170D02*
D03*
X999175Y540170D02*
D03*
Y532170D02*
D03*
X1007175Y540170D02*
D03*
Y532170D02*
D03*
X1031175Y540170D02*
D03*
Y532170D02*
D03*
X1023175Y540170D02*
D03*
Y532170D02*
D03*
X1015175Y540170D02*
D03*
Y532170D02*
D03*
X1156399Y564770D02*
D03*
Y556770D02*
D03*
X1156399Y574058D02*
D03*
Y582058D02*
D03*
X864681Y706120D02*
D03*
Y714120D02*
D03*
Y722120D02*
D03*
Y730120D02*
D03*
X1003175Y726276D02*
D03*
Y734276D02*
D03*
X995175Y726276D02*
D03*
Y734276D02*
D03*
X987175Y726276D02*
D03*
Y734276D02*
D03*
X1011175Y726276D02*
D03*
Y734276D02*
D03*
X1019175Y726276D02*
D03*
Y734276D02*
D03*
X1027175Y726276D02*
D03*
Y734276D02*
D03*
X1035175Y726276D02*
D03*
Y734276D02*
D03*
X1156399Y696960D02*
D03*
Y688960D02*
D03*
X1156399Y706104D02*
D03*
Y714104D02*
D03*
X657563Y681015D02*
D03*
Y689016D02*
D03*
X657563Y697515D02*
D03*
Y705516D02*
D03*
X508084Y553008D02*
D03*
Y561008D02*
D03*
Y569658D02*
D03*
Y577658D02*
D03*
X737304Y564808D02*
D03*
Y556808D02*
D03*
X745304Y564808D02*
D03*
Y556808D02*
D03*
X696804Y562308D02*
D03*
Y554308D02*
D03*
X738828Y576808D02*
D03*
Y584808D02*
D03*
X712304Y576808D02*
D03*
Y584808D02*
D03*
X596236Y694867D02*
D03*
Y702867D02*
D03*
X649113Y697515D02*
D03*
Y705516D02*
D03*
X704304Y576808D02*
D03*
Y584808D02*
D03*
X643189Y589807D02*
D03*
Y597807D02*
D03*
X575169Y582721D02*
D03*
Y590721D02*
D03*
X575689Y545913D02*
D03*
Y553913D02*
D03*
X730828Y590808D02*
D03*
Y582808D02*
D03*
X752304Y606308D02*
D03*
Y598308D02*
D03*
X712304Y601308D02*
D03*
Y593308D02*
D03*
X696804Y545958D02*
D03*
Y537958D02*
D03*
D39*
X1067214Y597286D02*
D03*
Y611286D02*
D03*
X756920Y659750D02*
D03*
Y673750D02*
D03*
D72*
X511210Y602113D02*
D03*
X1210255Y802100D02*
D03*
Y474920D02*
D03*
X453701D02*
D03*
X1094192Y599226D02*
D03*
X1111972Y599226D02*
D03*
X1129752Y599226D02*
D03*
X774700Y609600D02*
D03*
X628650Y628650D02*
D03*
X635000Y609600D02*
D03*
X920750Y594360D02*
D03*
X619760Y509270D02*
D03*
X702546Y617255D02*
D03*
X781219Y592294D02*
D03*
X742260Y613397D02*
D03*
X773430Y571500D02*
D03*
X783325Y537958D02*
D03*
X684530Y509269D02*
D03*
X697304Y525780D02*
D03*
X762000Y583308D02*
D03*
X723900Y525780D02*
D03*
X654554Y509298D02*
D03*
X968674Y592828D02*
D03*
X539750Y520700D02*
D03*
X715010Y509270D02*
D03*
X730250Y509270D02*
D03*
X583967Y509298D02*
D03*
X771464Y524148D02*
D03*
X773277Y552450D02*
D03*
X792327Y552450D02*
D03*
X612459Y591266D02*
D03*
X538014Y648983D02*
D03*
X532043Y675108D02*
D03*
X699770Y509270D02*
D03*
X560960Y537913D02*
D03*
X546960D02*
D03*
X510140Y649330D02*
D03*
X524140D02*
D03*
X518043Y675108D02*
D03*
X654554Y523566D02*
D03*
X727442Y610308D02*
D03*
D73*
X626705Y716115D02*
X633955D01*
X642955D02*
X649455D01*
X627205Y707270D02*
Y715615D01*
X626705Y716115D02*
X627205Y715615D01*
X690735Y545958D02*
X696804D01*
X722473Y514327D02*
X726431Y518285D01*
X720067Y514327D02*
X722473D01*
X715010Y509270D02*
X720067Y514327D01*
X647700Y505671D02*
Y515478D01*
X634170Y594807D02*
Y608770D01*
X635000Y609600D01*
X634170Y594807D02*
X634170Y594807D01*
X674434Y673434D02*
X679893Y667974D01*
X683642D01*
X652923Y673434D02*
X674434D01*
X647102Y679255D02*
X652923Y673434D01*
X631455Y679255D02*
X647102D01*
X655888Y522232D02*
X661669D01*
X654554Y523566D02*
X655888Y522232D01*
X1005269Y600344D02*
X1012734D01*
X1018677Y606287D01*
X633395Y689575D02*
X637705D01*
X632382Y690588D02*
X633395Y689575D01*
X632382Y690588D02*
Y704955D01*
X577084Y701943D02*
Y710693D01*
X576834Y701943D02*
X577084D01*
X618705Y689575D02*
X618855Y689425D01*
X627205Y707270D02*
X630067D01*
X632382Y704955D01*
X627205Y698425D02*
Y707270D01*
Y698425D02*
X627205D01*
X618855Y689425D02*
X627205D01*
D74*
X444500Y622300D02*
D03*
Y647700D02*
D03*
D75*
X546100Y431800D02*
D03*
D76*
X571500D02*
D03*
X596900D02*
D03*
X622300D02*
D03*
X647700D02*
D03*
X673100D02*
D03*
X698500D02*
D03*
D77*
X762002Y429262D02*
D03*
Y447042D02*
D03*
X774702Y429262D02*
D03*
Y447042D02*
D03*
X787402Y429262D02*
D03*
Y447042D02*
D03*
X800102Y429262D02*
D03*
Y447042D02*
D03*
X812802Y429262D02*
D03*
Y447042D02*
D03*
D78*
X649455Y716115D02*
D03*
X658455D02*
D03*
X883541Y533229D02*
D03*
X511128Y602701D02*
D03*
X519693Y614441D02*
D03*
X509080Y619441D02*
D03*
Y628441D02*
D03*
X686893Y719516D02*
D03*
X694893D02*
D03*
X690735Y545958D02*
D03*
X747304Y543308D02*
D03*
X737304Y536046D02*
D03*
X710438Y545758D02*
D03*
X722881Y508965D02*
D03*
X1019175Y734276D02*
D03*
X1011175D02*
D03*
X686893Y695296D02*
D03*
X508084Y561008D02*
D03*
X647700Y515478D02*
D03*
X663734Y505691D02*
D03*
X692088Y486854D02*
D03*
X678294Y475437D02*
D03*
Y505671D02*
D03*
X692110Y508965D02*
D03*
X632873Y509298D02*
D03*
X641873D02*
D03*
X772826Y608130D02*
D03*
X624984Y629826D02*
D03*
X634170Y594807D02*
D03*
X660400Y418084D02*
D03*
X762002Y422912D02*
D03*
X721153Y469082D02*
D03*
X712554Y456440D02*
D03*
X891120Y660136D02*
D03*
Y669136D02*
D03*
X453390Y622300D02*
D03*
Y647700D02*
D03*
X546100Y422910D02*
D03*
X696804Y537958D02*
D03*
X812802Y472713D02*
D03*
X787400Y469084D02*
D03*
X781219Y592294D02*
D03*
X773277Y549402D02*
D03*
X770650Y554589D02*
D03*
X627454Y506017D02*
D03*
X728109Y463621D02*
D03*
X703580Y490220D02*
D03*
X726431Y518285D02*
D03*
X699770Y509269D02*
D03*
X654554Y509298D02*
D03*
X812802Y453392D02*
D03*
X787402D02*
D03*
X762002D02*
D03*
X774702D02*
D03*
X812803Y422912D02*
D03*
X787402D02*
D03*
X774703D02*
D03*
X698500Y440690D02*
D03*
X647700D02*
D03*
X622300D02*
D03*
X884822Y706234D02*
D03*
X884486Y715158D02*
D03*
X932564Y596299D02*
D03*
X983175Y596325D02*
D03*
X886103Y546320D02*
D03*
X997585Y555626D02*
D03*
Y564770D02*
D03*
Y573914D02*
D03*
Y583058D02*
D03*
Y715392D02*
D03*
X973457Y710820D02*
D03*
X576834Y718943D02*
D03*
X697304Y553308D02*
D03*
Y563308D02*
D03*
X745304Y536046D02*
D03*
X730828Y590808D02*
D03*
X730250Y509270D02*
D03*
X775505Y572970D02*
D03*
X661669Y522232D02*
D03*
X544966Y614441D02*
D03*
X723900Y525780D02*
D03*
X546690Y559658D02*
D03*
X697305Y529229D02*
D03*
X619731Y509298D02*
D03*
X583967D02*
D03*
X919064Y613329D02*
D03*
X978674Y621286D02*
D03*
Y626287D02*
D03*
X973676D02*
D03*
X978674Y631286D02*
D03*
X973676D02*
D03*
X978674Y636287D02*
D03*
X973676D02*
D03*
X978674Y641288D02*
D03*
X973676D02*
D03*
X978674Y646287D02*
D03*
X973676D02*
D03*
X988674Y606287D02*
D03*
X998674D02*
D03*
X1008674D02*
D03*
X779902Y673750D02*
D03*
Y659750D02*
D03*
X882029Y671056D02*
D03*
X973676Y651288D02*
D03*
X978674D02*
D03*
Y656287D02*
D03*
Y661288D02*
D03*
X973676Y656287D02*
D03*
Y661288D02*
D03*
Y666287D02*
D03*
X983676Y661288D02*
D03*
X978674Y666287D02*
D03*
X983676D02*
D03*
X988674Y661288D02*
D03*
Y666287D02*
D03*
X993676D02*
D03*
X998674D02*
D03*
X1003676D02*
D03*
X999175Y679388D02*
D03*
X995175Y726276D02*
D03*
X1019175D02*
D03*
X1027175D02*
D03*
X1035175D02*
D03*
X1018677Y666287D02*
D03*
X1023676D02*
D03*
X1028677D02*
D03*
X1033676D02*
D03*
X1147151Y591558D02*
D03*
X1155151D02*
D03*
X1048677Y666287D02*
D03*
X1033676Y661288D02*
D03*
X1038677Y666287D02*
D03*
Y661288D02*
D03*
X1043676Y666287D02*
D03*
Y661288D02*
D03*
X1053676Y666287D02*
D03*
X1156399Y564770D02*
D03*
X1048677Y636287D02*
D03*
X1053676Y661288D02*
D03*
Y656287D02*
D03*
Y651288D02*
D03*
Y646287D02*
D03*
Y641288D02*
D03*
Y636287D02*
D03*
X1048677Y631286D02*
D03*
X1053676D02*
D03*
X1094192Y599226D02*
D03*
X1033676Y606287D02*
D03*
X1043676D02*
D03*
X1129752Y599226D02*
D03*
X1111972Y599226D02*
D03*
X1038677Y606287D02*
D03*
X1048677Y661288D02*
D03*
Y656287D02*
D03*
Y651288D02*
D03*
Y646287D02*
D03*
Y641288D02*
D03*
Y626287D02*
D03*
Y621286D02*
D03*
X1053676Y626287D02*
D03*
X891311Y533253D02*
D03*
X900812Y534510D02*
D03*
X1028677Y661288D02*
D03*
X1023676D02*
D03*
X1018677D02*
D03*
X1013676D02*
D03*
X1008674D02*
D03*
X1003676D02*
D03*
X998674D02*
D03*
X993676D02*
D03*
X1005269Y600344D02*
D03*
X1013676Y666287D02*
D03*
X1008674D02*
D03*
X978674Y616287D02*
D03*
X973676Y621286D02*
D03*
X955675Y606287D02*
D03*
X978674Y611286D02*
D03*
X973676D02*
D03*
X923064Y613329D02*
D03*
X919064Y605329D02*
D03*
X923064Y609329D02*
D03*
X932564Y621829D02*
D03*
X988674Y611286D02*
D03*
X993676D02*
D03*
X991175Y596294D02*
D03*
X1040677Y596299D02*
D03*
X1048677Y596329D02*
D03*
X1093964Y613536D02*
D03*
X1090464Y609036D02*
D03*
X1053676Y621286D02*
D03*
X1064964Y599036D02*
D03*
X1069464Y595536D02*
D03*
X1024765Y551054D02*
D03*
X871930Y715782D02*
D03*
Y724782D02*
D03*
X1138809Y687960D02*
D03*
Y697104D02*
D03*
Y706248D02*
D03*
Y715392D02*
D03*
X1097235Y701676D02*
D03*
X1114681Y683388D02*
D03*
Y692532D02*
D03*
Y701676D02*
D03*
Y710820D02*
D03*
X1048893Y687960D02*
D03*
Y697104D02*
D03*
Y706248D02*
D03*
Y715392D02*
D03*
X1024765Y710820D02*
D03*
Y701676D02*
D03*
Y692532D02*
D03*
Y683388D02*
D03*
X997585Y687960D02*
D03*
Y697104D02*
D03*
Y706248D02*
D03*
X973457Y683388D02*
D03*
Y692532D02*
D03*
Y701676D02*
D03*
X883541Y683388D02*
D03*
Y692532D02*
D03*
X907669Y687960D02*
D03*
Y697104D02*
D03*
Y706248D02*
D03*
Y715392D02*
D03*
X883541Y560198D02*
D03*
Y569342D02*
D03*
Y578486D02*
D03*
X907669Y555626D02*
D03*
Y564770D02*
D03*
Y573914D02*
D03*
Y583058D02*
D03*
X973457Y551054D02*
D03*
Y560198D02*
D03*
Y569342D02*
D03*
Y578486D02*
D03*
X1138809Y555626D02*
D03*
Y564770D02*
D03*
Y573914D02*
D03*
Y583058D02*
D03*
X1114681Y551054D02*
D03*
Y560198D02*
D03*
Y569342D02*
D03*
Y578486D02*
D03*
X1048893Y555626D02*
D03*
Y564770D02*
D03*
Y573914D02*
D03*
Y583058D02*
D03*
X1024765Y560198D02*
D03*
Y569342D02*
D03*
Y578486D02*
D03*
X1097091Y560198D02*
D03*
Y578486D02*
D03*
Y569342D02*
D03*
Y551054D02*
D03*
X1155129Y574058D02*
D03*
X1145881Y547126D02*
D03*
X911509Y546626D02*
D03*
X932928Y546626D02*
D03*
X924928D02*
D03*
X924928Y678960D02*
D03*
X881950Y734552D02*
D03*
X873950D02*
D03*
X932928Y678960D02*
D03*
X1035175Y734276D02*
D03*
X1027175D02*
D03*
X1003175D02*
D03*
X995175D02*
D03*
X987175D02*
D03*
X1156399Y582058D02*
D03*
X1156399Y557058D02*
D03*
X1153881Y547126D02*
D03*
X1015180Y588256D02*
D03*
X864681Y730120D02*
D03*
Y714120D02*
D03*
X1155151Y679460D02*
D03*
X1156399Y688960D02*
D03*
X1155151Y723748D02*
D03*
X1156399Y714104D02*
D03*
X1031175Y532170D02*
D03*
X1023175D02*
D03*
X1015175D02*
D03*
X1007175D02*
D03*
X999175D02*
D03*
X991175D02*
D03*
X933259Y583058D02*
D03*
Y573914D02*
D03*
Y564770D02*
D03*
Y555626D02*
D03*
X947867Y578486D02*
D03*
Y569342D02*
D03*
Y560198D02*
D03*
Y551054D02*
D03*
X1089091Y578486D02*
D03*
Y569342D02*
D03*
Y560198D02*
D03*
Y551054D02*
D03*
X1074483Y583058D02*
D03*
Y573914D02*
D03*
Y564770D02*
D03*
Y555626D02*
D03*
X1089091Y710820D02*
D03*
Y701676D02*
D03*
Y692532D02*
D03*
Y683388D02*
D03*
X1074483Y715392D02*
D03*
Y706248D02*
D03*
Y697104D02*
D03*
Y687960D02*
D03*
X947867Y710820D02*
D03*
Y701676D02*
D03*
Y692532D02*
D03*
Y683388D02*
D03*
X933259Y687960D02*
D03*
Y697104D02*
D03*
Y706248D02*
D03*
Y715392D02*
D03*
X864681Y706120D02*
D03*
Y722120D02*
D03*
X1023180Y588256D02*
D03*
X1147151Y679460D02*
D03*
Y723748D02*
D03*
X955867Y683388D02*
D03*
Y692532D02*
D03*
Y701676D02*
D03*
Y710820D02*
D03*
X925259Y687960D02*
D03*
Y697104D02*
D03*
Y706248D02*
D03*
Y715392D02*
D03*
X1156399Y696960D02*
D03*
X1156399Y706104D02*
D03*
X1066483Y687960D02*
D03*
Y697104D02*
D03*
Y706248D02*
D03*
Y715392D02*
D03*
X1097091Y683388D02*
D03*
Y692532D02*
D03*
Y710820D02*
D03*
X925259Y555626D02*
D03*
Y564770D02*
D03*
Y573914D02*
D03*
Y583058D02*
D03*
X955867Y551054D02*
D03*
Y560198D02*
D03*
Y569342D02*
D03*
Y578486D02*
D03*
X1066483Y555626D02*
D03*
Y564770D02*
D03*
Y573914D02*
D03*
X991175Y540170D02*
D03*
X999175D02*
D03*
X1007175D02*
D03*
X1015175D02*
D03*
X1031175D02*
D03*
X1023175D02*
D03*
X999175Y592828D02*
D03*
X1011175Y726466D02*
D03*
X1066483Y583058D02*
D03*
X987175Y726276D02*
D03*
X1003175D02*
D03*
X998674Y611286D02*
D03*
X1003676D02*
D03*
X1008674D02*
D03*
X1013676D02*
D03*
X1018677D02*
D03*
X1023676D02*
D03*
X1028677D02*
D03*
Y606287D02*
D03*
X1053676D02*
D03*
Y616287D02*
D03*
X1048677D02*
D03*
Y611286D02*
D03*
X1043676D02*
D03*
X1033676D02*
D03*
X1038677D02*
D03*
X742260Y613397D02*
D03*
X792327Y550260D02*
D03*
X508084Y577658D02*
D03*
X705114Y619808D02*
D03*
X771464Y524148D02*
D03*
X783325Y537958D02*
D03*
X680643Y707265D02*
D03*
X694893Y704016D02*
D03*
X649113Y697515D02*
D03*
X649113Y705640D02*
D03*
X666393Y713815D02*
D03*
X739893Y684673D02*
D03*
X704913Y685015D02*
D03*
X706393Y677974D02*
D03*
X713413Y685015D02*
D03*
X718894Y683649D02*
D03*
X704913Y694016D02*
D03*
Y705575D02*
D03*
Y714576D02*
D03*
X713413D02*
D03*
X720747Y714553D02*
D03*
X721663Y706575D02*
D03*
X726893Y698344D02*
D03*
X739893Y712016D02*
D03*
X667893Y677974D02*
D03*
X675893D02*
D03*
X691142Y667974D02*
D03*
X657563Y689016D02*
D03*
Y681015D02*
D03*
X544966Y633441D02*
D03*
X756920Y619808D02*
D03*
X708594Y559018D02*
D03*
X752304Y606308D02*
D03*
X724924Y619808D02*
D03*
X574939Y591266D02*
D03*
X599069Y509298D02*
D03*
X712304Y593308D02*
D03*
X724924Y610808D02*
D03*
X626670Y589807D02*
D03*
X556710Y555658D02*
D03*
X565210D02*
D03*
X626670Y594807D02*
D03*
X511543Y659455D02*
D03*
X538543D02*
D03*
X566140Y627329D02*
D03*
X643189Y597807D02*
D03*
X758337Y583308D02*
D03*
X676554Y551258D02*
D03*
X684554Y536528D02*
D03*
X643189Y589807D02*
D03*
X608069Y509298D02*
D03*
X632169Y555706D02*
D03*
X729399Y545825D02*
D03*
X565210Y585218D02*
D03*
X556710D02*
D03*
X546690Y590158D02*
D03*
X575169Y582721D02*
D03*
X626670Y584807D02*
D03*
X575689Y545913D02*
D03*
X561140Y624281D02*
D03*
X582910Y622993D02*
D03*
X609919Y591266D02*
D03*
X600669Y536893D02*
D03*
X600669Y573496D02*
D03*
X575689Y554663D02*
D03*
X609919Y554663D02*
D03*
X556140Y641281D02*
D03*
X561140D02*
D03*
X556140Y624281D02*
D03*
X558148Y597403D02*
D03*
X562148Y614633D02*
D03*
X637955Y629855D02*
D03*
X620669Y611308D02*
D03*
X607955Y621855D02*
D03*
X682574Y576058D02*
D03*
X675074Y565538D02*
D03*
X660554Y604808D02*
D03*
Y588808D02*
D03*
X658364Y565538D02*
D03*
Y576058D02*
D03*
X546690Y574658D02*
D03*
X560960Y537913D02*
D03*
X546960Y537913D02*
D03*
X508084Y553008D02*
D03*
X515968Y579682D02*
D03*
X538690Y590158D02*
D03*
X544589Y623398D02*
D03*
X538966Y605383D02*
D03*
X556710Y576218D02*
D03*
Y564658D02*
D03*
X532440Y561658D02*
D03*
Y577658D02*
D03*
X704804Y566808D02*
D03*
X704304Y576808D02*
D03*
X712804Y566808D02*
D03*
X609919Y583266D02*
D03*
X609919Y546663D02*
D03*
X600669Y564496D02*
D03*
X600669Y527893D02*
D03*
X524140Y649330D02*
D03*
X510140D02*
D03*
X637705Y689575D02*
D03*
X631455Y679255D02*
D03*
X756920Y709432D02*
D03*
X569084Y714693D02*
D03*
X576834Y701943D02*
D03*
X619205Y716115D02*
D03*
X618705Y698425D02*
D03*
X637705Y697575D02*
D03*
X618705Y689575D02*
D03*
X752304Y598308D02*
D03*
X538014Y648983D02*
D03*
X596236Y703375D02*
D03*
X539750Y520700D02*
D03*
X532043Y677056D02*
D03*
X518043D02*
D03*
X737304Y558308D02*
D03*
Y563308D02*
D03*
X712304Y578308D02*
D03*
Y583308D02*
D03*
X732304D02*
D03*
X737304D02*
D03*
Y578308D02*
D03*
X727304Y573308D02*
D03*
X722304D02*
D03*
X727304Y568308D02*
D03*
X722304D02*
D03*
X596236Y694875D02*
D03*
D79*
X756920Y673750D02*
Y709432D01*
X756920Y619808D02*
Y659750D01*
X756920Y659750D02*
X779902D01*
X756920Y673750D02*
X779902D01*
D81*
X683174Y699016D02*
X686893Y695296D01*
X680643Y699016D02*
X683174D01*
X675643Y694016D02*
X680643Y699016D01*
X666393Y694016D02*
X675643D01*
X657563Y705516D02*
X659063Y704016D01*
X657563Y697515D02*
X659063Y699016D01*
X659063Y704016D02*
X666393D01*
X659063Y699016D02*
X666393D01*
D83*
X569084Y714693D02*
D03*
D84*
X577084Y710693D02*
D03*
Y718693D02*
D03*
D85*
X1053676Y666287D02*
D03*
X1048677D02*
D03*
X1043676D02*
D03*
X1038677D02*
D03*
X1033676D02*
D03*
X1028677D02*
D03*
X1023676D02*
D03*
X1053676Y661288D02*
D03*
X1048677D02*
D03*
X1043676D02*
D03*
X1038677D02*
D03*
X1033676D02*
D03*
X1018677D02*
D03*
X1028677D02*
D03*
X1023676D02*
D03*
X1048677Y656287D02*
D03*
X1053676D02*
D03*
Y651288D02*
D03*
Y646287D02*
D03*
Y641288D02*
D03*
Y636287D02*
D03*
Y631286D02*
D03*
Y626287D02*
D03*
Y621286D02*
D03*
Y616287D02*
D03*
Y611286D02*
D03*
Y606287D02*
D03*
X1048677Y651288D02*
D03*
Y646287D02*
D03*
Y641288D02*
D03*
Y636287D02*
D03*
Y631286D02*
D03*
Y626287D02*
D03*
Y621286D02*
D03*
Y616287D02*
D03*
Y606287D02*
D03*
Y611286D02*
D03*
X1043676Y606287D02*
D03*
Y611286D02*
D03*
X1038677Y606287D02*
D03*
Y611286D02*
D03*
X1033676Y606287D02*
D03*
Y611286D02*
D03*
X1028677D02*
D03*
Y606287D02*
D03*
X1023676Y611286D02*
D03*
Y606287D02*
D03*
X1018677Y611286D02*
D03*
Y666287D02*
D03*
X1013676D02*
D03*
Y661288D02*
D03*
X1008674Y666287D02*
D03*
Y661288D02*
D03*
X1003676D02*
D03*
Y666287D02*
D03*
X998674D02*
D03*
Y661288D02*
D03*
X993676Y666287D02*
D03*
Y661288D02*
D03*
X988674Y666287D02*
D03*
Y661288D02*
D03*
X983676Y666287D02*
D03*
Y661288D02*
D03*
X978674Y636287D02*
D03*
Y641288D02*
D03*
Y666287D02*
D03*
Y646287D02*
D03*
Y651288D02*
D03*
Y656287D02*
D03*
Y661288D02*
D03*
Y631286D02*
D03*
Y626287D02*
D03*
X973676Y636287D02*
D03*
Y646287D02*
D03*
Y651288D02*
D03*
Y666287D02*
D03*
Y661288D02*
D03*
Y656287D02*
D03*
Y641288D02*
D03*
Y631286D02*
D03*
X1018677Y606287D02*
D03*
X1013676Y611286D02*
D03*
Y606287D02*
D03*
X1008674Y611286D02*
D03*
Y606287D02*
D03*
X1003676Y611286D02*
D03*
Y606287D02*
D03*
X998674Y611286D02*
D03*
Y606287D02*
D03*
X993676Y611286D02*
D03*
Y606287D02*
D03*
X988674Y611286D02*
D03*
Y606287D02*
D03*
X983676Y611286D02*
D03*
Y606287D02*
D03*
X978674Y621286D02*
D03*
Y616287D02*
D03*
Y611286D02*
D03*
Y606287D02*
D03*
X973676Y626287D02*
D03*
Y621286D02*
D03*
Y616287D02*
D03*
Y611286D02*
D03*
Y606287D02*
D03*
D86*
X680643Y699016D02*
D03*
X532440Y569658D02*
D03*
D87*
X694893Y709016D02*
D03*
Y704016D02*
D03*
Y699016D02*
D03*
Y694016D02*
D03*
Y689016D02*
D03*
X666393Y709016D02*
D03*
Y704016D02*
D03*
Y699016D02*
D03*
Y694016D02*
D03*
Y689016D02*
D03*
X546690Y579658D02*
D03*
Y574658D02*
D03*
Y569658D02*
D03*
Y564658D02*
D03*
Y559658D02*
D03*
X518190Y579658D02*
D03*
Y574658D02*
D03*
Y569658D02*
D03*
Y564658D02*
D03*
Y559658D02*
D03*
D88*
X519693Y633441D02*
D03*
Y614441D02*
D03*
X544966D02*
D03*
Y623941D02*
D03*
Y633441D02*
D03*
D89*
X566140Y641281D02*
D03*
X561140D02*
D03*
X556140D02*
D03*
Y624281D02*
D03*
X561140D02*
D03*
X566140D02*
D03*
D90*
X709054Y550316D02*
D03*
X728054D02*
D03*
D91*
X918009Y555626D02*
D03*
X911509D02*
D03*
X918009Y564770D02*
D03*
X911509D02*
D03*
X918009Y573914D02*
D03*
X911509D02*
D03*
X918009Y583058D02*
D03*
X911509D02*
D03*
X918009Y546626D02*
D03*
X911509D02*
D03*
X867336Y550126D02*
D03*
X873836D02*
D03*
X867336Y559126D02*
D03*
X873836D02*
D03*
X1007930Y555626D02*
D03*
X1001430D02*
D03*
X1007930Y564770D02*
D03*
X1001430D02*
D03*
X1007930Y573914D02*
D03*
X1001430D02*
D03*
X1007925Y583058D02*
D03*
X1001425D02*
D03*
X963117Y551054D02*
D03*
X969617D02*
D03*
X963117Y560198D02*
D03*
X969617D02*
D03*
X963117Y569342D02*
D03*
X969617D02*
D03*
X963117Y578486D02*
D03*
X969617D02*
D03*
X1059233Y555626D02*
D03*
X1052733D02*
D03*
X1059233Y564770D02*
D03*
X1052733D02*
D03*
X1059233Y573914D02*
D03*
X1052733D02*
D03*
X1059233Y583058D02*
D03*
X1052733D02*
D03*
X1014430Y551054D02*
D03*
X1020930D02*
D03*
X1014430Y560198D02*
D03*
X1020930D02*
D03*
X1014430Y569342D02*
D03*
X1020930D02*
D03*
X1014430Y578486D02*
D03*
X1020930D02*
D03*
X1149149Y555626D02*
D03*
X1142649D02*
D03*
X1149149Y564770D02*
D03*
X1142649D02*
D03*
X1149149Y573914D02*
D03*
X1142649D02*
D03*
X1149149Y583058D02*
D03*
X1142649D02*
D03*
X1104341Y551054D02*
D03*
X1110841D02*
D03*
X1104341Y560198D02*
D03*
X1110841D02*
D03*
X1104341Y569342D02*
D03*
X1110841D02*
D03*
X1104341Y578486D02*
D03*
X1110841D02*
D03*
X918009Y687960D02*
D03*
X911509D02*
D03*
X918009Y697104D02*
D03*
X911509D02*
D03*
X918009Y706248D02*
D03*
X911509D02*
D03*
X918009Y715392D02*
D03*
X911509D02*
D03*
X918009Y678960D02*
D03*
X911509D02*
D03*
X871930Y706782D02*
D03*
X878430D02*
D03*
X871930Y715782D02*
D03*
X878430D02*
D03*
X871930Y724782D02*
D03*
X878430D02*
D03*
X1007925Y687960D02*
D03*
X1001425D02*
D03*
X1007925Y697104D02*
D03*
X1001425D02*
D03*
X1007925Y706248D02*
D03*
X1001425D02*
D03*
X1007925Y715392D02*
D03*
X1001425D02*
D03*
X963117Y683388D02*
D03*
X969617D02*
D03*
X963117Y692532D02*
D03*
X969617D02*
D03*
X963117Y701676D02*
D03*
X969617D02*
D03*
X963117Y710820D02*
D03*
X969617D02*
D03*
X1059233Y687960D02*
D03*
X1052733D02*
D03*
X1059233Y697104D02*
D03*
X1052733D02*
D03*
X1059233Y706248D02*
D03*
X1052733D02*
D03*
X1059233Y715392D02*
D03*
X1052733D02*
D03*
X1014425Y683388D02*
D03*
X1020925D02*
D03*
X1014425Y692532D02*
D03*
X1020925D02*
D03*
X1014425Y701676D02*
D03*
X1020925D02*
D03*
X1014425Y710820D02*
D03*
X1020925D02*
D03*
X1149149Y687960D02*
D03*
X1142649D02*
D03*
X1149149Y697104D02*
D03*
X1142649D02*
D03*
X1149149Y706248D02*
D03*
X1142649D02*
D03*
X1149149Y715248D02*
D03*
X1142649D02*
D03*
X1104341Y683388D02*
D03*
X1110841D02*
D03*
X1104341Y692532D02*
D03*
X1110841D02*
D03*
X1104341Y701676D02*
D03*
X1110841D02*
D03*
X1104341Y710820D02*
D03*
X1110841D02*
D03*
D92*
X875434Y533864D02*
D03*
Y540364D02*
D03*
M02*
