G04*
G04 #@! TF.GenerationSoftware,Altium Limited,Altium Designer,24.3.1 (35)*
G04*
G04 Layer_Color=65535*
%FSLAX44Y44*%
%MOMM*%
G71*
G04*
G04 #@! TF.SameCoordinates,35E8F126-3BB9-435E-BEC0-E910B6038B45*
G04*
G04*
G04 #@! TF.FilePolarity,Positive*
G04*
G01*
G75*
%ADD10C,0.2500*%
%ADD11C,0.6000*%
%ADD12C,0.1000*%
%ADD13C,0.2000*%
%ADD14C,0.2540*%
%ADD15C,0.1270*%
%ADD16C,0.2032*%
%ADD17C,0.1778*%
%ADD18C,0.1524*%
%ADD19R,1.0160X1.2700*%
G36*
X762320Y411160D02*
X755340Y404180D01*
X769300D01*
X762320Y411160D01*
D02*
G37*
G36*
X1048385Y419795D02*
X983615D01*
Y451425D01*
X1048385D01*
Y419795D01*
D02*
G37*
%LPC*%
G36*
X1033540Y445993D02*
X1027123D01*
Y425245D01*
X1031054D01*
Y431908D01*
X1033028D01*
X1033786Y431926D01*
X1034156Y431961D01*
X1034491Y431996D01*
X1034809Y432032D01*
X1035108Y432085D01*
X1035390Y432137D01*
X1035655Y432190D01*
X1035884Y432225D01*
X1036096Y432278D01*
X1036289Y432331D01*
X1036430Y432366D01*
X1036554Y432402D01*
X1036642Y432437D01*
X1036695Y432455D01*
X1036712D01*
X1037277Y432684D01*
X1037788Y432931D01*
X1038246Y433195D01*
X1038440Y433318D01*
X1038634Y433442D01*
X1038792Y433565D01*
X1038933Y433671D01*
X1039057Y433759D01*
X1039163Y433847D01*
X1039251Y433918D01*
X1039304Y433971D01*
X1039339Y433988D01*
X1039357Y434006D01*
X1039727Y434394D01*
X1040062Y434799D01*
X1040344Y435205D01*
X1040573Y435575D01*
X1040749Y435892D01*
X1040820Y436033D01*
X1040872Y436157D01*
X1040925Y436245D01*
X1040961Y436333D01*
X1040978Y436368D01*
Y436386D01*
X1041155Y436914D01*
X1041296Y437443D01*
X1041384Y437937D01*
X1041454Y438395D01*
X1041472Y438607D01*
X1041489Y438801D01*
X1041507Y438959D01*
X1041525Y439100D01*
Y439382D01*
X1041507Y439964D01*
X1041437Y440493D01*
X1041348Y440969D01*
X1041296Y441180D01*
X1041243Y441374D01*
X1041190Y441550D01*
X1041137Y441709D01*
X1041084Y441850D01*
X1041049Y441974D01*
X1041014Y442062D01*
X1040978Y442132D01*
X1040961Y442168D01*
Y442185D01*
X1040732Y442626D01*
X1040485Y443031D01*
X1040220Y443384D01*
X1039956Y443683D01*
X1039727Y443930D01*
X1039533Y444106D01*
X1039462Y444177D01*
X1039409Y444230D01*
X1039374Y444248D01*
X1039357Y444265D01*
X1038951Y444565D01*
X1038510Y444829D01*
X1038087Y445041D01*
X1037664Y445235D01*
X1037488Y445305D01*
X1037312Y445376D01*
X1037153Y445429D01*
X1037030Y445464D01*
X1036924Y445499D01*
X1036836Y445534D01*
X1036783Y445552D01*
X1036765D01*
X1036166Y445693D01*
X1035549Y445799D01*
X1034950Y445887D01*
X1034668Y445922D01*
X1034403Y445940D01*
X1034156Y445957D01*
X1033927Y445975D01*
X1033716D01*
X1033540Y445993D01*
D02*
G37*
G36*
X1005864D02*
X990475D01*
Y442732D01*
X996169D01*
Y425245D01*
X1000170D01*
Y442732D01*
X1005864D01*
Y445993D01*
D02*
G37*
G36*
X1016335Y446345D02*
X1016159D01*
X1015506Y446310D01*
X1014890Y446239D01*
X1014343Y446134D01*
X1014079Y446081D01*
X1013849Y446028D01*
X1013620Y445957D01*
X1013426Y445905D01*
X1013250Y445852D01*
X1013109Y445799D01*
X1013003Y445746D01*
X1012915Y445728D01*
X1012862Y445693D01*
X1012845D01*
X1012281Y445429D01*
X1011769Y445129D01*
X1011311Y444794D01*
X1011099Y444635D01*
X1010906Y444477D01*
X1010729Y444336D01*
X1010588Y444195D01*
X1010447Y444071D01*
X1010341Y443948D01*
X1010253Y443860D01*
X1010183Y443789D01*
X1010148Y443754D01*
X1010130Y443736D01*
X1009919Y443489D01*
X1009725Y443225D01*
X1009372Y442661D01*
X1009055Y442097D01*
X1008808Y441568D01*
X1008702Y441321D01*
X1008596Y441092D01*
X1008526Y440881D01*
X1008455Y440704D01*
X1008402Y440563D01*
X1008367Y440458D01*
X1008332Y440387D01*
Y440369D01*
X1008226Y439982D01*
X1008120Y439576D01*
X1007962Y438748D01*
X1007838Y437937D01*
X1007803Y437549D01*
X1007768Y437179D01*
X1007733Y436826D01*
X1007715Y436509D01*
X1007697Y436227D01*
Y435980D01*
X1007680Y435786D01*
Y435504D01*
X1007697Y434570D01*
X1007768Y433671D01*
X1007874Y432842D01*
X1007997Y432085D01*
X1008156Y431379D01*
X1008332Y430727D01*
X1008526Y430128D01*
X1008720Y429599D01*
X1008896Y429141D01*
X1009090Y428735D01*
X1009266Y428383D01*
X1009425Y428101D01*
X1009548Y427872D01*
X1009654Y427713D01*
X1009725Y427625D01*
X1009742Y427589D01*
X1010148Y427113D01*
X1010606Y426690D01*
X1011082Y426338D01*
X1011575Y426021D01*
X1012087Y425756D01*
X1012598Y425545D01*
X1013109Y425351D01*
X1013585Y425210D01*
X1014061Y425104D01*
X1014484Y425016D01*
X1014890Y424963D01*
X1015224Y424910D01*
X1015506Y424892D01*
X1015612D01*
X1015718Y424875D01*
X1015894D01*
X1016546Y424910D01*
X1017163Y424981D01*
X1017710Y425069D01*
X1017974Y425139D01*
X1018221Y425192D01*
X1018433Y425245D01*
X1018626Y425316D01*
X1018803Y425368D01*
X1018944Y425404D01*
X1019050Y425457D01*
X1019138Y425474D01*
X1019191Y425509D01*
X1019208D01*
X1019772Y425774D01*
X1020284Y426073D01*
X1020742Y426408D01*
X1020953Y426567D01*
X1021147Y426726D01*
X1021306Y426867D01*
X1021465Y427008D01*
X1021588Y427131D01*
X1021711Y427237D01*
X1021782Y427325D01*
X1021852Y427396D01*
X1021888Y427431D01*
X1021905Y427448D01*
X1022311Y427977D01*
X1022681Y428541D01*
X1022998Y429088D01*
X1023245Y429634D01*
X1023351Y429881D01*
X1023456Y430093D01*
X1023527Y430304D01*
X1023597Y430480D01*
X1023650Y430621D01*
X1023686Y430727D01*
X1023721Y430798D01*
Y430815D01*
X1023844Y431203D01*
X1023950Y431626D01*
X1024109Y432455D01*
X1024232Y433265D01*
X1024267Y433653D01*
X1024303Y434024D01*
X1024338Y434376D01*
X1024355Y434693D01*
X1024373Y434975D01*
Y435222D01*
X1024391Y435416D01*
Y435698D01*
X1024373Y436650D01*
X1024303Y437531D01*
X1024197Y438360D01*
X1024073Y439136D01*
X1023915Y439841D01*
X1023738Y440493D01*
X1023545Y441075D01*
X1023351Y441603D01*
X1023157Y442079D01*
X1022963Y442485D01*
X1022787Y442820D01*
X1022628Y443102D01*
X1022505Y443331D01*
X1022399Y443489D01*
X1022328Y443578D01*
X1022311Y443613D01*
X1021905Y444089D01*
X1021447Y444512D01*
X1020971Y444882D01*
X1020477Y445199D01*
X1019966Y445464D01*
X1019455Y445675D01*
X1018944Y445852D01*
X1018468Y446010D01*
X1017992Y446116D01*
X1017569Y446204D01*
X1017163Y446257D01*
X1016829Y446310D01*
X1016546Y446328D01*
X1016441D01*
X1016335Y446345D01*
D02*
G37*
%LPD*%
G36*
X1033504Y442732D02*
X1033874Y442714D01*
X1034192Y442661D01*
X1034474Y442626D01*
X1034703Y442573D01*
X1034879Y442520D01*
X1034985Y442502D01*
X1035003Y442485D01*
X1035020D01*
X1035320Y442379D01*
X1035567Y442273D01*
X1035796Y442150D01*
X1035990Y442026D01*
X1036148Y441921D01*
X1036272Y441833D01*
X1036342Y441780D01*
X1036360Y441762D01*
X1036554Y441568D01*
X1036712Y441374D01*
X1036853Y441180D01*
X1036977Y441004D01*
X1037065Y440845D01*
X1037118Y440722D01*
X1037153Y440634D01*
X1037171Y440599D01*
X1037259Y440334D01*
X1037329Y440087D01*
X1037365Y439823D01*
X1037400Y439594D01*
X1037418Y439400D01*
X1037435Y439241D01*
Y439136D01*
Y439118D01*
Y439100D01*
X1037418Y438765D01*
X1037400Y438466D01*
X1037347Y438184D01*
X1037294Y437937D01*
X1037241Y437743D01*
X1037206Y437584D01*
X1037171Y437496D01*
X1037153Y437461D01*
X1037030Y437197D01*
X1036906Y436967D01*
X1036765Y436756D01*
X1036642Y436562D01*
X1036518Y436421D01*
X1036413Y436297D01*
X1036342Y436227D01*
X1036325Y436209D01*
X1036113Y436033D01*
X1035902Y435874D01*
X1035672Y435733D01*
X1035479Y435628D01*
X1035302Y435540D01*
X1035144Y435469D01*
X1035055Y435434D01*
X1035038Y435416D01*
X1035020D01*
X1034721Y435328D01*
X1034421Y435257D01*
X1034103Y435222D01*
X1033839Y435187D01*
X1033592Y435169D01*
X1033398Y435152D01*
X1031054D01*
Y442749D01*
X1033099D01*
X1033504Y442732D01*
D02*
G37*
G36*
X1016441Y442802D02*
X1016829Y442749D01*
X1017181Y442661D01*
X1017498Y442538D01*
X1017780Y442397D01*
X1018062Y442238D01*
X1018292Y442079D01*
X1018503Y441921D01*
X1018697Y441744D01*
X1018856Y441586D01*
X1018979Y441427D01*
X1019085Y441286D01*
X1019173Y441180D01*
X1019226Y441075D01*
X1019261Y441022D01*
X1019279Y441004D01*
X1019455Y440652D01*
X1019614Y440246D01*
X1019737Y439823D01*
X1019843Y439382D01*
X1020019Y438466D01*
X1020090Y438007D01*
X1020143Y437567D01*
X1020178Y437161D01*
X1020213Y436773D01*
X1020231Y436421D01*
X1020248Y436104D01*
X1020266Y435857D01*
Y435663D01*
Y435592D01*
Y435540D01*
Y435522D01*
Y435504D01*
X1020248Y434887D01*
X1020231Y434306D01*
X1020195Y433794D01*
X1020160Y433548D01*
X1020143Y433336D01*
X1020125Y433142D01*
X1020090Y432966D01*
X1020072Y432825D01*
X1020054Y432684D01*
X1020037Y432596D01*
Y432508D01*
X1020019Y432472D01*
Y432455D01*
X1019913Y431979D01*
X1019790Y431556D01*
X1019667Y431168D01*
X1019543Y430850D01*
X1019437Y430586D01*
X1019385Y430480D01*
X1019349Y430392D01*
X1019314Y430322D01*
X1019279Y430269D01*
X1019261Y430251D01*
Y430234D01*
X1019067Y429916D01*
X1018856Y429634D01*
X1018626Y429405D01*
X1018433Y429211D01*
X1018239Y429053D01*
X1018098Y428947D01*
X1017992Y428876D01*
X1017974Y428859D01*
X1017957D01*
X1017639Y428700D01*
X1017322Y428594D01*
X1017005Y428506D01*
X1016705Y428453D01*
X1016441Y428418D01*
X1016317D01*
X1016229Y428400D01*
X1016035D01*
X1015630Y428418D01*
X1015242Y428471D01*
X1014907Y428559D01*
X1014572Y428682D01*
X1014290Y428823D01*
X1014026Y428964D01*
X1013779Y429141D01*
X1013567Y429299D01*
X1013391Y429476D01*
X1013232Y429634D01*
X1013091Y429775D01*
X1012986Y429916D01*
X1012897Y430040D01*
X1012845Y430128D01*
X1012809Y430181D01*
X1012792Y430198D01*
X1012616Y430569D01*
X1012475Y430956D01*
X1012334Y431379D01*
X1012228Y431820D01*
X1012051Y432737D01*
X1011981Y433195D01*
X1011928Y433636D01*
X1011893Y434041D01*
X1011858Y434429D01*
X1011840Y434781D01*
X1011822Y435099D01*
X1011805Y435346D01*
Y435540D01*
Y435610D01*
Y435663D01*
Y435681D01*
Y435698D01*
X1011822Y436315D01*
X1011840Y436897D01*
X1011875Y437408D01*
X1011893Y437637D01*
X1011928Y437849D01*
X1011946Y438043D01*
X1011963Y438219D01*
X1011981Y438377D01*
X1011999Y438501D01*
X1012016Y438589D01*
Y438677D01*
X1012034Y438713D01*
Y438730D01*
X1012140Y439206D01*
X1012263Y439647D01*
X1012386Y440034D01*
X1012510Y440352D01*
X1012616Y440616D01*
X1012668Y440722D01*
X1012704Y440810D01*
X1012739Y440881D01*
X1012774Y440933D01*
X1012792Y440951D01*
Y440969D01*
X1013003Y441286D01*
X1013215Y441568D01*
X1013426Y441797D01*
X1013638Y441991D01*
X1013814Y442150D01*
X1013973Y442256D01*
X1014061Y442326D01*
X1014096Y442344D01*
X1014414Y442502D01*
X1014731Y442626D01*
X1015066Y442696D01*
X1015365Y442767D01*
X1015630Y442802D01*
X1015753D01*
X1015841Y442820D01*
X1016035D01*
X1016441Y442802D01*
D02*
G37*
D10*
X648919Y611308D02*
G03*
X648919Y611308I-1250J0D01*
G01*
X713893Y673427D02*
G03*
X713893Y673427I-1250J0D01*
G01*
X648651Y720671D02*
G03*
X648651Y720671I-1250J0D01*
G01*
X577419Y599516D02*
G03*
X577419Y599516I-1250J0D01*
G01*
X577419Y562913D02*
G03*
X577419Y562913I-1250J0D01*
G01*
D11*
X638919Y591308D02*
G03*
X638919Y591308I-3000J0D01*
G01*
X727643Y692927D02*
G03*
X727643Y692927I-3000J0D01*
G01*
D12*
X564084Y705241D02*
G03*
X564084Y705241I-500J0D01*
G01*
X550648Y597783D02*
G03*
X550648Y597783I-500J0D01*
G01*
X646080Y701852D02*
G03*
X646080Y701852I-500J0D01*
G01*
X511040Y673100D02*
G03*
X511040Y673100I-500J0D01*
G01*
X518660Y655320D02*
G03*
X518660Y655320I-500J0D01*
G01*
X540250Y673100D02*
G03*
X540250Y673100I-500J0D01*
G01*
X532630Y655320D02*
G03*
X532630Y655320I-500J0D01*
G01*
X611407Y722283D02*
G03*
X611407Y722283I-500J0D01*
G01*
D13*
X618169Y509298D02*
G03*
X618169Y509298I-1000J0D01*
G01*
X652473D02*
G03*
X652473Y509298I-1000J0D01*
G01*
X684276Y556571D02*
G03*
X684276Y556571I-230J0D01*
G01*
X645919Y578308D02*
Y601308D01*
X614919Y578308D02*
X645919D01*
X614919Y601308D02*
X645919D01*
X614919Y578308D02*
Y601308D01*
X745643Y682927D02*
Y705927D01*
X714643D02*
X745643D01*
X714643Y682927D02*
X745643D01*
X714643D02*
Y705927D01*
X519710Y640043D02*
X530710D01*
X519710Y625043D02*
X530710D01*
X584419Y596266D02*
X592419D01*
X584419Y567266D02*
X592419D01*
X584419D02*
Y596266D01*
X592419Y567266D02*
Y596266D01*
X584419Y559663D02*
X592419D01*
X584419Y530663D02*
X592419D01*
X584419D02*
Y559663D01*
X592419Y530663D02*
Y559663D01*
X519710Y602233D02*
X530710D01*
X519710Y617233D02*
X530710D01*
D14*
X690946Y609604D02*
G03*
X690946Y609604I-470J0D01*
G01*
D15*
X655626Y676154D02*
X673023D01*
X688270Y721870D02*
X705673Y721870D01*
Y676154D02*
Y721870D01*
X688270Y676154D02*
X705673Y676154D01*
X655626Y676154D02*
Y721871D01*
X673023D01*
X507423Y546796D02*
X524820D01*
X540067Y592513D02*
X557470Y592513D01*
Y546796D02*
Y592513D01*
X540067Y546796D02*
X557470Y546796D01*
X507423Y546796D02*
Y592513D01*
X524820D01*
X408940Y637540D02*
X457200D01*
X495300D01*
Y665675D01*
X478188Y678180D02*
X495300Y665675D01*
X408940Y678180D02*
X478188D01*
X408940Y637540D02*
Y678180D01*
Y591820D02*
Y632460D01*
Y591820D02*
X476168D01*
X495300Y605801D01*
Y632460D01*
X457200D02*
X495300D01*
X408940D02*
X457200D01*
X1031240Y805180D02*
Y866140D01*
X1181100Y805180D02*
Y866140D01*
X482600Y805180D02*
X1181100D01*
X482600D02*
Y868680D01*
X1181100Y866024D01*
X878840Y575059D02*
X881802D01*
X880321D01*
Y583946D01*
X878840Y582465D01*
X909320Y558335D02*
X910801Y559816D01*
X913764D01*
X915245Y558335D01*
Y556854D01*
X913764Y555372D01*
X915245Y553891D01*
Y552410D01*
X913764Y550929D01*
X910801D01*
X909320Y552410D01*
Y553891D01*
X910801Y555372D01*
X909320Y556854D01*
Y558335D01*
X910801Y555372D02*
X913764D01*
X1109980Y575059D02*
X1112942D01*
X1111461D01*
Y583946D01*
X1109980Y582465D01*
X1140460Y558335D02*
X1141941Y559816D01*
X1144904D01*
X1146385Y558335D01*
Y556854D01*
X1144904Y555372D01*
X1146385Y553891D01*
Y552410D01*
X1144904Y550929D01*
X1141941D01*
X1140460Y552410D01*
Y553891D01*
X1141941Y555372D01*
X1140460Y556854D01*
Y558335D01*
X1141941Y555372D02*
X1144904D01*
X1020064Y575059D02*
X1023026D01*
X1021545D01*
Y583946D01*
X1020064Y582465D01*
X1050544Y558335D02*
X1052025Y559816D01*
X1054988D01*
X1056469Y558335D01*
Y556854D01*
X1054988Y555372D01*
X1056469Y553891D01*
Y552410D01*
X1054988Y550929D01*
X1052025D01*
X1050544Y552410D01*
Y553891D01*
X1052025Y555372D01*
X1050544Y556854D01*
Y558335D01*
X1052025Y555372D02*
X1054988D01*
X968756Y575059D02*
X971718D01*
X970237D01*
Y583946D01*
X968756Y582465D01*
X999236Y558335D02*
X1000717Y559816D01*
X1003680D01*
X1005161Y558335D01*
Y556854D01*
X1003680Y555372D01*
X1005161Y553891D01*
Y552410D01*
X1003680Y550929D01*
X1000717D01*
X999236Y552410D01*
Y553891D01*
X1000717Y555372D01*
X999236Y556854D01*
Y558335D01*
X1000717Y555372D02*
X1003680D01*
X1109980Y707393D02*
X1112942D01*
X1111461D01*
Y716280D01*
X1109980Y714799D01*
X1140460Y690669D02*
X1141941Y692150D01*
X1144904D01*
X1146385Y690669D01*
Y689188D01*
X1144904Y687706D01*
X1146385Y686225D01*
Y684744D01*
X1144904Y683263D01*
X1141941D01*
X1140460Y684744D01*
Y686225D01*
X1141941Y687706D01*
X1140460Y689188D01*
Y690669D01*
X1141941Y687706D02*
X1144904D01*
X1020064Y707393D02*
X1023026D01*
X1021545D01*
Y716280D01*
X1020064Y714799D01*
X1050544Y690669D02*
X1052025Y692150D01*
X1054988D01*
X1056469Y690669D01*
Y689188D01*
X1054988Y687706D01*
X1056469Y686225D01*
Y684744D01*
X1054988Y683263D01*
X1052025D01*
X1050544Y684744D01*
Y686225D01*
X1052025Y687706D01*
X1050544Y689188D01*
Y690669D01*
X1052025Y687706D02*
X1054988D01*
X968756Y707393D02*
X971718D01*
X970237D01*
Y716280D01*
X968756Y714799D01*
X999236Y690669D02*
X1000717Y692150D01*
X1003680D01*
X1005161Y690669D01*
Y689188D01*
X1003680Y687706D01*
X1005161Y686225D01*
Y684744D01*
X1003680Y683263D01*
X1000717D01*
X999236Y684744D01*
Y686225D01*
X1000717Y687706D01*
X999236Y689188D01*
Y690669D01*
X1000717Y687706D02*
X1003680D01*
X909320Y690669D02*
X910801Y692150D01*
X913764D01*
X915245Y690669D01*
Y689188D01*
X913764Y687706D01*
X915245Y686225D01*
Y684744D01*
X913764Y683263D01*
X910801D01*
X909320Y684744D01*
Y686225D01*
X910801Y687706D01*
X909320Y689188D01*
Y690669D01*
X910801Y687706D02*
X913764D01*
X878840Y707393D02*
X881802D01*
X880321D01*
Y716280D01*
X878840Y714799D01*
X566328Y447955D02*
Y456842D01*
X570771D01*
X572253Y455361D01*
Y452398D01*
X570771Y450917D01*
X566328D01*
X569290D02*
X572253Y447955D01*
X575215Y455361D02*
X576696Y456842D01*
X579658D01*
X581140Y455361D01*
Y453880D01*
X579658Y452398D01*
X578177D01*
X579658D01*
X581140Y450917D01*
Y449436D01*
X579658Y447955D01*
X576696D01*
X575215Y449436D01*
X584102Y456842D02*
X590027D01*
Y455361D01*
X584102Y449436D01*
Y447955D01*
X646331Y630914D02*
Y638532D01*
X650140D01*
X651410Y637262D01*
Y634723D01*
X650140Y633453D01*
X646331D01*
X648870D02*
X651410Y630914D01*
X659027D02*
X653949D01*
X659027Y635993D01*
Y637262D01*
X657757Y638532D01*
X655218D01*
X653949Y637262D01*
X665375Y630914D02*
Y638532D01*
X661566Y634723D01*
X666645D01*
X458804Y626744D02*
X464728D01*
X461766D01*
Y617856D01*
X467691D02*
Y626744D01*
X472134D01*
X473615Y625262D01*
Y622300D01*
X472134Y620819D01*
X467691D01*
X476578Y625262D02*
X478059Y626744D01*
X481021D01*
X482503Y625262D01*
Y623781D01*
X481021Y622300D01*
X479540D01*
X481021D01*
X482503Y620819D01*
Y619338D01*
X481021Y617856D01*
X478059D01*
X476578Y619338D01*
X485465Y626744D02*
X491390D01*
Y625262D01*
X485465Y619338D01*
Y617856D01*
X458170Y652144D02*
X464095D01*
X461133D01*
Y643256D01*
X467057D02*
Y652144D01*
X471501D01*
X472982Y650662D01*
Y647700D01*
X471501Y646219D01*
X467057D01*
X475945Y650662D02*
X477426Y652144D01*
X480388D01*
X481869Y650662D01*
Y649181D01*
X480388Y647700D01*
X478907D01*
X480388D01*
X481869Y646219D01*
Y644738D01*
X480388Y643256D01*
X477426D01*
X475945Y644738D01*
X490756Y652144D02*
X487794Y650662D01*
X484832Y647700D01*
Y644738D01*
X486313Y643256D01*
X489275D01*
X490756Y644738D01*
Y646219D01*
X489275Y647700D01*
X484832D01*
X500169Y436244D02*
X497206D01*
X498688D01*
Y428838D01*
X497206Y427356D01*
X495725D01*
X494244Y428838D01*
X509056Y427356D02*
X503131D01*
X509056Y433281D01*
Y434762D01*
X507575Y436244D01*
X504612D01*
X503131Y434762D01*
X742952Y442596D02*
X739990D01*
X741471D01*
Y435190D01*
X739990Y433709D01*
X738509D01*
X737028Y435190D01*
X745915Y433709D02*
X748877D01*
X747396D01*
Y442596D01*
X745915Y441115D01*
X592034Y523874D02*
Y514986D01*
X596478D01*
X597959Y516468D01*
Y522392D01*
X596478Y523874D01*
X592034D01*
X606846Y514986D02*
X600921D01*
X606846Y520911D01*
Y522392D01*
X605365Y523874D01*
X602402D01*
X600921Y522392D01*
X706337Y514984D02*
X712262D01*
X709299D01*
Y506096D01*
X715224D02*
Y514984D01*
X719668D01*
X721149Y513502D01*
Y510540D01*
X719668Y509059D01*
X715224D01*
X724111Y513502D02*
X725592Y514984D01*
X728555D01*
X730036Y513502D01*
Y512021D01*
X728555Y510540D01*
X727074D01*
X728555D01*
X730036Y509059D01*
Y507578D01*
X728555Y506096D01*
X725592D01*
X724111Y507578D01*
X737442Y506096D02*
Y514984D01*
X732998Y510540D01*
X738923D01*
X661887Y525144D02*
X667812D01*
X664849D01*
Y516256D01*
X670774D02*
Y525144D01*
X675218D01*
X676699Y523662D01*
Y520700D01*
X675218Y519219D01*
X670774D01*
X679661Y523662D02*
X681142Y525144D01*
X684105D01*
X685586Y523662D01*
Y522181D01*
X684105Y520700D01*
X682624D01*
X684105D01*
X685586Y519219D01*
Y517738D01*
X684105Y516256D01*
X681142D01*
X679661Y517738D01*
X688548Y523662D02*
X690030Y525144D01*
X692992D01*
X694473Y523662D01*
Y522181D01*
X692992Y520700D01*
X691511D01*
X692992D01*
X694473Y519219D01*
Y517738D01*
X692992Y516256D01*
X690030D01*
X688548Y517738D01*
X546317Y514984D02*
X552242D01*
X549279D01*
Y506096D01*
X555204D02*
Y514984D01*
X559648D01*
X561129Y513502D01*
Y510540D01*
X559648Y509059D01*
X555204D01*
X564091Y513502D02*
X565572Y514984D01*
X568535D01*
X570016Y513502D01*
Y512021D01*
X568535Y510540D01*
X567054D01*
X568535D01*
X570016Y509059D01*
Y507578D01*
X568535Y506096D01*
X565572D01*
X564091Y507578D01*
X578903Y506096D02*
X572978D01*
X578903Y512021D01*
Y513502D01*
X577422Y514984D01*
X574459D01*
X572978Y513502D01*
X671198Y614681D02*
Y622299D01*
X675007D01*
X676276Y621029D01*
Y618490D01*
X675007Y617220D01*
X671198D01*
X673737D02*
X676276Y614681D01*
X678816D02*
X681355D01*
X680085D01*
Y622299D01*
X678816Y621029D01*
X690242Y622299D02*
X685164D01*
Y618490D01*
X687703Y619760D01*
X688972D01*
X690242Y618490D01*
Y615951D01*
X688972Y614681D01*
X686433D01*
X685164Y615951D01*
X695328Y626111D02*
Y633729D01*
X699137D01*
X700406Y632459D01*
Y629920D01*
X699137Y628650D01*
X695328D01*
X697867D02*
X700406Y626111D01*
X702946D02*
X705485D01*
X704215D01*
Y633729D01*
X702946Y632459D01*
X714372Y626111D02*
X709294D01*
X714372Y631190D01*
Y632459D01*
X713102Y633729D01*
X710563D01*
X709294Y632459D01*
X764861Y681356D02*
Y690244D01*
X769305D01*
X770786Y688762D01*
Y685800D01*
X769305Y684319D01*
X764861D01*
X767823D02*
X770786Y681356D01*
X773748D02*
X776711D01*
X775229D01*
Y690244D01*
X773748Y688762D01*
X781154D02*
X782635Y690244D01*
X785598D01*
X787079Y688762D01*
Y682838D01*
X785598Y681356D01*
X782635D01*
X781154Y682838D01*
Y688762D01*
X771211Y560704D02*
Y553298D01*
X772692Y551816D01*
X775655D01*
X777136Y553298D01*
Y560704D01*
X780098Y551816D02*
X783061D01*
X781579D01*
Y560704D01*
X780098Y559222D01*
X787504Y560704D02*
X793429D01*
Y559222D01*
X787504Y553298D01*
Y551816D01*
X772796Y603571D02*
X780202D01*
X781684Y605052D01*
Y608015D01*
X780202Y609496D01*
X772796D01*
X781684Y612458D02*
Y615421D01*
Y613939D01*
X772796D01*
X774278Y612458D01*
X772796Y625789D02*
X774278Y622826D01*
X777240Y619864D01*
X780202D01*
X781684Y621345D01*
Y624308D01*
X780202Y625789D01*
X778721D01*
X777240Y624308D01*
Y619864D01*
X752476Y686225D02*
Y680301D01*
X756920D01*
Y683263D01*
Y680301D01*
X761364D01*
X752476Y689188D02*
X761364D01*
Y693631D01*
X759882Y695112D01*
X758401D01*
X756920Y693631D01*
Y689188D01*
Y693631D01*
X755439Y695112D01*
X753958D01*
X752476Y693631D01*
Y689188D01*
Y703999D02*
Y698075D01*
X756920D01*
X755439Y701037D01*
Y702518D01*
X756920Y703999D01*
X759882D01*
X761364Y702518D01*
Y699556D01*
X759882Y698075D01*
X664638Y672464D02*
Y663576D01*
X670563D01*
X679450D02*
X673525D01*
X679450Y669501D01*
Y670982D01*
X677969Y672464D01*
X675006D01*
X673525Y670982D01*
X682412D02*
X683894Y672464D01*
X686856D01*
X688337Y670982D01*
Y665058D01*
X686856Y663576D01*
X683894D01*
X682412Y665058D01*
Y670982D01*
X691300Y663576D02*
X694262D01*
X692781D01*
Y672464D01*
X691300Y670982D01*
X510439Y542924D02*
Y534036D01*
X516363D01*
X519326D02*
X522288D01*
X520807D01*
Y542924D01*
X519326Y541442D01*
X526732D02*
X528213Y542924D01*
X531175D01*
X532657Y541442D01*
Y535518D01*
X531175Y534036D01*
X528213D01*
X526732Y535518D01*
Y541442D01*
X535619Y534036D02*
X538581D01*
X537100D01*
Y542924D01*
X535619Y541442D01*
X644208Y675961D02*
X651613D01*
X653095Y677442D01*
Y680405D01*
X651613Y681886D01*
X644208D01*
X653095Y684848D02*
Y687811D01*
Y686329D01*
X644208D01*
X645689Y684848D01*
Y692254D02*
X644208Y693735D01*
Y696698D01*
X645689Y698179D01*
X647170D01*
X648651Y696698D01*
Y695217D01*
Y696698D01*
X650132Y698179D01*
X651613D01*
X653095Y696698D01*
Y693735D01*
X651613Y692254D01*
X652068Y619264D02*
Y612916D01*
X653338Y611647D01*
X655877D01*
X657146Y612916D01*
Y619264D01*
X659686Y611647D02*
X662225D01*
X660955D01*
Y619264D01*
X659686Y617994D01*
X666033Y611647D02*
X668573D01*
X667303D01*
Y619264D01*
X666033Y617994D01*
X587061Y655954D02*
Y648548D01*
X588542Y647066D01*
X591505D01*
X592986Y648548D01*
Y655954D01*
X595948Y647066D02*
X598911D01*
X597429D01*
Y655954D01*
X595948Y654472D01*
X603354D02*
X604835Y655954D01*
X607798D01*
X609279Y654472D01*
Y648548D01*
X607798Y647066D01*
X604835D01*
X603354Y648548D01*
Y654472D01*
X713954Y663574D02*
Y656168D01*
X715435Y654686D01*
X718398D01*
X719879Y656168D01*
Y663574D01*
X722841Y662092D02*
X724322Y663574D01*
X727285D01*
X728766Y662092D01*
Y660611D01*
X727285Y659130D01*
X728766Y657649D01*
Y656168D01*
X727285Y654686D01*
X724322D01*
X722841Y656168D01*
Y657649D01*
X724322Y659130D01*
X722841Y660611D01*
Y662092D01*
X724322Y659130D02*
X727285D01*
X589494Y608964D02*
Y601558D01*
X590975Y600076D01*
X593938D01*
X595419Y601558D01*
Y608964D01*
X604306D02*
X601344Y607482D01*
X598381Y604520D01*
Y601558D01*
X599862Y600076D01*
X602825D01*
X604306Y601558D01*
Y603039D01*
X602825Y604520D01*
X598381D01*
X647702Y560069D02*
Y553721D01*
X648972Y552451D01*
X651511D01*
X652780Y553721D01*
Y560069D01*
X660398D02*
X655320D01*
Y556260D01*
X657859Y557530D01*
X659128D01*
X660398Y556260D01*
Y553721D01*
X659128Y552451D01*
X656589D01*
X655320Y553721D01*
X559436Y548854D02*
X566842D01*
X568324Y550335D01*
Y553298D01*
X566842Y554779D01*
X559436D01*
X560918Y557741D02*
X559436Y559222D01*
Y562185D01*
X560918Y563666D01*
X562399D01*
X563880Y562185D01*
Y560704D01*
Y562185D01*
X565361Y563666D01*
X566842D01*
X568324Y562185D01*
Y559222D01*
X566842Y557741D01*
X570655Y614044D02*
Y606638D01*
X572136Y605156D01*
X575099D01*
X576580Y606638D01*
Y614044D01*
X579542Y605156D02*
X582505D01*
X581024D01*
Y614044D01*
X579542Y612562D01*
X539118Y698501D02*
Y706119D01*
X542927D01*
X544196Y704849D01*
Y702310D01*
X542927Y701040D01*
X539118D01*
X541657D02*
X544196Y698501D01*
X546736D02*
X549275D01*
X548005D01*
Y706119D01*
X546736Y704849D01*
X553084D02*
X554353Y706119D01*
X556892D01*
X558162Y704849D01*
Y703580D01*
X556892Y702310D01*
X555623D01*
X556892D01*
X558162Y701040D01*
Y699771D01*
X556892Y698501D01*
X554353D01*
X553084Y699771D01*
X551394Y520066D02*
Y528954D01*
X555838D01*
X557319Y527472D01*
Y524510D01*
X555838Y523029D01*
X551394D01*
X554356D02*
X557319Y520066D01*
X560281Y521548D02*
X561762Y520066D01*
X564725D01*
X566206Y521548D01*
Y527472D01*
X564725Y528954D01*
X561762D01*
X560281Y527472D01*
Y525991D01*
X561762Y524510D01*
X566206D01*
X720092Y626111D02*
Y633729D01*
X723901D01*
X725170Y632459D01*
Y629920D01*
X723901Y628650D01*
X720092D01*
X722631D02*
X725170Y626111D01*
X732788D02*
X727710D01*
X732788Y631190D01*
Y632459D01*
X731518Y633729D01*
X728979D01*
X727710Y632459D01*
X551605Y647066D02*
Y655954D01*
X556049D01*
X557530Y654472D01*
Y651510D01*
X556049Y650029D01*
X551605D01*
X554568D02*
X557530Y647066D01*
X560492D02*
X563455D01*
X561974D01*
Y655954D01*
X560492Y654472D01*
X547584Y720724D02*
Y711836D01*
X552028D01*
X553509Y713318D01*
Y719242D01*
X552028Y720724D01*
X547584D01*
X556471Y713318D02*
X557952Y711836D01*
X560915D01*
X562396Y713318D01*
Y719242D01*
X560915Y720724D01*
X557952D01*
X556471Y719242D01*
Y717761D01*
X557952Y716280D01*
X562396D01*
X593938Y620185D02*
X592456Y618704D01*
Y615742D01*
X593938Y614260D01*
X599862D01*
X601343Y615742D01*
Y618704D01*
X599862Y620185D01*
X601343Y629072D02*
Y623148D01*
X595419Y629072D01*
X593938D01*
X592456Y627591D01*
Y624629D01*
X593938Y623148D01*
Y632035D02*
X592456Y633516D01*
Y636478D01*
X593938Y637960D01*
X595419D01*
X596900Y636478D01*
Y634997D01*
Y636478D01*
X598381Y637960D01*
X599862D01*
X601343Y636478D01*
Y633516D01*
X599862Y632035D01*
X593938Y670985D02*
X592456Y669504D01*
Y666542D01*
X593938Y665061D01*
X599862D01*
X601343Y666542D01*
Y669504D01*
X599862Y670985D01*
X601343Y679872D02*
Y673948D01*
X595419Y679872D01*
X593938D01*
X592456Y678391D01*
Y675429D01*
X593938Y673948D01*
X601343Y688760D02*
Y682835D01*
X595419Y688760D01*
X593938D01*
X592456Y687278D01*
Y684316D01*
X593938Y682835D01*
X541021Y681356D02*
X539751Y680087D01*
Y677548D01*
X541021Y676278D01*
X546099D01*
X547369Y677548D01*
Y680087D01*
X546099Y681356D01*
X547369Y683896D02*
Y686435D01*
Y685165D01*
X539751D01*
X541021Y683896D01*
X539751Y690244D02*
Y695322D01*
X541021D01*
X546099Y690244D01*
X547369D01*
X551816Y634999D02*
X550547Y636269D01*
X548008D01*
X546738Y634999D01*
Y629921D01*
X548008Y628651D01*
X550547D01*
X551816Y629921D01*
X554356Y628651D02*
X556895D01*
X555625D01*
Y636269D01*
X554356Y634999D01*
X560704D02*
X561973Y636269D01*
X564512D01*
X565782Y634999D01*
Y629921D01*
X564512Y628651D01*
X561973D01*
X560704Y629921D01*
Y634999D01*
X504191Y684530D02*
X502921Y683261D01*
Y680722D01*
X504191Y679452D01*
X509269D01*
X510539Y680722D01*
Y683261D01*
X509269Y684530D01*
X502921Y687070D02*
Y692148D01*
X504191D01*
X509269Y687070D01*
X510539D01*
D16*
X504949Y828548D02*
X499870Y826009D01*
X494792Y820930D01*
Y815852D01*
X497331Y813313D01*
X502410D01*
X504949Y815852D01*
Y818391D01*
X502410Y820930D01*
X494792D01*
X517645Y813313D02*
Y828548D01*
X510027Y820930D01*
X520184D01*
X550654Y826009D02*
X548115Y828548D01*
X543036D01*
X540497Y826009D01*
Y815852D01*
X543036Y813313D01*
X548115D01*
X550654Y815852D01*
X555732Y828548D02*
Y813313D01*
Y820930D01*
X565889D01*
Y828548D01*
Y813313D01*
X570967D02*
Y823470D01*
X576046Y828548D01*
X581124Y823470D01*
Y813313D01*
Y820930D01*
X570967D01*
X586202Y813313D02*
Y828548D01*
X596359Y813313D01*
Y828548D01*
X601437Y813313D02*
Y828548D01*
X611594Y813313D01*
Y828548D01*
X626829D02*
X616673D01*
Y813313D01*
X626829D01*
X616673Y820930D02*
X621751D01*
X631908Y828548D02*
Y813313D01*
X642064D01*
X662378Y828548D02*
Y813313D01*
X669995D01*
X672534Y815852D01*
Y818391D01*
X669995Y820930D01*
X662378D01*
X669995D01*
X672534Y823470D01*
Y826009D01*
X669995Y828548D01*
X662378D01*
X677613D02*
X682691D01*
X680152D01*
Y813313D01*
X677613D01*
X682691D01*
X697926Y828548D02*
X692848D01*
X690309Y826009D01*
Y815852D01*
X692848Y813313D01*
X697926D01*
X700465Y815852D01*
Y826009D01*
X697926Y828548D01*
X705544Y813313D02*
Y828548D01*
X713161D01*
X715701Y826009D01*
Y820930D01*
X713161Y818391D01*
X705544D01*
X728396Y828548D02*
X723318D01*
X720779Y826009D01*
Y815852D01*
X723318Y813313D01*
X728396D01*
X730936Y815852D01*
Y826009D01*
X728396Y828548D01*
X736014D02*
X746171D01*
X741092D01*
Y813313D01*
X761406Y828548D02*
X751249D01*
Y813313D01*
X761406D01*
X751249Y820930D02*
X756327D01*
X766484Y813313D02*
Y828548D01*
X776641Y813313D01*
Y828548D01*
X781719D02*
X791876D01*
X786797D01*
Y813313D01*
X796954Y828548D02*
X802033D01*
X799493D01*
Y813313D01*
X796954D01*
X802033D01*
X809650D02*
Y823470D01*
X814728Y828548D01*
X819807Y823470D01*
Y813313D01*
Y820930D01*
X809650D01*
X824885Y828548D02*
Y813313D01*
X835042D01*
X855355D02*
Y828548D01*
X865512Y813313D01*
Y828548D01*
X870590Y813313D02*
Y828548D01*
X880747Y813313D01*
Y828548D01*
X885826Y813313D02*
Y828548D01*
X893443D01*
X895982Y826009D01*
Y820930D01*
X893443Y818391D01*
X885826D01*
X916296Y813313D02*
Y828548D01*
X921374Y823470D01*
X926452Y828548D01*
Y813313D01*
X939148Y828548D02*
X934070D01*
X931531Y826009D01*
Y815852D01*
X934070Y813313D01*
X939148D01*
X941687Y815852D01*
Y826009D01*
X939148Y828548D01*
X946766D02*
Y813313D01*
X954383D01*
X956923Y815852D01*
Y826009D01*
X954383Y828548D01*
X946766D01*
X962001D02*
Y815852D01*
X964540Y813313D01*
X969618D01*
X972158Y815852D01*
Y828548D01*
X977236D02*
Y813313D01*
X987393D01*
X1002628Y828548D02*
X992471D01*
Y813313D01*
X1002628D01*
X992471Y820930D02*
X997549D01*
X494792Y861568D02*
Y848872D01*
X497331Y846333D01*
X502410D01*
X504949Y848872D01*
Y861568D01*
X510027Y846333D02*
Y861568D01*
X520184Y846333D01*
Y861568D01*
X525262D02*
X530340D01*
X527801D01*
Y846333D01*
X525262D01*
X530340D01*
X537958Y861568D02*
Y851411D01*
X543036Y846333D01*
X548115Y851411D01*
Y861568D01*
X563350D02*
X553193D01*
Y846333D01*
X563350D01*
X553193Y853951D02*
X558271D01*
X568428Y846333D02*
Y861568D01*
X576046D01*
X578585Y859029D01*
Y853951D01*
X576046Y851411D01*
X568428D01*
X573507D02*
X578585Y846333D01*
X593820Y859029D02*
X591281Y861568D01*
X586202D01*
X583663Y859029D01*
Y856490D01*
X586202Y853951D01*
X591281D01*
X593820Y851411D01*
Y848872D01*
X591281Y846333D01*
X586202D01*
X583663Y848872D01*
X598898Y861568D02*
X603977D01*
X601437D01*
Y846333D01*
X598898D01*
X603977D01*
X611594Y861568D02*
X621751D01*
X616673D01*
Y846333D01*
X626829Y861568D02*
Y859029D01*
X631908Y853951D01*
X636986Y859029D01*
Y861568D01*
X631908Y853951D02*
Y846333D01*
X664917Y861568D02*
X659839D01*
X657299Y859029D01*
Y848872D01*
X659839Y846333D01*
X664917D01*
X667456Y848872D01*
Y859029D01*
X664917Y861568D01*
X682691D02*
X672534D01*
Y853951D01*
X677613D01*
X672534D01*
Y846333D01*
X703005D02*
Y861568D01*
X708083Y856490D01*
X713161Y861568D01*
Y846333D01*
X718240Y861568D02*
X723318D01*
X720779D01*
Y846333D01*
X718240D01*
X723318D01*
X741092Y859029D02*
X738553Y861568D01*
X733475D01*
X730936Y859029D01*
Y848872D01*
X733475Y846333D01*
X738553D01*
X741092Y848872D01*
X746171Y861568D02*
Y846333D01*
Y853951D01*
X756327D01*
Y861568D01*
Y846333D01*
X761406Y861568D02*
X766484D01*
X763945D01*
Y846333D01*
X761406D01*
X766484D01*
X784258Y859029D02*
X781719Y861568D01*
X776641D01*
X774102Y859029D01*
Y848872D01*
X776641Y846333D01*
X781719D01*
X784258Y848872D01*
Y853951D01*
X779180D01*
X789337Y846333D02*
Y856490D01*
X794415Y861568D01*
X799493Y856490D01*
Y846333D01*
Y853951D01*
X789337D01*
X804572Y846333D02*
Y861568D01*
X814728Y846333D01*
Y861568D01*
X1053589Y859029D02*
X1051049Y861568D01*
X1045971D01*
X1043432Y859029D01*
Y856490D01*
X1045971Y853951D01*
X1051049D01*
X1053589Y851411D01*
Y848872D01*
X1051049Y846333D01*
X1045971D01*
X1043432Y848872D01*
X1058667Y846333D02*
X1068824Y856490D01*
X1073902Y846333D02*
Y861568D01*
X1084059Y846333D01*
Y861568D01*
X1089137Y856490D02*
X1091676D01*
Y853951D01*
X1089137D01*
Y856490D01*
Y848872D02*
X1091676D01*
Y846333D01*
X1089137D01*
Y848872D01*
D17*
X627379Y410550D02*
X617222D01*
X622300Y405471D01*
Y412243D01*
X576579Y412242D02*
Y405471D01*
X569808Y412242D01*
X568115D01*
X566422Y410549D01*
Y407164D01*
X568115Y405471D01*
X551179Y408857D02*
Y412242D01*
Y410549D01*
X541022D01*
X542715Y408857D01*
X593515Y405471D02*
X591822Y407164D01*
Y410550D01*
X593515Y412242D01*
X595208D01*
X596900Y410550D01*
Y408857D01*
Y410550D01*
X598593Y412242D01*
X600286D01*
X601979Y410550D01*
Y407164D01*
X600286Y405471D01*
X642622Y412243D02*
Y405471D01*
X647700D01*
X646008Y408857D01*
Y410550D01*
X647700Y412243D01*
X651086D01*
X652779Y410550D01*
Y407164D01*
X651086Y405471D01*
X668022Y412243D02*
X669715Y408857D01*
X673100Y405471D01*
X676486D01*
X678179Y407164D01*
Y410550D01*
X676486Y412243D01*
X674793D01*
X673100Y410550D01*
Y405471D01*
X693422D02*
Y412243D01*
X695115D01*
X701886Y405471D01*
X703579D01*
X880615Y543052D02*
X872998D01*
Y537339D01*
X876807D01*
X872998D01*
Y531626D01*
X884424Y543052D02*
X892042D01*
X888233D01*
Y531626D01*
X895851Y541148D02*
X897755Y543052D01*
X901564D01*
X903468Y541148D01*
Y539243D01*
X901564Y537339D01*
X903468Y535434D01*
Y533530D01*
X901564Y531626D01*
X897755D01*
X895851Y533530D01*
Y535434D01*
X897755Y537339D01*
X895851Y539243D01*
Y541148D01*
X897755Y537339D02*
X901564D01*
X907277Y541148D02*
X909181Y543052D01*
X912990D01*
X914894Y541148D01*
Y539243D01*
X912990Y537339D01*
X914894Y535434D01*
Y533530D01*
X912990Y531626D01*
X909181D01*
X907277Y533530D01*
Y535434D01*
X909181Y537339D01*
X907277Y539243D01*
Y541148D01*
X909181Y537339D02*
X912990D01*
X918703Y541148D02*
X920608Y543052D01*
X924416D01*
X926321Y541148D01*
Y533530D01*
X924416Y531626D01*
X920608D01*
X918703Y533530D01*
Y541148D01*
X956815Y543052D02*
X949198D01*
Y537339D01*
X953007D01*
X949198D01*
Y531626D01*
X960624Y543052D02*
X968242D01*
X964433D01*
Y531626D01*
X972051Y541148D02*
X973955Y543052D01*
X977764D01*
X979668Y541148D01*
Y539243D01*
X977764Y537339D01*
X979668Y535434D01*
Y533530D01*
X977764Y531626D01*
X973955D01*
X972051Y533530D01*
Y535434D01*
X973955Y537339D01*
X972051Y539243D01*
Y541148D01*
X973955Y537339D02*
X977764D01*
X983477Y543052D02*
X991095D01*
Y541148D01*
X983477Y533530D01*
Y531626D01*
X994903Y541148D02*
X996808Y543052D01*
X1000616D01*
X1002521Y541148D01*
Y533530D01*
X1000616Y531626D01*
X996808D01*
X994903Y533530D01*
Y541148D01*
X1026665Y543052D02*
X1019048D01*
Y537339D01*
X1022857D01*
X1019048D01*
Y531626D01*
X1030474Y543052D02*
X1038092D01*
X1034283D01*
Y531626D01*
X1041901Y541148D02*
X1043805Y543052D01*
X1047614D01*
X1049518Y541148D01*
Y539243D01*
X1047614Y537339D01*
X1049518Y535434D01*
Y533530D01*
X1047614Y531626D01*
X1043805D01*
X1041901Y533530D01*
Y535434D01*
X1043805Y537339D01*
X1041901Y539243D01*
Y541148D01*
X1043805Y537339D02*
X1047614D01*
X1060945Y543052D02*
X1057136Y541148D01*
X1053327Y537339D01*
Y533530D01*
X1055231Y531626D01*
X1059040D01*
X1060945Y533530D01*
Y535434D01*
X1059040Y537339D01*
X1053327D01*
X1064753Y541148D02*
X1066658Y543052D01*
X1070466D01*
X1072371Y541148D01*
Y533530D01*
X1070466Y531626D01*
X1066658D01*
X1064753Y533530D01*
Y541148D01*
X1103588Y543052D02*
X1095970D01*
Y537339D01*
X1099779D01*
X1095970D01*
Y531626D01*
X1107396Y543052D02*
X1115014D01*
X1111205D01*
Y531626D01*
X1118823Y541148D02*
X1120727Y543052D01*
X1124536D01*
X1126440Y541148D01*
Y539243D01*
X1124536Y537339D01*
X1126440Y535434D01*
Y533530D01*
X1124536Y531626D01*
X1120727D01*
X1118823Y533530D01*
Y535434D01*
X1120727Y537339D01*
X1118823Y539243D01*
Y541148D01*
X1120727Y537339D02*
X1124536D01*
X1137867Y543052D02*
X1130249D01*
Y537339D01*
X1134058Y539243D01*
X1135962D01*
X1137867Y537339D01*
Y533530D01*
X1135962Y531626D01*
X1132153D01*
X1130249Y533530D01*
X1141675Y541148D02*
X1143580Y543052D01*
X1147389D01*
X1149293Y541148D01*
Y533530D01*
X1147389Y531626D01*
X1143580D01*
X1141675Y533530D01*
Y541148D01*
X1104136Y733552D02*
X1096518D01*
Y727839D01*
X1100327D01*
X1096518D01*
Y722126D01*
X1107944Y733552D02*
X1115562D01*
X1111753D01*
Y722126D01*
X1119371Y731648D02*
X1121275Y733552D01*
X1125084D01*
X1126988Y731648D01*
Y729743D01*
X1125084Y727839D01*
X1126988Y725935D01*
Y724030D01*
X1125084Y722126D01*
X1121275D01*
X1119371Y724030D01*
Y725935D01*
X1121275Y727839D01*
X1119371Y729743D01*
Y731648D01*
X1121275Y727839D02*
X1125084D01*
X1130797Y722126D02*
X1134606D01*
X1132701D01*
Y733552D01*
X1130797Y731648D01*
X1140319D02*
X1142223Y733552D01*
X1146032D01*
X1147936Y731648D01*
Y724030D01*
X1146032Y722126D01*
X1142223D01*
X1140319Y724030D01*
Y731648D01*
X1024126Y733552D02*
X1016508D01*
Y727839D01*
X1020317D01*
X1016508D01*
Y722126D01*
X1027934Y733552D02*
X1035552D01*
X1031743D01*
Y722126D01*
X1039361Y731648D02*
X1041265Y733552D01*
X1045074D01*
X1046978Y731648D01*
Y729743D01*
X1045074Y727839D01*
X1046978Y725935D01*
Y724030D01*
X1045074Y722126D01*
X1041265D01*
X1039361Y724030D01*
Y725935D01*
X1041265Y727839D01*
X1039361Y729743D01*
Y731648D01*
X1041265Y727839D02*
X1045074D01*
X1058404Y722126D02*
X1050787D01*
X1058404Y729743D01*
Y731648D01*
X1056500Y733552D01*
X1052691D01*
X1050787Y731648D01*
X1062213D02*
X1064118Y733552D01*
X1067926D01*
X1069831Y731648D01*
Y724030D01*
X1067926Y722126D01*
X1064118D01*
X1062213Y724030D01*
Y731648D01*
X954276Y733552D02*
X946658D01*
Y727839D01*
X950467D01*
X946658D01*
Y722126D01*
X958084Y733552D02*
X965702D01*
X961893D01*
Y722126D01*
X969511Y731648D02*
X971415Y733552D01*
X975224D01*
X977128Y731648D01*
Y729743D01*
X975224Y727839D01*
X977128Y725935D01*
Y724030D01*
X975224Y722126D01*
X971415D01*
X969511Y724030D01*
Y725935D01*
X971415Y727839D01*
X969511Y729743D01*
Y731648D01*
X971415Y727839D02*
X975224D01*
X980937Y731648D02*
X982841Y733552D01*
X986650D01*
X988555Y731648D01*
Y729743D01*
X986650Y727839D01*
X984746D01*
X986650D01*
X988555Y725935D01*
Y724030D01*
X986650Y722126D01*
X982841D01*
X980937Y724030D01*
X992363Y731648D02*
X994268Y733552D01*
X998076D01*
X999981Y731648D01*
Y724030D01*
X998076Y722126D01*
X994268D01*
X992363Y724030D01*
Y731648D01*
X878075Y733552D02*
X870458D01*
Y727839D01*
X874267D01*
X870458D01*
Y722126D01*
X881884Y733552D02*
X889502D01*
X885693D01*
Y722126D01*
X893311Y731648D02*
X895215Y733552D01*
X899024D01*
X900928Y731648D01*
Y729743D01*
X899024Y727839D01*
X900928Y725935D01*
Y724030D01*
X899024Y722126D01*
X895215D01*
X893311Y724030D01*
Y725935D01*
X895215Y727839D01*
X893311Y729743D01*
Y731648D01*
X895215Y727839D02*
X899024D01*
X910450Y722126D02*
Y733552D01*
X904737Y727839D01*
X912355D01*
X916163Y731648D02*
X918068Y733552D01*
X921876D01*
X923781Y731648D01*
Y724030D01*
X921876Y722126D01*
X918068D01*
X916163Y724030D01*
Y731648D01*
X418338Y623062D02*
X425956D01*
X418338Y647193D02*
X425956D01*
X422147Y651002D02*
Y643384D01*
X436115Y605918D02*
X434211Y607822D01*
X430402D01*
X428498Y605918D01*
Y598300D01*
X430402Y596396D01*
X434211D01*
X436115Y598300D01*
Y602109D01*
X432307D01*
X439924Y596396D02*
Y607822D01*
X447542Y596396D01*
Y607822D01*
X451351D02*
Y596396D01*
X457064D01*
X458968Y598300D01*
Y605918D01*
X457064Y607822D01*
X451351D01*
X413258Y673862D02*
Y666245D01*
X417067Y662436D01*
X420876Y666245D01*
Y673862D01*
X424684D02*
X428493D01*
X426589D01*
Y662436D01*
X424684D01*
X428493D01*
X434206D02*
Y673862D01*
X441824Y662436D01*
Y673862D01*
X445633Y662436D02*
Y673862D01*
X451346D01*
X453250Y671958D01*
Y668149D01*
X451346Y666245D01*
X445633D01*
X449441D02*
X453250Y662436D01*
X457059D02*
Y670053D01*
X460868Y673862D01*
X464676Y670053D01*
Y662436D01*
Y668149D01*
X457059D01*
X468485Y673862D02*
Y662436D01*
X472294Y666245D01*
X476103Y662436D01*
Y673862D01*
X735756Y619758D02*
Y611294D01*
X737449Y609602D01*
X740834D01*
X742527Y611294D01*
Y619758D01*
X752684Y609602D02*
X745913D01*
X752684Y616373D01*
Y618066D01*
X750991Y619758D01*
X747606D01*
X745913Y618066D01*
D18*
X606214Y471061D02*
X604521Y472753D01*
X601136D01*
X599443Y471061D01*
Y469368D01*
X601136Y467675D01*
X604521D01*
X606214Y465982D01*
Y464290D01*
X604521Y462597D01*
X601136D01*
X599443Y464290D01*
X616371Y472753D02*
X609600D01*
Y462597D01*
X616371D01*
X609600Y467675D02*
X612985D01*
X619756Y462597D02*
Y472753D01*
X624835D01*
X626528Y471061D01*
Y467675D01*
X624835Y465982D01*
X619756D01*
X623142D02*
X626528Y462597D01*
X629913Y472753D02*
X633299D01*
X631606D01*
Y462597D01*
X629913D01*
X633299D01*
X638377D02*
Y469368D01*
X641763Y472753D01*
X645148Y469368D01*
Y462597D01*
Y467675D01*
X638377D01*
X648534Y472753D02*
Y462597D01*
X655305D01*
X668847Y472753D02*
Y462597D01*
X673926D01*
X675618Y464290D01*
Y471061D01*
X673926Y472753D01*
X668847D01*
X685775D02*
X679004D01*
Y462597D01*
X685775D01*
X679004Y467675D02*
X682390D01*
X689161Y472753D02*
Y462597D01*
X694239D01*
X695932Y464290D01*
Y465982D01*
X694239Y467675D01*
X689161D01*
X694239D01*
X695932Y469368D01*
Y471061D01*
X694239Y472753D01*
X689161D01*
X699317D02*
Y464290D01*
X701010Y462597D01*
X704396D01*
X706089Y464290D01*
Y472753D01*
X716245Y471061D02*
X714553Y472753D01*
X711167D01*
X709474Y471061D01*
Y464290D01*
X711167Y462597D01*
X714553D01*
X716245Y464290D01*
Y467675D01*
X712860D01*
X847765Y441788D02*
X846072Y443481D01*
X842687D01*
X840994Y441788D01*
Y440095D01*
X842687Y438402D01*
X846072D01*
X847765Y436710D01*
Y435017D01*
X846072Y433324D01*
X842687D01*
X840994Y435017D01*
X851151Y443481D02*
X857922D01*
X854536D01*
Y433324D01*
X861307D02*
Y443481D01*
X864693Y440095D01*
X868079Y443481D01*
Y433324D01*
X871464Y441788D02*
X873157Y443481D01*
X876543D01*
X878235Y441788D01*
Y440095D01*
X876543Y438402D01*
X874850D01*
X876543D01*
X878235Y436710D01*
Y435017D01*
X876543Y433324D01*
X873157D01*
X871464Y435017D01*
X888392Y433324D02*
X881621D01*
X888392Y440095D01*
Y441788D01*
X886699Y443481D01*
X883314D01*
X881621Y441788D01*
X908706D02*
X907013Y443481D01*
X903627D01*
X901934Y441788D01*
Y440095D01*
X903627Y438402D01*
X907013D01*
X908706Y436710D01*
Y435017D01*
X907013Y433324D01*
X903627D01*
X901934Y435017D01*
X912091Y443481D02*
Y433324D01*
X915477Y436710D01*
X918862Y433324D01*
Y443481D01*
X922248D02*
Y433324D01*
X927326D01*
X929019Y435017D01*
Y441788D01*
X927326Y443481D01*
X922248D01*
D19*
X523240Y430530D02*
D03*
M02*
