M48
;Layer_Color=9474304
;FILE_FORMAT=4:4
METRIC,LZ
;TYPE=PLATED
T01F00S00C0.1016
;TYPE=NON_PLATED
%
T01
X005461Y0042291
X006223Y0044069
X006477
X006604Y00418084
X006985Y0044069
X0070358Y0049022
X0069977Y00509269
X00710262Y00519439
X00712304Y00525813
X00719811Y00522232
X007239Y0052578
X00717304Y00516964
X00709811Y00537178
X00703393Y00538182
X00696804Y00537958
X00697305Y00529229
X00684554Y00536528
X00679083Y00525025
X00669006
X00667765Y00514327
X00663734Y00505691
X00641873Y00509298
X00643373Y00514327
X00632873Y00509298
X00619731
X00608069
X00599069
X00600669Y00527893
Y00536893
X00623755Y00537178
Y00530678
X00652455
X00576169Y00535663
X0056096Y00537913
X0054696Y00537913
X0053975Y005207
X00737304Y00536046
X00745304Y00536046
X00762654Y00537958
X00771464Y00524148
X00774702Y00453392
X00787402
X00812802
X00812803Y00422912
X00787402
X00774703
X00762002
X00762002Y00453392
X0053244Y00561658
Y00577658
X00515968Y00579682
X00508084Y00577658
Y00553008
X00511128Y00602701
X0050908Y00619441
Y00628441
X0051014Y0064933
X00511543Y00659455
X0052414Y0064933
X00538014Y00648983
X00538543Y00659455
X00532043Y00677056
X00518043
X00517931Y00719748
X00532155
Y00755737
X00517931Y0075581
X00519693Y00614441
X00538966Y00605383
X0053869Y00590158
X0053887Y00633441
X0045339Y006223
Y006477
X00540279Y00627709
X0055614Y00624281
X00554148Y00614633
X00562148
X00564698Y00607933
X00558148Y00597403
X00551598Y00598833
X0054669Y00590158
X0055671Y00585218
X0056521
X00575169Y00582721
X00574939Y00591266
X00591919Y00580218
X00600669Y00573496
Y00564496
X00609919Y00554663
Y00546663
X00623755Y00543678
X00632169Y00555706
X00620669Y00568308
X00609919Y00583266
Y00591266
X0062667Y00589807
Y00594807
X00643189Y00597807
X00643189Y00589807
X00660554Y00588808
X00658364Y00576058
Y00565538
X00675074
X00676554Y00551258
X00664762Y00550279
X00697304Y00553308
Y00563308
X00690735Y00560644
X00704804Y00566808
X00712804
X00722304Y00568308
Y00573308
X00727304
Y00568308
X00733717Y00570815
X00739811
X00737304Y00578308
Y00583308
X00732304
X00730828Y00590808
X00734804Y00595808
X00734256Y00603768
X00724171Y00603919
X00724924Y00610808
Y00619808
X00717531Y00613397
X00709084Y00606902
X00712304Y00593308
Y00583308
Y00578308
X00704304Y00576808
X00697304Y00578308
X00682574Y00576058
X00719811Y00585815
X00742304Y00593308
X00747304
Y00588308
X00752304Y00598308
X007534Y00601833
X00752304Y00606308
X00760022Y00609307
X0075692Y00619808
X0074226Y00613397
X00736765Y0061676
X00705114Y00619808
X00648205Y00619259
X00637955Y00629855
X00624984Y00629826
X00620669Y00611308
X00607955Y00621855
X0058291Y00622993
X0056614Y00627329
X0056114Y00641281
X0055614
X00576834Y00701943
X00576834Y00718943
X00569084Y00714693
X00585834Y00710443
X00596236Y00703375
X00596236Y00694875
X00618705Y00698425
Y00689575
X00624955Y00679255
X00631455
X00637705Y00689575
Y00697575
X00649113Y00697515
X00649113Y0070564
X00658455Y00716115
X00666393Y00713815
X00680643Y00707265
X00686893Y00695296
Y00719516
X00694893
X00704913Y00714576
X00713413
X00720747Y00714553
X00721663Y00706575
X00726893Y00698344
X00733393Y00703121
X00739893Y00712016
X00739893Y00717601
X0075692Y00717432
Y00709432
X00773415Y0071721
X00787639
Y00755827
X00773415
X00739893Y00684673
X00718894Y00683649
X00713413Y00685015
X00704913
X00706393Y00677974
X00691142Y00667974
X00675893Y00677974
X00667893
X00657563Y00681015
X00619205Y00716115
X00660377Y00762792
X00660554Y00604808
X00773719Y00605974
X00781219Y00592294
Y00587294
X00773721Y00583351
X00766274Y00581028
X00758337Y00583308
X00755278Y00580815
X00759324Y00575815
X00758997Y00568067
X00749797Y00565815
X00737304Y00563308
Y00558308
X00736765Y00545825
X00747304Y00543308
X00769633Y00560463
X00781221Y00567255
X00883541Y00569342
Y00560198
X00886103Y0054632
X00907669Y00555626
Y0056477
Y00573914
Y00583058
X00905496Y00596329
X00887812Y00596294
X0088704Y00591597
X0088303Y00586281
X00882127Y00581674
X00883541Y00578486
X00883794Y00600456
X00887373Y00601472
X00883794Y00615709
X00880746Y00619759
X00900938Y0061976
X00916178
X00932564Y00596299
X00907669Y0068796
Y00697104
Y00706248
Y00715392
X00884486Y00715158
X00884822Y00706234
X00883541Y00692532
Y00683388
X00575689Y00554663
Y00545913
X0056521Y00555658
X0055671
X00973457Y00560198
Y00551054
Y00569342
Y00578486
X00983175Y00596325
X00988674Y00606287
X00998674
X01008674
X01005269Y00600344
X00999175Y00592828
X00997585Y00583058
Y00573914
Y0056477
Y00555626
X01000887Y00547978
X01007175Y00546266
X01014539Y00546902
X01018865Y0054448
X01026864
X01024765Y00551054
Y00560198
Y00569342
Y00578486
X0102749Y00592567
X01033676Y00606287
X01038677
X01043676
X01048677Y00596329
X01059772Y00596795
X01048893Y00583058
Y00573914
Y0056477
Y00555626
X00995486Y0054448
X00993676Y00655192
X00998674
X01003676
X01008674
X01013676
X01018677
X01023676
X01028677
X01024765Y00683388
Y00692532
Y00701676
Y0071082
X01048893Y00706248
Y00697104
Y0068796
Y00715392
X00997585
Y00706248
Y00697104
Y0068796
X00973457Y00692532
Y00683388
Y00701676
Y0071082
X01114681
Y00701676
Y00692532
Y00683388
X01138809Y0068796
Y00697104
Y00706248
Y00715392
X01129752Y00599226
X01111972Y00599226
X01094192Y00599226
X01114681Y00578486
Y00569342
Y00560198
Y00551054
X01138809Y00555626
Y0056477
Y00573914
Y00583058
M30
