M48
;Layer_Color=9474304
;FILE_FORMAT=4:4
METRIC,LZ
;TYPE=PLATED
T01F00S00C0.1016
;TYPE=NON_PLATED
%
T01
X005461Y0042291
X006223Y0044069
X00613045Y00451361
X006477Y0044069
X006985
X0069977Y00509269
X0068326Y00509269
X00679083Y00525025
X00669006
X00667765Y00514327
X00643373
X00632873Y00509298
X00619731
X00623755Y00524178
Y00530678
Y00537178
X00600669Y00536893
Y00527893
X00599069Y00509298
X00576169Y00535663
X0056096Y00537913
X0054696Y00537913
X0053975Y005207
X00652455Y00530678
X00684554Y00536528
X00697305Y00529229
X00703393Y00538182
X00709811Y00537178
X00712304Y00525813
X00710262Y00519439
X00717304Y00516964
X00719811Y00522232
X007239Y0052578
X00737304Y00536046
X00762654Y00537958
X00771464Y00524148
X00774702Y00453392
X00787402
X00812802
X00812803Y00422912
X00787402
X00774703
X00762002
X00762002Y00453392
X00538966Y00605383
X0053887Y00633441
X00538014Y00648983
X00538543Y00659455
X00532043Y00677056
Y00691056
X00518043
Y00677056
X00511543Y00659455
X0051014Y0064933
X0052414
X0050908Y00628441
Y00613345
X00513597Y00614441
X00511128Y00602701
X0051292Y0058273
X0045339Y006223
Y006477
X00517931Y00719748
X00532155
X00569084Y00714693
X00568584Y00705866
X00576834Y00701943
X00576834Y00718943
X00585834Y00710443
X00596236Y00703375
X00596236Y00694875
X00606486
X00607955Y00681855
Y00673855
X00624955Y00679255
X00631455
X00638117Y00677715
X00637705Y00689575
X00644033Y00689067
X00649113Y0070564
X00637705Y00715775
X00619205Y00716115
X00601437Y00720375
X00618705Y00689575
X00624984Y00629826
X00637955Y00629855
X00648205Y00625355
X00657205
X00660554Y00604808
Y00588808
X00658364Y00576058
Y00565538
X00675074
X00676554Y00551258
X00664762Y00550279
X00669004Y00543258
X00697304Y00553308
Y00563308
X00690735Y00560644
X00682574Y00576058
X00697304Y00578308
X00712304
Y00583308
Y00593308
X00719811Y00585815
X00732304Y00583308
X00737304
Y00578308
X00739811Y00570815
X00733717
X00727304Y00573308
X00722304
Y00568308
X00727304
X00737304Y00563308
Y00558308
X00742304Y00548308
Y00543308
X00747304
X00749797Y00565815
X00758997Y00568067
X0076597Y00568004
Y00576004
X00766274Y00581028
X0076597Y00588178
Y00596178
X00752304Y00598308
X00747304Y00601833
Y00593308
X00742304
X00734804Y00595808
X00734256Y00603768
X00724171Y00603919
X00724924Y00610808
Y00619808
X00717531Y00613397
X00709084Y00606902
X00705114Y00619808
X00696614
X00736765Y0061676
X0074226Y00613397
X0075692Y00619808
X00760022Y00609307
X00773719Y00605974
X00781219Y00597294
Y00592294
Y00587294
X00781221Y00572255
Y00567255
X00773721Y00572255
Y00577255
X00759324Y00575815
X00758337Y00583308
X00755278Y00580815
X00747304Y00588308
X00769633Y00560463
X00712304Y00558308
Y00563308
X00640169Y00555706
X00632169
X00623755Y00543678
X00609919Y00546663
Y00554663
X00600669Y00564496
Y00573496
X00591919Y00580218
X00575169Y00582721
X00574939Y00591266
X00558148Y00597403
X00551598Y00598833
X00554148Y00614633
X00562148
X00564698Y00607933
X0055614Y00624281
X00540279Y00627709
X0055183Y00641281
X0056114
X0058291Y00622993
X00607955Y00621855
Y00629855
X00620669Y00611308
X0062667Y00594807
X00609919Y00591266
Y00583266
X00620669Y00568308
X00575689Y00554663
Y00545913
X00543642Y0058711
X00666393Y00713815
X00697941Y00715775
X00720747Y00714553
X00739893Y00717601
X0075692Y00717432
Y00709432
X00768639Y0069971
X00782639
X00787639Y0071721
X00773415
X00733393Y00703121
X00726893Y00698344
X00718894Y00683649
X00706393Y00677974
X00739893Y00684673
X00883541Y00683388
Y00692532
X00884822Y00706234
X00884486Y00715158
X00907669Y00715392
Y00706248
Y00697104
Y0068796
X00880746Y00619759
X00887373Y00601472
X0089112Y00602281
X0089541Y00602967
X00887812Y00596294
X00883541Y00578486
Y00569342
Y00560198
X00886103Y0054632
X00907669Y00555626
Y0056477
Y00573914
Y00583058
X00932564Y00596299
X00983175Y00596325
X00988674Y00606287
X00998674
X01008674
X01005269Y00600344
X00997585Y00583058
Y00573914
Y0056477
Y00555626
X00973457Y00560198
Y00551054
Y00569342
Y00578486
X01024765
Y00569342
Y00560198
Y00551054
X01048893Y00555626
Y0056477
Y00573914
Y00583058
X01048677Y00596329
X01043676Y00606287
X01038677
X01033676
X01094192Y00599226
X01111972Y00599226
X01129752Y00599226
X01138809Y00583058
Y00573914
Y0056477
Y00555626
X01114681Y00560198
Y00551054
Y00569342
Y00578486
Y00683388
Y00692532
Y00701676
Y0071082
X01138809Y00706248
Y00697104
Y0068796
Y00715392
X01048893
Y00706248
Y00697104
Y0068796
X01024765Y00692532
Y00701676
Y0071082
Y00683388
X00997585Y0068796
Y00697104
Y00706248
Y00715392
X00973457Y0071082
Y00701676
Y00692532
Y00683388
M30
