M48
;Layer_Color=9474304
;FILE_FORMAT=4:4
METRIC,LZ
;TYPE=PLATED
T01F00S00C0.1016
;TYPE=NON_PLATED
%
T01
X005461Y00419862
X006223Y00443738
X006477
X006604Y00415036
X006985Y00443738
X00692088Y00483806
X0070358Y00493268
X0069977Y00512317
X0069211Y00505917
X00676035Y00511454
Y00525025
X00672054
Y00534115
X00681506Y00536528
X00693756Y00537958
X00694257Y00529229
X007239Y00535134
Y00522732
X00737304Y00539094
X00748352Y00536046
X00765702Y00537958
X00769308Y00526303
X00758444Y00509824
X00762002Y0045644
X00774702
X00787402
X00812802
X00812803Y00419865
X00787402
X00774703
X00762002
X00663734Y00508739
X00656709Y00511454
X00644921Y00509298
X00635921
X00616683
X00611117
X00602117
X00603717Y00527893
X00623755Y0052763
X00623763Y00519379
X00619772Y00516964
X00583967Y00514327
X00583669Y00524178
X00576169Y00538711
X00542798Y005207
X00655503Y00530678
X00664717Y00522232
X00885896Y00530782
X00894845Y00533253
X00904347Y0053451
X00535488Y00561658
Y00577658
X0053869Y0058711
X00515968Y0058273
X00508084Y00580706
X00511128Y00599654
X0050908Y00616393
X00516645Y00614441
X00512127Y00628441
X00513188Y0064933
X00511543Y00656407
X00527188Y0064933
X00538543Y00656407
X00532043Y00674008
X00518043
X00456438Y006477
Y006223
X00510239Y00550852
X00552558Y00549337
X0055671Y0055261
X0056521
X00575689Y00557711
X00578737Y00545913
X0056096Y00540961
X0054696Y00540961
X00549738Y00559658
X0054669Y0058711
X0055671Y00588266
X00558148Y00594355
X00560399Y00603485
X00557196Y00614633
X00565196
X0056614Y00624281
X0055614Y00627329
X00542434Y00625553
X00541918Y00633441
X00541062Y00648983
X00553985Y00643436
X00564188Y00641281
X00585958Y00622993
X00588419Y00608312
X00583669Y00607933
X00577987Y00591266
X00578217Y00582721
X0056521Y00588266
X00542014Y00605383
X00607955Y00618807
X00620669Y00614356
X00634061Y00609423
X00628825Y00596962
X00623622Y00589807
X00612967Y00591266
X00609919Y00580218
X00600669Y00576544
X00603717Y00564496
X00609919Y00557711
Y00543615
X00600669Y00539941
X00623755Y00540226
X00629239Y00551258
X00629121Y00555706
X00623622Y00558277
X00620669Y00571356
X00655316Y00576058
Y00565538
X00672026
X00673506Y00551258
X0068858Y00558489
X00695148Y00561152
Y00555463
X00702304Y00549958
X00713486Y00545758
X00715304Y00558308
X00720148Y00566152
Y00575463
X00719811Y00582767
X00729256Y00583308
X00729459Y00575463
X00737304Y0057526
X00733717Y00567767
X00734256Y00563308
Y00558308
X00729459Y00566152
X00712804Y00569856
X00712304Y0057526
X00704304Y0057376
X00704804Y0056376
X00712304Y00586356
Y00596356
X00717807Y00596201
X00724479Y00593276
X0072778Y00590808
X00737304Y00586356
X00745148Y00586152
X00755278Y00577767
X00761385Y00583308
X00766274Y00584076
X00765657Y00575815
X0077335Y00570815
X00777574Y00568004
X00781221Y00564207
X00769633Y00563511
X00770229Y00549402
X0075692Y00553308
X00747304Y00546356
X00732447Y00545825
X00752845Y00565815
X00755352Y00598308
Y00606308
X0076006Y00613397
X0075692Y0061676
X00745308Y00613397
X00727972Y00610808
Y00619808
X00708162Y00619808
X0070179Y00603919
X00657506Y00604808
Y00588808
X00658356Y00585103
X00646237Y00589807
X00646237Y00597807
X00637955Y00632903
X00628032Y00629826
X00624955Y00682303
X00631455
X00634657Y00689575
X00640753Y00697575
X00646065Y00697515
X00652161Y0070564
X0065161Y00713959
X00655407Y00716115
X00663345Y00713815
X00677595Y00707265
X00683845Y00695296
X00686893Y00716468
X00697941Y00719516
X00704913Y00711527
X00713413
X00720747Y00717601
X00724711Y00706575
X00726893Y00695296
X00716738Y00681494
X00713413Y00681967
X00704913
X00703345Y00677974
X0069419Y00667974
X00675893Y00674926
X00667893Y00681022
X00657563Y00684063
X00618705Y00692623
X00615657Y00698425
X00613279Y00710443
X00616157Y00716115
X00596236Y00700327
X00599284Y00694875
X00576834Y00704991
X00576834Y00715895
X00572132Y00714693
X00588419Y00562177
X00647705Y00547067
X00680418Y00573902
X00773721Y00586399
X00781219Y00584246
X00778171Y00592294
X00773719Y00601634
X00770671Y00605974
X00766274Y00608397
X0078422Y0065975
Y0067375
X00739893Y00681625
Y00708968
X0075692Y00706384
X00864681Y00709168
X00866836Y00724275
X00882331Y00717313
X00882667Y00708389
X00881386Y00694687
X00880493Y00683388
X00879335Y0067375
X00880746Y00659714
Y00615709
Y00600456
X00878486Y00578464
X00881386Y00576331
X00883541Y00566294
Y0055715
X00886103Y00543272
X00910717Y00555626
Y0056477
Y00573914
Y00583058
X00927758Y00585557
Y00576413
Y00567269
Y00558125
X00927427Y00549125
X00929517Y00596299
X00919064Y00602281
X00916016Y00613329
X0091313Y0061976
X0089789
X00902448Y00596329
X00926113Y00613329
X00924928Y00675912
X00925259Y00684912
Y00694056
Y007032
Y00712344
X00910717Y00715392
Y00706248
Y00697104
Y0068796
X00884998Y00734552
X00792327Y00553308
X00953368Y00553553
Y00562697
Y00571841
X00955867Y00582021
X00970409Y00578486
Y00569342
Y00560198
Y00551054
X0099333Y00542325
X01000887Y0054493
X01007175Y00543218
X01014539Y00543854
X0102102Y00542325
X0102902
X01021717Y00551054
Y00560198
Y00569342
Y00578486
X01025335Y00590411
X01035831Y00604132
X01040832
X01045831
X01051725Y00596329
X01056724Y00596795
X01051941Y00583058
Y00573914
Y0056477
Y00555626
X01068638Y00557781
Y00566925
Y00576069
X01066483Y00586106
X01097091Y00581534
X01094936Y00571497
Y00562353
Y00553209
X01111633Y00551054
Y00560198
Y00569342
Y00578486
X01111972Y00596178
X01129752Y00596178
X01144996Y00593713
X01141857Y00583058
Y00573914
Y0056477
Y00555626
X01145881Y00550174
X01156399Y00567818
X01155129Y00578486
X01094192Y00596178
X01051176Y00618787
Y00623788
Y00628786
Y00633788
Y00638789
Y00643788
Y00648789
Y00653788
Y00658789
X01056724Y00661288
Y00666287
Y00656287
Y00651288
Y00646287
Y00641288
Y00636287
Y00631286
Y00626287
X01046175Y00663788
X01041176
X01036175
X01033676Y00669335
X01028677
X01023676
X01018677
X01013676
X01008674
X01003676
X00998674
X00993676
X00988674
X00983676
X00981176Y00663788
X00986175
X00976519Y00664132
X00976175Y00658789
Y00653788
Y00648789
Y00643788
Y00638789
Y00633788
Y00628786
Y00623788
X0097152Y00624132
X00970628Y00631286
Y00636287
Y00641288
Y00646287
Y00651288
Y00656287
Y00661288
Y00666287
X00970409Y00683388
Y00692532
Y00701676
Y0071082
X00953712Y00708665
X00953712Y00699521
Y00690377
X00955867Y0068034
X00999175Y0067634
X01000633Y0068796
Y00697104
Y00706248
Y00715392
X01003175Y00729324
X01011175Y00729514
X0102133Y00728432
X0102933
X0103733
X01051941Y00715392
Y00706248
Y00697104
Y0068796
X01066483Y00684912
Y00694056
Y007032
Y00712344
X01094936Y00708665
X0109508Y00699521
X01094936Y00690377
Y00681233
X01111633Y00683388
Y00692532
Y00701676
Y0071082
X01141857Y00706248
Y00697104
Y0068796
X01147151Y00676412
X01156399Y00693912
X01156399Y00703056
X01149307Y00721579
X01141857Y00715392
X01021717Y0071082
Y00701676
Y00692532
Y00683388
X01023676Y0065824
X01018677
X01013676
X01008674
X01003676
X00998674
X00993676
X01028677
X01038677Y00669822
X01043676
X01048677
X01006519Y00604132
X01002221Y00600344
X00999175Y00595876
X00996519Y00604132
X00986519Y00608442
X00986223Y00596325
X01000633Y00583058
Y00573914
Y0056477
Y00555626
X00976175Y00618787
X00984127Y00726276
X0099302Y00728432
M30
