M48
;Layer_Color=9474304
;FILE_FORMAT=4:4
METRIC,LZ
;TYPE=PLATED
T01F00S00C0.1016
;TYPE=NON_PLATED
%
T01
X00991175Y0053217
X00999175
X01007175
X01015175
X01023175
X01031175
X00900812Y0053451
X00891311Y00533253
X00883541Y00533229
X00783325Y00537958
X00771464Y00524148
X00745304Y00536046
X00737304Y00536046
X007239Y0052578
X00726431Y00518285
X0073025Y0050927
X00722881Y00508965
X0069977Y00509269
X0069211Y00508965
X00678294Y00505671
X00663734Y00505691
X00654554Y00509298
X00641873
X00632873
X00627454Y00506017
X00619731Y00509298
X00608069
X00599069
X00583967
X00600669Y00527893
Y00536893
X0056096Y00537913
X0054696Y00537913
X0053975Y005207
X005461Y0042291
X006223Y0044069
X006477
X006604Y00418084
X006985Y0044069
X00712554Y0045644
X00721153Y00469082
X00728109Y00463621
X00762002Y00453392
X00774702
X00787402
X007874Y00469084
X00812802Y00472713
X00812802Y00453392
X00812803Y00422912
X00787402
X00774703
X00762002
X0070358Y0049022
X00692088Y00486854
X00678294Y00475437
X00661669Y00522232
X006477Y00515478
X00684554Y00536528
X00696804Y00537958
X00697305Y00529229
X0053244Y00561658
Y00577658
X00515968Y00579682
X00508084Y00577658
Y00561008
Y00553008
X00511128Y00602701
X0050908Y00619441
Y00628441
X0051014Y0064933
X00511543Y00659455
X0052414Y0064933
X00538014Y00648983
X00538543Y00659455
X00532043Y00677056
X00518043
X00519693Y00614441
X00538966Y00605383
X0053869Y00590158
X0045339Y006223
Y006477
X00544966Y00633441
X00544589Y00623398
X00544966Y00614441
X00562148Y00614633
X0056114Y00624281
X0055614
X0056614Y00627329
X0056114Y00641281
X0055614
X0058291Y00622993
X00607955Y00621855
X00620669Y00611308
X0062667Y00594807
Y00589807
Y00584807
X0063417Y00594807
X00643189Y00597807
X00643189Y00589807
X00660554Y00588808
X00658364Y00576058
Y00565538
X00675074
X00676554Y00551258
X00690735Y00545958
X00697304Y00553308
Y00563308
X00704804Y00566808
X00712804
X00722304Y00568308
Y00573308
X00727304
Y00568308
X00737304Y00563308
Y00558308
Y00578308
Y00583308
X00732304
X00730828Y00590808
X00712304Y00593308
Y00583308
Y00578308
X00704304Y00576808
X00708594Y00559018
X00710438Y00545758
X00729399Y00545825
X00747304Y00543308
X00773277Y00549402
X0077065Y00554589
X00775505Y0057297
X00781219Y00592294
X00772826Y0060813
X00752304Y00606308
Y00598308
X00758337Y00583308
X0075692Y00619808
X0074226Y00613397
X00724924Y00610808
Y00619808
X00705114Y00619808
X00706393Y00677974
X00704913Y00685015
X00713413
X00718894Y00683649
X00739893Y00684673
X00726893Y00698344
X00721663Y00706575
X00720747Y00714553
X00713413Y00714576
X00704913
Y00705575
Y00694016
X00686893Y00695296
X00694893Y00704016
Y00719516
X00686893
X00680643Y00707265
X00666393Y00713815
X00658455Y00716115
X00649455
X00649113Y0070564
X00649113Y00697515
X00637705Y00697575
Y00689575
X00631455Y00679255
X00618705Y00689575
Y00698425
X00619205Y00716115
X00596236Y00703375
X00596236Y00694875
X00576834Y00701943
X00576834Y00718943
X00569084Y00714693
X00657563Y00689016
Y00681015
X00667893Y00677974
X00675893
X00691142Y00667974
X00637955Y00629855
X00624984Y00629826
X00609919Y00591266
Y00583266
X00600669Y00573496
Y00564496
X00609919Y00554663
Y00546663
X00632169Y00555706
X00575689Y00554663
Y00545913
X0056521Y00555658
X0055671
Y00564658
Y00576218
Y00585218
X0056521
X00575169Y00582721
X00574939Y00591266
X00558148Y00597403
X0054669Y00590158
Y00574658
Y00559658
X00682574Y00576058
X00660554Y00604808
X00779902Y0065975
Y0067375
X0075692Y00709432
X00739893Y00712016
X00864681Y0071412
Y0072212
Y0073012
X0087193Y00724782
Y00715782
X00884486Y00715158
X00884822Y00706234
X00883541Y00692532
Y00683388
X00882029Y00671056
X0089112Y00669136
Y00660136
X00907669Y0068796
Y00697104
Y00706248
Y00715392
X00925259Y00715392
X00933259
Y00706248
X00925259
Y00697104
X00933259
Y0068796
X00925259
X00924928Y0067896
X00932928
X00932564Y00621829
X00923064Y00613329
X00919064
X00923064Y00609329
X00919064Y00605329
X00932564Y00596299
X00933259Y00583058
X00925259
Y00573914
X00933259
Y0056477
X00925259
Y00555626
X00933259
X00932928Y00546626
X00924928
X00911509Y00546626
X00907669Y00555626
Y0056477
Y00573914
Y00583058
X00883541Y00578486
Y00569342
Y00560198
X00886103Y0054632
X00792327Y0055026
X00864681Y0070612
X0087395Y00734552
X0088195
X00947867Y0071082
X00955867
Y00701676
X00947867
Y00692532
X00955867
Y00683388
X00947867
X00973457Y00683388
Y00692532
Y00701676
Y0071082
X00997585Y00706248
Y00715392
X00995175Y00726276
Y00734276
X01003175
X01011175
Y00726466
X01019175Y00726276
Y00734276
X01027175
Y00726276
X01035175
Y00734276
X01048893Y00715392
Y00706248
Y00697104
Y0068796
X01066483Y0068796
X01074483
Y00697104
X01066483
Y00706248
X01074483
Y00715392
X01066483
X01089091Y0071082
X01097091
X01097235Y00701676
X01089091Y00701676
Y00692532
X01097091
Y00683388
X01089091Y00683388
X01114681Y00683388
Y00692532
Y00701676
Y0071082
X01138809Y00706248
Y00697104
Y0068796
X01147151Y0067946
X01155151
X01156399Y0068896
Y0069696
X01156399Y00706104
Y00714104
X01155151Y00723748
X01147151
X01138809Y00715392
X01024765Y0071082
Y00701676
Y00692532
Y00683388
X01023676Y00666287
X01018677
Y00661288
X01023676
X01028677
Y00666287
X01033676
Y00661288
X01038677
Y00666287
X01043676
Y00661288
X01048677
Y00666287
X01053676
Y00661288
Y00656287
Y00651288
X01048677
Y00656287
Y00646287
X01053676
Y00641288
X01048677
Y00636287
X01053676
Y00631286
X01048677
Y00626287
X01053676
Y00621286
X01048677
Y00616287
X01053676
Y00606287
X01048677Y00611286
X01043676
Y00606287
X01038677
Y00611286
X01033676
Y00606287
X01028677
Y00611286
X01023676
X01018677
X01013676
X01008674
Y00606287
X01005269Y00600344
X01003676Y00611286
X00998674
Y00606287
X00993676Y00611286
X00988674
Y00606287
X00991175Y00596294
X00983175Y00596325
X00978674Y00611286
X00973676
X00978674Y00616287
Y00621286
X00973676
Y00626287
X00978674
Y00631286
X00973676
Y00636287
X00978674
Y00641288
X00973676
Y00646287
X00978674
Y00651288
X00973676
Y00656287
X00978674
Y00661288
X00973676
Y00666287
X00978674
X00983676
Y00661288
X00988674
Y00666287
X00993676
X00998674
Y00661288
X00993676
X01003676
Y00666287
X01008674
Y00661288
X01013676
Y00666287
X00999175Y00679388
X00997585Y0068796
Y00697104
X01003175Y00726276
X00987175
Y00734276
X00999175Y00592828
X00997585Y00583058
Y00573914
Y0056477
Y00555626
X00999175Y0054017
X00991175
X01007175
X01015175
X01023175
X01031175
X01024765Y00551054
Y00560198
Y00569342
Y00578486
X0102318Y00588256
X0101518
X01040677Y00596299
X01048677Y00596329
X01048893Y00583058
Y00573914
Y0056477
Y00555626
X01066483Y00555626
X01074483
Y0056477
X01066483
Y00573914
X01074483
Y00583058
X01066483
X01069464Y00595536
X01064964Y00599036
X01094192Y00599226
X01090464Y00609036
X01093964Y00613536
X01111972Y00599226
X01129752Y00599226
X01147151Y00591558
X01155151
X01156399Y00582058
X01155129Y00574058
X01156399Y0056477
Y00557058
X01153881Y00547126
X01145881
X01138809Y00555626
Y0056477
Y00573914
Y00583058
X01114681Y00578486
Y00569342
Y00560198
Y00551054
X01097091Y00551054
X01089091
Y00560198
X01097091
Y00569342
X01089091
Y00578486
X01097091
X00973457Y00578486
Y00569342
Y00560198
Y00551054
X00955867Y00551054
X00947867
Y00560198
X00955867
Y00569342
X00947867
Y00578486
X00955867
X00955675Y00606287
M30
