M48
;Layer_Color=9474304
;FILE_FORMAT=4:4
METRIC,LZ
;TYPE=PLATED
T01F00S00C0.1016
;TYPE=NON_PLATED
%
T01
X005461Y00419862
X006223Y00443738
X00616093Y00451361
X006477Y00443738
X006604Y00415036
X006985Y00443738
X0069977Y00512317
X00707214Y00519439
X00714256Y00516964
X00716763Y00522232
X007239Y00522732
X00712304Y00528861
X00709811Y0053413
X00703393Y00535134
X00693756Y00537958
X00694257Y00529229
X00681506Y00536528
X00676035Y00525025
X00672054
X00664717Y00514327
X00663734Y00508739
X00635921Y00509298
X00640325Y00514327
X00616683Y00509298
X00602117
X00603717Y00527893
X00623755Y0052763
X00655503Y00530678
X00576169Y00538711
X00542798Y005207
X00737304Y00539094
X00748352Y00536046
X00765702Y00537958
X00769308Y00526303
X00774702Y0045644
X00787402
X00812802
X00812803Y00419865
X00787402
X00774703
X00762002
X00762002Y0045644
X00535488Y00561658
Y00577658
X0053869Y0058711
X00515968Y0058273
X00511128Y00599654
X0050908Y00616393
X00516645Y00614441
X00512127Y00628441
X00513188Y0064933
X00511543Y00656407
X00527188Y0064933
X00538543Y00656407
X00532043Y00674008
X00518043
X00521091Y00691056
X00514883Y00719748
X00529107
X00456438Y006477
Y006223
X00510239Y00550852
X0054696Y00540961
X0056096Y00540961
X0056521Y0055261
X0055671
X00575689Y00557711
X00578737Y00545913
X00600669Y00539941
X00609919Y00543615
Y00557711
X00606871Y00554663
X00603717Y00564496
X00600669Y00576544
X00594967Y00580218
X00609919
X00612967Y00591266
X00623622Y00589807
X00628825Y00596962
X00646237Y00597807
X00657506Y00604808
Y00588808
X00655316Y00576058
Y00565538
X00672026
X00673506Y00551258
X0066781Y00550279
X00672052Y00543258
X0068858Y00558489
X00695148Y00561152
Y00555463
X00704804Y0056376
X00704304Y0057376
X00712304Y0057526
X00720148Y00575463
X00719811Y00582767
X00729256Y00583308
X00729459Y00575463
X00737304Y0057526
X00742859Y00570815
X00733717Y00567767
X00734256Y00563308
Y00558308
X00729459Y00566152
X00720148
X00714459Y00560463
X00712304Y00586356
Y00596356
X00721123Y00603919
X00727972Y00610808
Y00619808
X00733717Y0061676
X00745308Y00613397
X0075692Y0061676
X00755352Y00606308
Y00598308
X00750352Y00601833
X00737304Y00603768
X00739256Y00593308
X00745148Y00591152
Y00586152
X00737304Y00586356
X0072778Y00590808
X00731756Y00595808
X00714483Y00613397
X00708162Y00619808
X00693566
X00706036Y00606902
X00695148Y00580463
X00680418Y00573902
X00640169Y00558754
X00629121Y00555706
X00626803Y00543678
X00623755Y00540226
X00620669Y00571356
Y00614356
X00607955Y00618807
X00611003Y00629855
X00628032Y00629826
X00637955Y00632903
X00648205Y00622307
X00660253Y00625355
X00657563Y00684063
X00667893Y00681022
X00644033Y00686019
X00634657Y00689575
X00631455Y00682303
X00624955
X00618705Y00692623
X00615657Y00698425
X00616157Y00716115
X00601437Y00717214
X00588882Y00710443
X00596236Y00700327
X00599284Y00694875
X00576834Y00704991
X00568584Y00702818
X00572132Y00714693
X00576834Y00715895
X00611003Y00673855
X00640753Y00697575
X00646065Y00697515
X00652161Y0070564
X00655407Y00716115
X00663345Y00713815
X00677595Y00707265
X00683845Y00695296
X00686893Y00716468
X00697941Y00719516
X00720747Y00717601
X00724711Y00706575
X00730345Y00703121
X00726893Y00695296
X00716738Y00681494
X00713413Y00681967
X00704913
X00703345Y00677974
X0069419Y00667974
X00739893Y00681625
X00736845Y00717601
X0075692Y0072048
Y00706384
X0077851Y0069977
X00773415Y00720258
X00787639
X00882331Y00717313
X00882667Y00708389
X00881386Y00694687
X00880493Y00683388
X00910717Y0068796
Y00697104
Y00706248
Y00715392
X0091313Y0061976
X0089789
X00883794Y00619759
X00880746Y00615722
Y00600469
X00884585Y00603993
X00884764Y00596294
X0089112Y00598478
X0089541Y00599197
X00902448Y00596329
X00910717Y00583058
Y00573914
Y0056477
Y00555626
X00883541Y0055715
Y00566294
X00881386Y00576331
X00886103Y00543272
X00929517Y00596299
X00783336Y00600456
X00778171Y00592294
X00781219Y00584246
X00783336Y00576085
X00778173Y00572255
X00781221Y00564207
X00769633Y00563511
X0076597Y00564957
X00762045Y00568067
X00762372Y00575815
X00761385Y00583308
X00766274Y00584076
X00762922Y00588178
X00755278Y00577767
X00752845Y00565815
X00747304Y00546356
X00739813Y00545825
X00773721Y00580303
X00770671Y00605974
X0076307Y00609307
X00783336Y00615709
X00585958Y00622993
X0056614Y00624281
X00565196Y00614633
X00557196
X0055614Y00627329
X00542434Y00625553
X00541918Y00633441
X00541062Y00648983
X00553985Y00643436
X00564188Y00641281
X00562543Y00605778
X00553753Y00600988
X00558148Y00594355
X0054669Y0058711
X00542014Y00605383
X00577987Y00591266
X00578217Y00582721
X00970409Y00578486
Y00569342
Y00560198
Y00551054
X01000633Y00555626
Y0056477
Y00573914
Y00583058
X01002221Y00600344
X01006519Y00604132
X00996519
X00986519Y00608442
X00986223Y00596325
X01021717Y00578486
Y00569342
Y00560198
Y00551054
X01051941Y00555626
Y0056477
Y00573914
Y00583058
X01051725Y00596329
X01056724Y00596795
X01045831Y00604132
X01040832
X01035831
X01094192Y00596178
X01111972Y00596178
X01129752Y00596178
X01141857Y00583058
Y00573914
Y0056477
Y00555626
X01111633Y00560198
Y00551054
Y00569342
Y00578486
Y00683388
Y00692532
Y00701676
Y0071082
X01141857Y00706248
Y00697104
Y0068796
Y00715392
X01051941
Y00706248
Y00697104
Y0068796
X01021717Y00692532
Y00701676
Y0071082
X01000633Y00706248
Y00715392
Y00697104
Y0068796
X01021717Y00683388
X00970409
Y00692532
Y00701676
Y0071082
M30
